%
M48
M72
T01C0.0236
T02C0.0320
T03C0.0394
T04C0.0630
T05C0.1102
%
T01
X29450Y14100
X29450Y14850
X29450Y15600
X29450Y16350
X29450Y17100
X30700Y17100
X30700Y16350
X30700Y15600
X30700Y14850
X30700Y14100
X34700Y14450
X34400Y19500
X33300Y19500
X38100Y21250
X31000Y23250
T02
X32150Y24300
X33505Y23894
X33911Y25248
X36837Y24455
X38650Y25300
X37321Y25784
X37650Y14500
X39650Y14500
X33700Y14550
X31700Y14550
T03
X40850Y20750
X40850Y21600
T04
X37650Y17200
X38700Y16250
X33800Y17200
X32850Y16150
T05
X30050Y18400
X40650Y18400
X40650Y25900
X30050Y25900
M30
