G75*
%MOIN*%
%OFA0B0*%
%FSLAX24Y24*%
%IPPOS*%
%LPD*%
%AMOC8*
5,1,8,0,0,1.08239X$1,22.5*
%
%ADD10C,0.0520*%
%ADD11OC8,0.0520*%
%ADD12C,0.0160*%
%ADD13C,0.1502*%
%ADD14R,0.0591X0.0591*%
%ADD15R,0.0945X0.0945*%
%ADD16R,0.0396X0.0396*%
%ADD17C,0.0591*%
%ADD18OC8,0.0945*%
%ADD19C,0.0396*%
D10*
X031700Y014550D03*
X037650Y014500D03*
X033505Y023894D03*
X033911Y025248D03*
X032150Y024300D03*
X036837Y024455D03*
X038650Y025300D03*
X037321Y025784D03*
D11*
X039650Y014500D03*
X033700Y014550D03*
D12*
X029000Y013400D02*
X029000Y026494D01*
X029101Y026494D01*
X029286Y026571D01*
X029429Y026714D01*
X029506Y026899D01*
X029506Y027000D01*
X040994Y027000D01*
X040994Y026899D01*
X041071Y026714D01*
X041214Y026571D01*
X041399Y026494D01*
X041500Y026494D01*
X041500Y013400D01*
X029000Y013400D01*
X029000Y013414D02*
X041500Y013414D01*
X041500Y013573D02*
X029000Y013573D01*
X029000Y013731D02*
X041500Y013731D01*
X041500Y013890D02*
X030996Y013890D01*
X031004Y013897D02*
X031058Y014029D01*
X031058Y014171D01*
X031004Y014303D01*
X030903Y014404D01*
X030771Y014458D01*
X030629Y014458D01*
X030497Y014404D01*
X030396Y014303D01*
X030342Y014171D01*
X030342Y014029D01*
X030396Y013897D01*
X030497Y013796D01*
X030629Y013742D01*
X030771Y013742D01*
X030903Y013796D01*
X031004Y013897D01*
X031058Y014048D02*
X041500Y014048D01*
X041500Y014207D02*
X039979Y014207D01*
X040090Y014318D02*
X039832Y014060D01*
X039650Y014060D01*
X039650Y014500D01*
X040090Y014500D01*
X040090Y014682D01*
X041500Y014682D01*
X041500Y014524D02*
X040090Y014524D01*
X040090Y014500D02*
X039650Y014500D01*
X039650Y014500D01*
X039650Y014500D01*
X039650Y014940D01*
X039832Y014940D01*
X040090Y014682D01*
X040090Y014500D02*
X040090Y014318D01*
X040090Y014365D02*
X041500Y014365D01*
X041500Y014841D02*
X039932Y014841D01*
X039650Y014841D02*
X039650Y014841D01*
X039650Y014940D02*
X039468Y014940D01*
X039210Y014682D01*
X038029Y014682D01*
X038006Y014738D02*
X037888Y014856D01*
X037734Y014920D01*
X037566Y014920D01*
X037412Y014856D01*
X037294Y014738D01*
X037230Y014584D01*
X037230Y014416D01*
X037294Y014262D01*
X037412Y014144D01*
X037566Y014080D01*
X037734Y014080D01*
X037888Y014144D01*
X038006Y014262D01*
X038070Y014416D01*
X038070Y014584D01*
X038006Y014738D01*
X037903Y014841D02*
X039368Y014841D01*
X039210Y014682D02*
X039210Y014500D01*
X039650Y014500D01*
X039650Y014500D01*
X039650Y014500D01*
X039650Y014940D01*
X039650Y014682D02*
X039650Y014682D01*
X039650Y014524D02*
X039650Y014524D01*
X039650Y014500D02*
X039210Y014500D01*
X039210Y014318D01*
X039468Y014060D01*
X039650Y014060D01*
X039650Y014500D01*
X039650Y014365D02*
X039650Y014365D01*
X039650Y014207D02*
X039650Y014207D01*
X039321Y014207D02*
X037950Y014207D01*
X038049Y014365D02*
X039210Y014365D01*
X039210Y014524D02*
X038070Y014524D01*
X037397Y014841D02*
X034003Y014841D01*
X034120Y014724D02*
X033874Y014970D01*
X033526Y014970D01*
X033280Y014724D01*
X033280Y014376D01*
X033526Y014130D01*
X033874Y014130D01*
X034120Y014376D01*
X034120Y014724D01*
X034120Y014682D02*
X037271Y014682D01*
X037230Y014524D02*
X034120Y014524D01*
X034109Y014365D02*
X037251Y014365D01*
X037350Y014207D02*
X033950Y014207D01*
X033450Y014207D02*
X031976Y014207D01*
X031987Y014214D02*
X032036Y014263D01*
X032076Y014319D01*
X032108Y014381D01*
X032129Y014447D01*
X032140Y014515D01*
X032140Y014550D01*
X032140Y014585D01*
X032129Y014653D01*
X032108Y014719D01*
X032076Y014781D01*
X032036Y014837D01*
X031987Y014886D01*
X031931Y014926D01*
X031869Y014958D01*
X031803Y014979D01*
X031735Y014990D01*
X031700Y014990D01*
X031700Y014550D01*
X032140Y014550D01*
X031700Y014550D01*
X031700Y014550D01*
X031700Y014550D01*
X031700Y014110D01*
X031735Y014110D01*
X031803Y014121D01*
X031869Y014142D01*
X031931Y014174D01*
X031987Y014214D01*
X032100Y014365D02*
X033291Y014365D01*
X033280Y014524D02*
X032140Y014524D01*
X032120Y014682D02*
X033280Y014682D01*
X033397Y014841D02*
X032032Y014841D01*
X031700Y014841D02*
X031700Y014841D01*
X031700Y014990D02*
X031665Y014990D01*
X031597Y014979D01*
X031531Y014958D01*
X031469Y014926D01*
X031413Y014886D01*
X031364Y014837D01*
X031324Y014781D01*
X031292Y014719D01*
X031271Y014653D01*
X031260Y014585D01*
X031260Y014550D01*
X031700Y014550D01*
X031700Y014550D01*
X031700Y014550D01*
X031700Y014990D01*
X031700Y014682D02*
X031700Y014682D01*
X031700Y014550D02*
X031260Y014550D01*
X031260Y014515D01*
X031271Y014447D01*
X031292Y014381D01*
X031324Y014319D01*
X031364Y014263D01*
X031413Y014214D01*
X031469Y014174D01*
X031531Y014142D01*
X031597Y014121D01*
X031665Y014110D01*
X031700Y014110D01*
X031700Y014550D01*
X031700Y014524D02*
X031700Y014524D01*
X031700Y014365D02*
X031700Y014365D01*
X031700Y014207D02*
X031700Y014207D01*
X031424Y014207D02*
X031043Y014207D01*
X030941Y014365D02*
X031300Y014365D01*
X031260Y014524D02*
X030848Y014524D01*
X030903Y014546D02*
X031004Y014647D01*
X031058Y014779D01*
X031058Y014921D01*
X031004Y015053D01*
X030903Y015154D01*
X030771Y015208D01*
X030629Y015208D01*
X030497Y015154D01*
X030396Y015053D01*
X030342Y014921D01*
X030342Y014779D01*
X030396Y014647D01*
X030497Y014546D01*
X030629Y014492D01*
X030771Y014492D01*
X030903Y014546D01*
X031018Y014682D02*
X031280Y014682D01*
X031368Y014841D02*
X031058Y014841D01*
X031026Y014999D02*
X041500Y014999D01*
X041500Y015158D02*
X030893Y015158D01*
X030903Y015296D02*
X031004Y015397D01*
X031058Y015529D01*
X031058Y015671D01*
X031004Y015803D01*
X030903Y015904D01*
X030771Y015958D01*
X030629Y015958D01*
X030497Y015904D01*
X030396Y015803D01*
X030342Y015671D01*
X030342Y015529D01*
X030396Y015397D01*
X030497Y015296D01*
X030629Y015242D01*
X030771Y015242D01*
X030903Y015296D01*
X030922Y015316D02*
X041500Y015316D01*
X041500Y015475D02*
X031036Y015475D01*
X031058Y015633D02*
X041500Y015633D01*
X041500Y015792D02*
X031008Y015792D01*
X030791Y015950D02*
X041500Y015950D01*
X041500Y016109D02*
X030965Y016109D01*
X031004Y016147D02*
X031058Y016279D01*
X031058Y016421D01*
X031004Y016553D01*
X030903Y016654D01*
X030771Y016708D01*
X030629Y016708D01*
X030497Y016654D01*
X030396Y016553D01*
X030342Y016421D01*
X030342Y016279D01*
X030396Y016147D01*
X030497Y016046D01*
X030629Y015992D01*
X030771Y015992D01*
X030903Y016046D01*
X031004Y016147D01*
X031053Y016267D02*
X041500Y016267D01*
X041500Y016426D02*
X031056Y016426D01*
X030972Y016584D02*
X033522Y016584D01*
X033538Y016568D02*
X034062Y016568D01*
X034432Y016938D01*
X034432Y017462D01*
X034417Y017477D01*
X034507Y017567D01*
X034511Y017571D01*
X034574Y017635D01*
X034588Y017649D01*
X034588Y017649D01*
X034640Y017774D01*
X034640Y019142D01*
X034664Y019142D01*
X034758Y019236D01*
X034758Y019764D01*
X034664Y019858D01*
X034136Y019858D01*
X034042Y019764D01*
X034042Y019236D01*
X034136Y019142D01*
X034160Y019142D01*
X034160Y018249D01*
X034138Y018301D01*
X034124Y018315D01*
X034109Y018330D01*
X034090Y018349D01*
X034057Y018383D01*
X034057Y018383D01*
X033486Y018953D01*
X033398Y018990D01*
X031240Y018990D01*
X031240Y022892D01*
X031264Y022892D01*
X031358Y022986D01*
X031358Y023514D01*
X031264Y023608D01*
X030736Y023608D01*
X030642Y023514D01*
X030642Y022986D01*
X030736Y022892D01*
X030760Y022892D01*
X030760Y018702D01*
X030797Y018614D01*
X030864Y018547D01*
X030952Y018510D01*
X033251Y018510D01*
X033710Y018051D01*
X033710Y017832D01*
X033538Y017832D01*
X033168Y017462D01*
X033168Y016938D01*
X033538Y016568D01*
X033363Y016743D02*
X030773Y016743D01*
X030771Y016742D02*
X030903Y016796D01*
X031004Y016897D01*
X031058Y017029D01*
X031058Y017171D01*
X031004Y017303D01*
X030903Y017404D01*
X030771Y017458D01*
X030629Y017458D01*
X030497Y017404D01*
X030396Y017303D01*
X030342Y017171D01*
X030342Y017029D01*
X030396Y016897D01*
X030497Y016796D01*
X030629Y016742D01*
X030771Y016742D01*
X030627Y016743D02*
X029000Y016743D01*
X029000Y016901D02*
X030395Y016901D01*
X030342Y017060D02*
X029000Y017060D01*
X029000Y017218D02*
X030361Y017218D01*
X030470Y017377D02*
X029000Y017377D01*
X029000Y017535D02*
X033241Y017535D01*
X033168Y017377D02*
X030930Y017377D01*
X031039Y017218D02*
X033168Y017218D01*
X033168Y017060D02*
X031058Y017060D01*
X031005Y016901D02*
X033205Y016901D01*
X033800Y017200D02*
X033950Y017350D01*
X033950Y018109D01*
X033921Y018179D02*
X033350Y018750D01*
X031000Y018750D01*
X031000Y023250D01*
X031358Y023241D02*
X033570Y023241D01*
X033570Y023083D02*
X031358Y023083D01*
X031297Y022924D02*
X033570Y022924D01*
X033570Y022766D02*
X031240Y022766D01*
X031240Y022607D02*
X033570Y022607D01*
X033570Y022580D02*
X033567Y022580D01*
X033520Y022533D01*
X033520Y021667D01*
X033567Y021620D01*
X033783Y021620D01*
X033830Y021667D01*
X033830Y021670D01*
X034420Y021670D01*
X034420Y021667D01*
X034467Y021620D01*
X034683Y021620D01*
X034730Y021667D01*
X034730Y021920D01*
X035570Y021920D01*
X035570Y021580D01*
X034567Y021580D01*
X034520Y021533D01*
X034520Y021530D01*
X034517Y021530D01*
X034470Y021483D01*
X034470Y021180D01*
X031467Y021180D01*
X031420Y021133D01*
X031420Y020167D01*
X031467Y020120D01*
X034583Y020120D01*
X034630Y020167D01*
X034630Y020420D01*
X036320Y020420D01*
X036320Y020417D01*
X036367Y020370D01*
X037860Y020370D01*
X037860Y017832D01*
X037388Y017832D01*
X037018Y017462D01*
X037018Y016938D01*
X037388Y016568D01*
X037912Y016568D01*
X038282Y016938D01*
X038282Y017462D01*
X038267Y017477D01*
X038324Y017535D01*
X038338Y017549D01*
X038390Y017674D01*
X038390Y017789D01*
X038374Y017827D01*
X038353Y017877D01*
X038352Y017878D01*
X038340Y017891D01*
X038340Y020370D01*
X039170Y020370D01*
X039170Y020367D01*
X039217Y020320D01*
X039933Y020320D01*
X039980Y020367D01*
X039980Y021083D01*
X039933Y021130D01*
X038458Y021130D01*
X038458Y021514D01*
X038364Y021608D01*
X037836Y021608D01*
X037742Y021514D01*
X037742Y021130D01*
X036830Y021130D01*
X036830Y022120D01*
X037033Y022120D01*
X037080Y022167D01*
X037080Y023683D01*
X037033Y023730D01*
X036517Y023730D01*
X036470Y023683D01*
X036470Y023680D01*
X036267Y023680D01*
X036230Y023643D01*
X036230Y023683D01*
X036183Y023730D01*
X035780Y023730D01*
X035780Y023970D01*
X036725Y023970D01*
X036850Y023936D01*
X037107Y024005D01*
X037295Y024193D01*
X037295Y024193D01*
X037364Y024450D01*
X037295Y024707D01*
X037107Y024895D01*
X037107Y024895D01*
X036850Y024964D01*
X036593Y024895D01*
X036428Y024730D01*
X035517Y024730D01*
X035470Y024683D01*
X035470Y024580D01*
X035067Y024580D01*
X035020Y024533D01*
X035020Y024230D01*
X034867Y024230D01*
X034820Y024183D01*
X034820Y024130D01*
X034467Y024130D01*
X034420Y024083D01*
X034420Y024030D01*
X033979Y024030D01*
X033945Y024157D01*
X033757Y024345D01*
X033757Y024345D01*
X033500Y024414D01*
X033243Y024345D01*
X033055Y024157D01*
X033055Y024157D01*
X032986Y023900D01*
X033055Y023643D01*
X033243Y023455D01*
X033243Y023455D01*
X033500Y023386D01*
X033570Y023405D01*
X033570Y022580D01*
X033520Y022449D02*
X031240Y022449D01*
X031240Y022290D02*
X033520Y022290D01*
X033520Y022132D02*
X031240Y022132D01*
X031240Y021973D02*
X033520Y021973D01*
X033520Y021815D02*
X031240Y021815D01*
X031240Y021656D02*
X033531Y021656D01*
X033819Y021656D02*
X034431Y021656D01*
X034484Y021498D02*
X031240Y021498D01*
X031240Y021339D02*
X034470Y021339D01*
X034470Y021181D02*
X031240Y021181D01*
X031240Y021022D02*
X031420Y021022D01*
X031420Y020864D02*
X031240Y020864D01*
X031240Y020705D02*
X031420Y020705D01*
X031420Y020547D02*
X031240Y020547D01*
X031240Y020388D02*
X031420Y020388D01*
X031420Y020230D02*
X031240Y020230D01*
X031240Y020071D02*
X037860Y020071D01*
X037860Y019913D02*
X031240Y019913D01*
X031240Y019754D02*
X034042Y019754D01*
X034042Y019596D02*
X031240Y019596D01*
X031240Y019437D02*
X034042Y019437D01*
X034042Y019279D02*
X031240Y019279D01*
X031240Y019120D02*
X034160Y019120D01*
X034160Y018962D02*
X033466Y018962D01*
X033636Y018803D02*
X034160Y018803D01*
X034160Y018645D02*
X033795Y018645D01*
X033953Y018486D02*
X034160Y018486D01*
X034090Y018349D02*
X034090Y018349D01*
X034112Y018328D02*
X034160Y018328D01*
X034138Y018301D02*
X034138Y018301D01*
X033921Y018180D02*
X033933Y018165D01*
X033942Y018147D01*
X033948Y018129D01*
X033950Y018109D01*
X033710Y018011D02*
X029000Y018011D01*
X029000Y018169D02*
X033592Y018169D01*
X033433Y018328D02*
X029000Y018328D01*
X029000Y018486D02*
X033275Y018486D01*
X033710Y017852D02*
X029000Y017852D01*
X029000Y017694D02*
X033399Y017694D01*
X033950Y017350D02*
X034371Y017771D01*
X034400Y017841D02*
X034400Y019500D01*
X034758Y019437D02*
X037860Y019437D01*
X037860Y019279D02*
X034758Y019279D01*
X034640Y019120D02*
X037860Y019120D01*
X037860Y018962D02*
X034640Y018962D01*
X034640Y018803D02*
X037860Y018803D01*
X037860Y018645D02*
X034640Y018645D01*
X034640Y018486D02*
X037860Y018486D01*
X037860Y018328D02*
X034640Y018328D01*
X034640Y018169D02*
X037860Y018169D01*
X037860Y018011D02*
X034640Y018011D01*
X034640Y017852D02*
X037860Y017852D01*
X038150Y017741D02*
X038148Y017721D01*
X038142Y017703D01*
X038133Y017685D01*
X038121Y017670D01*
X038121Y017671D02*
X037650Y017200D01*
X037213Y016743D02*
X034237Y016743D01*
X034395Y016901D02*
X037055Y016901D01*
X037018Y017060D02*
X034432Y017060D01*
X034432Y017218D02*
X037018Y017218D01*
X037018Y017377D02*
X034432Y017377D01*
X034474Y017535D02*
X037091Y017535D01*
X037249Y017694D02*
X034607Y017694D01*
X034574Y017635D02*
X034574Y017635D01*
X034371Y017770D02*
X034383Y017785D01*
X034392Y017803D01*
X034398Y017821D01*
X034400Y017841D01*
X034078Y016584D02*
X037372Y016584D01*
X037928Y016584D02*
X041500Y016584D01*
X041500Y016743D02*
X038087Y016743D01*
X038245Y016901D02*
X041500Y016901D01*
X041500Y017060D02*
X038282Y017060D01*
X038282Y017218D02*
X041500Y017218D01*
X041500Y017377D02*
X038282Y017377D01*
X038324Y017535D02*
X038324Y017535D01*
X041500Y017535D01*
X041500Y017694D02*
X038390Y017694D01*
X038338Y017549D02*
X038338Y017549D01*
X038150Y017741D02*
X038129Y017762D01*
X038100Y017833D02*
X038100Y021250D01*
X038458Y021181D02*
X040700Y021181D01*
X040759Y021205D02*
X040592Y021136D01*
X040464Y021008D01*
X040395Y020841D01*
X040395Y020659D01*
X040464Y020492D01*
X040592Y020364D01*
X040759Y020295D01*
X040941Y020295D01*
X041108Y020364D01*
X041236Y020492D01*
X041305Y020659D01*
X041305Y020841D01*
X041236Y021008D01*
X041108Y021136D01*
X040941Y021205D01*
X040759Y021205D01*
X041000Y021181D02*
X041500Y021181D01*
X041500Y021339D02*
X038458Y021339D01*
X038458Y021498D02*
X041500Y021498D01*
X041500Y021656D02*
X036830Y021656D01*
X036830Y021498D02*
X037742Y021498D01*
X037742Y021339D02*
X036830Y021339D01*
X036830Y021181D02*
X037742Y021181D01*
X037860Y020230D02*
X034630Y020230D01*
X034630Y020388D02*
X036349Y020388D01*
X037860Y019754D02*
X034758Y019754D01*
X034758Y019596D02*
X037860Y019596D01*
X038340Y019596D02*
X041500Y019596D01*
X041500Y019754D02*
X038340Y019754D01*
X038340Y019913D02*
X041500Y019913D01*
X041500Y020071D02*
X038340Y020071D01*
X038340Y020230D02*
X041500Y020230D01*
X041500Y020388D02*
X041132Y020388D01*
X041259Y020547D02*
X041500Y020547D01*
X041500Y020705D02*
X041305Y020705D01*
X041296Y020864D02*
X041500Y020864D01*
X041500Y021022D02*
X041222Y021022D01*
X040478Y021022D02*
X039980Y021022D01*
X039980Y020864D02*
X040404Y020864D01*
X040395Y020705D02*
X039980Y020705D01*
X039980Y020547D02*
X040441Y020547D01*
X040568Y020388D02*
X039980Y020388D01*
X041500Y019437D02*
X038340Y019437D01*
X038340Y019279D02*
X041500Y019279D01*
X041500Y019120D02*
X038340Y019120D01*
X038340Y018962D02*
X041500Y018962D01*
X041500Y018803D02*
X038340Y018803D01*
X038340Y018645D02*
X041500Y018645D01*
X041500Y018486D02*
X038340Y018486D01*
X038340Y018328D02*
X041500Y018328D01*
X041500Y018169D02*
X038340Y018169D01*
X038340Y018011D02*
X041500Y018011D01*
X041500Y017852D02*
X038364Y017852D01*
X038353Y017877D02*
X038353Y017877D01*
X038129Y017762D02*
X038117Y017777D01*
X038108Y017795D01*
X038102Y017813D01*
X038100Y017833D01*
X035570Y021656D02*
X034719Y021656D01*
X034730Y021815D02*
X035570Y021815D01*
X036830Y021815D02*
X041500Y021815D01*
X041500Y021973D02*
X036830Y021973D01*
X037045Y022132D02*
X041500Y022132D01*
X041500Y022290D02*
X037080Y022290D01*
X037080Y022449D02*
X041500Y022449D01*
X041500Y022607D02*
X037080Y022607D01*
X037080Y022766D02*
X041500Y022766D01*
X041500Y022924D02*
X037080Y022924D01*
X037080Y023083D02*
X041500Y023083D01*
X041500Y023241D02*
X037080Y023241D01*
X037080Y023400D02*
X041500Y023400D01*
X041500Y023558D02*
X037080Y023558D01*
X037047Y023717D02*
X041500Y023717D01*
X041500Y023875D02*
X035780Y023875D01*
X036197Y023717D02*
X036503Y023717D01*
X036850Y023936D02*
X036850Y023936D01*
X037107Y024005D02*
X037107Y024005D01*
X037135Y024034D02*
X041500Y024034D01*
X041500Y024192D02*
X037294Y024192D01*
X037337Y024351D02*
X041500Y024351D01*
X041500Y024509D02*
X037348Y024509D01*
X037305Y024668D02*
X041500Y024668D01*
X041500Y024826D02*
X037175Y024826D01*
X037295Y024707D02*
X037295Y024707D01*
X036850Y024964D02*
X036850Y024964D01*
X036593Y024895D02*
X036593Y024895D01*
X036525Y024826D02*
X029000Y024826D01*
X029000Y024668D02*
X031907Y024668D01*
X031919Y024676D02*
X031863Y024636D01*
X031814Y024587D01*
X031775Y024532D01*
X032150Y024300D01*
X032382Y024675D01*
X032150Y024300D01*
X032150Y024300D01*
X032525Y024068D01*
X032150Y024300D01*
X032150Y024300D01*
X032150Y024300D01*
X031918Y023925D01*
X032150Y024300D01*
X032150Y024300D01*
X031775Y024532D01*
X031774Y024531D01*
X031742Y024469D01*
X031721Y024403D01*
X031710Y024335D01*
X031710Y024265D01*
X031721Y024197D01*
X031742Y024131D01*
X031774Y024069D01*
X031814Y024013D01*
X031863Y023964D01*
X031918Y023925D01*
X031919Y023924D01*
X031981Y023892D01*
X032047Y023871D01*
X032115Y023860D01*
X032185Y023860D01*
X032253Y023871D01*
X032319Y023892D01*
X032381Y023924D01*
X032437Y023964D01*
X032486Y024013D01*
X032525Y024068D01*
X032526Y024069D01*
X032558Y024131D01*
X032579Y024197D01*
X032590Y024265D01*
X032590Y024335D01*
X032579Y024403D01*
X032558Y024469D01*
X032526Y024531D01*
X032486Y024587D01*
X032437Y024636D01*
X032382Y024675D01*
X032381Y024676D01*
X032319Y024708D01*
X032253Y024729D01*
X032185Y024740D01*
X032115Y024740D01*
X032047Y024729D01*
X031981Y024708D01*
X031919Y024676D01*
X031812Y024509D02*
X031812Y024509D01*
X031763Y024509D02*
X029000Y024509D01*
X029000Y024351D02*
X031713Y024351D01*
X031722Y024192D02*
X029000Y024192D01*
X029000Y024034D02*
X031800Y024034D01*
X031985Y024034D02*
X031985Y024034D01*
X032034Y023875D02*
X029000Y023875D01*
X029000Y023717D02*
X033036Y023717D01*
X033055Y023643D02*
X033055Y023643D01*
X033140Y023558D02*
X031314Y023558D01*
X031358Y023400D02*
X033451Y023400D01*
X033500Y023386D02*
X033500Y023386D01*
X033549Y023400D02*
X033570Y023400D01*
X032993Y023875D02*
X032266Y023875D01*
X032500Y024034D02*
X033022Y024034D01*
X032986Y023900D02*
X032986Y023900D01*
X033091Y024192D02*
X032578Y024192D01*
X032587Y024351D02*
X033265Y024351D01*
X033243Y024345D02*
X033243Y024345D01*
X033500Y024414D02*
X033500Y024414D01*
X033735Y024351D02*
X035020Y024351D01*
X035020Y024509D02*
X032537Y024509D01*
X032393Y024668D02*
X035470Y024668D01*
X034829Y024192D02*
X033909Y024192D01*
X033945Y024157D02*
X033945Y024157D01*
X033978Y024034D02*
X034420Y024034D01*
X034149Y024892D02*
X033994Y024828D01*
X033827Y024828D01*
X033673Y024892D01*
X033555Y025010D01*
X033491Y025165D01*
X033491Y025332D01*
X033555Y025486D01*
X033673Y025604D01*
X033827Y025668D01*
X033994Y025668D01*
X034149Y025604D01*
X034267Y025486D01*
X034331Y025332D01*
X034331Y025165D01*
X034267Y025010D01*
X034149Y024892D01*
X034241Y024985D02*
X038343Y024985D01*
X038363Y024964D02*
X038398Y024940D01*
X038419Y024924D01*
X038481Y024892D01*
X038547Y024871D01*
X038615Y024860D01*
X038685Y024860D01*
X038753Y024871D01*
X038819Y024892D01*
X038881Y024924D01*
X038937Y024964D01*
X038986Y025013D01*
X039010Y025048D01*
X039026Y025069D01*
X039058Y025131D01*
X039079Y025197D01*
X039090Y025265D01*
X039090Y025335D01*
X039079Y025403D01*
X039058Y025469D01*
X039026Y025531D01*
X038986Y025587D01*
X038937Y025636D01*
X038902Y025660D01*
X038881Y025676D01*
X038819Y025708D01*
X038753Y025729D01*
X038685Y025740D01*
X038615Y025740D01*
X038547Y025729D01*
X038481Y025708D01*
X038419Y025676D01*
X038363Y025636D01*
X038314Y025587D01*
X038290Y025552D01*
X038274Y025531D01*
X038242Y025469D01*
X038221Y025403D01*
X038210Y025335D01*
X038210Y025265D01*
X038221Y025197D01*
X038242Y025131D01*
X038274Y025069D01*
X038314Y025013D01*
X038363Y024964D01*
X038398Y024940D02*
X038650Y025300D01*
X038650Y025300D01*
X038902Y025660D01*
X038650Y025300D01*
X039010Y025048D01*
X038650Y025300D01*
X038650Y025300D01*
X038650Y025300D01*
X038290Y025552D01*
X038650Y025300D01*
X038398Y024940D01*
X038429Y024985D02*
X038429Y024985D01*
X038540Y025143D02*
X038540Y025143D01*
X038650Y025300D02*
X038650Y025300D01*
X038651Y025302D02*
X038651Y025302D01*
X038648Y025302D02*
X038648Y025302D01*
X038762Y025460D02*
X038762Y025460D01*
X038873Y025619D02*
X038873Y025619D01*
X038954Y025619D02*
X041500Y025619D01*
X041500Y025777D02*
X037741Y025777D01*
X037741Y025700D02*
X037741Y025867D01*
X037677Y026022D01*
X037559Y026140D01*
X037405Y026204D01*
X037238Y026204D01*
X037083Y026140D01*
X036965Y026022D01*
X036901Y025867D01*
X036901Y025700D01*
X036965Y025546D01*
X037083Y025428D01*
X037238Y025364D01*
X037405Y025364D01*
X037559Y025428D01*
X037677Y025546D01*
X037741Y025700D01*
X037707Y025619D02*
X038346Y025619D01*
X038421Y025460D02*
X038421Y025460D01*
X038239Y025460D02*
X037591Y025460D01*
X037713Y025936D02*
X041500Y025936D01*
X041500Y026094D02*
X037605Y026094D01*
X037037Y026094D02*
X029000Y026094D01*
X029000Y025936D02*
X036929Y025936D01*
X036901Y025777D02*
X029000Y025777D01*
X029000Y025619D02*
X033708Y025619D01*
X033544Y025460D02*
X029000Y025460D01*
X029000Y025302D02*
X033491Y025302D01*
X033500Y025143D02*
X029000Y025143D01*
X029000Y024985D02*
X033581Y024985D01*
X034322Y025143D02*
X038238Y025143D01*
X038210Y025302D02*
X034331Y025302D01*
X034278Y025460D02*
X037051Y025460D01*
X036935Y025619D02*
X034114Y025619D01*
X032377Y024668D02*
X032377Y024668D01*
X032279Y024509D02*
X032279Y024509D01*
X032181Y024351D02*
X032181Y024351D01*
X032068Y024351D02*
X032068Y024351D01*
X032083Y024192D02*
X032083Y024192D01*
X032325Y024192D02*
X032325Y024192D01*
X030686Y023558D02*
X029000Y023558D01*
X029000Y023400D02*
X030642Y023400D01*
X030642Y023241D02*
X029000Y023241D01*
X029000Y023083D02*
X030642Y023083D01*
X030703Y022924D02*
X029000Y022924D01*
X029000Y022766D02*
X030760Y022766D01*
X030760Y022607D02*
X029000Y022607D01*
X029000Y022449D02*
X030760Y022449D01*
X030760Y022290D02*
X029000Y022290D01*
X029000Y022132D02*
X030760Y022132D01*
X030760Y021973D02*
X029000Y021973D01*
X029000Y021815D02*
X030760Y021815D01*
X030760Y021656D02*
X029000Y021656D01*
X029000Y021498D02*
X030760Y021498D01*
X030760Y021339D02*
X029000Y021339D01*
X029000Y021181D02*
X030760Y021181D01*
X030760Y021022D02*
X029000Y021022D01*
X029000Y020864D02*
X030760Y020864D01*
X030760Y020705D02*
X029000Y020705D01*
X029000Y020547D02*
X030760Y020547D01*
X030760Y020388D02*
X029000Y020388D01*
X029000Y020230D02*
X030760Y020230D01*
X030760Y020071D02*
X029000Y020071D01*
X029000Y019913D02*
X030760Y019913D01*
X030760Y019754D02*
X029000Y019754D01*
X029000Y019596D02*
X030760Y019596D01*
X030760Y019437D02*
X029000Y019437D01*
X029000Y019279D02*
X030760Y019279D01*
X030760Y019120D02*
X029000Y019120D01*
X029000Y018962D02*
X030760Y018962D01*
X030760Y018803D02*
X029000Y018803D01*
X029000Y018645D02*
X030784Y018645D01*
X029653Y016654D02*
X029521Y016708D01*
X029379Y016708D01*
X029247Y016654D01*
X029146Y016553D01*
X029092Y016421D01*
X029092Y016279D01*
X029146Y016147D01*
X029247Y016046D01*
X029379Y015992D01*
X029521Y015992D01*
X029653Y016046D01*
X029754Y016147D01*
X029808Y016279D01*
X029808Y016421D01*
X029754Y016553D01*
X029653Y016654D01*
X029722Y016584D02*
X030428Y016584D01*
X030344Y016426D02*
X029806Y016426D01*
X029803Y016267D02*
X030347Y016267D01*
X030435Y016109D02*
X029715Y016109D01*
X029185Y016109D02*
X029000Y016109D01*
X029000Y016267D02*
X029097Y016267D01*
X029094Y016426D02*
X029000Y016426D01*
X029000Y016584D02*
X029178Y016584D01*
X029000Y015950D02*
X030609Y015950D01*
X030392Y015792D02*
X029000Y015792D01*
X029000Y015633D02*
X030342Y015633D01*
X030364Y015475D02*
X029000Y015475D01*
X029000Y015316D02*
X030478Y015316D01*
X030507Y015158D02*
X029643Y015158D01*
X029653Y015154D02*
X029521Y015208D01*
X029379Y015208D01*
X029247Y015154D01*
X029146Y015053D01*
X029092Y014921D01*
X029092Y014779D01*
X029146Y014647D01*
X029247Y014546D01*
X029379Y014492D01*
X029521Y014492D01*
X029653Y014546D01*
X029754Y014647D01*
X029808Y014779D01*
X029808Y014921D01*
X029754Y015053D01*
X029653Y015154D01*
X029776Y014999D02*
X030374Y014999D01*
X030342Y014841D02*
X029808Y014841D01*
X029768Y014682D02*
X030382Y014682D01*
X030552Y014524D02*
X029598Y014524D01*
X029302Y014524D02*
X029000Y014524D01*
X029000Y014682D02*
X029132Y014682D01*
X029092Y014841D02*
X029000Y014841D01*
X029000Y014999D02*
X029124Y014999D01*
X029000Y015158D02*
X029257Y015158D01*
X029000Y014365D02*
X030459Y014365D01*
X030357Y014207D02*
X029000Y014207D01*
X029000Y014048D02*
X030342Y014048D01*
X030404Y013890D02*
X029000Y013890D01*
X038957Y024985D02*
X041500Y024985D01*
X041500Y025143D02*
X039062Y025143D01*
X039090Y025302D02*
X041500Y025302D01*
X041500Y025460D02*
X039061Y025460D01*
X038874Y025143D02*
X038874Y025143D01*
X041065Y026728D02*
X029435Y026728D01*
X029500Y026887D02*
X041000Y026887D01*
X041218Y026570D02*
X029282Y026570D01*
X029000Y026411D02*
X041500Y026411D01*
X041500Y026253D02*
X029000Y026253D01*
D13*
X030050Y025900D03*
X040650Y025900D03*
X040650Y018400D03*
X030050Y018400D03*
D14*
X040850Y021600D03*
D15*
X038700Y016250D03*
X032850Y016150D03*
D16*
X034700Y014450D03*
X029450Y014100D03*
X029450Y015600D03*
X029450Y017100D03*
X033300Y019500D03*
X034400Y019500D03*
X038100Y021250D03*
X031000Y023250D03*
D17*
X040850Y020750D03*
D18*
X037650Y017200D03*
X033800Y017200D03*
D19*
X030700Y017100D03*
X030700Y016350D03*
X030700Y015600D03*
X030700Y014850D03*
X030700Y014100D03*
X029450Y014850D03*
X029450Y016350D03*
M02*
