G75*
%MOIN*%
%OFA0B0*%
%FSLAX24Y24*%
%IPPOS*%
%LPD*%
%AMOC8*
5,1,8,0,0,1.08239X$1,22.5*
%
%ADD10R,0.0780X0.0220*%
%ADD11R,0.0433X0.0394*%
%ADD12R,0.0394X0.0433*%
%ADD13C,0.0520*%
%ADD14R,0.0276X0.0197*%
%ADD15R,0.0236X0.0315*%
%ADD16R,0.0354X0.0787*%
%ADD17R,0.0512X0.0787*%
%ADD18OC8,0.0520*%
%ADD19C,0.0160*%
%ADD20C,0.1502*%
%ADD21R,0.0591X0.0591*%
%ADD22R,0.0945X0.0945*%
%ADD23R,0.0396X0.0396*%
%ADD24C,0.0591*%
%ADD25OC8,0.0945*%
%ADD26C,0.0396*%
D10*
X035280Y020250D03*
X035280Y020750D03*
X035280Y021250D03*
X035280Y021750D03*
X037220Y021750D03*
X037220Y021250D03*
X037220Y020750D03*
X037220Y020250D03*
D11*
X034100Y020065D03*
X034100Y020735D03*
X032550Y020735D03*
X032550Y020065D03*
X030635Y021300D03*
X029965Y021300D03*
X031350Y021565D03*
X031350Y022235D03*
X030000Y023965D03*
X030000Y024635D03*
X034100Y023435D03*
X034100Y022765D03*
X035250Y023215D03*
X035965Y023250D03*
X036635Y023250D03*
X035250Y023885D03*
X040100Y024015D03*
X040100Y024685D03*
D12*
X038735Y026250D03*
X038065Y026250D03*
X036450Y026185D03*
X035650Y026185D03*
X035650Y025515D03*
X036450Y025515D03*
X033200Y025615D03*
X032400Y025615D03*
X031735Y025050D03*
X031065Y025050D03*
X032400Y026285D03*
X033200Y026285D03*
X037600Y023185D03*
X038450Y023185D03*
X038450Y022515D03*
X037600Y022515D03*
X036635Y022500D03*
X035965Y022500D03*
X034135Y022100D03*
X033465Y022100D03*
X032400Y022015D03*
X032400Y022685D03*
X030585Y022200D03*
X029915Y022200D03*
X031800Y020735D03*
X031800Y020065D03*
X030635Y020500D03*
X029965Y020500D03*
X033350Y020735D03*
X033350Y020065D03*
X035250Y019535D03*
X035250Y018865D03*
X036200Y018865D03*
X036200Y019535D03*
X039415Y020750D03*
X040085Y020750D03*
X037685Y016100D03*
X037015Y016100D03*
X034485Y016150D03*
X033815Y016150D03*
D13*
X031700Y014550D03*
X037650Y014500D03*
X033505Y023894D03*
X033911Y025248D03*
X032150Y024300D03*
X036837Y024455D03*
X038650Y025300D03*
X037321Y025784D03*
D14*
X039574Y023100D03*
X040086Y023100D03*
X030536Y023300D03*
X030024Y023300D03*
D15*
X029400Y023658D03*
X029400Y024642D03*
X040900Y024742D03*
X040900Y023758D03*
X036300Y015492D03*
X035200Y015492D03*
X035200Y014508D03*
X036300Y014508D03*
D16*
X036301Y016134D03*
X035199Y016134D03*
D17*
X035750Y017866D03*
D18*
X033700Y014550D03*
X039650Y014500D03*
D19*
X029000Y013400D02*
X029000Y026494D01*
X029101Y026494D01*
X029286Y026571D01*
X029429Y026714D01*
X029506Y026899D01*
X029506Y027000D01*
X040994Y027000D01*
X040994Y026899D01*
X041071Y026714D01*
X041214Y026571D01*
X041399Y026494D01*
X041500Y026494D01*
X041500Y013400D01*
X029000Y013400D01*
X029000Y013414D02*
X041500Y013414D01*
X041500Y013573D02*
X029000Y013573D01*
X029000Y013731D02*
X041500Y013731D01*
X041500Y013890D02*
X030996Y013890D01*
X031004Y013897D02*
X031058Y014029D01*
X031058Y014171D01*
X031004Y014303D01*
X030903Y014404D01*
X030771Y014458D01*
X030629Y014458D01*
X030497Y014404D01*
X030396Y014303D01*
X030342Y014171D01*
X030342Y014029D01*
X030396Y013897D01*
X030497Y013796D01*
X030629Y013742D01*
X030771Y013742D01*
X030903Y013796D01*
X031004Y013897D01*
X031058Y014048D02*
X041500Y014048D01*
X041500Y014207D02*
X039979Y014207D01*
X040090Y014318D02*
X039832Y014060D01*
X039650Y014060D01*
X039650Y014500D01*
X040090Y014500D01*
X040090Y014682D01*
X041500Y014682D01*
X041500Y014524D02*
X040090Y014524D01*
X040090Y014500D02*
X039650Y014500D01*
X039650Y014500D01*
X039650Y014500D01*
X039650Y014940D01*
X039832Y014940D01*
X040090Y014682D01*
X040090Y014500D02*
X040090Y014318D01*
X040090Y014365D02*
X041500Y014365D01*
X041500Y014841D02*
X039932Y014841D01*
X039650Y014841D02*
X039650Y014841D01*
X039650Y014940D02*
X039468Y014940D01*
X039210Y014682D01*
X038029Y014682D01*
X038006Y014738D02*
X037925Y014819D01*
X037925Y015723D01*
X037948Y015723D01*
X038041Y015817D01*
X038041Y016383D01*
X037948Y016477D01*
X037890Y016477D01*
X037890Y016568D01*
X037912Y016568D01*
X038282Y016938D01*
X038282Y017462D01*
X037912Y017832D01*
X037388Y017832D01*
X037018Y017462D01*
X037018Y016938D01*
X037388Y016568D01*
X037410Y016568D01*
X037410Y016465D01*
X037350Y016405D01*
X037278Y016477D01*
X036752Y016477D01*
X036659Y016383D01*
X036659Y016340D01*
X036638Y016340D01*
X036638Y016594D01*
X036545Y016688D01*
X036058Y016688D01*
X035964Y016594D01*
X035964Y015674D01*
X036022Y015616D01*
X036022Y015268D01*
X036116Y015175D01*
X036484Y015175D01*
X036578Y015268D01*
X036578Y015614D01*
X036638Y015674D01*
X036638Y015860D01*
X036659Y015860D01*
X036659Y015817D01*
X036752Y015723D01*
X037278Y015723D01*
X037350Y015795D01*
X037422Y015723D01*
X037445Y015723D01*
X037445Y014870D01*
X037412Y014856D01*
X037294Y014738D01*
X037230Y014584D01*
X037230Y014416D01*
X037294Y014262D01*
X037412Y014144D01*
X037566Y014080D01*
X037734Y014080D01*
X037888Y014144D01*
X038006Y014262D01*
X038070Y014416D01*
X038070Y014584D01*
X038006Y014738D01*
X037925Y014841D02*
X039368Y014841D01*
X039210Y014682D02*
X039210Y014500D01*
X039650Y014500D01*
X039650Y014500D01*
X039650Y014500D01*
X039650Y014940D01*
X039650Y014682D02*
X039650Y014682D01*
X039650Y014524D02*
X039650Y014524D01*
X039650Y014500D02*
X039210Y014500D01*
X039210Y014318D01*
X039468Y014060D01*
X039650Y014060D01*
X039650Y014500D01*
X039650Y014365D02*
X039650Y014365D01*
X039650Y014207D02*
X039650Y014207D01*
X039321Y014207D02*
X037950Y014207D01*
X038049Y014365D02*
X039210Y014365D01*
X039210Y014524D02*
X038070Y014524D01*
X037685Y014576D02*
X037685Y016100D01*
X037679Y016105D01*
X037650Y016176D02*
X037650Y017200D01*
X037213Y016743D02*
X034237Y016743D01*
X034222Y016527D02*
X034150Y016455D01*
X034078Y016527D01*
X034040Y016527D01*
X034040Y016568D01*
X034062Y016568D01*
X034432Y016938D01*
X034432Y017462D01*
X034062Y017832D01*
X033538Y017832D01*
X033168Y017462D01*
X033168Y016938D01*
X033538Y016568D01*
X033560Y016568D01*
X033560Y016527D01*
X033552Y016527D01*
X033459Y016433D01*
X033459Y015867D01*
X033552Y015773D01*
X033575Y015773D01*
X033575Y014970D01*
X033526Y014970D01*
X033280Y014724D01*
X033280Y014376D01*
X033526Y014130D01*
X033874Y014130D01*
X034120Y014376D01*
X034120Y014724D01*
X034055Y014789D01*
X034055Y015773D01*
X034078Y015773D01*
X034150Y015845D01*
X034222Y015773D01*
X034748Y015773D01*
X034841Y015867D01*
X034841Y015910D01*
X034862Y015910D01*
X034862Y015674D01*
X034922Y015614D01*
X034922Y015268D01*
X035016Y015175D01*
X035384Y015175D01*
X035478Y015268D01*
X035478Y015616D01*
X035536Y015674D01*
X035536Y016594D01*
X035442Y016688D01*
X034955Y016688D01*
X034862Y016594D01*
X034862Y016390D01*
X034841Y016390D01*
X034841Y016433D01*
X034748Y016527D01*
X034222Y016527D01*
X034078Y016584D02*
X034862Y016584D01*
X034862Y016426D02*
X034841Y016426D01*
X035160Y016150D02*
X034485Y016150D01*
X034766Y015792D02*
X034862Y015792D01*
X034903Y015633D02*
X034055Y015633D01*
X034055Y015475D02*
X034922Y015475D01*
X034922Y015316D02*
X034055Y015316D01*
X034055Y015158D02*
X037445Y015158D01*
X037445Y015316D02*
X036578Y015316D01*
X036578Y015475D02*
X037445Y015475D01*
X037445Y015633D02*
X036597Y015633D01*
X036638Y015792D02*
X036684Y015792D01*
X036376Y016100D02*
X037015Y016100D01*
X036701Y016426D02*
X036638Y016426D01*
X036638Y016584D02*
X037372Y016584D01*
X037371Y016426D02*
X037329Y016426D01*
X037650Y016176D02*
X037652Y016156D01*
X037658Y016138D01*
X037667Y016120D01*
X037679Y016105D01*
X038041Y016109D02*
X041500Y016109D01*
X041500Y016267D02*
X038041Y016267D01*
X037999Y016426D02*
X041500Y016426D01*
X041500Y016584D02*
X037928Y016584D01*
X038087Y016743D02*
X041500Y016743D01*
X041500Y016901D02*
X038245Y016901D01*
X038282Y017060D02*
X041500Y017060D01*
X041500Y017218D02*
X038282Y017218D01*
X038282Y017377D02*
X041500Y017377D01*
X041500Y017535D02*
X038209Y017535D01*
X038051Y017694D02*
X041500Y017694D01*
X041500Y017852D02*
X036166Y017852D01*
X036166Y017694D02*
X037249Y017694D01*
X037091Y017535D02*
X036166Y017535D01*
X036166Y017406D02*
X036166Y018326D01*
X036072Y018420D01*
X035536Y018420D01*
X035483Y018472D01*
X035516Y018481D01*
X035557Y018505D01*
X035591Y018538D01*
X035615Y018579D01*
X035627Y018625D01*
X035627Y018847D01*
X035268Y018847D01*
X035268Y018884D01*
X035627Y018884D01*
X035627Y019106D01*
X035615Y019151D01*
X035591Y019192D01*
X035569Y019214D01*
X035607Y019252D01*
X035607Y019295D01*
X035843Y019295D01*
X035843Y019252D01*
X035881Y019214D01*
X035859Y019192D01*
X035835Y019151D01*
X035823Y019106D01*
X035823Y018884D01*
X036182Y018884D01*
X036182Y018847D01*
X036218Y018847D01*
X036218Y018469D01*
X036421Y018469D01*
X036466Y018481D01*
X036507Y018505D01*
X036541Y018538D01*
X036565Y018579D01*
X036577Y018625D01*
X036577Y018847D01*
X036218Y018847D01*
X036218Y018884D01*
X036577Y018884D01*
X036577Y019106D01*
X036565Y019151D01*
X036541Y019192D01*
X036519Y019214D01*
X036557Y019252D01*
X036557Y019817D01*
X036463Y019911D01*
X035937Y019911D01*
X035843Y019817D01*
X035843Y019775D01*
X035607Y019775D01*
X035607Y019817D01*
X035513Y019911D01*
X035490Y019911D01*
X035490Y019980D01*
X035736Y019980D01*
X035830Y020074D01*
X035830Y020420D01*
X036670Y020420D01*
X036670Y020074D01*
X036764Y019980D01*
X037676Y019980D01*
X037770Y020074D01*
X037770Y020320D01*
X039833Y020320D01*
X039880Y020367D01*
X039880Y020373D01*
X040348Y020373D01*
X040441Y020467D01*
X040441Y020510D01*
X040457Y020510D01*
X040464Y020492D01*
X040592Y020364D01*
X040759Y020295D01*
X040941Y020295D01*
X041108Y020364D01*
X041236Y020492D01*
X041305Y020659D01*
X041305Y020841D01*
X041236Y021008D01*
X041108Y021136D01*
X040941Y021205D01*
X040759Y021205D01*
X040592Y021136D01*
X040464Y021008D01*
X040457Y020990D01*
X040441Y020990D01*
X040441Y021033D01*
X040348Y021127D01*
X039837Y021127D01*
X039833Y021130D01*
X038458Y021130D01*
X038458Y021269D01*
X038557Y021367D01*
X038561Y021372D01*
X038624Y021435D01*
X038638Y021449D01*
X038690Y021574D01*
X038690Y022139D01*
X038713Y022139D01*
X038807Y022233D01*
X038807Y022260D01*
X039022Y022260D01*
X039110Y022297D01*
X039655Y022842D01*
X039778Y022842D01*
X039830Y022893D01*
X039882Y022842D01*
X040290Y022842D01*
X040384Y022935D01*
X040384Y023265D01*
X040326Y023322D01*
X040326Y023659D01*
X040383Y023659D01*
X040392Y023668D01*
X040506Y023554D01*
X040594Y023518D01*
X040638Y023518D01*
X040716Y023440D01*
X041084Y023440D01*
X041178Y023534D01*
X041178Y023982D01*
X041084Y024075D01*
X040740Y024075D01*
X040740Y024410D01*
X040758Y024405D01*
X040900Y024405D01*
X041042Y024405D01*
X041088Y024417D01*
X041129Y024441D01*
X041162Y024474D01*
X041186Y024515D01*
X041198Y024561D01*
X041198Y024742D01*
X040900Y024742D01*
X040900Y024405D01*
X040900Y024742D01*
X040900Y024742D01*
X040900Y024742D01*
X041198Y024742D01*
X041198Y024923D01*
X041186Y024969D01*
X041162Y025010D01*
X041129Y025044D01*
X041088Y025067D01*
X041042Y025080D01*
X040900Y025080D01*
X040758Y025080D01*
X040712Y025067D01*
X040671Y025044D01*
X040638Y025010D01*
X040614Y024969D01*
X040602Y024923D01*
X040602Y024788D01*
X040536Y024853D01*
X040477Y024878D01*
X040477Y024948D01*
X040383Y025041D01*
X040283Y025041D01*
X040240Y025084D01*
X040207Y025117D01*
X040207Y025117D01*
X039091Y026233D01*
X039091Y026533D01*
X038998Y026627D01*
X038472Y026627D01*
X038400Y026555D01*
X038328Y026627D01*
X037802Y026627D01*
X037709Y026533D01*
X037709Y026468D01*
X037636Y026438D01*
X037622Y026424D01*
X037586Y026388D01*
X037555Y026357D01*
X037402Y026204D01*
X037238Y026204D01*
X037083Y026140D01*
X036965Y026022D01*
X036901Y025867D01*
X036901Y025755D01*
X036807Y025755D01*
X036807Y025798D01*
X036769Y025836D01*
X036791Y025858D01*
X036815Y025899D01*
X036827Y025944D01*
X036827Y026166D01*
X036468Y026166D01*
X036468Y026203D01*
X036432Y026203D01*
X036432Y026581D01*
X036229Y026581D01*
X036184Y026569D01*
X036143Y026545D01*
X036109Y026512D01*
X036085Y026471D01*
X036073Y026425D01*
X036073Y026203D01*
X036432Y026203D01*
X036432Y026166D01*
X036073Y026166D01*
X036073Y025944D01*
X036085Y025899D01*
X036109Y025858D01*
X036131Y025836D01*
X036093Y025798D01*
X036093Y025755D01*
X036007Y025755D01*
X036007Y025798D01*
X035969Y025836D01*
X035991Y025858D01*
X036015Y025899D01*
X036027Y025944D01*
X036027Y026166D01*
X035668Y026166D01*
X035668Y026203D01*
X035632Y026203D01*
X035632Y026581D01*
X035429Y026581D01*
X035384Y026569D01*
X035343Y026545D01*
X035309Y026512D01*
X035285Y026471D01*
X035273Y026425D01*
X035273Y026203D01*
X035632Y026203D01*
X035632Y026166D01*
X035273Y026166D01*
X035273Y025944D01*
X035285Y025899D01*
X035309Y025858D01*
X035331Y025836D01*
X035293Y025798D01*
X035293Y025233D01*
X035387Y025139D01*
X035913Y025139D01*
X036007Y025233D01*
X036007Y025275D01*
X036093Y025275D01*
X036093Y025233D01*
X036187Y025139D01*
X036713Y025139D01*
X036807Y025233D01*
X036807Y025275D01*
X037079Y025275D01*
X037204Y025327D01*
X037218Y025341D01*
X037240Y025364D01*
X037405Y025364D01*
X037559Y025428D01*
X037677Y025546D01*
X037741Y025700D01*
X037741Y025864D01*
X037776Y025899D01*
X037802Y025873D01*
X038328Y025873D01*
X038400Y025945D01*
X038472Y025873D01*
X038772Y025873D01*
X039723Y024922D01*
X039723Y024422D01*
X039795Y024350D01*
X039723Y024278D01*
X039723Y023752D01*
X039817Y023659D01*
X039846Y023659D01*
X039846Y023322D01*
X039830Y023307D01*
X039778Y023358D01*
X039370Y023358D01*
X039277Y023265D01*
X039277Y023142D01*
X038875Y022740D01*
X038807Y022740D01*
X038807Y022798D01*
X038769Y022836D01*
X038791Y022858D01*
X038815Y022899D01*
X038827Y022944D01*
X038827Y023166D01*
X038468Y023166D01*
X038468Y023203D01*
X038432Y023203D01*
X038432Y023581D01*
X038229Y023581D01*
X038184Y023569D01*
X038143Y023545D01*
X038109Y023512D01*
X038085Y023471D01*
X038073Y023425D01*
X038073Y023203D01*
X038432Y023203D01*
X038432Y023166D01*
X038073Y023166D01*
X038073Y022944D01*
X038085Y022899D01*
X038109Y022858D01*
X038131Y022836D01*
X038093Y022798D01*
X038093Y022755D01*
X037957Y022755D01*
X037957Y022798D01*
X037919Y022836D01*
X037941Y022858D01*
X037965Y022899D01*
X037977Y022944D01*
X037977Y023166D01*
X037618Y023166D01*
X037618Y023203D01*
X037582Y023203D01*
X037582Y023581D01*
X037379Y023581D01*
X037334Y023569D01*
X037293Y023545D01*
X037259Y023512D01*
X037235Y023471D01*
X037223Y023425D01*
X037223Y023203D01*
X037582Y023203D01*
X037582Y023166D01*
X037223Y023166D01*
X037223Y022944D01*
X037235Y022899D01*
X037259Y022858D01*
X037281Y022836D01*
X037243Y022798D01*
X037243Y022233D01*
X037337Y022139D01*
X037863Y022139D01*
X037957Y022233D01*
X037957Y022260D01*
X038093Y022260D01*
X038093Y022233D01*
X038187Y022139D01*
X038210Y022139D01*
X038210Y021699D01*
X038119Y021608D01*
X037836Y021608D01*
X037742Y021514D01*
X037742Y021490D01*
X037706Y021490D01*
X037696Y021500D01*
X037770Y021574D01*
X037770Y021926D01*
X037676Y022020D01*
X036790Y022020D01*
X036790Y022120D01*
X037033Y022120D01*
X037080Y022167D01*
X037080Y023683D01*
X037033Y023730D01*
X035830Y023730D01*
X035830Y023920D01*
X036833Y023920D01*
X036850Y023937D01*
X036850Y023936D02*
X036850Y023936D01*
X037107Y024005D01*
X037295Y024193D01*
X037295Y024193D01*
X037364Y024450D01*
X037295Y024707D01*
X037107Y024895D01*
X037107Y024895D01*
X036850Y024964D01*
X036593Y024895D01*
X036478Y024780D01*
X035817Y024780D01*
X035770Y024733D01*
X035770Y024730D01*
X035617Y024730D01*
X035570Y024683D01*
X035570Y024580D01*
X035117Y024580D01*
X035070Y024533D01*
X035070Y024241D01*
X034967Y024241D01*
X034906Y024180D01*
X034617Y024180D01*
X034570Y024133D01*
X034570Y024030D01*
X034417Y024030D01*
X034370Y023983D01*
X034370Y023980D01*
X033999Y023980D01*
X033951Y024160D01*
X033951Y024160D01*
X033760Y024351D01*
X033500Y024421D01*
X033240Y024351D01*
X033240Y024351D01*
X033049Y024160D01*
X032979Y023900D01*
X033049Y023640D01*
X033049Y023640D01*
X033240Y023449D01*
X033500Y023379D01*
X033520Y023385D01*
X033520Y023117D01*
X033567Y023070D01*
X033570Y023070D01*
X033570Y022477D01*
X033202Y022477D01*
X033109Y022383D01*
X033109Y022255D01*
X032757Y022255D01*
X032757Y022298D01*
X032719Y022336D01*
X032741Y022358D01*
X032765Y022399D01*
X032777Y022444D01*
X032777Y022666D01*
X032418Y022666D01*
X032418Y022703D01*
X032382Y022703D01*
X032382Y023081D01*
X032179Y023081D01*
X032134Y023069D01*
X032093Y023045D01*
X032059Y023012D01*
X032035Y022971D01*
X032023Y022925D01*
X032023Y022703D01*
X032382Y022703D01*
X032382Y022666D01*
X032023Y022666D01*
X032023Y022444D01*
X032024Y022440D01*
X031727Y022440D01*
X031727Y022498D01*
X031633Y022591D01*
X031067Y022591D01*
X030973Y022498D01*
X030973Y022475D01*
X030941Y022475D01*
X030941Y022483D01*
X030848Y022577D01*
X030322Y022577D01*
X030262Y022517D01*
X030256Y022527D01*
X030223Y022561D01*
X030182Y022584D01*
X030136Y022597D01*
X029934Y022597D01*
X029934Y022218D01*
X029897Y022218D01*
X029897Y022182D01*
X029539Y022182D01*
X029539Y021960D01*
X029551Y021914D01*
X029574Y021873D01*
X029608Y021839D01*
X029649Y021816D01*
X029695Y021803D01*
X029897Y021803D01*
X029897Y022182D01*
X029934Y022182D01*
X029934Y021803D01*
X030136Y021803D01*
X030182Y021816D01*
X030223Y021839D01*
X030256Y021873D01*
X030262Y021883D01*
X030322Y021823D01*
X030848Y021823D01*
X030941Y021917D01*
X030941Y021995D01*
X030973Y021995D01*
X030973Y021972D01*
X031045Y021900D01*
X030973Y021828D01*
X030973Y021601D01*
X030917Y021657D01*
X030352Y021657D01*
X030314Y021619D01*
X030292Y021641D01*
X030251Y021665D01*
X030206Y021677D01*
X029984Y021677D01*
X029984Y021318D01*
X029947Y021318D01*
X029947Y021282D01*
X029569Y021282D01*
X029569Y021079D01*
X029581Y021034D01*
X029605Y020993D01*
X029638Y020959D01*
X029679Y020935D01*
X029725Y020923D01*
X029947Y020923D01*
X029947Y021282D01*
X029984Y021282D01*
X029984Y020923D01*
X030206Y020923D01*
X030251Y020935D01*
X030292Y020959D01*
X030314Y020981D01*
X030352Y020943D01*
X030395Y020943D01*
X030395Y020877D01*
X030372Y020877D01*
X030300Y020805D01*
X030228Y020877D01*
X029702Y020877D01*
X029609Y020783D01*
X029609Y020217D01*
X029702Y020123D01*
X029740Y020123D01*
X029777Y020033D01*
X029791Y020019D01*
X029831Y019979D01*
X029859Y019952D01*
X030964Y018847D01*
X031052Y018810D01*
X034101Y018810D01*
X034664Y018247D01*
X034752Y018210D01*
X035067Y018210D01*
X035334Y017943D01*
X035334Y017406D01*
X035428Y017312D01*
X036072Y017312D01*
X036166Y017406D01*
X036136Y017377D02*
X037018Y017377D01*
X037018Y017218D02*
X034432Y017218D01*
X034432Y017060D02*
X037018Y017060D01*
X037055Y016901D02*
X034395Y016901D01*
X034432Y017377D02*
X035364Y017377D01*
X035334Y017535D02*
X034359Y017535D01*
X034201Y017694D02*
X035334Y017694D01*
X035334Y017852D02*
X029000Y017852D01*
X029000Y017694D02*
X033399Y017694D01*
X033241Y017535D02*
X029000Y017535D01*
X029000Y017377D02*
X030470Y017377D01*
X030497Y017404D02*
X030396Y017303D01*
X030342Y017171D01*
X030342Y017029D01*
X030396Y016897D01*
X030460Y016834D01*
X030460Y016616D01*
X030396Y016553D01*
X030342Y016421D01*
X030342Y016279D01*
X030396Y016147D01*
X030460Y016084D01*
X030460Y015866D01*
X030396Y015803D01*
X030342Y015671D01*
X030342Y015529D01*
X030396Y015397D01*
X030460Y015334D01*
X030460Y015116D01*
X030396Y015053D01*
X030342Y014921D01*
X030342Y014779D01*
X030396Y014647D01*
X030497Y014546D01*
X030629Y014492D01*
X030771Y014492D01*
X030903Y014546D01*
X031004Y014647D01*
X031058Y014779D01*
X031058Y014921D01*
X031004Y015053D01*
X030940Y015116D01*
X030940Y015334D01*
X031004Y015397D01*
X031058Y015529D01*
X031058Y015671D01*
X031004Y015803D01*
X030940Y015866D01*
X030940Y016084D01*
X031004Y016147D01*
X031058Y016279D01*
X031058Y016421D01*
X031004Y016553D01*
X030940Y016616D01*
X030940Y016834D01*
X031004Y016897D01*
X031058Y017029D01*
X031058Y017171D01*
X031004Y017303D01*
X030903Y017404D01*
X030771Y017458D01*
X030629Y017458D01*
X030497Y017404D01*
X030361Y017218D02*
X029000Y017218D01*
X029000Y017060D02*
X030342Y017060D01*
X030395Y016901D02*
X029000Y016901D01*
X029000Y016743D02*
X030460Y016743D01*
X030428Y016584D02*
X029722Y016584D01*
X029754Y016553D02*
X029653Y016654D01*
X029521Y016708D01*
X029379Y016708D01*
X029247Y016654D01*
X029146Y016553D01*
X029092Y016421D01*
X029092Y016279D01*
X029146Y016147D01*
X029247Y016046D01*
X029379Y015992D01*
X029521Y015992D01*
X029653Y016046D01*
X029754Y016147D01*
X029808Y016279D01*
X029808Y016421D01*
X029754Y016553D01*
X029806Y016426D02*
X030344Y016426D01*
X030347Y016267D02*
X029803Y016267D01*
X029715Y016109D02*
X030435Y016109D01*
X030460Y015950D02*
X029000Y015950D01*
X029000Y015792D02*
X030392Y015792D01*
X030342Y015633D02*
X029000Y015633D01*
X029000Y015475D02*
X030364Y015475D01*
X030460Y015316D02*
X029000Y015316D01*
X029000Y015158D02*
X029257Y015158D01*
X029247Y015154D02*
X029146Y015053D01*
X029092Y014921D01*
X029092Y014779D01*
X029146Y014647D01*
X029247Y014546D01*
X029379Y014492D01*
X029521Y014492D01*
X029653Y014546D01*
X029754Y014647D01*
X029808Y014779D01*
X029808Y014921D01*
X029754Y015053D01*
X029653Y015154D01*
X029521Y015208D01*
X029379Y015208D01*
X029247Y015154D01*
X029124Y014999D02*
X029000Y014999D01*
X029000Y014841D02*
X029092Y014841D01*
X029132Y014682D02*
X029000Y014682D01*
X029000Y014524D02*
X029302Y014524D01*
X029598Y014524D02*
X030552Y014524D01*
X030459Y014365D02*
X029000Y014365D01*
X029000Y014207D02*
X030357Y014207D01*
X030342Y014048D02*
X029000Y014048D01*
X029000Y013890D02*
X030404Y013890D01*
X031043Y014207D02*
X031424Y014207D01*
X031413Y014214D02*
X031469Y014174D01*
X031531Y014142D01*
X031597Y014121D01*
X031665Y014110D01*
X031700Y014110D01*
X031735Y014110D01*
X031803Y014121D01*
X031869Y014142D01*
X031931Y014174D01*
X031987Y014214D01*
X032036Y014263D01*
X032076Y014319D01*
X032108Y014381D01*
X032129Y014447D01*
X032140Y014515D01*
X032140Y014550D01*
X032140Y014585D01*
X032129Y014653D01*
X032108Y014719D01*
X032076Y014781D01*
X032036Y014837D01*
X031987Y014886D01*
X031931Y014926D01*
X031869Y014958D01*
X031803Y014979D01*
X031735Y014990D01*
X031700Y014990D01*
X031700Y014550D01*
X032140Y014550D01*
X031700Y014550D01*
X031700Y014550D01*
X031700Y014550D01*
X031700Y014110D01*
X031700Y014550D01*
X031700Y014550D01*
X031700Y014550D01*
X031260Y014550D01*
X031260Y014585D01*
X031271Y014653D01*
X031292Y014719D01*
X031324Y014781D01*
X031364Y014837D01*
X031413Y014886D01*
X031469Y014926D01*
X031531Y014958D01*
X031597Y014979D01*
X031665Y014990D01*
X031700Y014990D01*
X031700Y014550D01*
X031260Y014550D01*
X031260Y014515D01*
X031271Y014447D01*
X031292Y014381D01*
X031324Y014319D01*
X031364Y014263D01*
X031413Y014214D01*
X031300Y014365D02*
X030941Y014365D01*
X030848Y014524D02*
X031260Y014524D01*
X031280Y014682D02*
X031018Y014682D01*
X031058Y014841D02*
X031368Y014841D01*
X031700Y014841D02*
X031700Y014841D01*
X031700Y014682D02*
X031700Y014682D01*
X031700Y014524D02*
X031700Y014524D01*
X031700Y014365D02*
X031700Y014365D01*
X031700Y014207D02*
X031700Y014207D01*
X031976Y014207D02*
X033450Y014207D01*
X033291Y014365D02*
X032100Y014365D01*
X032140Y014524D02*
X033280Y014524D01*
X033280Y014682D02*
X032120Y014682D01*
X032032Y014841D02*
X033397Y014841D01*
X033575Y014999D02*
X031026Y014999D01*
X030940Y015158D02*
X033575Y015158D01*
X033575Y015316D02*
X030940Y015316D01*
X031036Y015475D02*
X033575Y015475D01*
X033575Y015633D02*
X031058Y015633D01*
X031008Y015792D02*
X033534Y015792D01*
X033459Y015950D02*
X030940Y015950D01*
X030965Y016109D02*
X033459Y016109D01*
X033459Y016267D02*
X031053Y016267D01*
X031056Y016426D02*
X033459Y016426D01*
X033522Y016584D02*
X030972Y016584D01*
X030940Y016743D02*
X033363Y016743D01*
X033205Y016901D02*
X031005Y016901D01*
X031058Y017060D02*
X033168Y017060D01*
X033168Y017218D02*
X031039Y017218D01*
X030930Y017377D02*
X033168Y017377D01*
X033800Y017200D02*
X033800Y016187D01*
X033815Y016150D02*
X033815Y014707D01*
X033786Y014636D02*
X033700Y014550D01*
X033786Y014636D02*
X033798Y014651D01*
X033807Y014669D01*
X033813Y014687D01*
X033815Y014707D01*
X034055Y014841D02*
X035040Y014841D01*
X035058Y014845D02*
X035012Y014833D01*
X034971Y014809D01*
X034938Y014776D01*
X034914Y014735D01*
X034902Y014689D01*
X034902Y014508D01*
X035200Y014508D01*
X035200Y014845D01*
X035058Y014845D01*
X035200Y014845D02*
X035200Y014508D01*
X035200Y014508D01*
X035498Y014508D01*
X035498Y014689D01*
X035486Y014735D01*
X035462Y014776D01*
X035429Y014809D01*
X035388Y014833D01*
X035342Y014845D01*
X035200Y014845D01*
X035200Y014841D02*
X035200Y014841D01*
X035200Y014682D02*
X035200Y014682D01*
X035200Y014524D02*
X035200Y014524D01*
X035200Y014508D02*
X035200Y014508D01*
X035200Y014508D01*
X035498Y014508D01*
X035498Y014327D01*
X035486Y014281D01*
X035462Y014240D01*
X035429Y014206D01*
X035388Y014183D01*
X035342Y014170D01*
X035200Y014170D01*
X035200Y014508D01*
X034902Y014508D01*
X034902Y014327D01*
X034914Y014281D01*
X034938Y014240D01*
X034971Y014206D01*
X035012Y014183D01*
X035058Y014170D01*
X035200Y014170D01*
X035200Y014508D01*
X035200Y014508D01*
X035200Y014365D02*
X035200Y014365D01*
X035200Y014207D02*
X035200Y014207D01*
X035429Y014207D02*
X036071Y014207D01*
X036071Y014206D02*
X036112Y014183D01*
X036158Y014170D01*
X036300Y014170D01*
X036300Y014508D01*
X036300Y014845D01*
X036158Y014845D01*
X036112Y014833D01*
X036071Y014809D01*
X036038Y014776D01*
X036014Y014735D01*
X036002Y014689D01*
X036002Y014508D01*
X036300Y014508D01*
X036300Y014508D01*
X036300Y014845D01*
X036442Y014845D01*
X036488Y014833D01*
X036529Y014809D01*
X036562Y014776D01*
X036586Y014735D01*
X036598Y014689D01*
X036598Y014508D01*
X036300Y014508D01*
X036300Y014508D01*
X036300Y014508D01*
X036002Y014508D01*
X036002Y014327D01*
X036014Y014281D01*
X036038Y014240D01*
X036071Y014206D01*
X036002Y014365D02*
X035498Y014365D01*
X035498Y014524D02*
X036002Y014524D01*
X036002Y014682D02*
X035498Y014682D01*
X035360Y014841D02*
X036140Y014841D01*
X036300Y014841D02*
X036300Y014841D01*
X036300Y014682D02*
X036300Y014682D01*
X036300Y014524D02*
X036300Y014524D01*
X036300Y014508D02*
X036598Y014508D01*
X036598Y014327D01*
X036586Y014281D01*
X036562Y014240D01*
X036529Y014206D01*
X036488Y014183D01*
X036442Y014170D01*
X036300Y014170D01*
X036300Y014508D01*
X036300Y014508D01*
X036300Y014365D02*
X036300Y014365D01*
X036300Y014207D02*
X036300Y014207D01*
X036529Y014207D02*
X037350Y014207D01*
X037251Y014365D02*
X036598Y014365D01*
X036598Y014524D02*
X037230Y014524D01*
X037271Y014682D02*
X036598Y014682D01*
X036460Y014841D02*
X037397Y014841D01*
X037445Y014999D02*
X034055Y014999D01*
X034120Y014682D02*
X034902Y014682D01*
X034902Y014524D02*
X034120Y014524D01*
X034109Y014365D02*
X034902Y014365D01*
X034971Y014207D02*
X033950Y014207D01*
X035478Y015316D02*
X036022Y015316D01*
X036022Y015475D02*
X035478Y015475D01*
X035495Y015633D02*
X036005Y015633D01*
X035964Y015792D02*
X035536Y015792D01*
X035536Y015950D02*
X035964Y015950D01*
X035964Y016109D02*
X035536Y016109D01*
X035536Y016267D02*
X035964Y016267D01*
X035964Y016426D02*
X035536Y016426D01*
X035536Y016584D02*
X035964Y016584D01*
X036301Y016134D02*
X036306Y016129D01*
X036300Y016131D02*
X036300Y016133D01*
X036301Y016134D01*
X036300Y016131D02*
X036300Y015492D01*
X036376Y016100D02*
X036356Y016102D01*
X036338Y016108D01*
X036320Y016117D01*
X036305Y016129D01*
X037347Y015792D02*
X037353Y015792D01*
X037925Y015633D02*
X041500Y015633D01*
X041500Y015475D02*
X037925Y015475D01*
X037925Y015316D02*
X041500Y015316D01*
X041500Y015158D02*
X037925Y015158D01*
X037925Y014999D02*
X041500Y014999D01*
X041500Y015792D02*
X038016Y015792D01*
X038041Y015950D02*
X041500Y015950D01*
X041500Y018011D02*
X036166Y018011D01*
X036166Y018169D02*
X041500Y018169D01*
X041500Y018328D02*
X036164Y018328D01*
X036182Y018469D02*
X036182Y018847D01*
X035823Y018847D01*
X035823Y018625D01*
X035835Y018579D01*
X035859Y018538D01*
X035893Y018505D01*
X035934Y018481D01*
X035979Y018469D01*
X036182Y018469D01*
X036182Y018486D02*
X036218Y018486D01*
X036218Y018645D02*
X036182Y018645D01*
X036182Y018803D02*
X036218Y018803D01*
X036577Y018803D02*
X041500Y018803D01*
X041500Y018645D02*
X036577Y018645D01*
X036475Y018486D02*
X041500Y018486D01*
X041500Y018962D02*
X036577Y018962D01*
X036573Y019120D02*
X041500Y019120D01*
X041500Y019279D02*
X036557Y019279D01*
X036557Y019437D02*
X041500Y019437D01*
X041500Y019596D02*
X036557Y019596D01*
X036557Y019754D02*
X041500Y019754D01*
X041500Y019913D02*
X035490Y019913D01*
X035250Y020179D02*
X035252Y020199D01*
X035258Y020217D01*
X035267Y020235D01*
X035279Y020250D01*
X035280Y020250D02*
X035279Y020249D01*
X035250Y020179D02*
X035250Y019535D01*
X034476Y019535D01*
X034405Y019505D02*
X034400Y019500D01*
X034405Y019506D02*
X034420Y019518D01*
X034438Y019527D01*
X034456Y019533D01*
X034476Y019535D01*
X034497Y019858D02*
X034497Y020047D01*
X034118Y020047D01*
X034118Y020084D01*
X034497Y020084D01*
X034497Y020220D01*
X034730Y020220D01*
X034730Y020074D01*
X034824Y019980D01*
X035010Y019980D01*
X035010Y019911D01*
X034987Y019911D01*
X034893Y019817D01*
X034893Y019775D01*
X034748Y019775D01*
X034664Y019858D01*
X034497Y019858D01*
X034497Y019913D02*
X035010Y019913D01*
X034733Y020071D02*
X034118Y020071D01*
X034082Y020071D02*
X033368Y020071D01*
X033368Y020084D02*
X033727Y020084D01*
X034082Y020084D01*
X034082Y020047D01*
X033368Y020047D01*
X033368Y019669D01*
X033571Y019669D01*
X033616Y019681D01*
X033657Y019705D01*
X033691Y019738D01*
X033715Y019779D01*
X033719Y019794D01*
X033739Y019758D01*
X033773Y019724D01*
X033814Y019701D01*
X033860Y019689D01*
X034042Y019689D01*
X034042Y019290D01*
X031199Y019290D01*
X030297Y020192D01*
X030300Y020195D01*
X030372Y020123D01*
X030898Y020123D01*
X030991Y020217D01*
X030991Y020783D01*
X030898Y020877D01*
X030875Y020877D01*
X030875Y020943D01*
X030917Y020943D01*
X031011Y021037D01*
X031011Y021060D01*
X031111Y021060D01*
X031236Y021112D01*
X031250Y021126D01*
X031297Y021173D01*
X031317Y021193D01*
X031333Y021209D01*
X031633Y021209D01*
X031727Y021302D01*
X031727Y021828D01*
X031655Y021900D01*
X031715Y021960D01*
X031951Y021960D01*
X032002Y021909D01*
X032010Y021900D01*
X032043Y021867D01*
X032043Y021733D01*
X032137Y021639D01*
X032663Y021639D01*
X032757Y021733D01*
X032757Y021775D01*
X033150Y021775D01*
X033202Y021723D01*
X033520Y021723D01*
X033520Y021567D01*
X033567Y021520D01*
X034520Y021520D01*
X034520Y021180D01*
X031467Y021180D01*
X031420Y021133D01*
X031420Y020667D01*
X031443Y020644D01*
X031443Y020452D01*
X031481Y020414D01*
X031459Y020392D01*
X031435Y020351D01*
X031423Y020306D01*
X031423Y020084D01*
X031782Y020084D01*
X031782Y020047D01*
X031818Y020047D01*
X031818Y019669D01*
X032021Y019669D01*
X032066Y019681D01*
X032107Y019705D01*
X032141Y019738D01*
X032165Y019779D01*
X032169Y019794D01*
X032189Y019758D01*
X032223Y019724D01*
X032264Y019701D01*
X032310Y019689D01*
X032532Y019689D01*
X032532Y020047D01*
X032568Y020047D01*
X032568Y019689D01*
X032790Y019689D01*
X032836Y019701D01*
X032877Y019724D01*
X032911Y019758D01*
X032934Y019799D01*
X032947Y019845D01*
X032947Y020047D01*
X032568Y020047D01*
X032568Y020084D01*
X032947Y020084D01*
X032947Y020286D01*
X032934Y020332D01*
X032911Y020373D01*
X032877Y020406D01*
X032867Y020412D01*
X032927Y020472D01*
X032927Y020495D01*
X032993Y020495D01*
X032993Y020452D01*
X033031Y020414D01*
X033009Y020392D01*
X032985Y020351D01*
X032973Y020306D01*
X032973Y020084D01*
X033332Y020084D01*
X033332Y020047D01*
X033368Y020047D01*
X033368Y020084D01*
X033332Y020071D02*
X032568Y020071D01*
X032532Y020071D02*
X031818Y020071D01*
X031818Y020084D02*
X032177Y020084D01*
X032532Y020084D01*
X032532Y020047D01*
X031818Y020047D01*
X031818Y020084D01*
X031782Y020071D02*
X030418Y020071D01*
X030577Y019913D02*
X031423Y019913D01*
X031423Y019825D02*
X031435Y019779D01*
X031459Y019738D01*
X031493Y019705D01*
X031534Y019681D01*
X031579Y019669D01*
X031782Y019669D01*
X031782Y020047D01*
X031423Y020047D01*
X031423Y019825D01*
X031450Y019754D02*
X030735Y019754D01*
X030894Y019596D02*
X034042Y019596D01*
X034042Y019437D02*
X031052Y019437D01*
X031100Y019050D02*
X029995Y020155D01*
X029965Y020226D02*
X029965Y020500D01*
X029965Y020226D02*
X029967Y020206D01*
X029973Y020188D01*
X029982Y020170D01*
X029994Y020155D01*
X029762Y020071D02*
X029000Y020071D01*
X029000Y019913D02*
X029898Y019913D01*
X029777Y020033D02*
X029777Y020033D01*
X029609Y020230D02*
X029000Y020230D01*
X029000Y020388D02*
X029609Y020388D01*
X029609Y020547D02*
X029000Y020547D01*
X029000Y020705D02*
X029609Y020705D01*
X029689Y020864D02*
X029000Y020864D01*
X029000Y021022D02*
X029588Y021022D01*
X029569Y021181D02*
X029000Y021181D01*
X029000Y021339D02*
X029569Y021339D01*
X029569Y021318D02*
X029947Y021318D01*
X029947Y021677D01*
X029725Y021677D01*
X029679Y021665D01*
X029638Y021641D01*
X029605Y021607D01*
X029581Y021566D01*
X029569Y021521D01*
X029569Y021318D01*
X029569Y021498D02*
X029000Y021498D01*
X029000Y021656D02*
X029665Y021656D01*
X029653Y021815D02*
X029000Y021815D01*
X029000Y021973D02*
X029539Y021973D01*
X029539Y022132D02*
X029000Y022132D01*
X029000Y022290D02*
X029539Y022290D01*
X029539Y022218D02*
X029897Y022218D01*
X029897Y022597D01*
X029695Y022597D01*
X029649Y022584D01*
X029608Y022561D01*
X029574Y022527D01*
X029551Y022486D01*
X029539Y022440D01*
X029539Y022218D01*
X029541Y022449D02*
X029000Y022449D01*
X029000Y022607D02*
X032023Y022607D01*
X032023Y022449D02*
X031727Y022449D01*
X031426Y022200D02*
X031406Y022202D01*
X031388Y022208D01*
X031370Y022217D01*
X031355Y022229D01*
X031350Y022235D01*
X030661Y022235D01*
X030590Y022205D02*
X030585Y022200D01*
X030590Y022206D02*
X030605Y022218D01*
X030623Y022227D01*
X030641Y022233D01*
X030661Y022235D01*
X030941Y021973D02*
X030973Y021973D01*
X030973Y021815D02*
X030177Y021815D01*
X030266Y021656D02*
X030351Y021656D01*
X029984Y021656D02*
X029947Y021656D01*
X029947Y021498D02*
X029984Y021498D01*
X029984Y021339D02*
X029947Y021339D01*
X029947Y021181D02*
X029984Y021181D01*
X029984Y021022D02*
X029947Y021022D01*
X030241Y020864D02*
X030359Y020864D01*
X030635Y020500D02*
X030635Y021300D01*
X031043Y021300D01*
X031114Y021329D02*
X031350Y021565D01*
X031114Y021329D02*
X031099Y021317D01*
X031081Y021308D01*
X031063Y021302D01*
X031043Y021300D01*
X031236Y021112D02*
X031236Y021112D01*
X031250Y021126D02*
X031250Y021126D01*
X031305Y021181D02*
X034520Y021181D01*
X034520Y021339D02*
X031727Y021339D01*
X031727Y021498D02*
X034520Y021498D01*
X034135Y022100D02*
X034135Y022744D01*
X034137Y022750D02*
X034150Y022750D01*
X034586Y023186D01*
X034657Y023215D02*
X035250Y023215D01*
X035255Y023221D01*
X035326Y023250D02*
X035965Y023250D01*
X035965Y022500D01*
X035971Y022495D01*
X036000Y022424D02*
X036000Y021500D01*
X035779Y021279D01*
X035709Y021250D02*
X035280Y021250D01*
X035709Y021250D02*
X035729Y021252D01*
X035747Y021258D01*
X035765Y021267D01*
X035780Y021279D01*
X036500Y021359D02*
X036500Y020900D01*
X036621Y020779D01*
X036691Y020750D02*
X037000Y020750D01*
X037220Y020750D02*
X039415Y020750D01*
X040150Y020750D02*
X040850Y020750D01*
X041000Y021181D02*
X041500Y021181D01*
X041500Y021339D02*
X038528Y021339D01*
X038624Y021435D02*
X038624Y021435D01*
X038638Y021449D02*
X038638Y021449D01*
X038658Y021498D02*
X041500Y021498D01*
X041500Y021656D02*
X038690Y021656D01*
X038690Y021815D02*
X041500Y021815D01*
X041500Y021973D02*
X038690Y021973D01*
X038690Y022132D02*
X041500Y022132D01*
X041500Y022290D02*
X039095Y022290D01*
X039262Y022449D02*
X041500Y022449D01*
X041500Y022607D02*
X039421Y022607D01*
X039579Y022766D02*
X041500Y022766D01*
X041500Y022924D02*
X040373Y022924D01*
X040384Y023083D02*
X041500Y023083D01*
X041500Y023241D02*
X040384Y023241D01*
X040326Y023400D02*
X041500Y023400D01*
X041500Y023558D02*
X041178Y023558D01*
X041178Y023717D02*
X041500Y023717D01*
X041500Y023875D02*
X041178Y023875D01*
X041126Y024034D02*
X041500Y024034D01*
X041500Y024192D02*
X040740Y024192D01*
X040740Y024351D02*
X041500Y024351D01*
X041500Y024509D02*
X041182Y024509D01*
X041198Y024668D02*
X041500Y024668D01*
X041500Y024826D02*
X041198Y024826D01*
X041177Y024985D02*
X041500Y024985D01*
X041500Y025143D02*
X040181Y025143D01*
X040240Y025084D02*
X040240Y025084D01*
X040440Y024985D02*
X040623Y024985D01*
X040602Y024826D02*
X040563Y024826D01*
X040400Y024650D02*
X040500Y024550D01*
X040500Y023900D01*
X040642Y023758D01*
X040900Y023758D01*
X040503Y023558D02*
X040326Y023558D01*
X039846Y023558D02*
X038735Y023558D01*
X038716Y023569D02*
X038671Y023581D01*
X038468Y023581D01*
X038468Y023203D01*
X038827Y023203D01*
X038827Y023425D01*
X038815Y023471D01*
X038791Y023512D01*
X038757Y023545D01*
X038716Y023569D01*
X038827Y023400D02*
X039846Y023400D01*
X039759Y023717D02*
X037047Y023717D01*
X037080Y023558D02*
X037315Y023558D01*
X037223Y023400D02*
X037080Y023400D01*
X037080Y023241D02*
X037223Y023241D01*
X037223Y023083D02*
X037080Y023083D01*
X037080Y022924D02*
X037229Y022924D01*
X037243Y022766D02*
X037080Y022766D01*
X037080Y022607D02*
X037243Y022607D01*
X037243Y022449D02*
X037080Y022449D01*
X037080Y022290D02*
X037243Y022290D01*
X037045Y022132D02*
X038210Y022132D01*
X038210Y021973D02*
X037723Y021973D01*
X037770Y021815D02*
X038210Y021815D01*
X038167Y021656D02*
X037770Y021656D01*
X037742Y021498D02*
X037699Y021498D01*
X038100Y021250D02*
X037220Y021250D01*
X036529Y021430D02*
X036517Y021415D01*
X036508Y021397D01*
X036502Y021379D01*
X036500Y021359D01*
X036529Y021429D02*
X036550Y021450D01*
X036550Y022374D01*
X036579Y022445D02*
X036635Y022500D01*
X036635Y023250D01*
X036850Y023936D02*
X036850Y023937D01*
X037107Y024005D02*
X037107Y024005D01*
X037135Y024034D02*
X039723Y024034D01*
X039723Y024192D02*
X037294Y024192D01*
X037337Y024351D02*
X039794Y024351D01*
X039723Y024509D02*
X037348Y024509D01*
X037305Y024668D02*
X039723Y024668D01*
X039723Y024826D02*
X037175Y024826D01*
X037295Y024707D02*
X037295Y024707D01*
X036850Y024964D02*
X036850Y024964D01*
X036717Y025143D02*
X038238Y025143D01*
X038242Y025131D02*
X038274Y025069D01*
X038314Y025013D01*
X038363Y024964D01*
X038398Y024940D01*
X038419Y024924D01*
X038481Y024892D01*
X038547Y024871D01*
X038615Y024860D01*
X038685Y024860D01*
X038753Y024871D01*
X038819Y024892D01*
X038881Y024924D01*
X038937Y024964D01*
X038986Y025013D01*
X039010Y025048D01*
X039026Y025069D01*
X039058Y025131D01*
X039079Y025197D01*
X039090Y025265D01*
X039090Y025335D01*
X039079Y025403D01*
X039058Y025469D01*
X039026Y025531D01*
X038986Y025587D01*
X038937Y025636D01*
X038902Y025660D01*
X038881Y025676D01*
X038819Y025708D01*
X038753Y025729D01*
X038685Y025740D01*
X038615Y025740D01*
X038547Y025729D01*
X038481Y025708D01*
X038419Y025676D01*
X038363Y025636D01*
X038314Y025587D01*
X038290Y025552D01*
X038274Y025531D01*
X038242Y025469D01*
X038221Y025403D01*
X038210Y025335D01*
X038210Y025265D01*
X038221Y025197D01*
X038242Y025131D01*
X038210Y025302D02*
X037142Y025302D01*
X037204Y025327D02*
X037204Y025327D01*
X037082Y025545D02*
X037321Y025784D01*
X037758Y026221D01*
X037829Y026250D02*
X038065Y026250D01*
X037829Y026250D02*
X037809Y026248D01*
X037791Y026242D01*
X037773Y026233D01*
X037758Y026221D01*
X037609Y026411D02*
X036827Y026411D01*
X036827Y026425D02*
X036815Y026471D01*
X036791Y026512D01*
X036757Y026545D01*
X036716Y026569D01*
X036671Y026581D01*
X036468Y026581D01*
X036468Y026203D01*
X036827Y026203D01*
X036827Y026425D01*
X036827Y026253D02*
X037451Y026253D01*
X037636Y026438D02*
X037636Y026438D01*
X037745Y026570D02*
X036714Y026570D01*
X036468Y026570D02*
X036432Y026570D01*
X036432Y026411D02*
X036468Y026411D01*
X036468Y026253D02*
X036432Y026253D01*
X036073Y026253D02*
X036027Y026253D01*
X036027Y026203D02*
X036027Y026425D01*
X036015Y026471D01*
X035991Y026512D01*
X035957Y026545D01*
X035916Y026569D01*
X035871Y026581D01*
X035668Y026581D01*
X035668Y026203D01*
X036027Y026203D01*
X036027Y026094D02*
X036073Y026094D01*
X036076Y025936D02*
X036024Y025936D01*
X036007Y025777D02*
X036093Y025777D01*
X036450Y025515D02*
X035650Y025515D01*
X035293Y025460D02*
X034278Y025460D01*
X034267Y025486D02*
X034149Y025604D01*
X033994Y025668D01*
X033871Y025668D01*
X033817Y025722D01*
X033788Y025751D01*
X033784Y025756D01*
X033736Y025804D01*
X033736Y025804D01*
X033611Y025855D01*
X033557Y025855D01*
X033557Y025898D01*
X033519Y025936D01*
X033541Y025958D01*
X033565Y025999D01*
X033577Y026044D01*
X033577Y026266D01*
X033218Y026266D01*
X033218Y026303D01*
X033182Y026303D01*
X033182Y026681D01*
X032979Y026681D01*
X032934Y026669D01*
X032893Y026645D01*
X032859Y026612D01*
X032835Y026571D01*
X032823Y026525D01*
X032823Y026303D01*
X033182Y026303D01*
X033182Y026266D01*
X032823Y026266D01*
X032823Y026044D01*
X032835Y025999D01*
X032859Y025958D01*
X032881Y025936D01*
X032843Y025898D01*
X032843Y025855D01*
X032757Y025855D01*
X032757Y025898D01*
X032719Y025936D01*
X032741Y025958D01*
X032765Y025999D01*
X032777Y026044D01*
X032777Y026266D01*
X032418Y026266D01*
X032418Y026303D01*
X032382Y026303D01*
X032382Y026681D01*
X032179Y026681D01*
X032134Y026669D01*
X032093Y026645D01*
X032059Y026612D01*
X032035Y026571D01*
X032023Y026525D01*
X032023Y026303D01*
X032382Y026303D01*
X032382Y026266D01*
X032023Y026266D01*
X032023Y026044D01*
X032035Y025999D01*
X032059Y025958D01*
X032081Y025936D01*
X032043Y025898D01*
X032043Y025698D01*
X031772Y025427D01*
X031472Y025427D01*
X031400Y025355D01*
X031328Y025427D01*
X030802Y025427D01*
X030709Y025333D01*
X030709Y025033D01*
X030551Y024875D01*
X030377Y024875D01*
X030377Y024898D01*
X030283Y024991D01*
X029717Y024991D01*
X029635Y024909D01*
X029584Y024960D01*
X029216Y024960D01*
X029122Y024866D01*
X029122Y024418D01*
X029216Y024325D01*
X029584Y024325D01*
X029627Y024368D01*
X029695Y024300D01*
X029623Y024228D01*
X029623Y023962D01*
X029588Y023983D01*
X029542Y023995D01*
X029400Y023995D01*
X029258Y023995D01*
X029212Y023983D01*
X029171Y023959D01*
X029138Y023926D01*
X029114Y023885D01*
X029102Y023839D01*
X029102Y023658D01*
X029400Y023658D01*
X029400Y023995D01*
X029400Y023658D01*
X029400Y023658D01*
X029400Y023658D01*
X029102Y023658D01*
X029102Y023477D01*
X029114Y023431D01*
X029138Y023390D01*
X029171Y023356D01*
X029212Y023333D01*
X029258Y023320D01*
X029400Y023320D01*
X029400Y023658D01*
X029400Y023320D01*
X029542Y023320D01*
X029588Y023333D01*
X029629Y023356D01*
X029662Y023390D01*
X029686Y023431D01*
X029698Y023477D01*
X029698Y023628D01*
X029717Y023609D01*
X029784Y023609D01*
X029784Y023522D01*
X029727Y023465D01*
X029727Y023135D01*
X029820Y023042D01*
X030228Y023042D01*
X030280Y023093D01*
X030332Y023042D01*
X030484Y023042D01*
X030560Y023010D01*
X030642Y023010D01*
X030642Y022986D01*
X030736Y022892D01*
X031264Y022892D01*
X031358Y022986D01*
X031358Y023514D01*
X031264Y023608D01*
X030736Y023608D01*
X030686Y023558D01*
X030332Y023558D01*
X030264Y023558D01*
X030264Y023522D02*
X030264Y023609D01*
X030283Y023609D01*
X030377Y023702D01*
X030377Y024228D01*
X030305Y024300D01*
X030377Y024372D01*
X030377Y024395D01*
X030676Y024395D01*
X030801Y024446D01*
X030801Y024446D01*
X030815Y024460D01*
X031028Y024673D01*
X031328Y024673D01*
X031400Y024745D01*
X031472Y024673D01*
X031915Y024673D01*
X031863Y024636D01*
X031814Y024587D01*
X031775Y024532D01*
X032150Y024300D01*
X032382Y024675D01*
X032150Y024300D01*
X032150Y024300D01*
X032525Y024068D01*
X032150Y024300D01*
X032150Y024300D01*
X032150Y024300D01*
X031918Y023925D01*
X032150Y024300D01*
X032150Y024300D01*
X031775Y024532D01*
X031774Y024531D01*
X031742Y024469D01*
X031721Y024403D01*
X031710Y024335D01*
X031710Y024265D01*
X031721Y024197D01*
X031742Y024131D01*
X031774Y024069D01*
X031814Y024013D01*
X031863Y023964D01*
X031918Y023925D01*
X031919Y023924D01*
X031981Y023892D01*
X032047Y023871D01*
X032115Y023860D01*
X032185Y023860D01*
X032253Y023871D01*
X032319Y023892D01*
X032381Y023924D01*
X032437Y023964D01*
X032486Y024013D01*
X032525Y024068D01*
X032526Y024069D01*
X032558Y024131D01*
X032579Y024197D01*
X032590Y024265D01*
X032590Y024335D01*
X032579Y024403D01*
X032558Y024469D01*
X032526Y024531D01*
X032486Y024587D01*
X032437Y024636D01*
X032382Y024675D01*
X032381Y024676D01*
X032319Y024708D01*
X032253Y024729D01*
X032185Y024740D01*
X032115Y024740D01*
X032055Y024730D01*
X032091Y024767D01*
X032091Y025067D01*
X032263Y025239D01*
X032663Y025239D01*
X032757Y025333D01*
X032757Y025375D01*
X032843Y025375D01*
X032843Y025333D01*
X032937Y025239D01*
X033463Y025239D01*
X033491Y025267D01*
X033491Y025165D01*
X033555Y025010D01*
X033673Y024892D01*
X033827Y024828D01*
X033994Y024828D01*
X034149Y024892D01*
X034267Y025010D01*
X034331Y025165D01*
X034331Y025332D01*
X034267Y025486D01*
X034331Y025302D02*
X035293Y025302D01*
X035383Y025143D02*
X034322Y025143D01*
X034241Y024985D02*
X038343Y024985D01*
X038398Y024940D02*
X038650Y025300D01*
X038650Y025300D01*
X038902Y025660D01*
X038650Y025300D01*
X039010Y025048D01*
X038650Y025300D01*
X038650Y025300D01*
X038650Y025300D01*
X038290Y025552D01*
X038650Y025300D01*
X038398Y024940D01*
X038429Y024985D02*
X038429Y024985D01*
X038540Y025143D02*
X038540Y025143D01*
X038650Y025300D02*
X038650Y025300D01*
X038651Y025302D02*
X038651Y025302D01*
X038648Y025302D02*
X038648Y025302D01*
X038762Y025460D02*
X038762Y025460D01*
X038873Y025619D02*
X038873Y025619D01*
X038954Y025619D02*
X039027Y025619D01*
X039061Y025460D02*
X039185Y025460D01*
X039090Y025302D02*
X039344Y025302D01*
X039502Y025143D02*
X039062Y025143D01*
X038874Y025143D02*
X038874Y025143D01*
X038957Y024985D02*
X039661Y024985D01*
X040071Y024914D02*
X040083Y024899D01*
X040092Y024881D01*
X040098Y024863D01*
X040100Y024843D01*
X040100Y024685D01*
X040135Y024650D01*
X040400Y024650D01*
X040071Y024914D02*
X038735Y026250D01*
X039091Y026253D02*
X041500Y026253D01*
X041500Y026411D02*
X039091Y026411D01*
X039055Y026570D02*
X041218Y026570D01*
X041065Y026728D02*
X029435Y026728D01*
X029500Y026887D02*
X041000Y026887D01*
X041500Y026094D02*
X039230Y026094D01*
X039389Y025936D02*
X041500Y025936D01*
X041500Y025777D02*
X039547Y025777D01*
X039706Y025619D02*
X041500Y025619D01*
X041500Y025460D02*
X039864Y025460D01*
X040023Y025302D02*
X041500Y025302D01*
X040900Y025080D02*
X040900Y024742D01*
X040900Y025080D01*
X040900Y024985D02*
X040900Y024985D01*
X040900Y024826D02*
X040900Y024826D01*
X040900Y024742D02*
X040900Y024742D01*
X040900Y024668D02*
X040900Y024668D01*
X040900Y024509D02*
X040900Y024509D01*
X040100Y024015D02*
X040086Y024002D01*
X040086Y023100D01*
X039574Y023100D02*
X038974Y022500D01*
X038450Y022500D01*
X038450Y022515D01*
X037600Y022515D01*
X037637Y022500D02*
X038450Y022500D01*
X038450Y021641D01*
X038421Y021571D02*
X038100Y021250D01*
X038458Y021181D02*
X040700Y021181D01*
X040478Y021022D02*
X040441Y021022D01*
X040362Y020388D02*
X040568Y020388D01*
X041132Y020388D02*
X041500Y020388D01*
X041500Y020230D02*
X037770Y020230D01*
X037767Y020071D02*
X041500Y020071D01*
X041500Y020547D02*
X041259Y020547D01*
X041305Y020705D02*
X041500Y020705D01*
X041500Y020864D02*
X041296Y020864D01*
X041222Y021022D02*
X041500Y021022D01*
X039059Y022924D02*
X038821Y022924D01*
X038827Y023083D02*
X039218Y023083D01*
X039277Y023241D02*
X038827Y023241D01*
X038468Y023241D02*
X038432Y023241D01*
X038432Y023400D02*
X038468Y023400D01*
X038468Y023558D02*
X038432Y023558D01*
X038165Y023558D02*
X037885Y023558D01*
X037866Y023569D02*
X037821Y023581D01*
X037618Y023581D01*
X037618Y023203D01*
X037977Y023203D01*
X037977Y023425D01*
X037965Y023471D01*
X037941Y023512D01*
X037907Y023545D01*
X037866Y023569D01*
X037977Y023400D02*
X038073Y023400D01*
X038073Y023241D02*
X037977Y023241D01*
X037977Y023083D02*
X038073Y023083D01*
X038079Y022924D02*
X037971Y022924D01*
X037957Y022766D02*
X038093Y022766D01*
X037637Y022500D02*
X037624Y022502D01*
X037611Y022507D01*
X037600Y022515D01*
X037582Y023241D02*
X037618Y023241D01*
X037618Y023400D02*
X037582Y023400D01*
X037582Y023558D02*
X037618Y023558D01*
X036837Y024455D02*
X035862Y024455D01*
X035791Y024425D02*
X035250Y023885D01*
X034918Y024192D02*
X033919Y024192D01*
X033985Y024034D02*
X034570Y024034D01*
X035070Y024351D02*
X033761Y024351D01*
X033760Y024351D02*
X033760Y024351D01*
X033500Y024421D02*
X033500Y024421D01*
X033239Y024351D02*
X032587Y024351D01*
X032578Y024192D02*
X033081Y024192D01*
X033049Y024160D02*
X033049Y024160D01*
X033015Y024034D02*
X032500Y024034D01*
X032325Y024192D02*
X032325Y024192D01*
X032181Y024351D02*
X032181Y024351D01*
X032068Y024351D02*
X032068Y024351D01*
X032083Y024192D02*
X032083Y024192D01*
X031985Y024034D02*
X031985Y024034D01*
X032034Y023875D02*
X030377Y023875D01*
X030377Y023717D02*
X033029Y023717D01*
X032986Y023875D02*
X032266Y023875D01*
X031800Y024034D02*
X030377Y024034D01*
X030377Y024192D02*
X031722Y024192D01*
X031713Y024351D02*
X030356Y024351D01*
X030609Y024635D02*
X030000Y024635D01*
X029982Y024642D02*
X029400Y024642D01*
X029122Y024668D02*
X029000Y024668D01*
X029000Y024826D02*
X029122Y024826D01*
X029000Y024985D02*
X029710Y024985D01*
X029982Y024643D02*
X029989Y024642D01*
X029995Y024640D01*
X030000Y024635D01*
X030290Y024985D02*
X030660Y024985D01*
X030709Y025143D02*
X029000Y025143D01*
X029000Y025302D02*
X030709Y025302D01*
X031065Y025050D02*
X030679Y024664D01*
X030680Y024664D02*
X030665Y024652D01*
X030647Y024643D01*
X030629Y024637D01*
X030609Y024635D01*
X030815Y024460D02*
X030815Y024460D01*
X030864Y024509D02*
X031763Y024509D01*
X031812Y024509D02*
X031812Y024509D01*
X031907Y024668D02*
X031022Y024668D01*
X031735Y025050D02*
X032271Y025586D01*
X032341Y025615D02*
X032400Y025615D01*
X033200Y025615D01*
X033543Y025615D01*
X033614Y025586D02*
X033900Y025300D01*
X033900Y025275D01*
X033901Y025265D01*
X033905Y025256D01*
X033911Y025249D01*
X034114Y025619D02*
X035293Y025619D01*
X035293Y025777D02*
X033762Y025777D01*
X033784Y025756D02*
X033784Y025756D01*
X033519Y025936D02*
X035276Y025936D01*
X035273Y026094D02*
X033577Y026094D01*
X033577Y026253D02*
X035273Y026253D01*
X035273Y026411D02*
X033577Y026411D01*
X033577Y026303D02*
X033577Y026525D01*
X033565Y026571D01*
X033541Y026612D01*
X033507Y026645D01*
X033466Y026669D01*
X033421Y026681D01*
X033218Y026681D01*
X033218Y026303D01*
X033577Y026303D01*
X033565Y026570D02*
X035386Y026570D01*
X035632Y026570D02*
X035668Y026570D01*
X035668Y026411D02*
X035632Y026411D01*
X035632Y026253D02*
X035668Y026253D01*
X036027Y026411D02*
X036073Y026411D01*
X036186Y026570D02*
X035914Y026570D01*
X036827Y026094D02*
X037037Y026094D01*
X036929Y025936D02*
X036824Y025936D01*
X036807Y025777D02*
X036901Y025777D01*
X037011Y025515D02*
X037031Y025517D01*
X037049Y025523D01*
X037067Y025532D01*
X037082Y025544D01*
X037011Y025515D02*
X036450Y025515D01*
X036183Y025143D02*
X035917Y025143D01*
X035570Y024668D02*
X032393Y024668D01*
X032377Y024668D02*
X032377Y024668D01*
X032279Y024509D02*
X032279Y024509D01*
X032537Y024509D02*
X035070Y024509D01*
X035791Y024426D02*
X035806Y024438D01*
X035824Y024447D01*
X035842Y024453D01*
X035862Y024455D01*
X035830Y023875D02*
X039723Y023875D01*
X038901Y022766D02*
X038807Y022766D01*
X038450Y021641D02*
X038448Y021621D01*
X038442Y021603D01*
X038433Y021585D01*
X038421Y021570D01*
X036691Y020750D02*
X036671Y020752D01*
X036653Y020758D01*
X036635Y020767D01*
X036620Y020779D01*
X036670Y020388D02*
X035830Y020388D01*
X035830Y020230D02*
X036670Y020230D01*
X036673Y020071D02*
X035827Y020071D01*
X036200Y019535D02*
X035250Y019535D01*
X035255Y019529D01*
X035270Y019517D01*
X035288Y019508D01*
X035306Y019502D01*
X035326Y019500D01*
X035607Y019279D02*
X035843Y019279D01*
X035827Y019120D02*
X035623Y019120D01*
X035627Y018962D02*
X035823Y018962D01*
X035823Y018803D02*
X035627Y018803D01*
X035627Y018645D02*
X035823Y018645D01*
X035925Y018486D02*
X035525Y018486D01*
X035195Y018421D02*
X035750Y017866D01*
X035266Y018011D02*
X029000Y018011D01*
X029000Y018169D02*
X035108Y018169D01*
X035196Y018421D02*
X035181Y018433D01*
X035163Y018442D01*
X035145Y018448D01*
X035125Y018450D01*
X034800Y018450D01*
X034229Y019021D01*
X034159Y019050D02*
X031100Y019050D01*
X030849Y018962D02*
X029000Y018962D01*
X029000Y019120D02*
X030691Y019120D01*
X030532Y019279D02*
X029000Y019279D01*
X029000Y019437D02*
X030374Y019437D01*
X030215Y019596D02*
X029000Y019596D01*
X029000Y019754D02*
X030057Y019754D01*
X030991Y020230D02*
X031423Y020230D01*
X031457Y020388D02*
X030991Y020388D01*
X030991Y020547D02*
X031443Y020547D01*
X031420Y020705D02*
X030991Y020705D01*
X030911Y020864D02*
X031420Y020864D01*
X031420Y021022D02*
X030996Y021022D01*
X030973Y021656D02*
X030918Y021656D01*
X029934Y021815D02*
X029897Y021815D01*
X029897Y021973D02*
X029934Y021973D01*
X029934Y022132D02*
X029897Y022132D01*
X029897Y022290D02*
X029934Y022290D01*
X029934Y022449D02*
X029897Y022449D01*
X030703Y022924D02*
X029000Y022924D01*
X029000Y022766D02*
X032023Y022766D01*
X032023Y022924D02*
X031297Y022924D01*
X031358Y023083D02*
X033554Y023083D01*
X033570Y022924D02*
X032777Y022924D01*
X032777Y022925D02*
X032765Y022971D01*
X032741Y023012D01*
X032707Y023045D01*
X032666Y023069D01*
X032621Y023081D01*
X032418Y023081D01*
X032418Y022703D01*
X032777Y022703D01*
X032777Y022925D01*
X032777Y022766D02*
X033570Y022766D01*
X033570Y022607D02*
X032777Y022607D01*
X032777Y022449D02*
X033174Y022449D01*
X033109Y022290D02*
X032757Y022290D01*
X032400Y022015D02*
X032276Y022015D01*
X032205Y022045D02*
X032050Y022200D01*
X031426Y022200D01*
X031727Y021815D02*
X032043Y021815D01*
X032120Y021656D02*
X031727Y021656D01*
X032205Y022044D02*
X032220Y022032D01*
X032238Y022023D01*
X032256Y022017D01*
X032276Y022015D01*
X032400Y022015D02*
X033339Y022015D01*
X033410Y022045D02*
X033465Y022100D01*
X033410Y022044D02*
X033395Y022032D01*
X033377Y022023D01*
X033359Y022017D01*
X033339Y022015D01*
X033520Y021656D02*
X032680Y021656D01*
X032550Y020735D02*
X031800Y020735D01*
X032550Y020735D02*
X033350Y020735D01*
X034100Y020735D01*
X034137Y020750D02*
X035280Y020750D01*
X034137Y020750D02*
X034124Y020748D01*
X034111Y020743D01*
X034100Y020735D01*
X033007Y020388D02*
X032895Y020388D01*
X032947Y020230D02*
X032973Y020230D01*
X032973Y020047D02*
X032973Y019825D01*
X032985Y019779D01*
X033009Y019738D01*
X033043Y019705D01*
X033084Y019681D01*
X033129Y019669D01*
X033332Y019669D01*
X033332Y020047D01*
X032973Y020047D01*
X032973Y019913D02*
X032947Y019913D01*
X032907Y019754D02*
X033000Y019754D01*
X033332Y019754D02*
X033368Y019754D01*
X033368Y019913D02*
X033332Y019913D01*
X033700Y019754D02*
X033743Y019754D01*
X034448Y019142D02*
X034664Y019142D01*
X034758Y019236D01*
X034758Y019295D01*
X034893Y019295D01*
X034893Y019252D01*
X034931Y019214D01*
X034909Y019192D01*
X034885Y019151D01*
X034873Y019106D01*
X034873Y018884D01*
X035232Y018884D01*
X035232Y018847D01*
X034873Y018847D01*
X034873Y018716D01*
X034448Y019142D01*
X034469Y019120D02*
X034877Y019120D01*
X034873Y018962D02*
X034628Y018962D01*
X034786Y018803D02*
X034873Y018803D01*
X034893Y019279D02*
X034758Y019279D01*
X034230Y019021D02*
X034215Y019033D01*
X034197Y019042D01*
X034179Y019048D01*
X034159Y019050D01*
X034108Y018803D02*
X029000Y018803D01*
X029000Y018645D02*
X034266Y018645D01*
X034425Y018486D02*
X029000Y018486D01*
X029000Y018328D02*
X034583Y018328D01*
X032568Y019754D02*
X032532Y019754D01*
X032532Y019913D02*
X032568Y019913D01*
X032193Y019754D02*
X032150Y019754D01*
X031818Y019754D02*
X031782Y019754D01*
X031782Y019913D02*
X031818Y019913D01*
X036000Y022424D02*
X035998Y022444D01*
X035992Y022462D01*
X035983Y022480D01*
X035971Y022495D01*
X036550Y022374D02*
X036552Y022394D01*
X036558Y022412D01*
X036567Y022430D01*
X036579Y022445D01*
X035326Y023250D02*
X035306Y023248D01*
X035288Y023242D01*
X035270Y023233D01*
X035255Y023221D01*
X034657Y023215D02*
X034637Y023213D01*
X034619Y023207D01*
X034601Y023198D01*
X034586Y023186D01*
X034100Y023435D02*
X034005Y023435D01*
X033934Y023464D02*
X033505Y023894D01*
X033425Y023400D02*
X031358Y023400D01*
X031358Y023241D02*
X033520Y023241D01*
X033500Y023379D02*
X033500Y023379D01*
X033240Y023449D02*
X033240Y023449D01*
X033131Y023558D02*
X031314Y023558D01*
X031000Y023250D02*
X030628Y023250D01*
X030557Y023279D02*
X030536Y023300D01*
X030557Y023279D02*
X030572Y023267D01*
X030590Y023258D01*
X030608Y023252D01*
X030628Y023250D01*
X030291Y023083D02*
X030269Y023083D01*
X030024Y023300D02*
X030024Y023906D01*
X030022Y023922D01*
X030018Y023938D01*
X030010Y023952D01*
X030000Y023965D01*
X029623Y024034D02*
X029000Y024034D01*
X029000Y024192D02*
X029623Y024192D01*
X029610Y024351D02*
X029644Y024351D01*
X029190Y024351D02*
X029000Y024351D01*
X029000Y024509D02*
X029122Y024509D01*
X029112Y023875D02*
X029000Y023875D01*
X029000Y023717D02*
X029102Y023717D01*
X029102Y023558D02*
X029000Y023558D01*
X029000Y023400D02*
X029132Y023400D01*
X029000Y023241D02*
X029727Y023241D01*
X029727Y023400D02*
X029668Y023400D01*
X029698Y023558D02*
X029784Y023558D01*
X029400Y023558D02*
X029400Y023558D01*
X029400Y023658D02*
X029400Y023658D01*
X029400Y023717D02*
X029400Y023717D01*
X029400Y023875D02*
X029400Y023875D01*
X029400Y023400D02*
X029400Y023400D01*
X029779Y023083D02*
X029000Y023083D01*
X030264Y023522D02*
X030280Y023507D01*
X030332Y023558D01*
X032091Y024826D02*
X036525Y024826D01*
X036593Y024895D02*
X036593Y024895D01*
X037591Y025460D02*
X038239Y025460D01*
X038421Y025460D02*
X038421Y025460D01*
X038346Y025619D02*
X037707Y025619D01*
X037741Y025777D02*
X038868Y025777D01*
X038409Y025936D02*
X038391Y025936D01*
X038385Y026570D02*
X038415Y026570D01*
X033614Y025586D02*
X033599Y025598D01*
X033581Y025607D01*
X033563Y025613D01*
X033543Y025615D01*
X033500Y025143D02*
X032167Y025143D01*
X032091Y024985D02*
X033581Y024985D01*
X032874Y025302D02*
X032726Y025302D01*
X032341Y025615D02*
X032321Y025613D01*
X032303Y025607D01*
X032285Y025598D01*
X032270Y025586D01*
X032043Y025777D02*
X029000Y025777D01*
X029000Y025619D02*
X031964Y025619D01*
X031805Y025460D02*
X029000Y025460D01*
X029000Y025936D02*
X032081Y025936D01*
X032023Y026094D02*
X029000Y026094D01*
X029000Y026253D02*
X032023Y026253D01*
X032023Y026411D02*
X029000Y026411D01*
X029282Y026570D02*
X032035Y026570D01*
X032382Y026570D02*
X032418Y026570D01*
X032418Y026681D02*
X032418Y026303D01*
X032777Y026303D01*
X032777Y026525D01*
X032765Y026571D01*
X032741Y026612D01*
X032707Y026645D01*
X032666Y026669D01*
X032621Y026681D01*
X032418Y026681D01*
X032418Y026411D02*
X032382Y026411D01*
X032777Y026411D02*
X032823Y026411D01*
X032823Y026253D02*
X032777Y026253D01*
X032777Y026094D02*
X032823Y026094D01*
X032881Y025936D02*
X032719Y025936D01*
X033182Y026411D02*
X033218Y026411D01*
X033218Y026570D02*
X033182Y026570D01*
X032835Y026570D02*
X032765Y026570D01*
X032979Y023900D02*
X032979Y023900D01*
X033934Y023464D02*
X033949Y023452D01*
X033967Y023443D01*
X033985Y023437D01*
X034005Y023435D01*
X034100Y022765D02*
X034111Y022757D01*
X034124Y022752D01*
X034137Y022750D01*
X034136Y022747D01*
X034135Y022744D01*
X032418Y022766D02*
X032382Y022766D01*
X032382Y022924D02*
X032418Y022924D01*
X030700Y017100D02*
X030700Y016350D01*
X030700Y015600D01*
X030700Y014850D01*
X030342Y014841D02*
X029808Y014841D01*
X029776Y014999D02*
X030374Y014999D01*
X030460Y015158D02*
X029643Y015158D01*
X029768Y014682D02*
X030382Y014682D01*
X029185Y016109D02*
X029000Y016109D01*
X029000Y016267D02*
X029097Y016267D01*
X029094Y016426D02*
X029000Y016426D01*
X029000Y016584D02*
X029178Y016584D01*
X033800Y016187D02*
X033802Y016174D01*
X033807Y016161D01*
X033815Y016150D01*
X034097Y015792D02*
X034203Y015792D01*
X035160Y016150D02*
X035171Y016149D01*
X035181Y016146D01*
X035191Y016141D01*
X035199Y016134D01*
X035200Y016131D02*
X035200Y015492D01*
X035200Y016131D02*
X035200Y016133D01*
X035199Y016134D01*
X037685Y014576D02*
X037683Y014556D01*
X037677Y014538D01*
X037668Y014520D01*
X037656Y014505D01*
X037655Y014505D02*
X037650Y014500D01*
D20*
X040650Y018400D03*
X030050Y018400D03*
X030050Y025900D03*
X040650Y025900D03*
D21*
X040850Y021600D03*
D22*
X038700Y016250D03*
X032850Y016150D03*
D23*
X034700Y014450D03*
X029450Y014100D03*
X029450Y015600D03*
X029450Y017100D03*
X033300Y019500D03*
X034400Y019500D03*
X038100Y021250D03*
X031000Y023250D03*
D24*
X040850Y020750D03*
D25*
X037650Y017200D03*
X033800Y017200D03*
D26*
X030700Y017100D03*
X030700Y016350D03*
X030700Y015600D03*
X030700Y014850D03*
X030700Y014100D03*
X029450Y014850D03*
X029450Y016350D03*
M02*
