G75*
%MOIN*%
%OFA0B0*%
%FSLAX24Y24*%
%IPPOS*%
%LPD*%
%AMOC8*
5,1,8,0,0,1.08239X$1,22.5*
%
%ADD10C,0.0020*%
%ADD11R,0.0300X0.0300*%
%ADD12C,0.0000*%
%ADD13C,0.0030*%
%ADD14C,0.0060*%
%ADD15R,0.0340X0.0160*%
%ADD16C,0.0040*%
%ADD17R,0.0374X0.0197*%
%ADD18R,0.0160X0.0340*%
%ADD19R,0.0197X0.0374*%
%ADD20R,0.0083X0.0134*%
%ADD21R,0.0114X0.0315*%
%ADD22R,0.0433X0.0236*%
%ADD23R,0.0118X0.0217*%
%ADD24R,0.0433X0.0315*%
%ADD25C,0.0080*%
%ADD26R,0.0217X0.0285*%
%ADD27R,0.0394X0.0276*%
%ADD28C,0.0070*%
%ADD29C,0.0177*%
%ADD30R,0.0197X0.0256*%
%ADD31R,0.0256X0.0197*%
%ADD32R,0.0200X0.1000*%
D10*
X030510Y006550D02*
X030630Y006550D01*
X030694Y006580D02*
X030754Y006640D01*
X030754Y006460D01*
X030694Y006460D02*
X030814Y006460D01*
X030878Y006490D02*
X030908Y006460D01*
X030968Y006460D01*
X030998Y006490D01*
X030998Y006550D01*
X030968Y006580D01*
X030938Y006580D01*
X030878Y006550D01*
X030878Y006640D01*
X030998Y006640D01*
X031062Y006640D02*
X031062Y006520D01*
X031123Y006460D01*
X031183Y006520D01*
X031183Y006640D01*
X032760Y006860D02*
X032790Y006860D01*
X032790Y006890D01*
X032760Y006890D01*
X032760Y006860D01*
X032852Y006890D02*
X032972Y007010D01*
X032972Y006890D01*
X032942Y006860D01*
X032882Y006860D01*
X032852Y006890D01*
X032852Y007010D01*
X032882Y007040D01*
X032942Y007040D01*
X032972Y007010D01*
X033036Y006980D02*
X033096Y007040D01*
X033096Y006860D01*
X033036Y006860D02*
X033156Y006860D01*
X033220Y006890D02*
X033250Y006860D01*
X033340Y006860D01*
X033340Y006980D01*
X033220Y006980D02*
X033220Y006890D01*
X033202Y007160D02*
X033202Y007197D01*
X033349Y007343D01*
X033349Y007380D01*
X033202Y007380D01*
X033054Y007380D02*
X033054Y007160D01*
X032981Y007160D02*
X033128Y007160D01*
X032981Y007307D02*
X033054Y007380D01*
X032907Y007343D02*
X032870Y007380D01*
X032797Y007380D01*
X032760Y007343D01*
X032760Y007197D01*
X032797Y007160D01*
X032870Y007160D01*
X032907Y007197D01*
X032928Y008210D02*
X033048Y008330D01*
X033048Y008360D01*
X033018Y008390D01*
X032958Y008390D01*
X032928Y008360D01*
X032864Y008360D02*
X032864Y008300D01*
X032834Y008270D01*
X032744Y008270D01*
X032744Y008210D02*
X032744Y008390D01*
X032834Y008390D01*
X032864Y008360D01*
X032928Y008210D02*
X033048Y008210D01*
X033112Y008240D02*
X033142Y008210D01*
X033203Y008210D01*
X033233Y008240D01*
X033233Y008360D01*
X033203Y008390D01*
X033142Y008390D01*
X033112Y008360D01*
X033112Y008330D01*
X033142Y008300D01*
X033233Y008300D01*
X033297Y008330D02*
X033327Y008300D01*
X033417Y008300D01*
X033417Y008240D02*
X033417Y008360D01*
X033387Y008390D01*
X033327Y008390D01*
X033297Y008360D01*
X033297Y008330D01*
X033297Y008240D02*
X033327Y008210D01*
X033387Y008210D01*
X033417Y008240D01*
X033481Y008210D02*
X033601Y008330D01*
X033601Y008360D01*
X033571Y008390D01*
X033511Y008390D01*
X033481Y008360D01*
X033481Y008210D02*
X033601Y008210D01*
X034320Y008212D02*
X034320Y008139D01*
X034357Y008102D01*
X034393Y008102D01*
X034430Y008139D01*
X034430Y008249D01*
X034503Y008249D02*
X034357Y008249D01*
X034320Y008212D01*
X034503Y008249D02*
X034540Y008212D01*
X034540Y008139D01*
X034503Y008102D01*
X034540Y008028D02*
X034540Y007881D01*
X034540Y007954D02*
X034320Y007954D01*
X034393Y007881D01*
X034357Y007807D02*
X034320Y007770D01*
X034320Y007697D01*
X034357Y007660D01*
X034503Y007660D01*
X034540Y007697D01*
X034540Y007770D01*
X034503Y007807D01*
X034660Y007800D02*
X034750Y007710D01*
X034750Y007830D01*
X034810Y007894D02*
X034810Y007924D01*
X034840Y007924D01*
X034840Y007894D01*
X034810Y007894D01*
X034810Y007986D02*
X034690Y008106D01*
X034660Y008106D01*
X034660Y007986D01*
X034810Y007986D02*
X034840Y007986D01*
X034840Y007800D02*
X034660Y007800D01*
X034720Y008170D02*
X034810Y008170D01*
X034840Y008200D01*
X034840Y008290D01*
X034720Y008290D01*
X036010Y009147D02*
X036047Y009110D01*
X036120Y009110D01*
X036157Y009147D01*
X036231Y009110D02*
X036378Y009257D01*
X036378Y009293D01*
X036341Y009330D01*
X036268Y009330D01*
X036231Y009293D01*
X036157Y009293D02*
X036120Y009330D01*
X036047Y009330D01*
X036010Y009293D01*
X036010Y009147D01*
X036231Y009110D02*
X036378Y009110D01*
X036452Y009110D02*
X036599Y009257D01*
X036599Y009293D01*
X036562Y009330D01*
X036489Y009330D01*
X036452Y009293D01*
X036452Y009110D02*
X036599Y009110D01*
X036512Y009910D02*
X036549Y009947D01*
X036549Y010093D01*
X036512Y010130D01*
X036439Y010130D01*
X036402Y010093D01*
X036402Y010057D01*
X036439Y010020D01*
X036549Y010020D01*
X036512Y009910D02*
X036439Y009910D01*
X036402Y009947D01*
X036328Y009910D02*
X036181Y009910D01*
X036254Y009910D02*
X036254Y010130D01*
X036181Y010057D01*
X036107Y010093D02*
X036107Y010020D01*
X036070Y009983D01*
X035960Y009983D01*
X035960Y009910D02*
X035960Y010130D01*
X036070Y010130D01*
X036107Y010093D01*
X036033Y009983D02*
X036107Y009910D01*
X036157Y010710D02*
X036083Y010783D01*
X036120Y010783D02*
X036010Y010783D01*
X036010Y010710D02*
X036010Y010930D01*
X036120Y010930D01*
X036157Y010893D01*
X036157Y010820D01*
X036120Y010783D01*
X036231Y010710D02*
X036378Y010857D01*
X036378Y010893D01*
X036341Y010930D01*
X036268Y010930D01*
X036231Y010893D01*
X036231Y010710D02*
X036378Y010710D01*
X036452Y010747D02*
X036599Y010893D01*
X036599Y010747D01*
X036562Y010710D01*
X036489Y010710D01*
X036452Y010747D01*
X036452Y010893D01*
X036489Y010930D01*
X036562Y010930D01*
X036599Y010893D01*
X037260Y011310D02*
X037260Y011530D01*
X037370Y011530D01*
X037407Y011493D01*
X037407Y011420D01*
X037370Y011383D01*
X037260Y011383D01*
X037333Y011383D02*
X037407Y011310D01*
X037481Y011310D02*
X037628Y011310D01*
X037554Y011310D02*
X037554Y011530D01*
X037481Y011457D01*
X037702Y011457D02*
X037702Y011493D01*
X037739Y011530D01*
X037812Y011530D01*
X037849Y011493D01*
X037849Y011457D01*
X037812Y011420D01*
X037739Y011420D01*
X037702Y011457D01*
X037739Y011420D02*
X037702Y011383D01*
X037702Y011347D01*
X037739Y011310D01*
X037812Y011310D01*
X037849Y011347D01*
X037849Y011383D01*
X037812Y011420D01*
X038510Y010780D02*
X038620Y010780D01*
X038657Y010743D01*
X038657Y010670D01*
X038620Y010633D01*
X038510Y010633D01*
X038510Y010560D02*
X038510Y010780D01*
X038583Y010633D02*
X038657Y010560D01*
X038731Y010560D02*
X038878Y010707D01*
X038878Y010743D01*
X038841Y010780D01*
X038768Y010780D01*
X038731Y010743D01*
X038731Y010560D02*
X038878Y010560D01*
X038952Y010560D02*
X039099Y010560D01*
X039025Y010560D02*
X039025Y010780D01*
X038952Y010707D01*
X039710Y010780D02*
X039710Y010560D01*
X039710Y010633D02*
X039820Y010633D01*
X039857Y010670D01*
X039857Y010743D01*
X039820Y010780D01*
X039710Y010780D01*
X039783Y010633D02*
X039857Y010560D01*
X039931Y010560D02*
X040078Y010707D01*
X040078Y010743D01*
X040041Y010780D01*
X039968Y010780D01*
X039931Y010743D01*
X039931Y010560D02*
X040078Y010560D01*
X040152Y010560D02*
X040299Y010707D01*
X040299Y010743D01*
X040262Y010780D01*
X040189Y010780D01*
X040152Y010743D01*
X040152Y010560D02*
X040299Y010560D01*
X040084Y011310D02*
X040024Y011310D01*
X039994Y011340D01*
X040114Y011460D01*
X040114Y011340D01*
X040084Y011310D01*
X039994Y011340D02*
X039994Y011460D01*
X040024Y011490D01*
X040084Y011490D01*
X040114Y011460D01*
X039930Y011490D02*
X039810Y011490D01*
X039810Y011400D01*
X039870Y011430D01*
X039900Y011430D01*
X039930Y011400D01*
X039930Y011340D01*
X039900Y011310D01*
X039840Y011310D01*
X039810Y011340D01*
X039112Y012260D02*
X039039Y012260D01*
X039002Y012297D01*
X039002Y012333D01*
X039039Y012370D01*
X039112Y012370D01*
X039149Y012333D01*
X039149Y012297D01*
X039112Y012260D01*
X039112Y012370D02*
X039149Y012407D01*
X039149Y012443D01*
X039112Y012480D01*
X039039Y012480D01*
X039002Y012443D01*
X039002Y012407D01*
X039039Y012370D01*
X038928Y012407D02*
X038928Y012443D01*
X038891Y012480D01*
X038818Y012480D01*
X038781Y012443D01*
X038707Y012443D02*
X038670Y012480D01*
X038597Y012480D01*
X038560Y012443D01*
X038560Y012297D01*
X038597Y012260D01*
X038670Y012260D01*
X038707Y012297D01*
X038781Y012260D02*
X038928Y012407D01*
X038928Y012260D02*
X038781Y012260D01*
X036599Y011693D02*
X036599Y011657D01*
X036562Y011620D01*
X036599Y011583D01*
X036599Y011547D01*
X036562Y011510D01*
X036489Y011510D01*
X036452Y011547D01*
X036378Y011510D02*
X036231Y011510D01*
X036378Y011657D01*
X036378Y011693D01*
X036341Y011730D01*
X036268Y011730D01*
X036231Y011693D01*
X036157Y011693D02*
X036120Y011730D01*
X036047Y011730D01*
X036010Y011693D01*
X036010Y011547D01*
X036047Y011510D01*
X036120Y011510D01*
X036157Y011547D01*
X036452Y011693D02*
X036489Y011730D01*
X036562Y011730D01*
X036599Y011693D01*
X036562Y011620D02*
X036525Y011620D01*
X033540Y011908D02*
X033540Y012028D01*
X033540Y011968D02*
X033360Y011968D01*
X033420Y011908D01*
X033390Y012092D02*
X033360Y012122D01*
X033360Y012182D01*
X033390Y012212D01*
X033510Y012092D01*
X033540Y012122D01*
X033540Y012182D01*
X033510Y012212D01*
X033390Y012212D01*
X033420Y012276D02*
X033510Y012276D01*
X033540Y012306D01*
X033540Y012396D01*
X033420Y012396D01*
X033390Y012092D02*
X033510Y012092D01*
X032780Y012118D02*
X032633Y012265D01*
X032597Y012265D01*
X032560Y012228D01*
X032560Y012155D01*
X032597Y012118D01*
X032597Y012044D02*
X032560Y012007D01*
X032560Y011934D01*
X032597Y011897D01*
X032743Y011897D01*
X032780Y011934D01*
X032780Y012007D01*
X032743Y012044D01*
X032780Y012118D02*
X032780Y012265D01*
X032780Y012339D02*
X032780Y012486D01*
X032780Y012412D02*
X032560Y012412D01*
X032633Y012339D01*
X032960Y011421D02*
X033050Y011331D01*
X033050Y011451D01*
X033140Y011421D02*
X032960Y011421D01*
X032960Y011267D02*
X032990Y011207D01*
X033050Y011147D01*
X033050Y011237D01*
X033080Y011267D01*
X033110Y011267D01*
X033140Y011237D01*
X033140Y011177D01*
X033110Y011147D01*
X033050Y011147D01*
X033050Y011083D02*
X033050Y010992D01*
X033020Y010962D01*
X032990Y010962D01*
X032960Y010992D01*
X032960Y011053D01*
X032990Y011083D01*
X033110Y011083D01*
X033140Y011053D01*
X033140Y010992D01*
X033110Y010962D01*
X033140Y010898D02*
X033140Y010778D01*
X033140Y010838D02*
X032960Y010838D01*
X033020Y010778D01*
X032960Y010714D02*
X032960Y010594D01*
X032960Y010654D02*
X033140Y010654D01*
X033140Y010530D02*
X033140Y010410D01*
X032960Y010410D01*
X032812Y010030D02*
X032849Y009993D01*
X032702Y009847D01*
X032739Y009810D01*
X032812Y009810D01*
X032849Y009847D01*
X032849Y009993D01*
X032812Y010030D02*
X032739Y010030D01*
X032702Y009993D01*
X032702Y009847D01*
X032628Y009810D02*
X032481Y009810D01*
X032628Y009957D01*
X032628Y009993D01*
X032591Y010030D01*
X032518Y010030D01*
X032481Y009993D01*
X032407Y009993D02*
X032370Y010030D01*
X032297Y010030D01*
X032260Y009993D01*
X032260Y009847D01*
X032297Y009810D01*
X032370Y009810D01*
X032407Y009847D01*
X033060Y009580D02*
X033120Y009640D01*
X033120Y009460D01*
X033060Y009460D02*
X033180Y009460D01*
X033244Y009490D02*
X033274Y009460D01*
X033364Y009460D01*
X033364Y009580D01*
X033244Y009580D02*
X033244Y009490D01*
X032560Y008390D02*
X032560Y008210D01*
X032680Y008210D01*
X032190Y008360D02*
X032190Y008480D01*
X032190Y008420D02*
X032010Y008420D01*
X032070Y008360D01*
X032070Y008544D02*
X032160Y008544D01*
X032190Y008574D01*
X032190Y008664D01*
X032070Y008664D01*
X031490Y008628D02*
X031490Y008481D01*
X031490Y008554D02*
X031270Y008554D01*
X031343Y008481D01*
X031307Y008407D02*
X031270Y008370D01*
X031270Y008297D01*
X031307Y008260D01*
X031453Y008260D01*
X031490Y008297D01*
X031490Y008370D01*
X031453Y008407D01*
X031490Y008702D02*
X031490Y008849D01*
X031490Y008775D02*
X031270Y008775D01*
X031343Y008702D01*
X031344Y009210D02*
X031464Y009210D01*
X031404Y009210D02*
X031404Y009390D01*
X031344Y009330D01*
X031280Y009300D02*
X031160Y009300D01*
X031220Y009360D02*
X031220Y009240D01*
X031528Y009240D02*
X031558Y009210D01*
X031618Y009210D01*
X031648Y009240D01*
X031648Y009300D01*
X031618Y009330D01*
X031588Y009330D01*
X031528Y009300D01*
X031528Y009390D01*
X031648Y009390D01*
X031712Y009390D02*
X031712Y009270D01*
X031773Y009210D01*
X031833Y009270D01*
X031833Y009390D01*
X031553Y009910D02*
X031590Y009947D01*
X031590Y010020D01*
X031553Y010057D01*
X031590Y010131D02*
X031590Y010278D01*
X031590Y010204D02*
X031370Y010204D01*
X031443Y010131D01*
X031407Y010057D02*
X031370Y010020D01*
X031370Y009947D01*
X031407Y009910D01*
X031553Y009910D01*
X031553Y010352D02*
X031517Y010352D01*
X031480Y010389D01*
X031480Y010462D01*
X031517Y010499D01*
X031553Y010499D01*
X031590Y010462D01*
X031590Y010389D01*
X031553Y010352D01*
X031480Y010389D02*
X031443Y010352D01*
X031407Y010352D01*
X031370Y010389D01*
X031370Y010462D01*
X031407Y010499D01*
X031443Y010499D01*
X031480Y010462D01*
X031240Y010660D02*
X031240Y010690D01*
X031210Y010690D01*
X031210Y010660D01*
X031240Y010660D01*
X031210Y010752D02*
X031090Y010872D01*
X031210Y010872D01*
X031240Y010842D01*
X031240Y010782D01*
X031210Y010752D01*
X031090Y010752D01*
X031060Y010782D01*
X031060Y010842D01*
X031090Y010872D01*
X031120Y010936D02*
X031060Y010996D01*
X031240Y010996D01*
X031240Y010936D02*
X031240Y011056D01*
X031210Y011120D02*
X031240Y011150D01*
X031240Y011240D01*
X031120Y011240D01*
X031120Y011120D02*
X031210Y011120D01*
X035075Y013710D02*
X035075Y013820D01*
X035111Y013857D01*
X035258Y013857D01*
X035295Y013820D01*
X035295Y013710D01*
X035075Y013710D01*
X035111Y013931D02*
X035075Y013968D01*
X035075Y014041D01*
X035111Y014078D01*
X035148Y014078D01*
X035295Y013931D01*
X035295Y014078D01*
X035460Y014190D02*
X035460Y014250D01*
X035490Y014280D01*
X035460Y014344D02*
X035460Y014464D01*
X035490Y014464D01*
X035610Y014344D01*
X035640Y014344D01*
X035640Y014464D01*
X035640Y014528D02*
X035460Y014528D01*
X035460Y014618D01*
X035490Y014648D01*
X035550Y014648D01*
X035580Y014618D01*
X035580Y014528D01*
X035580Y014588D02*
X035640Y014648D01*
X035640Y014712D02*
X035460Y014712D01*
X035460Y014833D01*
X035460Y014897D02*
X035550Y014897D01*
X035520Y014957D01*
X035520Y014987D01*
X035550Y015017D01*
X035610Y015017D01*
X035640Y014987D01*
X035640Y014927D01*
X035610Y014897D01*
X035550Y014773D02*
X035550Y014712D01*
X035460Y014897D02*
X035460Y015017D01*
X035490Y015081D02*
X035460Y015111D01*
X035460Y015171D01*
X035490Y015201D01*
X035520Y015201D01*
X035640Y015081D01*
X035640Y015201D01*
X035610Y015265D02*
X035640Y015295D01*
X035640Y015355D01*
X035610Y015385D01*
X035640Y015449D02*
X035520Y015569D01*
X035490Y015569D01*
X035460Y015539D01*
X035460Y015479D01*
X035490Y015449D01*
X035490Y015385D02*
X035460Y015355D01*
X035460Y015295D01*
X035490Y015265D01*
X035610Y015265D01*
X035640Y015449D02*
X035640Y015569D01*
X035810Y015539D02*
X035810Y015479D01*
X035840Y015449D01*
X035840Y015385D02*
X035810Y015355D01*
X035810Y015295D01*
X035840Y015265D01*
X035960Y015265D01*
X035990Y015295D01*
X035990Y015355D01*
X035960Y015385D01*
X035990Y015449D02*
X035870Y015569D01*
X035840Y015569D01*
X035810Y015539D01*
X035990Y015569D02*
X035990Y015449D01*
X035990Y015201D02*
X035990Y015081D01*
X035870Y015201D01*
X035840Y015201D01*
X035810Y015171D01*
X035810Y015111D01*
X035840Y015081D01*
X035810Y015017D02*
X035810Y014897D01*
X035900Y014897D01*
X035870Y014957D01*
X035870Y014987D01*
X035900Y015017D01*
X035960Y015017D01*
X035990Y014987D01*
X035990Y014927D01*
X035960Y014897D01*
X035900Y014773D02*
X035900Y014712D01*
X035900Y014648D02*
X035930Y014618D01*
X035930Y014528D01*
X035990Y014528D02*
X035810Y014528D01*
X035810Y014618D01*
X035840Y014648D01*
X035900Y014648D01*
X035930Y014588D02*
X035990Y014648D01*
X035990Y014712D02*
X035810Y014712D01*
X035810Y014833D01*
X035810Y014464D02*
X035840Y014464D01*
X035960Y014344D01*
X035990Y014344D01*
X035990Y014464D01*
X035810Y014464D02*
X035810Y014344D01*
X035840Y014280D02*
X035810Y014250D01*
X035810Y014190D01*
X035840Y014160D01*
X035960Y014160D01*
X035990Y014190D01*
X035990Y014250D01*
X035960Y014280D01*
X035640Y014250D02*
X035610Y014280D01*
X035640Y014250D02*
X035640Y014190D01*
X035610Y014160D01*
X035490Y014160D01*
X035460Y014190D01*
X036255Y013962D02*
X036475Y013962D01*
X036475Y013889D02*
X036475Y014035D01*
X036328Y013889D02*
X036255Y013962D01*
X036292Y013814D02*
X036255Y013778D01*
X036255Y013668D01*
X036475Y013668D01*
X036475Y013778D01*
X036439Y013814D01*
X036292Y013814D01*
X038460Y015250D02*
X038580Y015250D01*
X038644Y015190D02*
X038644Y015160D01*
X038644Y015190D02*
X038764Y015310D01*
X038764Y015340D01*
X038644Y015340D01*
X038550Y015340D02*
X038460Y015250D01*
X038550Y015160D02*
X038550Y015340D01*
X038828Y015280D02*
X038828Y015190D01*
X038858Y015160D01*
X038948Y015160D01*
X038948Y015280D01*
X039210Y015293D02*
X039210Y015147D01*
X039247Y015110D01*
X039320Y015110D01*
X039357Y015147D01*
X039431Y015147D02*
X039431Y015110D01*
X039431Y015147D02*
X039578Y015293D01*
X039578Y015330D01*
X039431Y015330D01*
X039357Y015293D02*
X039320Y015330D01*
X039247Y015330D01*
X039210Y015293D01*
X037528Y015610D02*
X037381Y015610D01*
X037454Y015610D02*
X037454Y015830D01*
X037381Y015757D01*
X037307Y015793D02*
X037307Y015720D01*
X037270Y015683D01*
X037160Y015683D01*
X037160Y015610D02*
X037160Y015830D01*
X037270Y015830D01*
X037307Y015793D01*
X037233Y015683D02*
X037307Y015610D01*
X037330Y016410D02*
X037210Y016410D01*
X037330Y016530D01*
X037330Y016560D01*
X037300Y016590D01*
X037240Y016590D01*
X037210Y016560D01*
X037394Y016560D02*
X037424Y016590D01*
X037484Y016590D01*
X037514Y016560D01*
X037394Y016440D01*
X037424Y016410D01*
X037484Y016410D01*
X037514Y016440D01*
X037514Y016560D01*
X037578Y016590D02*
X037578Y016410D01*
X037578Y016470D02*
X037668Y016530D01*
X037578Y016470D02*
X037668Y016410D01*
X037394Y016440D02*
X037394Y016560D01*
X038360Y017150D02*
X038480Y017150D01*
X038544Y017180D02*
X038604Y017240D01*
X038604Y017060D01*
X038544Y017060D02*
X038664Y017060D01*
X038728Y017090D02*
X038758Y017060D01*
X038818Y017060D01*
X038848Y017090D01*
X038848Y017150D01*
X038818Y017180D01*
X038788Y017180D01*
X038728Y017150D01*
X038728Y017240D01*
X038848Y017240D01*
X038912Y017240D02*
X038912Y017120D01*
X038973Y017060D01*
X039033Y017120D01*
X039033Y017240D01*
X038420Y017210D02*
X038420Y017090D01*
X038674Y018410D02*
X038644Y018440D01*
X038674Y018410D02*
X038734Y018410D01*
X038764Y018440D01*
X038764Y018500D01*
X038734Y018530D01*
X038704Y018530D01*
X038644Y018500D01*
X038644Y018590D01*
X038764Y018590D01*
X038828Y018590D02*
X038828Y018470D01*
X038888Y018410D01*
X038948Y018470D01*
X038948Y018590D01*
X038888Y018710D02*
X038858Y018740D01*
X038858Y018860D01*
X038828Y018830D02*
X038888Y018830D01*
X038764Y018830D02*
X038764Y018710D01*
X038674Y018710D01*
X038644Y018740D01*
X038644Y018830D01*
X038580Y018860D02*
X038550Y018890D01*
X038490Y018890D01*
X038460Y018860D01*
X038460Y018740D01*
X038490Y018710D01*
X038550Y018710D01*
X038580Y018740D01*
X038520Y018560D02*
X038520Y018440D01*
X038460Y018500D02*
X038580Y018500D01*
X039165Y018710D02*
X039165Y018860D01*
X039195Y018890D01*
X039195Y018800D02*
X039135Y018800D01*
X039258Y018800D02*
X039258Y018740D01*
X039288Y018710D01*
X039348Y018710D01*
X039378Y018740D01*
X039378Y018800D01*
X039348Y018830D01*
X039288Y018830D01*
X039258Y018800D01*
X039442Y018770D02*
X039502Y018830D01*
X039532Y018830D01*
X039442Y018830D02*
X039442Y018710D01*
X039510Y020210D02*
X039510Y020430D01*
X039620Y020430D01*
X039657Y020393D01*
X039657Y020320D01*
X039620Y020283D01*
X039510Y020283D01*
X039583Y020283D02*
X039657Y020210D01*
X039731Y020210D02*
X039878Y020210D01*
X039804Y020210D02*
X039804Y020430D01*
X039731Y020357D01*
X039952Y020430D02*
X040099Y020430D01*
X040099Y020393D01*
X039952Y020247D01*
X039952Y020210D01*
X039934Y021110D02*
X039874Y021110D01*
X039844Y021140D01*
X039964Y021260D01*
X039964Y021140D01*
X039934Y021110D01*
X039844Y021140D02*
X039844Y021260D01*
X039874Y021290D01*
X039934Y021290D01*
X039964Y021260D01*
X039780Y021290D02*
X039660Y021290D01*
X039660Y021200D01*
X039720Y021230D01*
X039750Y021230D01*
X039780Y021200D01*
X039780Y021140D01*
X039750Y021110D01*
X039690Y021110D01*
X039660Y021140D01*
X039650Y022410D02*
X039650Y022590D01*
X039560Y022500D01*
X039680Y022500D01*
X039744Y022530D02*
X039804Y022590D01*
X039804Y022410D01*
X039744Y022410D02*
X039864Y022410D01*
X039928Y022500D02*
X040048Y022500D01*
X040112Y022470D02*
X040142Y022500D01*
X040203Y022500D01*
X040233Y022470D01*
X040233Y022440D01*
X040203Y022410D01*
X040142Y022410D01*
X040112Y022440D01*
X040112Y022470D01*
X040142Y022500D02*
X040112Y022530D01*
X040112Y022560D01*
X040142Y022590D01*
X040203Y022590D01*
X040233Y022560D01*
X040233Y022530D01*
X040203Y022500D01*
X040018Y022410D02*
X040018Y022590D01*
X039928Y022500D01*
X039899Y022670D02*
X039826Y022670D01*
X039789Y022707D01*
X039715Y022707D02*
X039715Y022853D01*
X039678Y022890D01*
X039568Y022890D01*
X039568Y022670D01*
X039678Y022670D01*
X039715Y022707D01*
X039789Y022853D02*
X039826Y022890D01*
X039899Y022890D01*
X039936Y022853D01*
X039936Y022817D01*
X039899Y022780D01*
X039936Y022743D01*
X039936Y022707D01*
X039899Y022670D01*
X039899Y022780D02*
X039862Y022780D01*
X040673Y023420D02*
X040783Y023420D01*
X040820Y023457D01*
X040820Y023604D01*
X040783Y023641D01*
X040673Y023641D01*
X040673Y023420D01*
X040894Y023457D02*
X040930Y023420D01*
X041004Y023420D01*
X041041Y023457D01*
X041041Y023530D01*
X041004Y023567D01*
X040967Y023567D01*
X040894Y023530D01*
X040894Y023641D01*
X041041Y023641D01*
X041260Y023644D02*
X041260Y023764D01*
X041290Y023764D01*
X041410Y023644D01*
X041440Y023644D01*
X041440Y023764D01*
X041440Y023828D02*
X041260Y023828D01*
X041260Y023918D01*
X041290Y023948D01*
X041350Y023948D01*
X041380Y023918D01*
X041380Y023828D01*
X041380Y023888D02*
X041440Y023948D01*
X041440Y024012D02*
X041260Y024012D01*
X041260Y024133D01*
X041260Y024197D02*
X041350Y024197D01*
X041320Y024257D01*
X041320Y024287D01*
X041350Y024317D01*
X041410Y024317D01*
X041440Y024287D01*
X041440Y024227D01*
X041410Y024197D01*
X041350Y024073D02*
X041350Y024012D01*
X041260Y024197D02*
X041260Y024317D01*
X041290Y024381D02*
X041260Y024411D01*
X041260Y024471D01*
X041290Y024501D01*
X041320Y024501D01*
X041440Y024381D01*
X041440Y024501D01*
X041410Y024565D02*
X041440Y024595D01*
X041440Y024655D01*
X041410Y024685D01*
X041440Y024749D02*
X041320Y024869D01*
X041290Y024869D01*
X041260Y024839D01*
X041260Y024779D01*
X041290Y024749D01*
X041290Y024685D02*
X041260Y024655D01*
X041260Y024595D01*
X041290Y024565D01*
X041410Y024565D01*
X041440Y024749D02*
X041440Y024869D01*
X039840Y024497D02*
X039780Y024407D01*
X039720Y024497D01*
X039660Y024407D02*
X039840Y024407D01*
X039810Y024342D02*
X039840Y024312D01*
X039840Y024252D01*
X039810Y024222D01*
X039690Y024342D01*
X039810Y024342D01*
X039810Y024222D02*
X039690Y024222D01*
X039660Y024252D01*
X039660Y024312D01*
X039690Y024342D01*
X039580Y024376D02*
X039543Y024339D01*
X039507Y024339D01*
X039470Y024376D01*
X039470Y024449D01*
X039507Y024486D01*
X039543Y024486D01*
X039580Y024449D01*
X039580Y024376D01*
X039470Y024376D02*
X039433Y024339D01*
X039397Y024339D01*
X039360Y024376D01*
X039360Y024449D01*
X039397Y024486D01*
X039433Y024486D01*
X039470Y024449D01*
X039470Y024265D02*
X039507Y024228D01*
X039507Y024118D01*
X039580Y024118D02*
X039360Y024118D01*
X039360Y024228D01*
X039397Y024265D01*
X039470Y024265D01*
X039507Y024191D02*
X039580Y024265D01*
X039660Y024098D02*
X039840Y024098D01*
X039840Y024038D02*
X039840Y024158D01*
X039720Y024038D02*
X039660Y024098D01*
X038790Y023596D02*
X038670Y023596D01*
X038790Y023596D02*
X038790Y023506D01*
X038760Y023476D01*
X038670Y023476D01*
X038790Y023412D02*
X038790Y023292D01*
X038790Y023352D02*
X038610Y023352D01*
X038670Y023292D01*
X038760Y023230D02*
X038790Y023230D01*
X038790Y023200D01*
X038760Y023200D01*
X038760Y023230D01*
X038430Y023234D02*
X038430Y023307D01*
X038393Y023344D01*
X038430Y023418D02*
X038430Y023565D01*
X038430Y023491D02*
X038210Y023491D01*
X038283Y023418D01*
X038247Y023344D02*
X038210Y023307D01*
X038210Y023234D01*
X038247Y023197D01*
X038393Y023197D01*
X038430Y023234D01*
X038393Y023639D02*
X038430Y023676D01*
X038430Y023749D01*
X038393Y023786D01*
X038320Y023786D01*
X038283Y023749D01*
X038283Y023712D01*
X038320Y023639D01*
X038210Y023639D01*
X038210Y023786D01*
X037850Y023676D02*
X037670Y023676D01*
X037670Y023766D01*
X037700Y023796D01*
X037760Y023796D01*
X037790Y023766D01*
X037790Y023676D01*
X037760Y023612D02*
X037790Y023582D01*
X037790Y023522D01*
X037760Y023492D01*
X037640Y023612D01*
X037760Y023612D01*
X037640Y023612D02*
X037610Y023582D01*
X037610Y023522D01*
X037640Y023492D01*
X037760Y023492D01*
X037760Y023428D02*
X037790Y023398D01*
X037790Y023338D01*
X037760Y023308D01*
X037640Y023428D01*
X037760Y023428D01*
X037640Y023428D02*
X037610Y023398D01*
X037610Y023338D01*
X037640Y023308D01*
X037760Y023308D01*
X037790Y023243D02*
X037790Y023123D01*
X037790Y023183D02*
X037610Y023183D01*
X037670Y023123D01*
X037530Y023234D02*
X037530Y023307D01*
X037493Y023344D01*
X037530Y023418D02*
X037530Y023565D01*
X037530Y023491D02*
X037310Y023491D01*
X037383Y023418D01*
X037347Y023344D02*
X037310Y023307D01*
X037310Y023234D01*
X037347Y023197D01*
X037493Y023197D01*
X037530Y023234D01*
X037493Y023639D02*
X037530Y023676D01*
X037530Y023749D01*
X037493Y023786D01*
X037457Y023786D01*
X037420Y023749D01*
X037420Y023712D01*
X037420Y023749D02*
X037383Y023786D01*
X037347Y023786D01*
X037310Y023749D01*
X037310Y023676D01*
X037347Y023639D01*
X036599Y023583D02*
X036562Y023620D01*
X036452Y023620D01*
X036452Y023547D01*
X036489Y023510D01*
X036562Y023510D01*
X036599Y023547D01*
X036599Y023583D01*
X036525Y023693D02*
X036452Y023620D01*
X036525Y023693D02*
X036599Y023730D01*
X036304Y023730D02*
X036304Y023510D01*
X036231Y023510D02*
X036378Y023510D01*
X036231Y023657D02*
X036304Y023730D01*
X036157Y023693D02*
X036120Y023730D01*
X036047Y023730D01*
X036010Y023693D01*
X036010Y023547D01*
X036047Y023510D01*
X036120Y023510D01*
X036157Y023547D01*
X035640Y023550D02*
X035640Y023490D01*
X035610Y023460D01*
X035550Y023460D02*
X035520Y023520D01*
X035520Y023550D01*
X035550Y023580D01*
X035610Y023580D01*
X035640Y023550D01*
X035610Y023644D02*
X035490Y023764D01*
X035610Y023764D01*
X035640Y023734D01*
X035640Y023674D01*
X035610Y023644D01*
X035490Y023644D01*
X035460Y023674D01*
X035460Y023734D01*
X035490Y023764D01*
X035460Y023580D02*
X035460Y023460D01*
X035550Y023460D01*
X034940Y023481D02*
X034940Y023628D01*
X034940Y023554D02*
X034720Y023554D01*
X034793Y023481D01*
X034757Y023407D02*
X034830Y023407D01*
X034867Y023370D01*
X034867Y023260D01*
X034940Y023260D02*
X034720Y023260D01*
X034720Y023370D01*
X034757Y023407D01*
X034867Y023333D02*
X034940Y023407D01*
X034903Y023702D02*
X034757Y023849D01*
X034903Y023849D01*
X034940Y023812D01*
X034940Y023739D01*
X034903Y023702D01*
X034757Y023702D01*
X034720Y023739D01*
X034720Y023812D01*
X034757Y023849D01*
X034580Y023286D02*
X034580Y023139D01*
X034580Y023212D02*
X034360Y023212D01*
X034433Y023139D01*
X034580Y023065D02*
X034580Y022918D01*
X034580Y022991D02*
X034360Y022991D01*
X034433Y022918D01*
X034397Y022844D02*
X034470Y022844D01*
X034507Y022807D01*
X034507Y022697D01*
X034580Y022697D02*
X034360Y022697D01*
X034360Y022807D01*
X034397Y022844D01*
X034507Y022770D02*
X034580Y022844D01*
X034078Y022580D02*
X034078Y022543D01*
X033931Y022397D01*
X033931Y022360D01*
X033857Y022360D02*
X033783Y022433D01*
X033820Y022433D02*
X033710Y022433D01*
X033710Y022360D02*
X033710Y022580D01*
X033820Y022580D01*
X033857Y022543D01*
X033857Y022470D01*
X033820Y022433D01*
X033931Y022580D02*
X034078Y022580D01*
X033860Y022792D02*
X033890Y022822D01*
X033890Y022882D01*
X033860Y022912D01*
X033800Y022912D01*
X033770Y022882D01*
X033770Y022852D01*
X033800Y022792D01*
X033710Y022792D01*
X033710Y022912D01*
X033740Y022976D02*
X033710Y023006D01*
X033710Y023066D01*
X033740Y023096D01*
X033860Y022976D01*
X033890Y023006D01*
X033890Y023066D01*
X033860Y023096D01*
X033740Y023096D01*
X033740Y022976D02*
X033860Y022976D01*
X032580Y022878D02*
X032543Y022915D01*
X032580Y022878D02*
X032580Y022805D01*
X032543Y022768D01*
X032397Y022768D01*
X032360Y022805D01*
X032360Y022878D01*
X032397Y022915D01*
X032470Y022989D02*
X032470Y023136D01*
X032580Y023099D02*
X032360Y023099D01*
X032470Y022989D01*
X032250Y023126D02*
X032070Y023126D01*
X032070Y023216D01*
X032100Y023246D01*
X032160Y023246D01*
X032190Y023216D01*
X032190Y023126D01*
X032160Y023062D02*
X032190Y023032D01*
X032190Y022972D01*
X032160Y022942D01*
X032040Y023062D01*
X032160Y023062D01*
X032040Y023062D02*
X032010Y023032D01*
X032010Y022972D01*
X032040Y022942D01*
X032160Y022942D01*
X032160Y022878D02*
X032190Y022848D01*
X032190Y022788D01*
X032160Y022758D01*
X032040Y022878D01*
X032160Y022878D01*
X032040Y022878D02*
X032010Y022848D01*
X032010Y022788D01*
X032040Y022758D01*
X032160Y022758D01*
X032190Y022693D02*
X032190Y022573D01*
X032190Y022633D02*
X032010Y022633D01*
X032070Y022573D01*
X031540Y022624D02*
X031540Y022684D01*
X031510Y022714D01*
X031390Y022714D01*
X031360Y022684D01*
X031360Y022624D01*
X031390Y022594D01*
X031420Y022594D01*
X031450Y022624D01*
X031450Y022714D01*
X031480Y022778D02*
X031420Y022868D01*
X031480Y022778D02*
X031540Y022868D01*
X031540Y022778D02*
X031360Y022778D01*
X031240Y022741D02*
X031240Y022668D01*
X031203Y022631D01*
X031130Y022631D02*
X031093Y022704D01*
X031093Y022741D01*
X031130Y022778D01*
X031203Y022778D01*
X031240Y022741D01*
X031130Y022631D02*
X031020Y022631D01*
X031020Y022778D01*
X031057Y022557D02*
X031130Y022557D01*
X031167Y022520D01*
X031167Y022410D01*
X031240Y022410D02*
X031020Y022410D01*
X031020Y022520D01*
X031057Y022557D01*
X031167Y022483D02*
X031240Y022557D01*
X031360Y022500D02*
X031450Y022410D01*
X031450Y022530D01*
X031510Y022594D02*
X031540Y022624D01*
X031540Y022500D02*
X031360Y022500D01*
X030683Y022640D02*
X030653Y022610D01*
X030592Y022610D01*
X030562Y022640D01*
X030562Y022670D01*
X030592Y022700D01*
X030653Y022700D01*
X030683Y022670D01*
X030683Y022640D01*
X030653Y022700D02*
X030683Y022730D01*
X030683Y022760D01*
X030653Y022790D01*
X030592Y022790D01*
X030562Y022760D01*
X030562Y022730D01*
X030592Y022700D01*
X030498Y022700D02*
X030378Y022700D01*
X030468Y022790D01*
X030468Y022610D01*
X030314Y022610D02*
X030194Y022610D01*
X030254Y022610D02*
X030254Y022790D01*
X030194Y022730D01*
X030130Y022700D02*
X030010Y022700D01*
X030100Y022790D01*
X030100Y022610D01*
X030110Y022860D02*
X030220Y022860D01*
X030257Y022897D01*
X030257Y023043D01*
X030220Y023080D01*
X030110Y023080D01*
X030110Y022860D01*
X030331Y022970D02*
X030478Y022970D01*
X030441Y022860D02*
X030441Y023080D01*
X030331Y022970D01*
X029445Y022960D02*
X029445Y023070D01*
X029408Y023107D01*
X029261Y023107D01*
X029225Y023070D01*
X029225Y022960D01*
X029445Y022960D01*
X029408Y023181D02*
X029445Y023218D01*
X029445Y023291D01*
X029408Y023328D01*
X029371Y023328D01*
X029335Y023291D01*
X029335Y023181D01*
X029408Y023181D01*
X029335Y023181D02*
X029261Y023255D01*
X029225Y023328D01*
X029160Y023410D02*
X029040Y023410D01*
X029010Y023440D01*
X029010Y023500D01*
X029040Y023530D01*
X029010Y023594D02*
X029010Y023714D01*
X029040Y023714D01*
X029160Y023594D01*
X029190Y023594D01*
X029190Y023714D01*
X029190Y023778D02*
X029010Y023778D01*
X029010Y023868D01*
X029040Y023898D01*
X029100Y023898D01*
X029130Y023868D01*
X029130Y023778D01*
X029130Y023838D02*
X029190Y023898D01*
X029190Y023962D02*
X029010Y023962D01*
X029010Y024083D01*
X029010Y024147D02*
X029100Y024147D01*
X029070Y024207D01*
X029070Y024237D01*
X029100Y024267D01*
X029160Y024267D01*
X029190Y024237D01*
X029190Y024177D01*
X029160Y024147D01*
X029100Y024023D02*
X029100Y023962D01*
X029010Y024147D02*
X029010Y024267D01*
X029040Y024331D02*
X029010Y024361D01*
X029010Y024421D01*
X029040Y024451D01*
X029070Y024451D01*
X029190Y024331D01*
X029190Y024451D01*
X029160Y024515D02*
X029190Y024545D01*
X029190Y024605D01*
X029160Y024635D01*
X029190Y024699D02*
X029070Y024819D01*
X029040Y024819D01*
X029010Y024789D01*
X029010Y024729D01*
X029040Y024699D01*
X029040Y024635D02*
X029010Y024605D01*
X029010Y024545D01*
X029040Y024515D01*
X029160Y024515D01*
X029190Y024699D02*
X029190Y024819D01*
X030220Y024562D02*
X030220Y024489D01*
X030257Y024452D01*
X030330Y024525D02*
X030330Y024562D01*
X030367Y024599D01*
X030403Y024599D01*
X030440Y024562D01*
X030440Y024489D01*
X030403Y024452D01*
X030440Y024378D02*
X030440Y024231D01*
X030440Y024304D02*
X030220Y024304D01*
X030293Y024231D01*
X030257Y024157D02*
X030330Y024157D01*
X030367Y024120D01*
X030367Y024010D01*
X030440Y024010D02*
X030220Y024010D01*
X030220Y024120D01*
X030257Y024157D01*
X030367Y024083D02*
X030440Y024157D01*
X030510Y024120D02*
X030690Y024120D01*
X030690Y024060D02*
X030690Y024180D01*
X030660Y024244D02*
X030540Y024364D01*
X030660Y024364D01*
X030690Y024334D01*
X030690Y024274D01*
X030660Y024244D01*
X030540Y024244D01*
X030510Y024274D01*
X030510Y024334D01*
X030540Y024364D01*
X030510Y024428D02*
X030690Y024428D01*
X030630Y024428D02*
X030570Y024518D01*
X030630Y024428D02*
X030690Y024518D01*
X030330Y024562D02*
X030293Y024599D01*
X030257Y024599D01*
X030220Y024562D01*
X030510Y024120D02*
X030570Y024060D01*
X029190Y023500D02*
X029160Y023530D01*
X029190Y023500D02*
X029190Y023440D01*
X029160Y023410D01*
X029460Y022430D02*
X029570Y022430D01*
X029607Y022393D01*
X029607Y022320D01*
X029570Y022283D01*
X029460Y022283D01*
X029460Y022210D02*
X029460Y022430D01*
X029533Y022283D02*
X029607Y022210D01*
X029681Y022247D02*
X029718Y022210D01*
X029791Y022210D01*
X029828Y022247D01*
X029828Y022283D01*
X029791Y022320D01*
X029681Y022320D01*
X029681Y022247D01*
X029681Y022320D02*
X029754Y022393D01*
X029828Y022430D01*
X029694Y022090D02*
X029694Y021910D01*
X029694Y021970D02*
X029784Y022030D01*
X029694Y021970D02*
X029784Y021910D01*
X029630Y021940D02*
X029600Y021910D01*
X029540Y021910D01*
X029510Y021940D01*
X029510Y022000D02*
X029570Y022030D01*
X029600Y022030D01*
X029630Y022000D01*
X029630Y021940D01*
X029510Y022000D02*
X029510Y022090D01*
X029630Y022090D01*
X029712Y021490D02*
X029639Y021417D01*
X029565Y021453D02*
X029528Y021490D01*
X029455Y021490D01*
X029418Y021453D01*
X029418Y021307D01*
X029455Y021270D01*
X029528Y021270D01*
X029565Y021307D01*
X029639Y021270D02*
X029786Y021270D01*
X029712Y021270D02*
X029712Y021490D01*
X029612Y021190D02*
X029612Y021010D01*
X029552Y021010D02*
X029672Y021010D01*
X029736Y021040D02*
X029766Y021010D01*
X029856Y021010D01*
X029856Y021130D01*
X029736Y021130D02*
X029736Y021040D01*
X029612Y021190D02*
X029552Y021130D01*
X029490Y021040D02*
X029490Y021010D01*
X029460Y021010D01*
X029460Y021040D01*
X029490Y021040D01*
X029460Y020780D02*
X029570Y020780D01*
X029607Y020743D01*
X029607Y020670D01*
X029570Y020633D01*
X029460Y020633D01*
X029460Y020560D02*
X029460Y020780D01*
X029533Y020633D02*
X029607Y020560D01*
X029580Y020440D02*
X029460Y020440D01*
X029460Y020350D01*
X029520Y020380D01*
X029550Y020380D01*
X029580Y020350D01*
X029580Y020290D01*
X029550Y020260D01*
X029490Y020260D01*
X029460Y020290D01*
X029644Y020290D02*
X029764Y020410D01*
X029764Y020290D01*
X029734Y020260D01*
X029674Y020260D01*
X029644Y020290D01*
X029644Y020410D01*
X029674Y020440D01*
X029734Y020440D01*
X029764Y020410D01*
X029828Y020440D02*
X029828Y020260D01*
X029828Y020320D02*
X029918Y020380D01*
X029828Y020320D02*
X029918Y020260D01*
X029791Y020560D02*
X029791Y020780D01*
X029681Y020670D01*
X029828Y020670D01*
X031670Y020947D02*
X031707Y020910D01*
X031853Y020910D01*
X031890Y020947D01*
X031890Y021020D01*
X031853Y021057D01*
X031890Y021131D02*
X031890Y021278D01*
X031890Y021204D02*
X031670Y021204D01*
X031743Y021131D01*
X031707Y021057D02*
X031670Y021020D01*
X031670Y020947D01*
X031707Y021352D02*
X031670Y021389D01*
X031670Y021462D01*
X031707Y021499D01*
X031853Y021352D01*
X031890Y021389D01*
X031890Y021462D01*
X031853Y021499D01*
X031707Y021499D01*
X031707Y021352D02*
X031853Y021352D01*
X032410Y021349D02*
X032520Y021239D01*
X032520Y021386D01*
X032630Y021349D02*
X032410Y021349D01*
X032410Y021091D02*
X032630Y021091D01*
X032630Y021018D02*
X032630Y021165D01*
X032483Y021018D02*
X032410Y021091D01*
X032447Y020944D02*
X032520Y020944D01*
X032557Y020907D01*
X032557Y020797D01*
X032630Y020797D02*
X032410Y020797D01*
X032410Y020907D01*
X032447Y020944D01*
X032557Y020870D02*
X032630Y020944D01*
X032920Y020803D02*
X032950Y020833D01*
X033010Y020833D01*
X033040Y020803D01*
X033040Y020712D01*
X033100Y020712D02*
X032920Y020712D01*
X032920Y020803D01*
X032890Y020648D02*
X033010Y020528D01*
X033040Y020558D01*
X033040Y020618D01*
X033010Y020648D01*
X032890Y020648D01*
X032860Y020618D01*
X032860Y020558D01*
X032890Y020528D01*
X033010Y020528D01*
X033010Y020464D02*
X033040Y020434D01*
X033040Y020374D01*
X033010Y020344D01*
X032890Y020464D01*
X033010Y020464D01*
X033010Y020344D02*
X032890Y020344D01*
X032860Y020374D01*
X032860Y020434D01*
X032890Y020464D01*
X033040Y020280D02*
X033040Y020160D01*
X033040Y020220D02*
X032860Y020220D01*
X032920Y020160D01*
X033660Y020290D02*
X033690Y020260D01*
X033660Y020290D02*
X033660Y020350D01*
X033690Y020380D01*
X033720Y020380D01*
X033840Y020260D01*
X033840Y020380D01*
X033810Y020444D02*
X033690Y020564D01*
X033810Y020564D01*
X033840Y020534D01*
X033840Y020474D01*
X033810Y020444D01*
X033690Y020444D01*
X033660Y020474D01*
X033660Y020534D01*
X033690Y020564D01*
X033660Y020628D02*
X033840Y020628D01*
X033780Y020628D02*
X033720Y020718D01*
X033780Y020628D02*
X033840Y020718D01*
X033920Y020910D02*
X033920Y021020D01*
X033957Y021057D01*
X034030Y021057D01*
X034067Y021020D01*
X034067Y020910D01*
X034140Y020910D02*
X033920Y020910D01*
X034067Y020983D02*
X034140Y021057D01*
X034140Y021131D02*
X034140Y021278D01*
X034140Y021204D02*
X033920Y021204D01*
X033993Y021131D01*
X034030Y021352D02*
X033993Y021425D01*
X033993Y021462D01*
X034030Y021499D01*
X034103Y021499D01*
X034140Y021462D01*
X034140Y021389D01*
X034103Y021352D01*
X034030Y021352D02*
X033920Y021352D01*
X033920Y021499D01*
X033934Y021660D02*
X033844Y021720D01*
X033934Y021780D01*
X033844Y021840D02*
X033844Y021660D01*
X033780Y021660D02*
X033660Y021660D01*
X033720Y021660D02*
X033720Y021840D01*
X033660Y021780D01*
X033353Y021328D02*
X033207Y021328D01*
X033170Y021291D01*
X033170Y021218D01*
X033207Y021181D01*
X033243Y021181D01*
X033280Y021218D01*
X033280Y021328D01*
X033353Y021328D02*
X033390Y021291D01*
X033390Y021218D01*
X033353Y021181D01*
X033353Y021107D02*
X033390Y021070D01*
X033390Y020997D01*
X033353Y020960D01*
X033207Y020960D01*
X033170Y020997D01*
X033170Y021070D01*
X033207Y021107D01*
X035310Y022360D02*
X035310Y022580D01*
X035420Y022580D01*
X035457Y022543D01*
X035457Y022470D01*
X035420Y022433D01*
X035310Y022433D01*
X035383Y022433D02*
X035457Y022360D01*
X035531Y022360D02*
X035678Y022360D01*
X035604Y022360D02*
X035604Y022580D01*
X035531Y022507D01*
X035752Y022470D02*
X035862Y022470D01*
X035899Y022433D01*
X035899Y022397D01*
X035862Y022360D01*
X035789Y022360D01*
X035752Y022397D01*
X035752Y022470D01*
X035825Y022543D01*
X035899Y022580D01*
X036110Y022760D02*
X036230Y022880D01*
X036230Y022910D01*
X036200Y022940D01*
X036140Y022940D01*
X036110Y022910D01*
X036110Y022760D02*
X036230Y022760D01*
X036294Y022790D02*
X036414Y022910D01*
X036414Y022790D01*
X036384Y022760D01*
X036324Y022760D01*
X036294Y022790D01*
X036294Y022910D01*
X036324Y022940D01*
X036384Y022940D01*
X036414Y022910D01*
X036478Y022940D02*
X036478Y022760D01*
X036478Y022820D02*
X036568Y022880D01*
X036478Y022820D02*
X036568Y022760D01*
X036533Y020480D02*
X036460Y020480D01*
X036423Y020443D01*
X036349Y020443D02*
X036349Y020407D01*
X036312Y020370D01*
X036239Y020370D01*
X036202Y020407D01*
X036202Y020443D01*
X036239Y020480D01*
X036312Y020480D01*
X036349Y020443D01*
X036312Y020370D02*
X036349Y020333D01*
X036349Y020297D01*
X036312Y020260D01*
X036239Y020260D01*
X036202Y020297D01*
X036202Y020333D01*
X036239Y020370D01*
X036128Y020297D02*
X036128Y020443D01*
X036091Y020480D01*
X035981Y020480D01*
X035981Y020260D01*
X036091Y020260D01*
X036128Y020297D01*
X035907Y020260D02*
X035907Y020407D01*
X035833Y020480D01*
X035760Y020407D01*
X035760Y020260D01*
X035760Y020370D02*
X035907Y020370D01*
X036423Y020260D02*
X036570Y020407D01*
X036570Y020443D01*
X036533Y020480D01*
X036644Y020443D02*
X036644Y020407D01*
X036681Y020370D01*
X036791Y020370D01*
X036791Y020297D02*
X036791Y020443D01*
X036754Y020480D01*
X036681Y020480D01*
X036644Y020443D01*
X036644Y020297D02*
X036681Y020260D01*
X036754Y020260D01*
X036791Y020297D01*
X036570Y020260D02*
X036423Y020260D01*
X036507Y019499D02*
X036470Y019462D01*
X036470Y019389D01*
X036507Y019352D01*
X036507Y019499D02*
X036543Y019499D01*
X036690Y019352D01*
X036690Y019499D01*
X036860Y019418D02*
X036890Y019448D01*
X037010Y019328D01*
X037040Y019358D01*
X037040Y019418D01*
X037010Y019448D01*
X036890Y019448D01*
X036860Y019418D02*
X036860Y019358D01*
X036890Y019328D01*
X037010Y019328D01*
X037010Y019264D02*
X037040Y019234D01*
X037040Y019174D01*
X037010Y019144D01*
X036890Y019264D01*
X037010Y019264D01*
X037010Y019144D02*
X036890Y019144D01*
X036860Y019174D01*
X036860Y019234D01*
X036890Y019264D01*
X036690Y019278D02*
X036690Y019131D01*
X036690Y019204D02*
X036470Y019204D01*
X036543Y019131D01*
X036507Y019057D02*
X036470Y019020D01*
X036470Y018947D01*
X036507Y018910D01*
X036653Y018910D01*
X036690Y018947D01*
X036690Y019020D01*
X036653Y019057D01*
X036860Y019020D02*
X037040Y019020D01*
X037040Y018960D02*
X037040Y019080D01*
X036920Y018960D02*
X036860Y019020D01*
X036920Y019512D02*
X036920Y019603D01*
X036950Y019633D01*
X037010Y019633D01*
X037040Y019603D01*
X037040Y019512D01*
X037100Y019512D02*
X036920Y019512D01*
X035640Y019456D02*
X035640Y019366D01*
X035610Y019336D01*
X035520Y019336D01*
X035520Y019456D02*
X035640Y019456D01*
X035640Y019272D02*
X035640Y019152D01*
X035640Y019212D02*
X035460Y019212D01*
X035520Y019152D01*
X035610Y019090D02*
X035640Y019090D01*
X035640Y019060D01*
X035610Y019060D01*
X035610Y019090D01*
X034940Y019100D02*
X034910Y019130D01*
X034940Y019100D02*
X034940Y019040D01*
X034910Y019010D01*
X034790Y019010D01*
X034760Y019040D01*
X034760Y019100D01*
X034790Y019130D01*
X034820Y019194D02*
X034760Y019254D01*
X034940Y019254D01*
X034940Y019194D02*
X034940Y019314D01*
X034850Y019378D02*
X034850Y019498D01*
X034940Y019468D02*
X034760Y019468D01*
X034850Y019378D01*
X034245Y018640D02*
X034215Y018610D01*
X034215Y018460D01*
X034185Y018550D02*
X034245Y018550D01*
X034308Y018550D02*
X034308Y018490D01*
X034338Y018460D01*
X034398Y018460D01*
X034428Y018490D01*
X034428Y018550D01*
X034398Y018580D01*
X034338Y018580D01*
X034308Y018550D01*
X034492Y018520D02*
X034552Y018580D01*
X034582Y018580D01*
X034492Y018580D02*
X034492Y018460D01*
X033998Y018340D02*
X033998Y018220D01*
X033938Y018160D01*
X033878Y018220D01*
X033878Y018340D01*
X033814Y018340D02*
X033694Y018340D01*
X033694Y018250D01*
X033754Y018280D01*
X033784Y018280D01*
X033814Y018250D01*
X033814Y018190D01*
X033784Y018160D01*
X033724Y018160D01*
X033694Y018190D01*
X033630Y018250D02*
X033510Y018250D01*
X033540Y018460D02*
X033600Y018460D01*
X033630Y018490D01*
X033694Y018490D02*
X033724Y018460D01*
X033814Y018460D01*
X033814Y018580D01*
X033878Y018580D02*
X033938Y018580D01*
X033908Y018610D02*
X033908Y018490D01*
X033938Y018460D01*
X033694Y018490D02*
X033694Y018580D01*
X033630Y018610D02*
X033600Y018640D01*
X033540Y018640D01*
X033510Y018610D01*
X033510Y018490D01*
X033540Y018460D01*
X033383Y017240D02*
X033383Y017120D01*
X033323Y017060D01*
X033262Y017120D01*
X033262Y017240D01*
X033198Y017240D02*
X033078Y017240D01*
X033078Y017150D01*
X033138Y017180D01*
X033168Y017180D01*
X033198Y017150D01*
X033198Y017090D01*
X033168Y017060D01*
X033108Y017060D01*
X033078Y017090D01*
X033014Y017060D02*
X032894Y017060D01*
X032954Y017060D02*
X032954Y017240D01*
X032894Y017180D01*
X032830Y017150D02*
X032710Y017150D01*
X033960Y016560D02*
X033990Y016590D01*
X034050Y016590D01*
X034080Y016560D01*
X034080Y016530D01*
X033960Y016410D01*
X034080Y016410D01*
X034144Y016440D02*
X034264Y016560D01*
X034264Y016440D01*
X034234Y016410D01*
X034174Y016410D01*
X034144Y016440D01*
X034144Y016560D01*
X034174Y016590D01*
X034234Y016590D01*
X034264Y016560D01*
X034328Y016590D02*
X034328Y016410D01*
X034328Y016470D02*
X034418Y016530D01*
X034328Y016470D02*
X034418Y016410D01*
X034291Y015880D02*
X034218Y015880D01*
X034181Y015843D01*
X034107Y015843D02*
X034107Y015770D01*
X034070Y015733D01*
X033960Y015733D01*
X033960Y015660D02*
X033960Y015880D01*
X034070Y015880D01*
X034107Y015843D01*
X034033Y015733D02*
X034107Y015660D01*
X034181Y015660D02*
X034328Y015807D01*
X034328Y015843D01*
X034291Y015880D01*
X034328Y015660D02*
X034181Y015660D01*
X033298Y015330D02*
X033298Y015210D01*
X033208Y015210D01*
X033178Y015240D01*
X033178Y015330D01*
X033114Y015360D02*
X032994Y015240D01*
X032994Y015210D01*
X032900Y015210D02*
X032900Y015390D01*
X032810Y015300D01*
X032930Y015300D01*
X032994Y015390D02*
X033114Y015390D01*
X033114Y015360D01*
X032378Y015343D02*
X032378Y015307D01*
X032341Y015270D01*
X032268Y015270D01*
X032231Y015307D01*
X032231Y015343D01*
X032268Y015380D01*
X032341Y015380D01*
X032378Y015343D01*
X032341Y015270D02*
X032378Y015233D01*
X032378Y015197D01*
X032341Y015160D01*
X032268Y015160D01*
X032231Y015197D01*
X032231Y015233D01*
X032268Y015270D01*
X032157Y015197D02*
X032120Y015160D01*
X032047Y015160D01*
X032010Y015197D01*
X032010Y015343D01*
X032047Y015380D01*
X032120Y015380D01*
X032157Y015343D01*
X035360Y016740D02*
X035390Y016710D01*
X035450Y016710D01*
X035480Y016740D01*
X035480Y016770D01*
X035450Y016800D01*
X035420Y016800D01*
X035450Y016800D02*
X035480Y016830D01*
X035480Y016860D01*
X035450Y016890D01*
X035390Y016890D01*
X035360Y016860D01*
X035544Y016860D02*
X035574Y016890D01*
X035634Y016890D01*
X035664Y016860D01*
X035664Y016830D01*
X035544Y016710D01*
X035664Y016710D01*
X035728Y016710D02*
X035848Y016830D01*
X035848Y016860D01*
X035818Y016890D01*
X035758Y016890D01*
X035728Y016860D01*
X035728Y016710D02*
X035848Y016710D01*
X035912Y016740D02*
X035942Y016710D01*
X036003Y016710D01*
X036033Y016740D01*
X036033Y016770D01*
X036003Y016800D01*
X035973Y016800D01*
X036003Y016800D02*
X036033Y016830D01*
X036033Y016860D01*
X036003Y016890D01*
X035942Y016890D01*
X035912Y016860D01*
X036097Y016890D02*
X036097Y016710D01*
X036157Y016770D01*
X036217Y016710D01*
X036217Y016890D01*
X041290Y023460D02*
X041410Y023460D01*
X041440Y023490D01*
X041440Y023550D01*
X041410Y023580D01*
X041290Y023580D02*
X041260Y023550D01*
X041260Y023490D01*
X041290Y023460D01*
X038668Y026510D02*
X038578Y026570D01*
X038668Y026630D01*
X038578Y026690D02*
X038578Y026510D01*
X038514Y026540D02*
X038484Y026510D01*
X038424Y026510D01*
X038394Y026540D01*
X038514Y026660D01*
X038514Y026540D01*
X038394Y026540D02*
X038394Y026660D01*
X038424Y026690D01*
X038484Y026690D01*
X038514Y026660D01*
X038541Y026760D02*
X038578Y026797D01*
X038578Y026943D01*
X038541Y026980D01*
X038468Y026980D01*
X038431Y026943D01*
X038431Y026907D01*
X038468Y026870D01*
X038578Y026870D01*
X038541Y026760D02*
X038468Y026760D01*
X038431Y026797D01*
X038357Y026760D02*
X038283Y026833D01*
X038320Y026833D02*
X038210Y026833D01*
X038210Y026760D02*
X038210Y026980D01*
X038320Y026980D01*
X038357Y026943D01*
X038357Y026870D01*
X038320Y026833D01*
X038270Y026690D02*
X038270Y026510D01*
X038210Y026510D02*
X038330Y026510D01*
X038210Y026630D02*
X038270Y026690D01*
X036800Y026626D02*
X036620Y026626D01*
X036620Y026716D01*
X036650Y026746D01*
X036710Y026746D01*
X036740Y026716D01*
X036740Y026626D01*
X036710Y026562D02*
X036740Y026532D01*
X036740Y026472D01*
X036710Y026442D01*
X036590Y026562D01*
X036710Y026562D01*
X036590Y026562D02*
X036560Y026532D01*
X036560Y026472D01*
X036590Y026442D01*
X036710Y026442D01*
X036710Y026378D02*
X036740Y026348D01*
X036740Y026288D01*
X036710Y026258D01*
X036590Y026378D01*
X036710Y026378D01*
X036590Y026378D02*
X036560Y026348D01*
X036560Y026288D01*
X036590Y026258D01*
X036710Y026258D01*
X036740Y026193D02*
X036740Y026073D01*
X036740Y026133D02*
X036560Y026133D01*
X036620Y026073D01*
X036443Y026218D02*
X036480Y026255D01*
X036480Y026328D01*
X036443Y026365D01*
X036443Y026439D02*
X036480Y026476D01*
X036480Y026549D01*
X036443Y026586D01*
X036370Y026586D01*
X036333Y026549D01*
X036333Y026512D01*
X036370Y026439D01*
X036260Y026439D01*
X036260Y026586D01*
X036297Y026365D02*
X036260Y026328D01*
X036260Y026255D01*
X036297Y026218D01*
X036443Y026218D01*
X035990Y026242D02*
X035990Y026362D01*
X035990Y026302D02*
X035810Y026302D01*
X035870Y026242D01*
X035960Y026180D02*
X035990Y026180D01*
X035990Y026150D01*
X035960Y026150D01*
X035960Y026180D01*
X035730Y026255D02*
X035730Y026328D01*
X035693Y026365D01*
X035730Y026439D02*
X035583Y026586D01*
X035547Y026586D01*
X035510Y026549D01*
X035510Y026476D01*
X035547Y026439D01*
X035547Y026365D02*
X035510Y026328D01*
X035510Y026255D01*
X035547Y026218D01*
X035693Y026218D01*
X035730Y026255D01*
X035730Y026439D02*
X035730Y026586D01*
X035870Y026546D02*
X035990Y026546D01*
X035990Y026456D01*
X035960Y026426D01*
X035870Y026426D01*
X033880Y026099D02*
X033880Y026026D01*
X033843Y025989D01*
X033843Y025915D02*
X033880Y025878D01*
X033880Y025805D01*
X033843Y025768D01*
X033697Y025768D01*
X033660Y025805D01*
X033660Y025878D01*
X033697Y025915D01*
X033697Y025989D02*
X033660Y026026D01*
X033660Y026099D01*
X033697Y026136D01*
X033733Y026136D01*
X033770Y026099D01*
X033807Y026136D01*
X033843Y026136D01*
X033880Y026099D01*
X033770Y026099D02*
X033770Y026062D01*
X033590Y026096D02*
X033470Y026096D01*
X033590Y026096D02*
X033590Y026006D01*
X033560Y025976D01*
X033470Y025976D01*
X033590Y025912D02*
X033590Y025792D01*
X033590Y025852D02*
X033410Y025852D01*
X033470Y025792D01*
X033560Y025730D02*
X033560Y025700D01*
X033590Y025700D01*
X033590Y025730D01*
X033560Y025730D01*
X032250Y026126D02*
X032070Y026126D01*
X032070Y026216D01*
X032100Y026246D01*
X032160Y026246D01*
X032190Y026216D01*
X032190Y026126D01*
X032160Y026062D02*
X032190Y026032D01*
X032190Y025972D01*
X032160Y025942D01*
X032040Y026062D01*
X032160Y026062D01*
X032040Y026062D02*
X032010Y026032D01*
X032010Y025972D01*
X032040Y025942D01*
X032160Y025942D01*
X032160Y025878D02*
X032190Y025848D01*
X032190Y025788D01*
X032160Y025758D01*
X032040Y025878D01*
X032160Y025878D01*
X032040Y025878D02*
X032010Y025848D01*
X032010Y025788D01*
X032040Y025758D01*
X032160Y025758D01*
X032190Y025693D02*
X032190Y025573D01*
X032190Y025633D02*
X032010Y025633D01*
X032070Y025573D01*
X031943Y025768D02*
X031980Y025805D01*
X031980Y025878D01*
X031943Y025915D01*
X031943Y025989D02*
X031980Y026026D01*
X031980Y026099D01*
X031943Y026136D01*
X031907Y026136D01*
X031870Y026099D01*
X031870Y025989D01*
X031943Y025989D01*
X031870Y025989D02*
X031797Y026062D01*
X031760Y026136D01*
X031797Y025915D02*
X031760Y025878D01*
X031760Y025805D01*
X031797Y025768D01*
X031943Y025768D01*
X031749Y025693D02*
X031712Y025730D01*
X031639Y025730D01*
X031602Y025693D01*
X031749Y025693D02*
X031749Y025657D01*
X031602Y025510D01*
X031749Y025510D01*
X031718Y025380D02*
X031628Y025320D01*
X031718Y025260D01*
X031628Y025260D02*
X031628Y025440D01*
X031564Y025410D02*
X031444Y025290D01*
X031474Y025260D01*
X031534Y025260D01*
X031564Y025290D01*
X031564Y025410D01*
X031534Y025440D01*
X031474Y025440D01*
X031444Y025410D01*
X031444Y025290D01*
X031380Y025260D02*
X031260Y025260D01*
X031320Y025260D02*
X031320Y025440D01*
X031260Y025380D01*
X031307Y025510D02*
X031233Y025583D01*
X031270Y025583D02*
X031160Y025583D01*
X031160Y025510D02*
X031160Y025730D01*
X031270Y025730D01*
X031307Y025693D01*
X031307Y025620D01*
X031270Y025583D01*
X031381Y025510D02*
X031528Y025510D01*
X031454Y025510D02*
X031454Y025730D01*
X031381Y025657D01*
X038433Y008980D02*
X038507Y008907D01*
X038507Y008760D01*
X038581Y008760D02*
X038691Y008760D01*
X038728Y008797D01*
X038728Y008943D01*
X038691Y008980D01*
X038581Y008980D01*
X038581Y008760D01*
X038507Y008870D02*
X038360Y008870D01*
X038360Y008907D02*
X038433Y008980D01*
X038360Y008907D02*
X038360Y008760D01*
X038802Y008797D02*
X038802Y008833D01*
X038839Y008870D01*
X038912Y008870D01*
X038949Y008833D01*
X038949Y008797D01*
X038912Y008760D01*
X038839Y008760D01*
X038802Y008797D01*
X038839Y008870D02*
X038802Y008907D01*
X038802Y008943D01*
X038839Y008980D01*
X038912Y008980D01*
X038949Y008943D01*
X038949Y008907D01*
X038912Y008870D01*
X039023Y008943D02*
X039060Y008980D01*
X039133Y008980D01*
X039170Y008943D01*
X039170Y008907D01*
X039023Y008760D01*
X039170Y008760D01*
X039244Y008797D02*
X039281Y008760D01*
X039354Y008760D01*
X039391Y008797D01*
X039391Y008943D01*
X039354Y008980D01*
X039281Y008980D01*
X039244Y008943D01*
X039244Y008907D01*
X039281Y008870D01*
X039391Y008870D01*
X040050Y008133D02*
X040110Y008133D01*
X040140Y008103D01*
X040140Y008012D01*
X040200Y008012D02*
X040020Y008012D01*
X040020Y008103D01*
X040050Y008133D01*
X040110Y007948D02*
X040140Y007918D01*
X040140Y007858D01*
X040110Y007828D01*
X039990Y007948D01*
X040110Y007948D01*
X040110Y007828D02*
X039990Y007828D01*
X039960Y007858D01*
X039960Y007918D01*
X039990Y007948D01*
X039990Y007764D02*
X040110Y007644D01*
X040140Y007674D01*
X040140Y007734D01*
X040110Y007764D01*
X039990Y007764D01*
X039960Y007734D01*
X039960Y007674D01*
X039990Y007644D01*
X040110Y007644D01*
X040140Y007580D02*
X040140Y007460D01*
X040140Y007520D02*
X039960Y007520D01*
X040020Y007460D01*
X040270Y007149D02*
X040270Y007002D01*
X040380Y007002D01*
X040343Y007075D01*
X040343Y007112D01*
X040380Y007149D01*
X040453Y007149D01*
X040490Y007112D01*
X040490Y007039D01*
X040453Y007002D01*
X040490Y006928D02*
X040490Y006781D01*
X040343Y006928D01*
X040307Y006928D01*
X040270Y006891D01*
X040270Y006818D01*
X040307Y006781D01*
X040307Y006707D02*
X040270Y006670D01*
X040270Y006597D01*
X040307Y006560D01*
X040453Y006560D01*
X040490Y006597D01*
X040490Y006670D01*
X040453Y006707D01*
X039590Y006731D02*
X039443Y006878D01*
X039407Y006878D01*
X039370Y006841D01*
X039370Y006768D01*
X039407Y006731D01*
X039407Y006657D02*
X039370Y006620D01*
X039370Y006547D01*
X039407Y006510D01*
X039553Y006510D01*
X039590Y006547D01*
X039590Y006620D01*
X039553Y006657D01*
X039590Y006731D02*
X039590Y006878D01*
X039590Y006952D02*
X039553Y006952D01*
X039407Y007099D01*
X039370Y007099D01*
X039370Y006952D01*
X039240Y007510D02*
X039240Y007540D01*
X039210Y007540D01*
X039210Y007510D01*
X039240Y007510D01*
X039240Y007602D02*
X039240Y007722D01*
X039240Y007662D02*
X039060Y007662D01*
X039120Y007602D01*
X039120Y007786D02*
X039210Y007786D01*
X039240Y007816D01*
X039240Y007906D01*
X039120Y007906D01*
X038290Y007906D02*
X038170Y007906D01*
X038170Y007786D02*
X038260Y007786D01*
X038290Y007816D01*
X038290Y007906D01*
X038290Y007722D02*
X038290Y007602D01*
X038290Y007662D02*
X038110Y007662D01*
X038170Y007602D01*
X038260Y007540D02*
X038290Y007540D01*
X038290Y007510D01*
X038260Y007510D01*
X038260Y007540D01*
X038420Y007149D02*
X038457Y007075D01*
X038530Y007002D01*
X038530Y007112D01*
X038567Y007149D01*
X038603Y007149D01*
X038640Y007112D01*
X038640Y007039D01*
X038603Y007002D01*
X038530Y007002D01*
X038493Y006928D02*
X038457Y006928D01*
X038420Y006891D01*
X038420Y006818D01*
X038457Y006781D01*
X038457Y006707D02*
X038420Y006670D01*
X038420Y006597D01*
X038457Y006560D01*
X038603Y006560D01*
X038640Y006597D01*
X038640Y006670D01*
X038603Y006707D01*
X038640Y006781D02*
X038493Y006928D01*
X038640Y006928D02*
X038640Y006781D01*
X037740Y006731D02*
X037593Y006878D01*
X037557Y006878D01*
X037520Y006841D01*
X037520Y006768D01*
X037557Y006731D01*
X037557Y006657D02*
X037520Y006620D01*
X037520Y006547D01*
X037557Y006510D01*
X037703Y006510D01*
X037740Y006547D01*
X037740Y006620D01*
X037703Y006657D01*
X037740Y006731D02*
X037740Y006878D01*
X037630Y006952D02*
X037630Y007099D01*
X037740Y007062D02*
X037520Y007062D01*
X037630Y006952D01*
X037340Y007410D02*
X037340Y007530D01*
X037340Y007470D02*
X037160Y007470D01*
X037220Y007410D01*
X037190Y007594D02*
X037160Y007624D01*
X037160Y007684D01*
X037190Y007714D01*
X037310Y007594D01*
X037340Y007624D01*
X037340Y007684D01*
X037310Y007714D01*
X037190Y007714D01*
X037190Y007778D02*
X037160Y007808D01*
X037160Y007868D01*
X037190Y007898D01*
X037310Y007778D01*
X037340Y007808D01*
X037340Y007868D01*
X037310Y007898D01*
X037190Y007898D01*
X037220Y007962D02*
X037220Y008053D01*
X037250Y008083D01*
X037310Y008083D01*
X037340Y008053D01*
X037340Y007962D01*
X037400Y007962D02*
X037220Y007962D01*
X037190Y007778D02*
X037310Y007778D01*
X037310Y007594D02*
X037190Y007594D01*
D11*
G36*
X036861Y022806D02*
X036956Y023089D01*
X037239Y022994D01*
X037144Y022711D01*
X036861Y022806D01*
G37*
G36*
X033461Y026656D02*
X033556Y026939D01*
X033839Y026844D01*
X033744Y026561D01*
X033461Y026656D01*
G37*
D12*
X035030Y021850D02*
X035030Y021650D01*
X035460Y021650D01*
X035460Y021850D01*
X035030Y021850D01*
X035460Y021980D02*
X035460Y020020D01*
X037040Y020020D01*
X037040Y021980D01*
X036370Y021980D01*
X036130Y021980D01*
X035460Y021980D01*
X036130Y021980D02*
X036132Y021959D01*
X036137Y021939D01*
X036146Y021920D01*
X036158Y021903D01*
X036173Y021888D01*
X036190Y021876D01*
X036209Y021867D01*
X036229Y021862D01*
X036250Y021860D01*
X036271Y021862D01*
X036291Y021867D01*
X036310Y021876D01*
X036327Y021888D01*
X036342Y021903D01*
X036354Y021920D01*
X036363Y021939D01*
X036368Y021959D01*
X036370Y021980D01*
X037040Y021850D02*
X037040Y021650D01*
X037470Y021650D01*
X037470Y021850D01*
X037040Y021850D01*
X037040Y021350D02*
X037470Y021350D01*
X037470Y021150D01*
X037040Y021150D01*
X037040Y021350D01*
X037040Y020850D02*
X037470Y020850D01*
X037470Y020650D01*
X037040Y020650D01*
X037040Y020850D01*
X037040Y020350D02*
X037470Y020350D01*
X037470Y020150D01*
X037040Y020150D01*
X037040Y020350D01*
X035460Y020350D02*
X035460Y020150D01*
X035030Y020150D01*
X035030Y020350D01*
X035460Y020350D01*
X035460Y020650D02*
X035030Y020650D01*
X035030Y020850D01*
X035460Y020850D01*
X035460Y020650D01*
X035460Y021150D02*
X035030Y021150D01*
X035030Y021350D01*
X035460Y021350D01*
X035460Y021150D01*
X038010Y010430D02*
X038010Y008470D01*
X039590Y008470D01*
X039590Y010430D01*
X038920Y010430D01*
X038680Y010430D01*
X038010Y010430D01*
X038010Y010300D02*
X037580Y010300D01*
X037580Y010100D01*
X038010Y010100D01*
X038010Y010300D01*
X038680Y010430D02*
X038682Y010409D01*
X038687Y010389D01*
X038696Y010370D01*
X038708Y010353D01*
X038723Y010338D01*
X038740Y010326D01*
X038759Y010317D01*
X038779Y010312D01*
X038800Y010310D01*
X038821Y010312D01*
X038841Y010317D01*
X038860Y010326D01*
X038877Y010338D01*
X038892Y010353D01*
X038904Y010370D01*
X038913Y010389D01*
X038918Y010409D01*
X038920Y010430D01*
X039590Y010300D02*
X039590Y010100D01*
X040020Y010100D01*
X040020Y010300D01*
X039590Y010300D01*
X039590Y009800D02*
X040020Y009800D01*
X040020Y009600D01*
X039590Y009600D01*
X039590Y009800D01*
X039590Y009300D02*
X040020Y009300D01*
X040020Y009100D01*
X039590Y009100D01*
X039590Y009300D01*
X039590Y008800D02*
X040020Y008800D01*
X040020Y008600D01*
X039590Y008600D01*
X039590Y008800D01*
X038010Y008800D02*
X038010Y008600D01*
X037580Y008600D01*
X037580Y008800D01*
X038010Y008800D01*
X038010Y009100D02*
X037580Y009100D01*
X037580Y009300D01*
X038010Y009300D01*
X038010Y009100D01*
X038010Y009600D02*
X037580Y009600D01*
X037580Y009800D01*
X038010Y009800D01*
X038010Y009600D01*
D13*
X037829Y010463D02*
X037515Y010777D01*
X037829Y010463D01*
X037672Y010463D02*
X037672Y010777D01*
X037672Y010463D01*
X037515Y010463D02*
X037829Y010777D01*
X037515Y010463D01*
X037515Y010620D02*
X037829Y010620D01*
X037515Y010620D01*
X036007Y017040D02*
X035883Y017040D01*
X035822Y017102D01*
X035700Y017040D02*
X035577Y017163D01*
X035639Y017163D02*
X035453Y017163D01*
X035453Y017040D02*
X035453Y017410D01*
X035639Y017410D01*
X035700Y017349D01*
X035700Y017225D01*
X035639Y017163D01*
X035822Y017349D02*
X035883Y017410D01*
X036007Y017410D01*
X036069Y017349D01*
X036069Y017287D01*
X036007Y017225D01*
X036069Y017163D01*
X036069Y017102D01*
X036007Y017040D01*
X036007Y017225D02*
X035945Y017225D01*
X035279Y022013D02*
X034965Y022327D01*
X035279Y022013D01*
X035122Y022013D02*
X035122Y022327D01*
X035122Y022013D01*
X034965Y022013D02*
X035279Y022327D01*
X034965Y022013D01*
X034965Y022170D02*
X035279Y022170D01*
X034965Y022170D01*
D14*
X035710Y021980D02*
X036130Y021980D01*
X036370Y021980D01*
X036790Y021980D01*
X036470Y022360D02*
X036130Y022360D01*
X036130Y022640D02*
X036470Y022640D01*
X036370Y021980D02*
X036368Y021959D01*
X036363Y021939D01*
X036354Y021920D01*
X036342Y021903D01*
X036327Y021888D01*
X036310Y021876D01*
X036291Y021867D01*
X036271Y021862D01*
X036250Y021860D01*
X036229Y021862D01*
X036209Y021867D01*
X036190Y021876D01*
X036173Y021888D01*
X036158Y021903D01*
X036146Y021920D01*
X036137Y021939D01*
X036132Y021959D01*
X036130Y021980D01*
X034240Y022930D02*
X034240Y023270D01*
X033960Y023270D02*
X033960Y022930D01*
X033970Y022240D02*
X033630Y022240D01*
X033630Y021960D02*
X033970Y021960D01*
X033960Y020570D02*
X033960Y020230D01*
X034240Y020230D02*
X034240Y020570D01*
X035710Y020020D02*
X036790Y020020D01*
X039580Y020610D02*
X039920Y020610D01*
X039920Y020890D02*
X039580Y020890D01*
X035390Y023380D02*
X035390Y023720D01*
X035110Y023720D02*
X035110Y023380D01*
X031490Y022070D02*
X031490Y021730D01*
X031210Y021730D02*
X031210Y022070D01*
X030420Y022060D02*
X030080Y022060D01*
X030080Y022340D02*
X030420Y022340D01*
X030470Y020640D02*
X030130Y020640D01*
X030130Y020360D02*
X030470Y020360D01*
X032410Y020230D02*
X032410Y020570D01*
X032690Y020570D02*
X032690Y020230D01*
X030140Y024130D02*
X030140Y024470D01*
X029860Y024470D02*
X029860Y024130D01*
X031230Y024910D02*
X031570Y024910D01*
X031570Y025190D02*
X031230Y025190D01*
X038230Y026110D02*
X038570Y026110D01*
X038570Y026390D02*
X038230Y026390D01*
X039960Y024520D02*
X039960Y024180D01*
X040240Y024180D02*
X040240Y024520D01*
X037520Y016240D02*
X037180Y016240D01*
X037180Y015960D02*
X037520Y015960D01*
X037350Y015500D02*
X037350Y014800D01*
X037350Y014200D01*
X037150Y014200D01*
X037150Y014800D01*
X037350Y014800D01*
X038050Y014750D02*
X038250Y014750D01*
X038150Y014850D02*
X038150Y014650D01*
X038100Y014500D02*
X038400Y014500D01*
X038400Y014980D01*
X038600Y014980D01*
X038600Y014020D01*
X038400Y014020D01*
X038400Y014500D01*
X038900Y014500D02*
X039200Y014500D01*
X039950Y014800D02*
X039950Y014200D01*
X039950Y013500D01*
X037350Y013500D01*
X037350Y014200D01*
X037350Y015500D02*
X039950Y015500D01*
X039950Y014800D01*
X037720Y011990D02*
X037380Y011990D01*
X037380Y011710D02*
X037720Y011710D01*
X038580Y011190D02*
X038920Y011190D01*
X038920Y010910D02*
X038580Y010910D01*
X038680Y010430D02*
X038260Y010430D01*
X038680Y010430D02*
X038920Y010430D01*
X039340Y010430D01*
X038920Y010430D02*
X038918Y010409D01*
X038913Y010389D01*
X038904Y010370D01*
X038892Y010353D01*
X038877Y010338D01*
X038860Y010326D01*
X038841Y010317D01*
X038821Y010312D01*
X038800Y010310D01*
X038779Y010312D01*
X038759Y010317D01*
X038740Y010326D01*
X038723Y010338D01*
X038708Y010353D01*
X038696Y010370D01*
X038687Y010389D01*
X038682Y010409D01*
X038680Y010430D01*
X039780Y010910D02*
X040120Y010910D01*
X040120Y011190D02*
X039780Y011190D01*
X035470Y010940D02*
X035130Y010940D01*
X035130Y010660D02*
X035470Y010660D01*
X035470Y010140D02*
X035130Y010140D01*
X035130Y009860D02*
X035470Y009860D01*
X038260Y008470D02*
X039340Y008470D01*
X034000Y013550D02*
X031400Y013550D01*
X031400Y014250D01*
X031400Y014850D01*
X031400Y015550D01*
X034000Y015550D01*
X034000Y014850D01*
X034000Y014250D01*
X034000Y013550D01*
X033250Y014550D02*
X032950Y014550D01*
X032450Y014550D02*
X032450Y014070D01*
X032650Y014070D01*
X032650Y015030D01*
X032450Y015030D01*
X032450Y014550D01*
X032150Y014550D01*
X032200Y014700D02*
X032200Y014900D01*
X032100Y014800D02*
X032300Y014800D01*
X031400Y014850D02*
X031200Y014850D01*
X031200Y014250D01*
X031400Y014250D01*
X033980Y016010D02*
X034320Y016010D01*
X034320Y016290D02*
X033980Y016290D01*
D15*
X034100Y020150D03*
X034100Y020650D03*
X032550Y020650D03*
X032550Y020150D03*
X031350Y021650D03*
X031350Y022150D03*
X034100Y022850D03*
X034100Y023350D03*
X035250Y023300D03*
X035250Y023800D03*
X040100Y024100D03*
X040100Y024600D03*
X030000Y024550D03*
X030000Y024050D03*
D16*
X029617Y023815D02*
X029617Y024485D01*
X029183Y024485D01*
X029183Y023815D01*
X029617Y023815D01*
X030068Y023457D02*
X030532Y023457D01*
X030532Y023143D01*
X030068Y023143D01*
X030068Y023457D01*
X032235Y022490D02*
X032235Y022210D01*
X032570Y022210D02*
X032570Y022490D01*
X030440Y021470D02*
X030160Y021470D01*
X030160Y021135D02*
X030440Y021135D01*
X031630Y020540D02*
X031630Y020260D01*
X031965Y020260D02*
X031965Y020540D01*
X033180Y020540D02*
X033180Y020260D01*
X033515Y020260D02*
X033515Y020540D01*
X035080Y019340D02*
X035080Y019060D01*
X035415Y019060D02*
X035415Y019340D01*
X036030Y019340D02*
X036030Y019060D01*
X036365Y019060D02*
X036365Y019340D01*
X037435Y022710D02*
X037435Y022990D01*
X037770Y022990D02*
X037770Y022710D01*
X038285Y022710D02*
X038285Y022990D01*
X038620Y022990D02*
X038620Y022710D01*
X039618Y022943D02*
X039618Y023257D01*
X040082Y023257D01*
X040082Y022943D01*
X039618Y022943D01*
X040683Y023915D02*
X041117Y023915D01*
X041117Y024585D01*
X040683Y024585D01*
X040683Y023915D01*
X038065Y024596D02*
X037824Y024596D01*
X037944Y024596D02*
X037944Y024956D01*
X037824Y024836D01*
X037696Y024956D02*
X037696Y024656D01*
X037636Y024596D01*
X037516Y024596D01*
X037456Y024656D01*
X037456Y024956D01*
X036620Y025710D02*
X036620Y025990D01*
X036285Y025990D02*
X036285Y025710D01*
X035820Y025710D02*
X035820Y025990D01*
X035485Y025990D02*
X035485Y025710D01*
X033370Y025810D02*
X033370Y026090D01*
X033035Y026090D02*
X033035Y025810D01*
X032570Y025810D02*
X032570Y026090D01*
X032235Y026090D02*
X032235Y025810D01*
X032741Y024954D02*
X032741Y024654D01*
X032801Y024594D01*
X032921Y024594D01*
X032981Y024654D01*
X032981Y024954D01*
X033109Y024894D02*
X033169Y024954D01*
X033290Y024954D01*
X033350Y024894D01*
X033350Y024834D01*
X033109Y024594D01*
X033350Y024594D01*
X036160Y023420D02*
X036440Y023420D01*
X036440Y023085D02*
X036160Y023085D01*
X036083Y015335D02*
X036517Y015335D01*
X036517Y014665D01*
X036083Y014665D01*
X036083Y015335D01*
X035417Y015335D02*
X035417Y014665D01*
X034983Y014665D01*
X034983Y015335D01*
X035417Y015335D01*
X033220Y012390D02*
X033220Y012110D01*
X032885Y012110D02*
X032885Y012390D01*
X035160Y011770D02*
X035440Y011770D01*
X035440Y011435D02*
X035160Y011435D01*
X033340Y010020D02*
X033060Y010020D01*
X033060Y009685D02*
X033340Y009685D01*
X031965Y008640D02*
X031965Y008360D01*
X031630Y008360D02*
X031630Y008640D01*
X032160Y007420D02*
X032440Y007420D01*
X032440Y007085D02*
X032160Y007085D01*
X033930Y007810D02*
X033930Y008090D01*
X034265Y008090D02*
X034265Y007810D01*
X035160Y009035D02*
X035440Y009035D01*
X035440Y009370D02*
X035160Y009370D01*
X037480Y007840D02*
X037480Y007560D01*
X037815Y007560D02*
X037815Y007840D01*
X038380Y007840D02*
X038380Y007560D01*
X038715Y007560D02*
X038715Y007840D01*
X039330Y007840D02*
X039330Y007560D01*
X039665Y007560D02*
X039665Y007840D01*
X040230Y007840D02*
X040230Y007560D01*
X040565Y007560D02*
X040565Y007840D01*
X038890Y011685D02*
X038610Y011685D01*
X038610Y012020D02*
X038890Y012020D01*
X031715Y011040D02*
X031715Y010760D01*
X031380Y010760D02*
X031380Y011040D01*
D17*
X031548Y011128D03*
X031548Y010668D03*
X031798Y008728D03*
X031798Y008268D03*
X034098Y008178D03*
X034098Y007718D03*
X037648Y007928D03*
X037648Y007468D03*
X038548Y007468D03*
X039498Y007468D03*
X040398Y007468D03*
X040398Y007928D03*
X039498Y007928D03*
X038548Y007928D03*
X033052Y012022D03*
X033052Y012482D03*
X035248Y018968D03*
X035248Y019428D03*
X036198Y019428D03*
X036198Y018968D03*
X033348Y020168D03*
X033348Y020628D03*
X031798Y020628D03*
X031798Y020168D03*
X032402Y022122D03*
X032402Y022582D03*
X035652Y025622D03*
X035652Y026082D03*
X036452Y026082D03*
X036452Y025622D03*
X033202Y025722D03*
X033202Y026182D03*
X032402Y026182D03*
X032402Y025722D03*
X037602Y023082D03*
X037602Y022622D03*
X038452Y022622D03*
X038452Y023082D03*
D18*
X036550Y022500D03*
X036050Y022500D03*
X034050Y022100D03*
X033550Y022100D03*
X030500Y022200D03*
X030000Y022200D03*
X030050Y020500D03*
X030550Y020500D03*
X033900Y016150D03*
X034400Y016150D03*
X037100Y016100D03*
X037600Y016100D03*
X037800Y011850D03*
X037300Y011850D03*
X038500Y011050D03*
X039000Y011050D03*
X039700Y011050D03*
X040200Y011050D03*
X035550Y010800D03*
X035050Y010800D03*
X035050Y010000D03*
X035550Y010000D03*
X039500Y020750D03*
X040000Y020750D03*
X031650Y025050D03*
X031150Y025050D03*
X038150Y026250D03*
X038650Y026250D03*
D19*
X036528Y023252D03*
X036068Y023252D03*
X030528Y021302D03*
X030068Y021302D03*
X035068Y011602D03*
X035528Y011602D03*
X038518Y011852D03*
X038978Y011852D03*
X035528Y009202D03*
X035068Y009202D03*
X033428Y009852D03*
X032968Y009852D03*
X032528Y007252D03*
X032068Y007252D03*
D20*
X030554Y023300D03*
X030046Y023300D03*
X039596Y023100D03*
X040104Y023100D03*
D21*
X040025Y023100D03*
X030475Y023300D03*
D22*
X029400Y024012D03*
X040900Y024112D03*
X036300Y015138D03*
X035200Y014862D03*
D23*
X035200Y014577D03*
X035200Y015423D03*
X036300Y015423D03*
X036300Y014577D03*
X029400Y023727D03*
X029400Y024573D03*
X040900Y024673D03*
X040900Y023827D03*
D24*
X040900Y024073D03*
X029400Y023973D03*
X036300Y015177D03*
X035200Y014823D03*
D25*
X035022Y016272D02*
X036478Y016272D01*
X036478Y017728D01*
X036147Y017728D01*
X036478Y017728D02*
X036478Y016647D01*
X035978Y016272D02*
X035522Y016272D01*
X035022Y016272D02*
X035022Y017728D01*
X035353Y017728D01*
X035022Y017728D02*
X035022Y016647D01*
X035022Y017728D02*
X036478Y017728D01*
D26*
X036281Y016099D03*
X035219Y016099D03*
D27*
X035750Y017896D03*
D28*
X033369Y011430D02*
X032731Y011430D01*
X032731Y011410D02*
X032731Y010290D01*
X032731Y010270D02*
X033369Y010270D01*
X033369Y010290D02*
X033369Y011410D01*
X033369Y011016D02*
X033369Y010684D01*
X033560Y008619D02*
X032440Y008619D01*
X032420Y008619D02*
X032420Y007981D01*
X032440Y007981D02*
X033560Y007981D01*
X033580Y007981D02*
X033580Y008619D01*
X033166Y007981D02*
X032834Y007981D01*
D29*
X033375Y008405D03*
X032945Y011225D03*
D30*
X033000Y008763D03*
X033374Y008763D03*
X032626Y008763D03*
X032626Y007837D03*
X033374Y007837D03*
D31*
X033513Y010476D03*
X033513Y011224D03*
X032587Y011224D03*
X032587Y010850D03*
X032587Y010476D03*
D32*
X032900Y014550D03*
X038850Y014500D03*
M02*
