G75*
%MOIN*%
%OFA0B0*%
%FSLAX24Y24*%
%IPPOS*%
%LPD*%
%AMOC8*
5,1,8,0,0,1.08239X$1,22.5*
%
%ADD10R,0.0780X0.0220*%
%ADD11R,0.0433X0.0394*%
%ADD12R,0.0394X0.0433*%
%ADD13C,0.0520*%
%ADD14R,0.0276X0.0197*%
%ADD15R,0.0236X0.0315*%
%ADD16R,0.0354X0.0787*%
%ADD17R,0.0512X0.0787*%
%ADD18R,0.0217X0.0472*%
%ADD19R,0.0472X0.0217*%
%ADD20OC8,0.0520*%
%ADD21C,0.0160*%
%ADD22C,0.1502*%
%ADD23R,0.0591X0.0591*%
%ADD24R,0.0945X0.0945*%
%ADD25R,0.0396X0.0396*%
%ADD26C,0.0591*%
%ADD27OC8,0.0945*%
%ADD28C,0.0396*%
D10*
X035280Y020250D03*
X035280Y020750D03*
X035280Y021250D03*
X035280Y021750D03*
X037220Y021750D03*
X037220Y021250D03*
X037220Y020750D03*
X037220Y020250D03*
X037830Y010200D03*
X037830Y009700D03*
X037830Y009200D03*
X037830Y008700D03*
X039770Y008700D03*
X039770Y009200D03*
X039770Y009700D03*
X039770Y010200D03*
D11*
X039085Y011850D03*
X038415Y011850D03*
X035635Y011600D03*
X034965Y011600D03*
X033535Y009850D03*
X032865Y009850D03*
X034965Y009200D03*
X035635Y009200D03*
X032635Y007250D03*
X031965Y007250D03*
X032550Y020065D03*
X032550Y020735D03*
X031350Y021565D03*
X030635Y021300D03*
X029965Y021300D03*
X031350Y022235D03*
X030000Y023965D03*
X030000Y024635D03*
X034100Y023435D03*
X034100Y022765D03*
X035250Y023215D03*
X035965Y023250D03*
X036635Y023250D03*
X035250Y023885D03*
X034100Y020735D03*
X034100Y020065D03*
X040100Y024015D03*
X040100Y024685D03*
D12*
X038735Y026250D03*
X038065Y026250D03*
X036450Y026185D03*
X035650Y026185D03*
X035650Y025515D03*
X036450Y025515D03*
X033200Y025615D03*
X032400Y025615D03*
X031735Y025050D03*
X031065Y025050D03*
X032400Y026285D03*
X033200Y026285D03*
X037600Y023185D03*
X038450Y023185D03*
X038450Y022515D03*
X037600Y022515D03*
X036635Y022500D03*
X035965Y022500D03*
X034135Y022100D03*
X033465Y022100D03*
X032400Y022015D03*
X032400Y022685D03*
X030585Y022200D03*
X029915Y022200D03*
X031800Y020735D03*
X031800Y020065D03*
X030635Y020500D03*
X029965Y020500D03*
X033350Y020735D03*
X033350Y020065D03*
X035250Y019535D03*
X035250Y018865D03*
X036200Y018865D03*
X036200Y019535D03*
X039415Y020750D03*
X040085Y020750D03*
X037685Y016100D03*
X037015Y016100D03*
X034485Y016150D03*
X033815Y016150D03*
X033050Y012585D03*
X033050Y011915D03*
X031550Y011235D03*
X031550Y010565D03*
X031800Y008835D03*
X031800Y008165D03*
X034100Y008285D03*
X034100Y007615D03*
X034965Y010000D03*
X035635Y010000D03*
X035635Y010800D03*
X034965Y010800D03*
X037215Y011850D03*
X037885Y011850D03*
X038415Y011050D03*
X039085Y011050D03*
X039615Y011050D03*
X040285Y011050D03*
X040400Y008035D03*
X039500Y008035D03*
X038550Y008035D03*
X038550Y007365D03*
X039500Y007365D03*
X040400Y007365D03*
X037650Y007365D03*
X037650Y008035D03*
D13*
X037650Y014500D03*
X031700Y014550D03*
X033505Y023894D03*
X033911Y025248D03*
X032150Y024300D03*
X036837Y024455D03*
X038650Y025300D03*
X037321Y025784D03*
D14*
X039574Y023100D03*
X040086Y023100D03*
X030536Y023300D03*
X030024Y023300D03*
D15*
X029400Y023658D03*
X029400Y024642D03*
X040900Y024742D03*
X040900Y023758D03*
X036300Y015492D03*
X035200Y015492D03*
X035200Y014508D03*
X036300Y014508D03*
D16*
X036301Y016134D03*
X035199Y016134D03*
D17*
X035750Y017866D03*
D18*
X033374Y008812D03*
X033000Y008812D03*
X032626Y008812D03*
X032626Y007788D03*
X033374Y007788D03*
D19*
X033562Y010476D03*
X033562Y011224D03*
X032538Y011224D03*
X032538Y010850D03*
X032538Y010476D03*
D20*
X033700Y014550D03*
X039650Y014500D03*
D21*
X029000Y006606D02*
X029000Y026494D01*
X029101Y026494D01*
X029286Y026571D01*
X029429Y026714D01*
X029506Y026899D01*
X029506Y027000D01*
X040994Y027000D01*
X040994Y026899D01*
X041071Y026714D01*
X041214Y026571D01*
X041399Y026494D01*
X041500Y026494D01*
X041500Y006100D01*
X029506Y006100D01*
X029506Y006201D01*
X029429Y006386D01*
X029286Y006529D01*
X029101Y006606D01*
X029000Y006606D01*
X029118Y006599D02*
X034342Y006599D01*
X034342Y006610D02*
X034342Y006586D01*
X034436Y006492D01*
X034964Y006492D01*
X035058Y006586D01*
X035058Y006610D01*
X041248Y006610D01*
X041336Y006647D01*
X041403Y006714D01*
X041440Y006802D01*
X041440Y008576D01*
X041388Y008701D01*
X041374Y008715D01*
X041330Y008759D01*
X041307Y008783D01*
X040798Y009292D01*
X041264Y009292D01*
X041358Y009386D01*
X041358Y009914D01*
X041264Y010008D01*
X040736Y010008D01*
X040642Y009914D01*
X040642Y009890D01*
X040306Y009890D01*
X040246Y009950D01*
X040320Y010024D01*
X040320Y010376D01*
X040226Y010470D01*
X039580Y010470D01*
X039580Y010633D01*
X039559Y010654D01*
X039578Y010673D01*
X039878Y010673D01*
X039950Y010745D01*
X040022Y010673D01*
X040548Y010673D01*
X040641Y010767D01*
X040641Y011333D01*
X040559Y011415D01*
X040686Y011542D01*
X040755Y011709D01*
X040755Y011891D01*
X040686Y012058D01*
X040558Y012186D01*
X040391Y012255D01*
X040209Y012255D01*
X040042Y012186D01*
X039914Y012058D01*
X039845Y011891D01*
X039845Y011709D01*
X039914Y011542D01*
X040030Y011427D01*
X040022Y011427D01*
X039950Y011355D01*
X039878Y011427D01*
X039480Y011427D01*
X039480Y011520D01*
X039583Y011520D01*
X039630Y011567D01*
X039630Y012233D01*
X039583Y012280D01*
X037574Y012280D01*
X037636Y012342D01*
X037705Y012509D01*
X037705Y012691D01*
X037698Y012708D01*
X037999Y013010D01*
X040298Y013010D01*
X040386Y013047D01*
X040453Y013114D01*
X040490Y013202D01*
X040490Y013298D01*
X040453Y013386D01*
X040440Y013399D01*
X040440Y015498D01*
X040403Y015586D01*
X039640Y016349D01*
X039640Y016442D01*
X039655Y016479D01*
X039655Y020320D01*
X039833Y020320D01*
X039880Y020367D01*
X039880Y020373D01*
X040348Y020373D01*
X040441Y020467D01*
X040441Y020510D01*
X040457Y020510D01*
X040464Y020492D01*
X040592Y020364D01*
X040759Y020295D01*
X040941Y020295D01*
X041108Y020364D01*
X041236Y020492D01*
X041305Y020659D01*
X041305Y020841D01*
X041236Y021008D01*
X041108Y021136D01*
X040941Y021205D01*
X040759Y021205D01*
X040592Y021136D01*
X040464Y021008D01*
X040457Y020990D01*
X040441Y020990D01*
X040441Y021033D01*
X040348Y021127D01*
X039837Y021127D01*
X039833Y021130D01*
X038458Y021130D01*
X038458Y021269D01*
X038557Y021367D01*
X038571Y021382D01*
X038624Y021435D01*
X038638Y021449D01*
X038690Y021574D01*
X038690Y022139D01*
X038713Y022139D01*
X038807Y022233D01*
X038807Y022260D01*
X039022Y022260D01*
X039110Y022297D01*
X039655Y022842D01*
X039778Y022842D01*
X039830Y022893D01*
X039882Y022842D01*
X040290Y022842D01*
X040384Y022935D01*
X040384Y023265D01*
X040326Y023322D01*
X040326Y023659D01*
X040383Y023659D01*
X040392Y023668D01*
X040506Y023554D01*
X040594Y023518D01*
X040638Y023518D01*
X040716Y023440D01*
X041084Y023440D01*
X041178Y023534D01*
X041178Y023982D01*
X041084Y024075D01*
X040740Y024075D01*
X040740Y024410D01*
X040758Y024405D01*
X040900Y024405D01*
X041042Y024405D01*
X041088Y024417D01*
X041129Y024441D01*
X041162Y024474D01*
X041186Y024515D01*
X041198Y024561D01*
X041198Y024742D01*
X040900Y024742D01*
X040900Y024405D01*
X040900Y024742D01*
X040900Y024742D01*
X040900Y024742D01*
X041198Y024742D01*
X041198Y024923D01*
X041186Y024969D01*
X041162Y025010D01*
X041129Y025044D01*
X041088Y025067D01*
X041042Y025080D01*
X040900Y025080D01*
X040758Y025080D01*
X040712Y025067D01*
X040671Y025044D01*
X040638Y025010D01*
X040614Y024969D01*
X040602Y024923D01*
X040602Y024788D01*
X040536Y024853D01*
X040477Y024878D01*
X040477Y024948D01*
X040383Y025041D01*
X040283Y025041D01*
X040274Y025050D01*
X040240Y025084D01*
X040207Y025117D01*
X040207Y025117D01*
X039091Y026233D01*
X039091Y026533D01*
X038998Y026627D01*
X038472Y026627D01*
X038400Y026555D01*
X038328Y026627D01*
X037802Y026627D01*
X037709Y026533D01*
X037709Y026468D01*
X037636Y026438D01*
X037588Y026390D01*
X037555Y026357D01*
X037555Y026357D01*
X037402Y026204D01*
X037238Y026204D01*
X037083Y026140D01*
X036965Y026022D01*
X036901Y025867D01*
X036901Y025755D01*
X036807Y025755D01*
X036807Y025798D01*
X036769Y025836D01*
X036791Y025858D01*
X036815Y025899D01*
X036827Y025944D01*
X036827Y026166D01*
X036468Y026166D01*
X036468Y026203D01*
X036432Y026203D01*
X036432Y026581D01*
X036229Y026581D01*
X036184Y026569D01*
X036143Y026545D01*
X036109Y026512D01*
X036085Y026471D01*
X036073Y026425D01*
X036073Y026203D01*
X036432Y026203D01*
X036432Y026166D01*
X036073Y026166D01*
X036073Y025944D01*
X036085Y025899D01*
X036109Y025858D01*
X036131Y025836D01*
X036093Y025798D01*
X036093Y025755D01*
X036007Y025755D01*
X036007Y025798D01*
X035969Y025836D01*
X035991Y025858D01*
X036015Y025899D01*
X036027Y025944D01*
X036027Y026166D01*
X035668Y026166D01*
X035668Y026203D01*
X035632Y026203D01*
X035632Y026581D01*
X035429Y026581D01*
X035384Y026569D01*
X035343Y026545D01*
X035309Y026512D01*
X035285Y026471D01*
X035273Y026425D01*
X035273Y026203D01*
X035632Y026203D01*
X035632Y026166D01*
X035273Y026166D01*
X035273Y025944D01*
X035285Y025899D01*
X035309Y025858D01*
X035331Y025836D01*
X035293Y025798D01*
X035293Y025233D01*
X035387Y025139D01*
X035913Y025139D01*
X036007Y025233D01*
X036007Y025275D01*
X036093Y025275D01*
X036093Y025233D01*
X036187Y025139D01*
X036713Y025139D01*
X036807Y025233D01*
X036807Y025275D01*
X037079Y025275D01*
X037204Y025327D01*
X037218Y025341D01*
X037240Y025364D01*
X037405Y025364D01*
X037559Y025428D01*
X037677Y025546D01*
X037741Y025700D01*
X037741Y025864D01*
X037776Y025899D01*
X037802Y025873D01*
X038328Y025873D01*
X038400Y025945D01*
X038472Y025873D01*
X038772Y025873D01*
X039723Y024922D01*
X039723Y024422D01*
X039795Y024350D01*
X039723Y024278D01*
X039723Y023752D01*
X039817Y023659D01*
X039846Y023659D01*
X039846Y023322D01*
X039830Y023307D01*
X039778Y023358D01*
X039370Y023358D01*
X039277Y023265D01*
X039277Y023142D01*
X038875Y022740D01*
X038807Y022740D01*
X038807Y022798D01*
X038769Y022836D01*
X038791Y022858D01*
X038815Y022899D01*
X038827Y022944D01*
X038827Y023166D01*
X038468Y023166D01*
X038468Y023203D01*
X038432Y023203D01*
X038432Y023581D01*
X038229Y023581D01*
X038184Y023569D01*
X038143Y023545D01*
X038109Y023512D01*
X038085Y023471D01*
X038073Y023425D01*
X038073Y023203D01*
X038432Y023203D01*
X038432Y023166D01*
X038073Y023166D01*
X038073Y022944D01*
X038085Y022899D01*
X038109Y022858D01*
X038131Y022836D01*
X038093Y022798D01*
X038093Y022755D01*
X037957Y022755D01*
X037957Y022798D01*
X037919Y022836D01*
X037941Y022858D01*
X037965Y022899D01*
X037977Y022944D01*
X037977Y023166D01*
X037618Y023166D01*
X037618Y023203D01*
X037582Y023203D01*
X037582Y023581D01*
X037379Y023581D01*
X037334Y023569D01*
X037293Y023545D01*
X037259Y023512D01*
X037235Y023471D01*
X037223Y023425D01*
X037223Y023203D01*
X037582Y023203D01*
X037582Y023166D01*
X037223Y023166D01*
X037223Y022944D01*
X037235Y022899D01*
X037259Y022858D01*
X037281Y022836D01*
X037243Y022798D01*
X037243Y022233D01*
X037337Y022139D01*
X037863Y022139D01*
X037957Y022233D01*
X037957Y022260D01*
X038093Y022260D01*
X038093Y022233D01*
X038187Y022139D01*
X038210Y022139D01*
X038210Y021699D01*
X038119Y021608D01*
X037836Y021608D01*
X037742Y021514D01*
X037742Y021490D01*
X037706Y021490D01*
X037696Y021500D01*
X037770Y021574D01*
X037770Y021926D01*
X037676Y022020D01*
X036790Y022020D01*
X036790Y022120D01*
X037033Y022120D01*
X037080Y022167D01*
X037080Y023683D01*
X037033Y023730D01*
X035830Y023730D01*
X035830Y023920D01*
X036833Y023920D01*
X036850Y023937D01*
X036850Y023936D02*
X036850Y023936D01*
X037107Y024005D01*
X037295Y024193D01*
X037295Y024193D01*
X037364Y024450D01*
X037295Y024707D01*
X037107Y024895D01*
X037107Y024895D01*
X036850Y024964D01*
X036593Y024895D01*
X036478Y024780D01*
X035817Y024780D01*
X035770Y024733D01*
X035770Y024730D01*
X035617Y024730D01*
X035570Y024683D01*
X035570Y024580D01*
X035117Y024580D01*
X035070Y024533D01*
X035070Y024241D01*
X034967Y024241D01*
X034906Y024180D01*
X034617Y024180D01*
X034570Y024133D01*
X034570Y024030D01*
X034417Y024030D01*
X034370Y023983D01*
X034370Y023980D01*
X033999Y023980D01*
X033951Y024160D01*
X033951Y024160D01*
X033760Y024351D01*
X033500Y024421D01*
X033240Y024351D01*
X033240Y024351D01*
X033049Y024160D01*
X032979Y023900D01*
X033049Y023640D01*
X033049Y023640D01*
X033240Y023449D01*
X033500Y023379D01*
X033520Y023385D01*
X033520Y023117D01*
X033567Y023070D01*
X033570Y023070D01*
X033570Y022477D01*
X033202Y022477D01*
X033109Y022383D01*
X033109Y022255D01*
X032757Y022255D01*
X032757Y022298D01*
X032719Y022336D01*
X032741Y022358D01*
X032765Y022399D01*
X032777Y022444D01*
X032777Y022666D01*
X032418Y022666D01*
X032418Y022703D01*
X032382Y022703D01*
X032382Y023081D01*
X032179Y023081D01*
X032134Y023069D01*
X032093Y023045D01*
X032059Y023012D01*
X032035Y022971D01*
X032023Y022925D01*
X032023Y022703D01*
X032382Y022703D01*
X032382Y022666D01*
X032023Y022666D01*
X032023Y022444D01*
X032024Y022440D01*
X031727Y022440D01*
X031727Y022498D01*
X031633Y022591D01*
X031067Y022591D01*
X030973Y022498D01*
X030973Y022475D01*
X030941Y022475D01*
X030941Y022483D01*
X030848Y022577D01*
X030322Y022577D01*
X030262Y022517D01*
X030256Y022527D01*
X030223Y022561D01*
X030182Y022584D01*
X030136Y022597D01*
X029934Y022597D01*
X029934Y022218D01*
X029897Y022218D01*
X029897Y022182D01*
X029539Y022182D01*
X029539Y021960D01*
X029551Y021914D01*
X029574Y021873D01*
X029608Y021839D01*
X029649Y021816D01*
X029695Y021803D01*
X029897Y021803D01*
X029897Y022182D01*
X029934Y022182D01*
X029934Y021803D01*
X030136Y021803D01*
X030182Y021816D01*
X030223Y021839D01*
X030256Y021873D01*
X030262Y021883D01*
X030322Y021823D01*
X030848Y021823D01*
X030941Y021917D01*
X030941Y021995D01*
X030973Y021995D01*
X030973Y021972D01*
X031045Y021900D01*
X030973Y021828D01*
X030973Y021601D01*
X030917Y021657D01*
X030352Y021657D01*
X030314Y021619D01*
X030292Y021641D01*
X030251Y021665D01*
X030206Y021677D01*
X029984Y021677D01*
X029984Y021318D01*
X029947Y021318D01*
X029947Y021282D01*
X029569Y021282D01*
X029569Y021079D01*
X029581Y021034D01*
X029605Y020993D01*
X029638Y020959D01*
X029679Y020935D01*
X029725Y020923D01*
X029947Y020923D01*
X029947Y021282D01*
X029984Y021282D01*
X029984Y020923D01*
X030206Y020923D01*
X030251Y020935D01*
X030292Y020959D01*
X030314Y020981D01*
X030352Y020943D01*
X030395Y020943D01*
X030395Y020877D01*
X030372Y020877D01*
X030300Y020805D01*
X030228Y020877D01*
X029702Y020877D01*
X029609Y020783D01*
X029609Y020217D01*
X029702Y020123D01*
X029740Y020123D01*
X029777Y020033D01*
X029825Y019986D01*
X029825Y019986D01*
X029859Y019952D01*
X030964Y018847D01*
X031052Y018810D01*
X034101Y018810D01*
X034664Y018247D01*
X034752Y018210D01*
X035067Y018210D01*
X035334Y017943D01*
X035334Y017406D01*
X035428Y017312D01*
X036023Y017312D01*
X035547Y016836D01*
X035510Y016748D01*
X035510Y016620D01*
X035442Y016688D01*
X034955Y016688D01*
X034862Y016594D01*
X034862Y016390D01*
X034841Y016390D01*
X034841Y016433D01*
X034748Y016527D01*
X034222Y016527D01*
X034150Y016455D01*
X034078Y016527D01*
X034040Y016527D01*
X034040Y016568D01*
X034062Y016568D01*
X034432Y016938D01*
X034432Y017442D01*
X034664Y017442D01*
X034758Y017536D01*
X034758Y018064D01*
X034664Y018158D01*
X034136Y018158D01*
X034042Y018064D01*
X034042Y017832D01*
X033538Y017832D01*
X033168Y017462D01*
X033168Y016938D01*
X033538Y016568D01*
X033560Y016568D01*
X033560Y016527D01*
X033552Y016527D01*
X033459Y016433D01*
X033459Y015867D01*
X033552Y015773D01*
X033575Y015773D01*
X033575Y014970D01*
X033526Y014970D01*
X033280Y014724D01*
X033280Y014376D01*
X033460Y014196D01*
X033460Y014149D01*
X032019Y012708D01*
X031736Y012708D01*
X031642Y012614D01*
X031642Y012086D01*
X031736Y011992D01*
X031968Y011992D01*
X031587Y011611D01*
X031287Y011611D01*
X031193Y011517D01*
X031193Y010952D01*
X031245Y010900D01*
X031193Y010848D01*
X031193Y010283D01*
X031287Y010189D01*
X031813Y010189D01*
X031907Y010283D01*
X031907Y010325D01*
X032142Y010325D01*
X032142Y010301D01*
X032236Y010208D01*
X032567Y010208D01*
X032538Y010191D01*
X032505Y010157D01*
X032481Y010116D01*
X032469Y010071D01*
X032469Y009868D01*
X032847Y009868D01*
X032847Y009832D01*
X032469Y009832D01*
X032469Y009629D01*
X032481Y009584D01*
X032505Y009543D01*
X032538Y009509D01*
X032579Y009485D01*
X032592Y009482D01*
X032592Y009481D01*
X032567Y009457D01*
X032447Y009336D01*
X032410Y009248D01*
X032410Y009167D01*
X032358Y009114D01*
X032358Y009052D01*
X032157Y009052D01*
X032157Y009117D01*
X032063Y009211D01*
X031537Y009211D01*
X031443Y009117D01*
X031443Y009075D01*
X031170Y009075D01*
X030962Y009282D01*
X030869Y009282D01*
X030903Y009296D01*
X031004Y009397D01*
X031058Y009529D01*
X031058Y009671D01*
X031004Y009803D01*
X030940Y009866D01*
X030940Y010084D01*
X031004Y010147D01*
X031058Y010279D01*
X031058Y010421D01*
X031004Y010553D01*
X030940Y010616D01*
X030940Y010834D01*
X031004Y010897D01*
X031058Y011029D01*
X031058Y011171D01*
X031004Y011303D01*
X030903Y011404D01*
X030771Y011458D01*
X030629Y011458D01*
X030497Y011404D01*
X030396Y011303D01*
X030342Y011171D01*
X030342Y011029D01*
X030396Y010897D01*
X030460Y010834D01*
X030460Y010616D01*
X030396Y010553D01*
X030342Y010421D01*
X030342Y010279D01*
X030396Y010147D01*
X030460Y010084D01*
X030460Y009866D01*
X030396Y009803D01*
X030342Y009671D01*
X030342Y009529D01*
X030396Y009397D01*
X030497Y009296D01*
X030531Y009282D01*
X030438Y009282D01*
X030068Y008912D01*
X030068Y008388D01*
X030438Y008018D01*
X030962Y008018D01*
X031332Y008388D01*
X031332Y008595D01*
X031443Y008595D01*
X031443Y008552D01*
X031481Y008514D01*
X031459Y008492D01*
X031435Y008451D01*
X031423Y008406D01*
X031423Y008184D01*
X031782Y008184D01*
X031782Y008147D01*
X031818Y008147D01*
X031818Y007769D01*
X032021Y007769D01*
X032066Y007781D01*
X032107Y007805D01*
X032141Y007838D01*
X032165Y007879D01*
X032177Y007925D01*
X032177Y008147D01*
X031818Y008147D01*
X031818Y008184D01*
X032177Y008184D01*
X032177Y008406D01*
X032165Y008451D01*
X032141Y008492D01*
X032119Y008514D01*
X032157Y008552D01*
X032157Y008572D01*
X032358Y008572D01*
X032358Y008509D01*
X032451Y008416D01*
X032801Y008416D01*
X032804Y008419D01*
X032822Y008408D01*
X032868Y008396D01*
X033000Y008396D01*
X033132Y008396D01*
X033178Y008408D01*
X033196Y008419D01*
X033199Y008416D01*
X033447Y008416D01*
X033529Y008382D01*
X033743Y008237D01*
X033743Y008002D01*
X033781Y007964D01*
X033759Y007942D01*
X033735Y007901D01*
X033723Y007856D01*
X033723Y007634D01*
X034082Y007634D01*
X034082Y007597D01*
X034118Y007597D01*
X034118Y007219D01*
X034321Y007219D01*
X034366Y007231D01*
X034407Y007255D01*
X034441Y007288D01*
X034465Y007329D01*
X034477Y007375D01*
X034477Y007597D01*
X034118Y007597D01*
X034118Y007634D01*
X034477Y007634D01*
X034477Y007856D01*
X034465Y007901D01*
X034441Y007942D01*
X034419Y007964D01*
X034457Y008002D01*
X034457Y008438D01*
X034524Y008410D01*
X037386Y008410D01*
X037293Y008317D01*
X037293Y007752D01*
X037331Y007714D01*
X037309Y007692D01*
X037285Y007651D01*
X037273Y007606D01*
X037273Y007384D01*
X037632Y007384D01*
X037632Y007347D01*
X037273Y007347D01*
X037273Y007125D01*
X037283Y007090D01*
X035058Y007090D01*
X035058Y007114D01*
X034964Y007208D01*
X034436Y007208D01*
X034342Y007114D01*
X034342Y007090D01*
X033590Y007090D01*
X033590Y007433D01*
X033642Y007486D01*
X033642Y008091D01*
X033549Y008184D01*
X033199Y008184D01*
X033106Y008091D01*
X033106Y007486D01*
X033110Y007481D01*
X033110Y006802D01*
X033147Y006714D01*
X033214Y006647D01*
X033302Y006610D01*
X034342Y006610D01*
X035058Y006599D02*
X041500Y006599D01*
X041500Y006757D02*
X041421Y006757D01*
X041440Y006916D02*
X041500Y006916D01*
X041500Y007074D02*
X041440Y007074D01*
X041440Y007233D02*
X041500Y007233D01*
X041500Y007391D02*
X041440Y007391D01*
X041440Y007550D02*
X041500Y007550D01*
X041500Y007708D02*
X041440Y007708D01*
X041440Y007867D02*
X041500Y007867D01*
X041500Y008025D02*
X041440Y008025D01*
X041440Y008184D02*
X041500Y008184D01*
X041500Y008342D02*
X041440Y008342D01*
X041440Y008501D02*
X041500Y008501D01*
X041500Y008659D02*
X041406Y008659D01*
X041388Y008701D02*
X041388Y008701D01*
X041500Y008818D02*
X041272Y008818D01*
X041113Y008976D02*
X041500Y008976D01*
X041500Y009135D02*
X040955Y009135D01*
X041266Y009293D02*
X041500Y009293D01*
X041500Y009452D02*
X041358Y009452D01*
X041358Y009610D02*
X041500Y009610D01*
X041500Y009769D02*
X041358Y009769D01*
X041345Y009927D02*
X041500Y009927D01*
X041500Y010086D02*
X040320Y010086D01*
X040320Y010244D02*
X041500Y010244D01*
X041500Y010403D02*
X040294Y010403D01*
X040594Y010720D02*
X041500Y010720D01*
X041500Y010878D02*
X040641Y010878D01*
X040641Y011037D02*
X041500Y011037D01*
X041500Y011195D02*
X040641Y011195D01*
X040621Y011354D02*
X041500Y011354D01*
X041500Y011512D02*
X040656Y011512D01*
X040739Y011671D02*
X041500Y011671D01*
X041500Y011829D02*
X040755Y011829D01*
X040715Y011988D02*
X041500Y011988D01*
X041500Y012146D02*
X040598Y012146D01*
X040002Y012146D02*
X039630Y012146D01*
X039630Y011988D02*
X039885Y011988D01*
X039845Y011829D02*
X039630Y011829D01*
X039630Y011671D02*
X039861Y011671D01*
X039944Y011512D02*
X039480Y011512D01*
X039085Y011850D02*
X039085Y011050D01*
X039615Y011050D01*
X039179Y010614D01*
X039150Y010543D02*
X039150Y009400D01*
X039321Y009229D01*
X039391Y009200D02*
X039770Y009200D01*
X039391Y009200D02*
X039371Y009202D01*
X039353Y009208D01*
X039335Y009217D01*
X039320Y009229D01*
X039770Y009700D02*
X040009Y009700D01*
X040079Y009671D02*
X040100Y009650D01*
X041171Y008579D01*
X041200Y008509D02*
X041200Y008050D01*
X041200Y006850D01*
X033350Y006850D01*
X033350Y007750D01*
X033106Y007708D02*
X032894Y007708D01*
X032894Y007607D02*
X032894Y008091D01*
X032801Y008184D01*
X032451Y008184D01*
X032358Y008091D01*
X032358Y007607D01*
X032352Y007607D01*
X032314Y007569D01*
X032292Y007591D01*
X032251Y007615D01*
X032206Y007627D01*
X031984Y007627D01*
X031984Y007268D01*
X031947Y007268D01*
X031947Y007232D01*
X031569Y007232D01*
X031569Y007029D01*
X031581Y006984D01*
X031605Y006943D01*
X031638Y006909D01*
X031679Y006885D01*
X031725Y006873D01*
X031947Y006873D01*
X031947Y007232D01*
X031984Y007232D01*
X031984Y006873D01*
X032206Y006873D01*
X032251Y006885D01*
X032292Y006909D01*
X032314Y006931D01*
X032352Y006893D01*
X032917Y006893D01*
X033011Y006987D01*
X033011Y007513D01*
X032917Y007607D01*
X032894Y007607D01*
X032975Y007550D02*
X033106Y007550D01*
X033110Y007391D02*
X033011Y007391D01*
X033011Y007233D02*
X033110Y007233D01*
X033110Y007074D02*
X033011Y007074D01*
X032940Y006916D02*
X033110Y006916D01*
X033129Y006757D02*
X031001Y006757D01*
X030962Y006718D02*
X031332Y007088D01*
X031332Y007612D01*
X030962Y007982D01*
X030438Y007982D01*
X030068Y007612D01*
X030068Y007088D01*
X030438Y006718D01*
X030962Y006718D01*
X031160Y006916D02*
X031632Y006916D01*
X031569Y007074D02*
X031318Y007074D01*
X031332Y007233D02*
X031947Y007233D01*
X031947Y007268D02*
X031569Y007268D01*
X031569Y007471D01*
X031581Y007516D01*
X031605Y007557D01*
X031638Y007591D01*
X031679Y007615D01*
X031725Y007627D01*
X031947Y007627D01*
X031947Y007268D01*
X031947Y007391D02*
X031984Y007391D01*
X031984Y007550D02*
X031947Y007550D01*
X031782Y007769D02*
X031782Y008147D01*
X031423Y008147D01*
X031423Y007925D01*
X031435Y007879D01*
X031459Y007838D01*
X031493Y007805D01*
X031534Y007781D01*
X031579Y007769D01*
X031782Y007769D01*
X031782Y007867D02*
X031818Y007867D01*
X031818Y008025D02*
X031782Y008025D01*
X031782Y008184D02*
X031128Y008184D01*
X031286Y008342D02*
X031423Y008342D01*
X031467Y008501D02*
X031332Y008501D01*
X031423Y008025D02*
X030969Y008025D01*
X031078Y007867D02*
X031443Y007867D01*
X031236Y007708D02*
X032358Y007708D01*
X032358Y007867D02*
X032157Y007867D01*
X032177Y008025D02*
X032358Y008025D01*
X032451Y008184D02*
X031818Y008184D01*
X032177Y008342D02*
X033587Y008342D01*
X033549Y008184D02*
X033743Y008184D01*
X033743Y008025D02*
X033642Y008025D01*
X033642Y007867D02*
X033726Y007867D01*
X033723Y007708D02*
X033642Y007708D01*
X033723Y007597D02*
X033723Y007375D01*
X033735Y007329D01*
X033759Y007288D01*
X033793Y007255D01*
X033834Y007231D01*
X033879Y007219D01*
X034082Y007219D01*
X034082Y007597D01*
X033723Y007597D01*
X033723Y007550D02*
X033642Y007550D01*
X033590Y007391D02*
X033723Y007391D01*
X033831Y007233D02*
X033590Y007233D01*
X034082Y007233D02*
X034118Y007233D01*
X034118Y007391D02*
X034082Y007391D01*
X034082Y007550D02*
X034118Y007550D01*
X034477Y007550D02*
X037273Y007550D01*
X037273Y007391D02*
X034477Y007391D01*
X034369Y007233D02*
X037273Y007233D01*
X037668Y007347D02*
X037668Y007384D01*
X038027Y007384D01*
X038027Y007606D01*
X038015Y007651D01*
X037991Y007692D01*
X037969Y007714D01*
X038007Y007752D01*
X038007Y007802D01*
X038025Y007795D01*
X038193Y007795D01*
X038193Y007752D01*
X038231Y007714D01*
X038209Y007692D01*
X038185Y007651D01*
X038173Y007606D01*
X038173Y007384D01*
X038532Y007384D01*
X038532Y007347D01*
X038173Y007347D01*
X038173Y007125D01*
X038183Y007090D01*
X038017Y007090D01*
X038027Y007125D01*
X038027Y007347D01*
X037668Y007347D01*
X038027Y007391D02*
X038173Y007391D01*
X038173Y007233D02*
X038027Y007233D01*
X038027Y007550D02*
X038173Y007550D01*
X038225Y007708D02*
X037975Y007708D01*
X038093Y008035D02*
X038550Y008035D01*
X038907Y008025D02*
X039143Y008025D01*
X039143Y007867D02*
X038907Y007867D01*
X038907Y007752D02*
X038907Y008317D01*
X038813Y008411D01*
X038287Y008411D01*
X038193Y008317D01*
X038193Y008275D01*
X038151Y008275D01*
X038070Y008355D01*
X038070Y008420D01*
X039483Y008420D01*
X039493Y008430D01*
X040226Y008430D01*
X040320Y008524D01*
X040320Y008876D01*
X040246Y008950D01*
X040320Y009024D01*
X040320Y009091D01*
X040960Y008451D01*
X040960Y008275D01*
X040757Y008275D01*
X040757Y008317D01*
X040663Y008411D01*
X040137Y008411D01*
X040043Y008317D01*
X040043Y008275D01*
X039857Y008275D01*
X039857Y008317D01*
X039763Y008411D01*
X039237Y008411D01*
X039143Y008317D01*
X039143Y007752D01*
X039181Y007714D01*
X039159Y007692D01*
X039135Y007651D01*
X039123Y007606D01*
X039123Y007384D01*
X039482Y007384D01*
X039482Y007347D01*
X039123Y007347D01*
X039123Y007125D01*
X039133Y007090D01*
X038917Y007090D01*
X038927Y007125D01*
X038927Y007347D01*
X038568Y007347D01*
X038568Y007384D01*
X038927Y007384D01*
X038927Y007606D01*
X038915Y007651D01*
X038891Y007692D01*
X038869Y007714D01*
X038907Y007752D01*
X038875Y007708D02*
X039175Y007708D01*
X039123Y007550D02*
X038927Y007550D01*
X038927Y007391D02*
X039123Y007391D01*
X039123Y007233D02*
X038927Y007233D01*
X039518Y007347D02*
X039518Y007384D01*
X039877Y007384D01*
X039877Y007606D01*
X039865Y007651D01*
X039841Y007692D01*
X039819Y007714D01*
X039857Y007752D01*
X039857Y007795D01*
X040043Y007795D01*
X040043Y007752D01*
X040081Y007714D01*
X040059Y007692D01*
X040035Y007651D01*
X040023Y007606D01*
X040023Y007384D01*
X040382Y007384D01*
X040382Y007347D01*
X040023Y007347D01*
X040023Y007125D01*
X040033Y007090D01*
X039867Y007090D01*
X039877Y007125D01*
X039877Y007347D01*
X039518Y007347D01*
X039877Y007391D02*
X040023Y007391D01*
X040023Y007233D02*
X039877Y007233D01*
X039877Y007550D02*
X040023Y007550D01*
X040075Y007708D02*
X039825Y007708D01*
X039500Y008035D02*
X040400Y008035D01*
X041163Y008035D01*
X041176Y008037D01*
X041189Y008042D01*
X041200Y008050D01*
X040960Y007795D02*
X040960Y007090D01*
X040767Y007090D01*
X040777Y007125D01*
X040777Y007347D01*
X040418Y007347D01*
X040418Y007384D01*
X040777Y007384D01*
X040777Y007606D01*
X040765Y007651D01*
X040741Y007692D01*
X040719Y007714D01*
X040757Y007752D01*
X040757Y007795D01*
X040960Y007795D01*
X040960Y007708D02*
X040725Y007708D01*
X040777Y007550D02*
X040960Y007550D01*
X040960Y007391D02*
X040777Y007391D01*
X040777Y007233D02*
X040960Y007233D01*
X041500Y006440D02*
X029375Y006440D01*
X029472Y006282D02*
X041500Y006282D01*
X041500Y006123D02*
X029506Y006123D01*
X029000Y006757D02*
X030399Y006757D01*
X030240Y006916D02*
X029000Y006916D01*
X029000Y007074D02*
X030082Y007074D01*
X030068Y007233D02*
X029000Y007233D01*
X029000Y007391D02*
X030068Y007391D01*
X030068Y007550D02*
X029000Y007550D01*
X029000Y007708D02*
X030164Y007708D01*
X030322Y007867D02*
X029000Y007867D01*
X029000Y008025D02*
X030431Y008025D01*
X030272Y008184D02*
X029000Y008184D01*
X029000Y008342D02*
X030114Y008342D01*
X030068Y008501D02*
X029000Y008501D01*
X029000Y008659D02*
X030068Y008659D01*
X030068Y008818D02*
X029000Y008818D01*
X029000Y008976D02*
X030132Y008976D01*
X030290Y009135D02*
X029000Y009135D01*
X029000Y009293D02*
X030505Y009293D01*
X030374Y009452D02*
X029000Y009452D01*
X029000Y009610D02*
X030342Y009610D01*
X030382Y009769D02*
X029000Y009769D01*
X029000Y009927D02*
X030460Y009927D01*
X030458Y010086D02*
X029692Y010086D01*
X029653Y010046D02*
X029754Y010147D01*
X029808Y010279D01*
X029808Y010421D01*
X029754Y010553D01*
X029653Y010654D01*
X029521Y010708D01*
X029379Y010708D01*
X029247Y010654D01*
X029146Y010553D01*
X029092Y010421D01*
X029092Y010279D01*
X029146Y010147D01*
X029247Y010046D01*
X029379Y009992D01*
X029521Y009992D01*
X029653Y010046D01*
X029794Y010244D02*
X030356Y010244D01*
X030342Y010403D02*
X029808Y010403D01*
X029745Y010561D02*
X030405Y010561D01*
X030460Y010720D02*
X029000Y010720D01*
X029000Y010878D02*
X030416Y010878D01*
X030342Y011037D02*
X029000Y011037D01*
X029000Y011195D02*
X030352Y011195D01*
X030447Y011354D02*
X029000Y011354D01*
X029000Y011512D02*
X029330Y011512D01*
X029379Y011492D02*
X029521Y011492D01*
X029653Y011546D01*
X029754Y011647D01*
X029808Y011779D01*
X029808Y011921D01*
X029754Y012053D01*
X029653Y012154D01*
X029521Y012208D01*
X029379Y012208D01*
X029247Y012154D01*
X029146Y012053D01*
X029092Y011921D01*
X029092Y011779D01*
X029146Y011647D01*
X029247Y011546D01*
X029379Y011492D01*
X029570Y011512D02*
X030580Y011512D01*
X030629Y011492D02*
X030771Y011492D01*
X030903Y011546D01*
X031004Y011647D01*
X031058Y011779D01*
X031058Y011921D01*
X031004Y012053D01*
X030940Y012116D01*
X030940Y012334D01*
X031004Y012397D01*
X031058Y012529D01*
X031058Y012671D01*
X031004Y012803D01*
X030940Y012866D01*
X030940Y013084D01*
X031004Y013147D01*
X031058Y013279D01*
X031058Y013421D01*
X031004Y013553D01*
X030940Y013616D01*
X030940Y013834D01*
X031004Y013897D01*
X031058Y014029D01*
X031058Y014171D01*
X031004Y014303D01*
X030903Y014404D01*
X030771Y014458D01*
X030629Y014458D01*
X030497Y014404D01*
X030396Y014303D01*
X030342Y014171D01*
X030342Y014029D01*
X030396Y013897D01*
X030460Y013834D01*
X030460Y013616D01*
X030396Y013553D01*
X030342Y013421D01*
X030342Y013279D01*
X030396Y013147D01*
X030460Y013084D01*
X030460Y012866D01*
X030396Y012803D01*
X030342Y012671D01*
X030342Y012529D01*
X030396Y012397D01*
X030460Y012334D01*
X030460Y012116D01*
X030396Y012053D01*
X030342Y011921D01*
X030342Y011779D01*
X030396Y011647D01*
X030497Y011546D01*
X030629Y011492D01*
X030820Y011512D02*
X031193Y011512D01*
X031193Y011354D02*
X030953Y011354D01*
X031048Y011195D02*
X031193Y011195D01*
X031193Y011037D02*
X031058Y011037D01*
X030984Y010878D02*
X031223Y010878D01*
X031193Y010720D02*
X030940Y010720D01*
X030995Y010561D02*
X031193Y010561D01*
X031193Y010403D02*
X031058Y010403D01*
X031044Y010244D02*
X031232Y010244D01*
X030942Y010086D02*
X032473Y010086D01*
X032469Y009927D02*
X030940Y009927D01*
X031018Y009769D02*
X032469Y009769D01*
X032474Y009610D02*
X031058Y009610D01*
X031026Y009452D02*
X032562Y009452D01*
X032429Y009293D02*
X030895Y009293D01*
X031110Y009135D02*
X031460Y009135D01*
X031800Y008835D02*
X030700Y008835D01*
X030700Y008650D01*
X031855Y008812D02*
X032626Y008812D01*
X032650Y008870D02*
X032650Y009200D01*
X032771Y009321D01*
X032841Y009350D02*
X033200Y009350D01*
X033345Y009205D01*
X033374Y009135D02*
X033374Y008812D01*
X033541Y008645D01*
X033612Y008615D02*
X034100Y008285D01*
X034457Y008342D02*
X037318Y008342D01*
X037293Y008184D02*
X034457Y008184D01*
X034457Y008025D02*
X037293Y008025D01*
X037293Y007867D02*
X034474Y007867D01*
X034477Y007708D02*
X037325Y007708D01*
X037650Y008035D02*
X037801Y008185D01*
X037830Y008256D02*
X038022Y008064D01*
X038037Y008052D01*
X038055Y008043D01*
X038073Y008037D01*
X038093Y008035D01*
X038083Y008342D02*
X038218Y008342D01*
X037830Y008256D02*
X037830Y008700D01*
X037691Y008700D01*
X037621Y008671D02*
X037600Y008650D01*
X034591Y008650D01*
X034521Y008679D02*
X034450Y008750D01*
X034291Y008750D01*
X034221Y008779D02*
X033700Y009300D01*
X033700Y009643D01*
X033671Y009714D02*
X033535Y009850D01*
X033583Y010485D01*
X033050Y010485D01*
X033050Y010850D01*
X032538Y010850D01*
X032517Y010871D01*
X032447Y010900D02*
X032050Y010900D01*
X032122Y011258D02*
X031913Y011258D01*
X032330Y011675D01*
X032693Y011675D01*
X032693Y011633D01*
X032787Y011539D01*
X033087Y011539D01*
X033197Y011429D01*
X033166Y011399D01*
X033166Y011062D01*
X033098Y011090D01*
X032954Y011090D01*
X032954Y011092D01*
X032954Y011224D01*
X032954Y011356D01*
X032942Y011402D01*
X032918Y011443D01*
X032885Y011476D01*
X032844Y011500D01*
X032798Y011512D01*
X032538Y011512D01*
X032538Y011512D01*
X032278Y011512D01*
X032232Y011500D01*
X032191Y011476D01*
X032158Y011443D01*
X032134Y011402D01*
X032122Y011356D01*
X032122Y011258D01*
X032122Y011354D02*
X032008Y011354D01*
X032167Y011512D02*
X032277Y011512D01*
X032325Y011671D02*
X032693Y011671D01*
X032799Y011512D02*
X033114Y011512D01*
X033166Y011354D02*
X032954Y011354D01*
X032954Y011224D02*
X032538Y011224D01*
X032538Y011512D01*
X032538Y011224D01*
X032538Y011224D01*
X032538Y011224D01*
X032954Y011224D01*
X032954Y011195D02*
X033166Y011195D01*
X033266Y010956D02*
X033864Y010956D01*
X033893Y010984D01*
X033986Y010892D01*
X034514Y010892D01*
X034589Y010966D01*
X034589Y010818D01*
X034947Y010818D01*
X034947Y010782D01*
X034589Y010782D01*
X034589Y010560D01*
X034601Y010514D01*
X034624Y010473D01*
X034658Y010439D01*
X034699Y010416D01*
X034745Y010403D01*
X034947Y010403D01*
X034947Y010782D01*
X034984Y010782D01*
X034984Y010403D01*
X035070Y010403D01*
X035070Y010397D01*
X034984Y010397D01*
X034984Y010018D01*
X034947Y010018D01*
X034947Y009982D01*
X034589Y009982D01*
X034589Y009760D01*
X034601Y009714D01*
X034624Y009673D01*
X034658Y009639D01*
X034699Y009616D01*
X034745Y009603D01*
X034947Y009603D01*
X034947Y009982D01*
X034984Y009982D01*
X034984Y009603D01*
X035070Y009603D01*
X035070Y009577D01*
X034984Y009577D01*
X034984Y009218D01*
X034947Y009218D01*
X034947Y009182D01*
X034569Y009182D01*
X034569Y008979D01*
X034575Y008958D01*
X034498Y008990D01*
X034349Y008990D01*
X033940Y009399D01*
X033940Y009711D01*
X033911Y009780D01*
X033911Y010113D01*
X033817Y010207D01*
X033802Y010207D01*
X033802Y010208D01*
X033864Y010208D01*
X033958Y010301D01*
X033958Y010651D01*
X033864Y010744D01*
X033290Y010744D01*
X033290Y010898D01*
X033266Y010956D01*
X033290Y010878D02*
X034589Y010878D01*
X034589Y010720D02*
X033889Y010720D01*
X033958Y010561D02*
X034589Y010561D01*
X034699Y010384D02*
X034658Y010361D01*
X034624Y010327D01*
X034601Y010286D01*
X034589Y010240D01*
X034589Y010018D01*
X034947Y010018D01*
X034947Y010397D01*
X034745Y010397D01*
X034699Y010384D01*
X034590Y010244D02*
X033901Y010244D01*
X033911Y010086D02*
X034589Y010086D01*
X034589Y009927D02*
X033911Y009927D01*
X033916Y009769D02*
X034589Y009769D01*
X034720Y009610D02*
X033940Y009610D01*
X033940Y009452D02*
X034577Y009452D01*
X034581Y009466D02*
X034569Y009421D01*
X034569Y009218D01*
X034947Y009218D01*
X034947Y009577D01*
X034725Y009577D01*
X034679Y009565D01*
X034638Y009541D01*
X034605Y009507D01*
X034581Y009466D01*
X034569Y009293D02*
X034046Y009293D01*
X034205Y009135D02*
X034569Y009135D01*
X034570Y008976D02*
X034532Y008976D01*
X034520Y008679D02*
X034535Y008667D01*
X034553Y008658D01*
X034571Y008652D01*
X034591Y008650D01*
X034291Y008750D02*
X034271Y008752D01*
X034253Y008758D01*
X034235Y008767D01*
X034220Y008779D01*
X033612Y008615D02*
X033592Y008617D01*
X033574Y008623D01*
X033556Y008632D01*
X033541Y008644D01*
X033000Y008659D02*
X033000Y008659D01*
X033000Y008812D02*
X033000Y008396D01*
X033000Y008812D01*
X033000Y008812D01*
X033000Y008501D02*
X033000Y008501D01*
X032801Y008184D02*
X033199Y008184D01*
X033106Y008025D02*
X032894Y008025D01*
X032894Y007867D02*
X033106Y007867D01*
X032635Y007767D02*
X032635Y007250D01*
X032329Y006916D02*
X032299Y006916D01*
X031984Y006916D02*
X031947Y006916D01*
X031947Y007074D02*
X031984Y007074D01*
X031569Y007391D02*
X031332Y007391D01*
X031332Y007550D02*
X031600Y007550D01*
X032626Y007788D02*
X032631Y007782D01*
X032634Y007775D01*
X032635Y007767D01*
X032367Y008501D02*
X032133Y008501D01*
X031855Y008812D02*
X031840Y008813D01*
X031825Y008818D01*
X031812Y008825D01*
X031800Y008835D01*
X032140Y009135D02*
X032378Y009135D01*
X032650Y008870D02*
X032648Y008854D01*
X032644Y008839D01*
X032636Y008824D01*
X032626Y008812D01*
X032770Y009321D02*
X032785Y009333D01*
X032803Y009342D01*
X032821Y009348D01*
X032841Y009350D01*
X033345Y009206D02*
X033357Y009191D01*
X033366Y009173D01*
X033372Y009155D01*
X033374Y009135D01*
X033700Y009643D02*
X033698Y009663D01*
X033692Y009681D01*
X033683Y009699D01*
X033671Y009714D01*
X033321Y010207D02*
X033252Y010207D01*
X033214Y010169D01*
X033192Y010191D01*
X033151Y010215D01*
X033106Y010227D01*
X032884Y010227D01*
X032884Y009868D01*
X032847Y009868D01*
X032847Y010214D01*
X032914Y010281D01*
X033002Y010245D01*
X033222Y010245D01*
X033259Y010208D01*
X033321Y010208D01*
X033321Y010207D01*
X033223Y010244D02*
X032877Y010244D01*
X032884Y010086D02*
X032847Y010086D01*
X032847Y009927D02*
X032884Y009927D01*
X032538Y010476D02*
X032478Y010536D01*
X032407Y010565D02*
X031550Y010565D01*
X031868Y010244D02*
X032199Y010244D01*
X032407Y010565D02*
X032427Y010563D01*
X032445Y010557D01*
X032463Y010548D01*
X032478Y010536D01*
X032518Y010871D02*
X032503Y010883D01*
X032485Y010892D01*
X032467Y010898D01*
X032447Y010900D01*
X032538Y011354D02*
X032538Y011354D01*
X032272Y011915D02*
X032252Y011913D01*
X032234Y011907D01*
X032216Y011898D01*
X032201Y011886D01*
X031550Y011235D01*
X031646Y011671D02*
X031013Y011671D01*
X031058Y011829D02*
X031805Y011829D01*
X031963Y011988D02*
X031031Y011988D01*
X030940Y012146D02*
X031642Y012146D01*
X031642Y012305D02*
X030940Y012305D01*
X031031Y012463D02*
X031642Y012463D01*
X031649Y012622D02*
X031058Y012622D01*
X031013Y012780D02*
X032091Y012780D01*
X032249Y012939D02*
X030940Y012939D01*
X030953Y013097D02*
X032408Y013097D01*
X032566Y013256D02*
X031048Y013256D01*
X031058Y013414D02*
X032725Y013414D01*
X032883Y013573D02*
X030984Y013573D01*
X030940Y013731D02*
X033042Y013731D01*
X033200Y013890D02*
X030996Y013890D01*
X031058Y014048D02*
X033359Y014048D01*
X033450Y014207D02*
X031976Y014207D01*
X031987Y014214D02*
X032036Y014263D01*
X032076Y014319D01*
X032108Y014381D01*
X032129Y014447D01*
X032140Y014515D01*
X032140Y014550D01*
X032140Y014585D01*
X032129Y014653D01*
X032108Y014719D01*
X032076Y014781D01*
X032036Y014837D01*
X031987Y014886D01*
X031931Y014926D01*
X031869Y014958D01*
X031803Y014979D01*
X031735Y014990D01*
X031700Y014990D01*
X031700Y014550D01*
X032140Y014550D01*
X031700Y014550D01*
X031700Y014550D01*
X031700Y014550D01*
X031700Y014110D01*
X031735Y014110D01*
X031803Y014121D01*
X031869Y014142D01*
X031931Y014174D01*
X031987Y014214D01*
X032100Y014365D02*
X033291Y014365D01*
X033280Y014524D02*
X032140Y014524D01*
X032120Y014682D02*
X033280Y014682D01*
X033397Y014841D02*
X032032Y014841D01*
X031700Y014841D02*
X031700Y014841D01*
X031700Y014990D02*
X031665Y014990D01*
X031597Y014979D01*
X031531Y014958D01*
X031469Y014926D01*
X031413Y014886D01*
X031364Y014837D01*
X031324Y014781D01*
X031292Y014719D01*
X031271Y014653D01*
X031260Y014585D01*
X031260Y014550D01*
X031700Y014550D01*
X031700Y014550D01*
X031700Y014550D01*
X031700Y014990D01*
X031700Y014682D02*
X031700Y014682D01*
X031700Y014550D02*
X031260Y014550D01*
X031260Y014515D01*
X031271Y014447D01*
X031292Y014381D01*
X031324Y014319D01*
X031364Y014263D01*
X031413Y014214D01*
X031469Y014174D01*
X031531Y014142D01*
X031597Y014121D01*
X031665Y014110D01*
X031700Y014110D01*
X031700Y014550D01*
X031700Y014524D02*
X031700Y014524D01*
X031700Y014365D02*
X031700Y014365D01*
X031700Y014207D02*
X031700Y014207D01*
X031424Y014207D02*
X031043Y014207D01*
X030941Y014365D02*
X031300Y014365D01*
X031260Y014524D02*
X030848Y014524D01*
X030903Y014546D02*
X031004Y014647D01*
X031058Y014779D01*
X031058Y014921D01*
X031004Y015053D01*
X030940Y015116D01*
X030940Y015334D01*
X031004Y015397D01*
X031058Y015529D01*
X031058Y015671D01*
X031004Y015803D01*
X030940Y015866D01*
X030940Y016084D01*
X031004Y016147D01*
X031058Y016279D01*
X031058Y016421D01*
X031004Y016553D01*
X030940Y016616D01*
X030940Y016834D01*
X031004Y016897D01*
X031058Y017029D01*
X031058Y017171D01*
X031004Y017303D01*
X030903Y017404D01*
X030771Y017458D01*
X030629Y017458D01*
X030497Y017404D01*
X030396Y017303D01*
X030342Y017171D01*
X030342Y017029D01*
X030396Y016897D01*
X030460Y016834D01*
X030460Y016616D01*
X030396Y016553D01*
X030342Y016421D01*
X030342Y016279D01*
X030396Y016147D01*
X030460Y016084D01*
X030460Y015866D01*
X030396Y015803D01*
X030342Y015671D01*
X030342Y015529D01*
X030396Y015397D01*
X030460Y015334D01*
X030460Y015116D01*
X030396Y015053D01*
X030342Y014921D01*
X030342Y014779D01*
X030396Y014647D01*
X030497Y014546D01*
X030629Y014492D01*
X030771Y014492D01*
X030903Y014546D01*
X031018Y014682D02*
X031280Y014682D01*
X031368Y014841D02*
X031058Y014841D01*
X031026Y014999D02*
X033575Y014999D01*
X033575Y015158D02*
X030940Y015158D01*
X030940Y015316D02*
X033575Y015316D01*
X033575Y015475D02*
X031036Y015475D01*
X031058Y015633D02*
X033575Y015633D01*
X033534Y015792D02*
X031008Y015792D01*
X030940Y015950D02*
X033459Y015950D01*
X033459Y016109D02*
X030965Y016109D01*
X031053Y016267D02*
X033459Y016267D01*
X033459Y016426D02*
X031056Y016426D01*
X030972Y016584D02*
X033522Y016584D01*
X033363Y016743D02*
X030940Y016743D01*
X031005Y016901D02*
X033205Y016901D01*
X033168Y017060D02*
X031058Y017060D01*
X031039Y017218D02*
X033168Y017218D01*
X033168Y017377D02*
X030930Y017377D01*
X030700Y017100D02*
X030700Y016350D01*
X030700Y015600D01*
X030700Y014850D01*
X030342Y014841D02*
X029808Y014841D01*
X029808Y014779D02*
X029754Y014647D01*
X029653Y014546D01*
X029521Y014492D01*
X029379Y014492D01*
X029247Y014546D01*
X029146Y014647D01*
X029092Y014779D01*
X029092Y014921D01*
X029146Y015053D01*
X029247Y015154D01*
X029379Y015208D01*
X029521Y015208D01*
X029653Y015154D01*
X029754Y015053D01*
X029808Y014921D01*
X029808Y014779D01*
X029768Y014682D02*
X030382Y014682D01*
X030552Y014524D02*
X029598Y014524D01*
X029302Y014524D02*
X029000Y014524D01*
X029000Y014682D02*
X029132Y014682D01*
X029092Y014841D02*
X029000Y014841D01*
X029000Y014999D02*
X029124Y014999D01*
X029000Y015158D02*
X029257Y015158D01*
X029000Y015316D02*
X030460Y015316D01*
X030460Y015158D02*
X029643Y015158D01*
X029776Y014999D02*
X030374Y014999D01*
X030459Y014365D02*
X029000Y014365D01*
X029000Y014207D02*
X030357Y014207D01*
X030342Y014048D02*
X029000Y014048D01*
X029000Y013890D02*
X030404Y013890D01*
X030460Y013731D02*
X029000Y013731D01*
X029000Y013573D02*
X029166Y013573D01*
X029146Y013553D02*
X029092Y013421D01*
X029092Y013279D01*
X029146Y013147D01*
X029247Y013046D01*
X029379Y012992D01*
X029521Y012992D01*
X029653Y013046D01*
X029754Y013147D01*
X029808Y013279D01*
X029808Y013421D01*
X029754Y013553D01*
X029653Y013654D01*
X029521Y013708D01*
X029379Y013708D01*
X029247Y013654D01*
X029146Y013553D01*
X029092Y013414D02*
X029000Y013414D01*
X029000Y013256D02*
X029102Y013256D01*
X029197Y013097D02*
X029000Y013097D01*
X029000Y012939D02*
X030460Y012939D01*
X030447Y013097D02*
X029703Y013097D01*
X029798Y013256D02*
X030352Y013256D01*
X030342Y013414D02*
X029808Y013414D01*
X029734Y013573D02*
X030416Y013573D01*
X030700Y013350D02*
X030700Y012600D01*
X030700Y011850D01*
X030369Y011988D02*
X029781Y011988D01*
X029808Y011829D02*
X030342Y011829D01*
X030387Y011671D02*
X029763Y011671D01*
X029660Y012146D02*
X030460Y012146D01*
X030460Y012305D02*
X029000Y012305D01*
X029000Y012463D02*
X030369Y012463D01*
X030342Y012622D02*
X029000Y012622D01*
X029000Y012780D02*
X030387Y012780D01*
X030700Y013350D02*
X030700Y014100D01*
X032358Y012369D02*
X032673Y012684D01*
X032673Y012603D01*
X033032Y012603D01*
X033032Y012981D01*
X032971Y012981D01*
X033807Y013817D01*
X033814Y013824D01*
X033874Y013885D01*
X033888Y013899D01*
X033940Y014024D01*
X033940Y014196D01*
X034120Y014376D01*
X034120Y014724D01*
X034055Y014789D01*
X034055Y015773D01*
X034078Y015773D01*
X034150Y015845D01*
X034222Y015773D01*
X034748Y015773D01*
X034841Y015867D01*
X034841Y015910D01*
X034862Y015910D01*
X034862Y015674D01*
X034922Y015614D01*
X034922Y015268D01*
X035016Y015175D01*
X035384Y015175D01*
X035478Y015268D01*
X035478Y015616D01*
X035510Y015648D01*
X035510Y013512D01*
X033897Y011899D01*
X033896Y011898D01*
X033893Y011895D01*
X033879Y011880D01*
X033860Y011861D01*
X033860Y011861D01*
X033842Y011844D01*
X033652Y011653D01*
X033407Y011898D01*
X033407Y012198D01*
X033369Y012236D01*
X033391Y012258D01*
X033415Y012299D01*
X033427Y012344D01*
X033427Y012566D01*
X033068Y012566D01*
X033068Y012603D01*
X033032Y012603D01*
X033032Y012566D01*
X032673Y012566D01*
X032673Y012344D01*
X032685Y012299D01*
X032709Y012258D01*
X032731Y012236D01*
X032693Y012198D01*
X032693Y012155D01*
X032358Y012155D01*
X032358Y012369D01*
X032358Y012305D02*
X032684Y012305D01*
X032673Y012463D02*
X032452Y012463D01*
X032611Y012622D02*
X032673Y012622D01*
X033032Y012622D02*
X033068Y012622D01*
X033068Y012603D02*
X033068Y012981D01*
X033271Y012981D01*
X033316Y012969D01*
X033357Y012945D01*
X033391Y012912D01*
X033415Y012871D01*
X033427Y012825D01*
X033427Y012603D01*
X033068Y012603D01*
X033068Y012780D02*
X033032Y012780D01*
X033032Y012939D02*
X033068Y012939D01*
X033086Y013097D02*
X035095Y013097D01*
X034937Y012939D02*
X033364Y012939D01*
X033427Y012780D02*
X034778Y012780D01*
X034620Y012622D02*
X033427Y012622D01*
X033427Y012463D02*
X034461Y012463D01*
X034303Y012305D02*
X033416Y012305D01*
X033407Y012146D02*
X034144Y012146D01*
X033986Y011988D02*
X033407Y011988D01*
X033476Y011829D02*
X033827Y011829D01*
X033893Y011895D02*
X033893Y011895D01*
X033897Y011899D02*
X033897Y011899D01*
X033897Y011899D01*
X034029Y011691D02*
X033562Y011224D01*
X035721Y013383D01*
X035750Y013454D02*
X035750Y016700D01*
X036721Y017671D01*
X036750Y017741D02*
X036750Y019350D01*
X036595Y019505D01*
X036524Y019535D02*
X036200Y019535D01*
X035250Y019535D01*
X034476Y019535D01*
X034405Y019505D02*
X034400Y019500D01*
X034405Y019506D02*
X034420Y019518D01*
X034438Y019527D01*
X034456Y019533D01*
X034476Y019535D01*
X034497Y019858D02*
X034497Y020047D01*
X034118Y020047D01*
X034118Y020084D01*
X034497Y020084D01*
X034497Y020220D01*
X034730Y020220D01*
X034730Y020074D01*
X034824Y019980D01*
X035010Y019980D01*
X035010Y019911D01*
X034987Y019911D01*
X034893Y019817D01*
X034893Y019775D01*
X034748Y019775D01*
X034664Y019858D01*
X034497Y019858D01*
X034497Y019913D02*
X035010Y019913D01*
X034733Y020071D02*
X034118Y020071D01*
X034082Y020071D02*
X033368Y020071D01*
X033368Y020084D02*
X033727Y020084D01*
X034082Y020084D01*
X034082Y020047D01*
X033368Y020047D01*
X033368Y019669D01*
X033571Y019669D01*
X033616Y019681D01*
X033657Y019705D01*
X033691Y019738D01*
X033715Y019779D01*
X033719Y019794D01*
X033739Y019758D01*
X033773Y019724D01*
X033814Y019701D01*
X033860Y019689D01*
X034042Y019689D01*
X034042Y019290D01*
X031199Y019290D01*
X030297Y020192D01*
X030300Y020195D01*
X030372Y020123D01*
X030898Y020123D01*
X030991Y020217D01*
X030991Y020783D01*
X030898Y020877D01*
X030875Y020877D01*
X030875Y020943D01*
X030917Y020943D01*
X031011Y021037D01*
X031011Y021060D01*
X031111Y021060D01*
X031236Y021112D01*
X031250Y021126D01*
X031333Y021209D01*
X031633Y021209D01*
X031727Y021302D01*
X031727Y021828D01*
X031655Y021900D01*
X031715Y021960D01*
X031951Y021960D01*
X032002Y021909D01*
X032008Y021902D01*
X032043Y021867D01*
X032043Y021733D01*
X032137Y021639D01*
X032663Y021639D01*
X032757Y021733D01*
X032757Y021775D01*
X033150Y021775D01*
X033202Y021723D01*
X033520Y021723D01*
X033520Y021567D01*
X033567Y021520D01*
X034520Y021520D01*
X034520Y021180D01*
X031467Y021180D01*
X031420Y021133D01*
X031420Y020667D01*
X031443Y020644D01*
X031443Y020452D01*
X031481Y020414D01*
X031459Y020392D01*
X031435Y020351D01*
X031423Y020306D01*
X031423Y020084D01*
X031782Y020084D01*
X031782Y020047D01*
X031818Y020047D01*
X031818Y019669D01*
X032021Y019669D01*
X032066Y019681D01*
X032107Y019705D01*
X032141Y019738D01*
X032165Y019779D01*
X032169Y019794D01*
X032189Y019758D01*
X032223Y019724D01*
X032264Y019701D01*
X032310Y019689D01*
X032532Y019689D01*
X032532Y020047D01*
X032568Y020047D01*
X032568Y019689D01*
X032790Y019689D01*
X032836Y019701D01*
X032877Y019724D01*
X032911Y019758D01*
X032934Y019799D01*
X032947Y019845D01*
X032947Y020047D01*
X032568Y020047D01*
X032568Y020084D01*
X032947Y020084D01*
X032947Y020286D01*
X032934Y020332D01*
X032911Y020373D01*
X032877Y020406D01*
X032867Y020412D01*
X032927Y020472D01*
X032927Y020495D01*
X032993Y020495D01*
X032993Y020452D01*
X033031Y020414D01*
X033009Y020392D01*
X032985Y020351D01*
X032973Y020306D01*
X032973Y020084D01*
X033332Y020084D01*
X033332Y020047D01*
X033368Y020047D01*
X033368Y020084D01*
X033332Y020071D02*
X032568Y020071D01*
X032532Y020071D02*
X031818Y020071D01*
X031818Y020084D02*
X032177Y020084D01*
X032532Y020084D01*
X032532Y020047D01*
X031818Y020047D01*
X031818Y020084D01*
X031782Y020071D02*
X030418Y020071D01*
X030577Y019913D02*
X031423Y019913D01*
X031423Y019825D02*
X031435Y019779D01*
X031459Y019738D01*
X031493Y019705D01*
X031534Y019681D01*
X031579Y019669D01*
X031782Y019669D01*
X031782Y020047D01*
X031423Y020047D01*
X031423Y019825D01*
X031450Y019754D02*
X030735Y019754D01*
X030894Y019596D02*
X034042Y019596D01*
X034042Y019437D02*
X031052Y019437D01*
X031100Y019050D02*
X029995Y020155D01*
X029965Y020226D02*
X029965Y020500D01*
X029965Y020226D02*
X029967Y020206D01*
X029973Y020188D01*
X029982Y020170D01*
X029994Y020155D01*
X029859Y019952D02*
X029859Y019952D01*
X029898Y019913D02*
X029000Y019913D01*
X029000Y020071D02*
X029762Y020071D01*
X029777Y020033D02*
X029777Y020033D01*
X029609Y020230D02*
X029000Y020230D01*
X029000Y020388D02*
X029609Y020388D01*
X029609Y020547D02*
X029000Y020547D01*
X029000Y020705D02*
X029609Y020705D01*
X029689Y020864D02*
X029000Y020864D01*
X029000Y021022D02*
X029588Y021022D01*
X029569Y021181D02*
X029000Y021181D01*
X029000Y021339D02*
X029569Y021339D01*
X029569Y021318D02*
X029947Y021318D01*
X029947Y021677D01*
X029725Y021677D01*
X029679Y021665D01*
X029638Y021641D01*
X029605Y021607D01*
X029581Y021566D01*
X029569Y021521D01*
X029569Y021318D01*
X029569Y021498D02*
X029000Y021498D01*
X029000Y021656D02*
X029665Y021656D01*
X029653Y021815D02*
X029000Y021815D01*
X029000Y021973D02*
X029539Y021973D01*
X029539Y022132D02*
X029000Y022132D01*
X029000Y022290D02*
X029539Y022290D01*
X029539Y022218D02*
X029897Y022218D01*
X029897Y022597D01*
X029695Y022597D01*
X029649Y022584D01*
X029608Y022561D01*
X029574Y022527D01*
X029551Y022486D01*
X029539Y022440D01*
X029539Y022218D01*
X029541Y022449D02*
X029000Y022449D01*
X029000Y022607D02*
X032023Y022607D01*
X032023Y022449D02*
X031727Y022449D01*
X031426Y022200D02*
X031406Y022202D01*
X031388Y022208D01*
X031370Y022217D01*
X031355Y022229D01*
X031350Y022235D01*
X030661Y022235D01*
X030590Y022205D02*
X030585Y022200D01*
X030590Y022206D02*
X030605Y022218D01*
X030623Y022227D01*
X030641Y022233D01*
X030661Y022235D01*
X030941Y021973D02*
X030973Y021973D01*
X030973Y021815D02*
X030177Y021815D01*
X030266Y021656D02*
X030351Y021656D01*
X029984Y021656D02*
X029947Y021656D01*
X029947Y021498D02*
X029984Y021498D01*
X029984Y021339D02*
X029947Y021339D01*
X029947Y021181D02*
X029984Y021181D01*
X029984Y021022D02*
X029947Y021022D01*
X030241Y020864D02*
X030359Y020864D01*
X030635Y020500D02*
X030635Y021300D01*
X031043Y021300D01*
X031114Y021329D02*
X031350Y021565D01*
X031114Y021329D02*
X031099Y021317D01*
X031081Y021308D01*
X031063Y021302D01*
X031043Y021300D01*
X031236Y021112D02*
X031236Y021112D01*
X031250Y021126D02*
X031250Y021126D01*
X031305Y021181D02*
X034520Y021181D01*
X034520Y021339D02*
X031727Y021339D01*
X031727Y021498D02*
X034520Y021498D01*
X034135Y022100D02*
X034135Y022744D01*
X034137Y022750D02*
X034150Y022750D01*
X034586Y023186D01*
X034657Y023215D02*
X035250Y023215D01*
X035255Y023221D01*
X035326Y023250D02*
X035965Y023250D01*
X035965Y022500D01*
X035971Y022495D01*
X036000Y022424D02*
X036000Y021500D01*
X035779Y021279D01*
X035709Y021250D02*
X035280Y021250D01*
X035709Y021250D02*
X035729Y021252D01*
X035747Y021258D01*
X035765Y021267D01*
X035780Y021279D01*
X036500Y021359D02*
X036500Y020900D01*
X036621Y020779D01*
X036691Y020750D02*
X037000Y020750D01*
X037220Y020750D02*
X039415Y020750D01*
X039415Y016537D01*
X039400Y016500D02*
X039400Y016291D01*
X039429Y016221D02*
X040200Y015450D01*
X040200Y013341D01*
X040229Y013271D02*
X040250Y013250D01*
X037941Y013250D01*
X037871Y013221D02*
X037250Y012600D01*
X037250Y011926D01*
X037221Y011855D02*
X037215Y011850D01*
X037221Y011855D02*
X037233Y011870D01*
X037242Y011888D01*
X037248Y011906D01*
X037250Y011926D01*
X036859Y011988D02*
X036226Y011988D01*
X036230Y011983D02*
X036183Y012030D01*
X035117Y012030D01*
X035070Y011983D01*
X035070Y011977D01*
X034984Y011977D01*
X034984Y011618D01*
X034947Y011618D01*
X034947Y011582D01*
X034569Y011582D01*
X034569Y011554D01*
X034514Y011608D01*
X034285Y011608D01*
X035857Y013179D01*
X035890Y013213D01*
X035890Y013213D01*
X035938Y013261D01*
X035938Y013261D01*
X035990Y013386D01*
X035990Y015648D01*
X036022Y015616D01*
X036022Y015268D01*
X036116Y015175D01*
X036484Y015175D01*
X036578Y015268D01*
X036578Y015614D01*
X036638Y015674D01*
X036638Y015860D01*
X036659Y015860D01*
X036659Y015817D01*
X036752Y015723D01*
X037278Y015723D01*
X037350Y015795D01*
X037422Y015723D01*
X037445Y015723D01*
X037445Y014870D01*
X037412Y014856D01*
X037294Y014738D01*
X037230Y014584D01*
X037230Y014416D01*
X037294Y014262D01*
X037412Y014144D01*
X037566Y014080D01*
X037734Y014080D01*
X037888Y014144D01*
X038006Y014262D01*
X038070Y014416D01*
X038070Y014584D01*
X038006Y014738D01*
X037925Y014819D01*
X037925Y015723D01*
X037948Y015723D01*
X038041Y015817D01*
X038041Y016383D01*
X037948Y016477D01*
X037890Y016477D01*
X037890Y016568D01*
X037912Y016568D01*
X038282Y016938D01*
X038282Y017462D01*
X037953Y017792D01*
X038364Y017792D01*
X038458Y017886D01*
X038458Y018414D01*
X038364Y018508D01*
X037836Y018508D01*
X037742Y018414D01*
X037742Y017886D01*
X037795Y017832D01*
X037388Y017832D01*
X037018Y017462D01*
X037018Y016938D01*
X037388Y016568D01*
X037410Y016568D01*
X037410Y016465D01*
X037350Y016405D01*
X037278Y016477D01*
X036752Y016477D01*
X036659Y016383D01*
X036659Y016340D01*
X036638Y016340D01*
X036638Y016594D01*
X036545Y016688D01*
X036077Y016688D01*
X036857Y017467D01*
X036870Y017480D01*
X036924Y017535D01*
X036938Y017549D01*
X036990Y017674D01*
X036990Y019398D01*
X036953Y019486D01*
X036798Y019641D01*
X036790Y019649D01*
X036731Y019709D01*
X036731Y019709D01*
X036717Y019723D01*
X036717Y019723D01*
X036592Y019775D01*
X036557Y019775D01*
X036557Y019817D01*
X036463Y019911D01*
X035937Y019911D01*
X035843Y019817D01*
X035843Y019775D01*
X035607Y019775D01*
X035607Y019817D01*
X035513Y019911D01*
X035490Y019911D01*
X035490Y019980D01*
X035736Y019980D01*
X035830Y020074D01*
X035830Y020420D01*
X036670Y020420D01*
X036670Y020074D01*
X036764Y019980D01*
X037676Y019980D01*
X037770Y020074D01*
X037770Y020320D01*
X039175Y020320D01*
X039175Y016585D01*
X039160Y016548D01*
X039160Y016224D01*
X039212Y016099D01*
X039212Y016099D01*
X039226Y016085D01*
X039270Y016040D01*
X039293Y016017D01*
X039960Y015351D01*
X039960Y014812D01*
X039832Y014940D01*
X039650Y014940D01*
X039650Y014500D01*
X039650Y014500D01*
X039650Y014060D01*
X039832Y014060D01*
X039960Y014188D01*
X039960Y013490D01*
X037874Y013490D01*
X037749Y013438D01*
X037749Y013438D01*
X037735Y013424D01*
X037701Y013390D01*
X037667Y013357D01*
X037667Y013357D01*
X037358Y013048D01*
X037341Y013055D01*
X037159Y013055D01*
X036992Y012986D01*
X036864Y012858D01*
X036795Y012691D01*
X036795Y012509D01*
X036864Y012342D01*
X036980Y012227D01*
X036952Y012227D01*
X036859Y012133D01*
X036859Y011567D01*
X036952Y011473D01*
X037478Y011473D01*
X037550Y011545D01*
X037622Y011473D01*
X037870Y011473D01*
X037870Y010617D01*
X037917Y010570D01*
X038070Y010570D01*
X038070Y010470D01*
X037374Y010470D01*
X037280Y010376D01*
X037280Y010080D01*
X037067Y010080D01*
X037020Y010033D01*
X037020Y009580D01*
X036230Y009580D01*
X036230Y011983D01*
X036230Y011829D02*
X036859Y011829D01*
X036859Y011671D02*
X036230Y011671D01*
X036230Y011512D02*
X036914Y011512D01*
X037517Y011512D02*
X037583Y011512D01*
X037870Y011354D02*
X036230Y011354D01*
X036230Y011195D02*
X037870Y011195D01*
X037870Y011037D02*
X036230Y011037D01*
X036230Y010878D02*
X037870Y010878D01*
X037870Y010720D02*
X036230Y010720D01*
X036230Y010561D02*
X038070Y010561D01*
X038500Y010924D02*
X038498Y010944D01*
X038492Y010962D01*
X038483Y010980D01*
X038471Y010995D01*
X038415Y011050D01*
X038415Y011850D01*
X037885Y011850D01*
X036872Y012146D02*
X034823Y012146D01*
X034725Y011977D02*
X034947Y011977D01*
X034947Y011618D01*
X034569Y011618D01*
X034569Y011821D01*
X034581Y011866D01*
X034605Y011907D01*
X034638Y011941D01*
X034679Y011965D01*
X034725Y011977D01*
X034665Y011988D02*
X035074Y011988D01*
X034984Y011829D02*
X034947Y011829D01*
X034947Y011671D02*
X034984Y011671D01*
X034984Y011582D02*
X034984Y011223D01*
X035070Y011223D01*
X035070Y011197D01*
X034984Y011197D01*
X034984Y010818D01*
X034947Y010818D01*
X034947Y011197D01*
X034745Y011197D01*
X034699Y011184D01*
X034658Y011161D01*
X034624Y011127D01*
X034608Y011099D01*
X034608Y011289D01*
X034638Y011259D01*
X034679Y011235D01*
X034725Y011223D01*
X034947Y011223D01*
X034947Y011582D01*
X034984Y011582D01*
X034984Y011512D02*
X034947Y011512D01*
X034947Y011354D02*
X034984Y011354D01*
X034984Y011195D02*
X034947Y011195D01*
X034947Y011037D02*
X034984Y011037D01*
X034984Y010878D02*
X034947Y010878D01*
X034947Y010720D02*
X034984Y010720D01*
X034984Y010561D02*
X034947Y010561D01*
X035070Y010403D02*
X033958Y010403D01*
X033583Y010485D02*
X033575Y010484D01*
X033568Y010481D01*
X033562Y010476D01*
X033562Y011224D02*
X033576Y011235D01*
X033591Y011243D01*
X033608Y011248D01*
X033625Y011250D01*
X034250Y011250D01*
X034608Y011195D02*
X034739Y011195D01*
X034569Y011671D02*
X034348Y011671D01*
X034506Y011829D02*
X034571Y011829D01*
X034050Y011700D02*
X034042Y011699D01*
X034035Y011696D01*
X034029Y011692D01*
X033669Y011671D02*
X033634Y011671D01*
X033533Y011433D02*
X033050Y011915D01*
X032272Y011915D01*
X032000Y012350D02*
X033671Y014021D01*
X033700Y014091D02*
X033700Y014550D01*
X033786Y014636D01*
X033815Y014707D02*
X033815Y016150D01*
X033800Y016187D02*
X033800Y017200D01*
X034237Y016743D02*
X035510Y016743D01*
X035612Y016901D02*
X034395Y016901D01*
X034432Y017060D02*
X035770Y017060D01*
X035929Y017218D02*
X034432Y017218D01*
X034432Y017377D02*
X035364Y017377D01*
X035334Y017535D02*
X034758Y017535D01*
X034758Y017694D02*
X035334Y017694D01*
X035334Y017852D02*
X034758Y017852D01*
X034758Y018011D02*
X035266Y018011D01*
X035108Y018169D02*
X029000Y018169D01*
X029000Y018011D02*
X034042Y018011D01*
X034042Y017852D02*
X029000Y017852D01*
X029000Y017694D02*
X033399Y017694D01*
X033241Y017535D02*
X029000Y017535D01*
X029000Y017377D02*
X030470Y017377D01*
X030361Y017218D02*
X029000Y017218D01*
X029000Y017060D02*
X030342Y017060D01*
X030395Y016901D02*
X029000Y016901D01*
X029000Y016743D02*
X030460Y016743D01*
X030428Y016584D02*
X029722Y016584D01*
X029754Y016553D02*
X029653Y016654D01*
X029521Y016708D01*
X029379Y016708D01*
X029247Y016654D01*
X029146Y016553D01*
X029092Y016421D01*
X029092Y016279D01*
X029146Y016147D01*
X029247Y016046D01*
X029379Y015992D01*
X029521Y015992D01*
X029653Y016046D01*
X029754Y016147D01*
X029808Y016279D01*
X029808Y016421D01*
X029754Y016553D01*
X029806Y016426D02*
X030344Y016426D01*
X030347Y016267D02*
X029803Y016267D01*
X029715Y016109D02*
X030435Y016109D01*
X030460Y015950D02*
X029000Y015950D01*
X029000Y015792D02*
X030392Y015792D01*
X030342Y015633D02*
X029000Y015633D01*
X029000Y015475D02*
X030364Y015475D01*
X029185Y016109D02*
X029000Y016109D01*
X029000Y016267D02*
X029097Y016267D01*
X029094Y016426D02*
X029000Y016426D01*
X029000Y016584D02*
X029178Y016584D01*
X029000Y018328D02*
X034583Y018328D01*
X034425Y018486D02*
X029000Y018486D01*
X029000Y018645D02*
X034266Y018645D01*
X034108Y018803D02*
X029000Y018803D01*
X029000Y018962D02*
X030849Y018962D01*
X030691Y019120D02*
X029000Y019120D01*
X029000Y019279D02*
X030532Y019279D01*
X030374Y019437D02*
X029000Y019437D01*
X029000Y019596D02*
X030215Y019596D01*
X030057Y019754D02*
X029000Y019754D01*
X030911Y020864D02*
X031420Y020864D01*
X031420Y021022D02*
X030996Y021022D01*
X030991Y020705D02*
X031420Y020705D01*
X031443Y020547D02*
X030991Y020547D01*
X030991Y020388D02*
X031457Y020388D01*
X031423Y020230D02*
X030991Y020230D01*
X031782Y019913D02*
X031818Y019913D01*
X031818Y019754D02*
X031782Y019754D01*
X032150Y019754D02*
X032193Y019754D01*
X032532Y019754D02*
X032568Y019754D01*
X032568Y019913D02*
X032532Y019913D01*
X032907Y019754D02*
X033000Y019754D01*
X033009Y019738D02*
X033043Y019705D01*
X033084Y019681D01*
X033129Y019669D01*
X033332Y019669D01*
X033332Y020047D01*
X032973Y020047D01*
X032973Y019825D01*
X032985Y019779D01*
X033009Y019738D01*
X032973Y019913D02*
X032947Y019913D01*
X032947Y020230D02*
X032973Y020230D01*
X033007Y020388D02*
X032895Y020388D01*
X032550Y020735D02*
X033350Y020735D01*
X034100Y020735D01*
X034137Y020750D02*
X035280Y020750D01*
X035280Y020250D02*
X035279Y020249D01*
X035250Y020179D02*
X035250Y019535D01*
X035255Y019529D01*
X035270Y019517D01*
X035288Y019508D01*
X035306Y019502D01*
X035326Y019500D01*
X035607Y019295D02*
X035843Y019295D01*
X035843Y019252D01*
X035881Y019214D01*
X035859Y019192D01*
X035835Y019151D01*
X035823Y019106D01*
X035823Y018884D01*
X036182Y018884D01*
X036182Y018847D01*
X036218Y018847D01*
X036218Y018469D01*
X036421Y018469D01*
X036466Y018481D01*
X036507Y018505D01*
X036510Y018507D01*
X036510Y017799D01*
X036166Y017455D01*
X036166Y018326D01*
X036072Y018420D01*
X035536Y018420D01*
X035483Y018472D01*
X035516Y018481D01*
X035557Y018505D01*
X035591Y018538D01*
X035615Y018579D01*
X035627Y018625D01*
X035627Y018847D01*
X035268Y018847D01*
X035268Y018884D01*
X035627Y018884D01*
X035627Y019106D01*
X035615Y019151D01*
X035591Y019192D01*
X035569Y019214D01*
X035607Y019252D01*
X035607Y019295D01*
X035607Y019279D02*
X035843Y019279D01*
X035827Y019120D02*
X035623Y019120D01*
X035627Y018962D02*
X035823Y018962D01*
X035823Y018847D02*
X035823Y018625D01*
X035835Y018579D01*
X035859Y018538D01*
X035893Y018505D01*
X035934Y018481D01*
X035979Y018469D01*
X036182Y018469D01*
X036182Y018847D01*
X035823Y018847D01*
X035823Y018803D02*
X035627Y018803D01*
X035627Y018645D02*
X035823Y018645D01*
X035925Y018486D02*
X035525Y018486D01*
X035195Y018421D02*
X035750Y017866D01*
X036166Y017852D02*
X036510Y017852D01*
X036510Y018011D02*
X036166Y018011D01*
X036166Y018169D02*
X036510Y018169D01*
X036510Y018328D02*
X036164Y018328D01*
X036182Y018486D02*
X036218Y018486D01*
X036218Y018645D02*
X036182Y018645D01*
X036182Y018803D02*
X036218Y018803D01*
X036475Y018486D02*
X036510Y018486D01*
X036990Y018486D02*
X037814Y018486D01*
X037742Y018328D02*
X036990Y018328D01*
X036990Y018169D02*
X037742Y018169D01*
X037742Y018011D02*
X036990Y018011D01*
X036990Y017852D02*
X037775Y017852D01*
X038051Y017694D02*
X039175Y017694D01*
X039175Y017852D02*
X038425Y017852D01*
X038458Y018011D02*
X039175Y018011D01*
X039175Y018169D02*
X038458Y018169D01*
X038458Y018328D02*
X039175Y018328D01*
X039175Y018486D02*
X038386Y018486D01*
X038364Y018792D02*
X037836Y018792D01*
X037742Y018886D01*
X037742Y019414D01*
X037836Y019508D01*
X038364Y019508D01*
X038458Y019414D01*
X038458Y018886D01*
X038364Y018792D01*
X038376Y018803D02*
X039175Y018803D01*
X039175Y018645D02*
X036990Y018645D01*
X036990Y018803D02*
X037824Y018803D01*
X037742Y018962D02*
X036990Y018962D01*
X036990Y019120D02*
X037742Y019120D01*
X037742Y019279D02*
X036990Y019279D01*
X036974Y019437D02*
X037765Y019437D01*
X037767Y020071D02*
X039175Y020071D01*
X039175Y019913D02*
X035490Y019913D01*
X035250Y020179D02*
X035252Y020199D01*
X035258Y020217D01*
X035267Y020235D01*
X035279Y020250D01*
X035830Y020230D02*
X036670Y020230D01*
X036670Y020388D02*
X035830Y020388D01*
X035827Y020071D02*
X036673Y020071D01*
X036641Y019754D02*
X039175Y019754D01*
X039175Y019596D02*
X036844Y019596D01*
X036595Y019506D02*
X036580Y019518D01*
X036562Y019527D01*
X036544Y019533D01*
X036524Y019535D01*
X037770Y020230D02*
X039175Y020230D01*
X039655Y020230D02*
X041500Y020230D01*
X041500Y020388D02*
X041132Y020388D01*
X041259Y020547D02*
X041500Y020547D01*
X041500Y020705D02*
X041305Y020705D01*
X041296Y020864D02*
X041500Y020864D01*
X041500Y021022D02*
X041222Y021022D01*
X041000Y021181D02*
X041500Y021181D01*
X041500Y021339D02*
X038528Y021339D01*
X038638Y021449D02*
X038638Y021449D01*
X038658Y021498D02*
X041500Y021498D01*
X041500Y021656D02*
X038690Y021656D01*
X038690Y021815D02*
X041500Y021815D01*
X041500Y021973D02*
X038690Y021973D01*
X038690Y022132D02*
X041500Y022132D01*
X041500Y022290D02*
X039095Y022290D01*
X039262Y022449D02*
X041500Y022449D01*
X041500Y022607D02*
X039421Y022607D01*
X039579Y022766D02*
X041500Y022766D01*
X041500Y022924D02*
X040373Y022924D01*
X040384Y023083D02*
X041500Y023083D01*
X041500Y023241D02*
X040384Y023241D01*
X040326Y023400D02*
X041500Y023400D01*
X041500Y023558D02*
X041178Y023558D01*
X041178Y023717D02*
X041500Y023717D01*
X041500Y023875D02*
X041178Y023875D01*
X041126Y024034D02*
X041500Y024034D01*
X041500Y024192D02*
X040740Y024192D01*
X040740Y024351D02*
X041500Y024351D01*
X041500Y024509D02*
X041182Y024509D01*
X041198Y024668D02*
X041500Y024668D01*
X041500Y024826D02*
X041198Y024826D01*
X041177Y024985D02*
X041500Y024985D01*
X041500Y025143D02*
X040181Y025143D01*
X040023Y025302D02*
X041500Y025302D01*
X041500Y025460D02*
X039864Y025460D01*
X039706Y025619D02*
X041500Y025619D01*
X041500Y025777D02*
X039547Y025777D01*
X039389Y025936D02*
X041500Y025936D01*
X041500Y026094D02*
X039230Y026094D01*
X039091Y026253D02*
X041500Y026253D01*
X041500Y026411D02*
X039091Y026411D01*
X039055Y026570D02*
X041218Y026570D01*
X041065Y026728D02*
X029435Y026728D01*
X029500Y026887D02*
X041000Y026887D01*
X040071Y024914D02*
X038735Y026250D01*
X038415Y026570D02*
X038385Y026570D01*
X038065Y026250D02*
X037829Y026250D01*
X037758Y026221D02*
X037321Y025784D01*
X037082Y025545D01*
X037011Y025515D02*
X036450Y025515D01*
X035650Y025515D01*
X035293Y025460D02*
X034278Y025460D01*
X034267Y025486D02*
X034149Y025604D01*
X033994Y025668D01*
X033871Y025668D01*
X033817Y025722D01*
X033812Y025728D01*
X033750Y025790D01*
X033736Y025804D01*
X033736Y025804D01*
X033611Y025855D01*
X033557Y025855D01*
X033557Y025898D01*
X033519Y025936D01*
X033541Y025958D01*
X033565Y025999D01*
X033577Y026044D01*
X033577Y026266D01*
X033218Y026266D01*
X033218Y026303D01*
X033182Y026303D01*
X033182Y026681D01*
X032979Y026681D01*
X032934Y026669D01*
X032893Y026645D01*
X032859Y026612D01*
X032835Y026571D01*
X032823Y026525D01*
X032823Y026303D01*
X033182Y026303D01*
X033182Y026266D01*
X032823Y026266D01*
X032823Y026044D01*
X032835Y025999D01*
X032859Y025958D01*
X032881Y025936D01*
X032843Y025898D01*
X032843Y025855D01*
X032757Y025855D01*
X032757Y025898D01*
X032719Y025936D01*
X032741Y025958D01*
X032765Y025999D01*
X032777Y026044D01*
X032777Y026266D01*
X032418Y026266D01*
X032418Y026303D01*
X032382Y026303D01*
X032382Y026681D01*
X032179Y026681D01*
X032134Y026669D01*
X032093Y026645D01*
X032059Y026612D01*
X032035Y026571D01*
X032023Y026525D01*
X032023Y026303D01*
X032382Y026303D01*
X032382Y026266D01*
X032023Y026266D01*
X032023Y026044D01*
X032035Y025999D01*
X032059Y025958D01*
X032081Y025936D01*
X032043Y025898D01*
X032043Y025698D01*
X031772Y025427D01*
X031472Y025427D01*
X031400Y025355D01*
X031328Y025427D01*
X030802Y025427D01*
X030709Y025333D01*
X030709Y025033D01*
X030551Y024875D01*
X030377Y024875D01*
X030377Y024898D01*
X030283Y024991D01*
X029717Y024991D01*
X029635Y024909D01*
X029584Y024960D01*
X029216Y024960D01*
X029122Y024866D01*
X029122Y024418D01*
X029216Y024325D01*
X029584Y024325D01*
X029627Y024368D01*
X029695Y024300D01*
X029623Y024228D01*
X029623Y023962D01*
X029588Y023983D01*
X029542Y023995D01*
X029400Y023995D01*
X029258Y023995D01*
X029212Y023983D01*
X029171Y023959D01*
X029138Y023926D01*
X029114Y023885D01*
X029102Y023839D01*
X029102Y023658D01*
X029400Y023658D01*
X029400Y023995D01*
X029400Y023658D01*
X029400Y023658D01*
X029400Y023658D01*
X029102Y023658D01*
X029102Y023477D01*
X029114Y023431D01*
X029138Y023390D01*
X029171Y023356D01*
X029212Y023333D01*
X029258Y023320D01*
X029400Y023320D01*
X029400Y023658D01*
X029400Y023320D01*
X029542Y023320D01*
X029588Y023333D01*
X029629Y023356D01*
X029662Y023390D01*
X029686Y023431D01*
X029698Y023477D01*
X029698Y023628D01*
X029717Y023609D01*
X029784Y023609D01*
X029784Y023522D01*
X029727Y023465D01*
X029727Y023135D01*
X029820Y023042D01*
X030228Y023042D01*
X030280Y023093D01*
X030332Y023042D01*
X030484Y023042D01*
X030560Y023010D01*
X030642Y023010D01*
X030642Y022986D01*
X030736Y022892D01*
X031264Y022892D01*
X031358Y022986D01*
X031358Y023514D01*
X031264Y023608D01*
X030736Y023608D01*
X030686Y023558D01*
X030332Y023558D01*
X030264Y023558D01*
X030264Y023522D02*
X030264Y023609D01*
X030283Y023609D01*
X030377Y023702D01*
X030377Y024228D01*
X030305Y024300D01*
X030377Y024372D01*
X030377Y024395D01*
X030676Y024395D01*
X030801Y024446D01*
X030801Y024446D01*
X030849Y024494D01*
X030883Y024528D01*
X031028Y024673D01*
X031328Y024673D01*
X031400Y024745D01*
X031472Y024673D01*
X031915Y024673D01*
X031863Y024636D01*
X031814Y024587D01*
X031775Y024532D01*
X032150Y024300D01*
X032382Y024675D01*
X032150Y024300D01*
X032150Y024300D01*
X032525Y024068D01*
X032150Y024300D01*
X032150Y024300D01*
X032150Y024300D01*
X031918Y023925D01*
X032150Y024300D01*
X032150Y024300D01*
X031775Y024532D01*
X031774Y024531D01*
X031742Y024469D01*
X031721Y024403D01*
X031710Y024335D01*
X031710Y024265D01*
X031721Y024197D01*
X031742Y024131D01*
X031774Y024069D01*
X031814Y024013D01*
X031863Y023964D01*
X031918Y023925D01*
X031919Y023924D01*
X031981Y023892D01*
X032047Y023871D01*
X032115Y023860D01*
X032185Y023860D01*
X032253Y023871D01*
X032319Y023892D01*
X032381Y023924D01*
X032437Y023964D01*
X032486Y024013D01*
X032525Y024068D01*
X032526Y024069D01*
X032558Y024131D01*
X032579Y024197D01*
X032590Y024265D01*
X032590Y024335D01*
X032579Y024403D01*
X032558Y024469D01*
X032526Y024531D01*
X032486Y024587D01*
X032437Y024636D01*
X032382Y024675D01*
X032381Y024676D01*
X032319Y024708D01*
X032253Y024729D01*
X032185Y024740D01*
X032115Y024740D01*
X032055Y024730D01*
X032091Y024767D01*
X032091Y025067D01*
X032263Y025239D01*
X032663Y025239D01*
X032757Y025333D01*
X032757Y025375D01*
X032843Y025375D01*
X032843Y025333D01*
X032937Y025239D01*
X033463Y025239D01*
X033491Y025267D01*
X033491Y025165D01*
X033555Y025010D01*
X033673Y024892D01*
X033827Y024828D01*
X033994Y024828D01*
X034149Y024892D01*
X034267Y025010D01*
X034331Y025165D01*
X034331Y025332D01*
X034267Y025486D01*
X034331Y025302D02*
X035293Y025302D01*
X035383Y025143D02*
X034322Y025143D01*
X034241Y024985D02*
X038343Y024985D01*
X038363Y024964D02*
X038398Y024940D01*
X038419Y024924D01*
X038481Y024892D01*
X038547Y024871D01*
X038615Y024860D01*
X038685Y024860D01*
X038753Y024871D01*
X038819Y024892D01*
X038881Y024924D01*
X038937Y024964D01*
X038986Y025013D01*
X039010Y025048D01*
X039026Y025069D01*
X039058Y025131D01*
X039079Y025197D01*
X039090Y025265D01*
X039090Y025335D01*
X039079Y025403D01*
X039058Y025469D01*
X039026Y025531D01*
X038986Y025587D01*
X038937Y025636D01*
X038902Y025660D01*
X038881Y025676D01*
X038819Y025708D01*
X038753Y025729D01*
X038685Y025740D01*
X038615Y025740D01*
X038547Y025729D01*
X038481Y025708D01*
X038419Y025676D01*
X038363Y025636D01*
X038314Y025587D01*
X038290Y025552D01*
X038274Y025531D01*
X038242Y025469D01*
X038221Y025403D01*
X038210Y025335D01*
X038210Y025265D01*
X038221Y025197D01*
X038242Y025131D01*
X038274Y025069D01*
X038314Y025013D01*
X038363Y024964D01*
X038398Y024940D02*
X038650Y025300D01*
X038650Y025300D01*
X038902Y025660D01*
X038650Y025300D01*
X039010Y025048D01*
X038650Y025300D01*
X038650Y025300D01*
X038650Y025300D01*
X038290Y025552D01*
X038650Y025300D01*
X038398Y024940D01*
X038429Y024985D02*
X038429Y024985D01*
X038540Y025143D02*
X038540Y025143D01*
X038650Y025300D02*
X038650Y025300D01*
X038651Y025302D02*
X038651Y025302D01*
X038648Y025302D02*
X038648Y025302D01*
X038762Y025460D02*
X038762Y025460D01*
X038873Y025619D02*
X038873Y025619D01*
X038954Y025619D02*
X039027Y025619D01*
X039061Y025460D02*
X039185Y025460D01*
X039090Y025302D02*
X039344Y025302D01*
X039502Y025143D02*
X039062Y025143D01*
X038874Y025143D02*
X038874Y025143D01*
X038957Y024985D02*
X039661Y024985D01*
X039723Y024826D02*
X037175Y024826D01*
X037295Y024707D02*
X037295Y024707D01*
X037305Y024668D02*
X039723Y024668D01*
X039723Y024509D02*
X037348Y024509D01*
X037337Y024351D02*
X039794Y024351D01*
X039723Y024192D02*
X037294Y024192D01*
X037135Y024034D02*
X039723Y024034D01*
X039723Y023875D02*
X035830Y023875D01*
X035791Y024426D02*
X035806Y024438D01*
X035824Y024447D01*
X035842Y024453D01*
X035862Y024455D01*
X036837Y024455D01*
X036525Y024826D02*
X032091Y024826D01*
X032091Y024985D02*
X033581Y024985D01*
X033500Y025143D02*
X032167Y025143D01*
X032270Y025586D02*
X032285Y025598D01*
X032303Y025607D01*
X032321Y025613D01*
X032341Y025615D01*
X032400Y025615D01*
X033200Y025615D01*
X033543Y025615D01*
X033614Y025586D02*
X033900Y025300D01*
X033900Y025275D01*
X033901Y025265D01*
X033905Y025256D01*
X033911Y025249D01*
X034114Y025619D02*
X035293Y025619D01*
X035293Y025777D02*
X033762Y025777D01*
X033750Y025790D02*
X033750Y025790D01*
X033519Y025936D02*
X035276Y025936D01*
X035273Y026094D02*
X033577Y026094D01*
X033577Y026253D02*
X035273Y026253D01*
X035273Y026411D02*
X033577Y026411D01*
X033577Y026303D02*
X033577Y026525D01*
X033565Y026571D01*
X033541Y026612D01*
X033507Y026645D01*
X033466Y026669D01*
X033421Y026681D01*
X033218Y026681D01*
X033218Y026303D01*
X033577Y026303D01*
X033565Y026570D02*
X035386Y026570D01*
X035632Y026570D02*
X035668Y026570D01*
X035668Y026581D02*
X035668Y026203D01*
X036027Y026203D01*
X036027Y026425D01*
X036015Y026471D01*
X035991Y026512D01*
X035957Y026545D01*
X035916Y026569D01*
X035871Y026581D01*
X035668Y026581D01*
X035668Y026411D02*
X035632Y026411D01*
X035632Y026253D02*
X035668Y026253D01*
X036027Y026253D02*
X036073Y026253D01*
X036073Y026411D02*
X036027Y026411D01*
X035914Y026570D02*
X036186Y026570D01*
X036432Y026570D02*
X036468Y026570D01*
X036468Y026581D02*
X036468Y026203D01*
X036827Y026203D01*
X036827Y026425D01*
X036815Y026471D01*
X036791Y026512D01*
X036757Y026545D01*
X036716Y026569D01*
X036671Y026581D01*
X036468Y026581D01*
X036468Y026411D02*
X036432Y026411D01*
X036432Y026253D02*
X036468Y026253D01*
X036827Y026253D02*
X037451Y026253D01*
X037588Y026390D02*
X037588Y026390D01*
X037609Y026411D02*
X036827Y026411D01*
X036714Y026570D02*
X037745Y026570D01*
X037636Y026438D02*
X037636Y026438D01*
X037758Y026221D02*
X037773Y026233D01*
X037791Y026242D01*
X037809Y026248D01*
X037829Y026250D01*
X037741Y025777D02*
X038868Y025777D01*
X038409Y025936D02*
X038391Y025936D01*
X038346Y025619D02*
X037707Y025619D01*
X037591Y025460D02*
X038239Y025460D01*
X038210Y025302D02*
X037142Y025302D01*
X037204Y025327D02*
X037204Y025327D01*
X037082Y025544D02*
X037067Y025532D01*
X037049Y025523D01*
X037031Y025517D01*
X037011Y025515D01*
X036901Y025777D02*
X036807Y025777D01*
X036824Y025936D02*
X036929Y025936D01*
X036827Y026094D02*
X037037Y026094D01*
X036073Y026094D02*
X036027Y026094D01*
X036024Y025936D02*
X036076Y025936D01*
X036093Y025777D02*
X036007Y025777D01*
X035917Y025143D02*
X036183Y025143D01*
X036593Y024895D02*
X036593Y024895D01*
X036850Y024964D02*
X036850Y024964D01*
X036717Y025143D02*
X038238Y025143D01*
X038421Y025460D02*
X038421Y025460D01*
X040071Y024914D02*
X040083Y024899D01*
X040092Y024881D01*
X040098Y024863D01*
X040100Y024843D01*
X040100Y024685D01*
X040135Y024650D01*
X040400Y024650D01*
X040500Y024550D01*
X040500Y023900D01*
X040642Y023758D01*
X040900Y023758D01*
X040503Y023558D02*
X040326Y023558D01*
X039846Y023558D02*
X038735Y023558D01*
X038716Y023569D02*
X038671Y023581D01*
X038468Y023581D01*
X038468Y023203D01*
X038827Y023203D01*
X038827Y023425D01*
X038815Y023471D01*
X038791Y023512D01*
X038757Y023545D01*
X038716Y023569D01*
X038827Y023400D02*
X039846Y023400D01*
X039759Y023717D02*
X037047Y023717D01*
X037080Y023558D02*
X037315Y023558D01*
X037223Y023400D02*
X037080Y023400D01*
X037080Y023241D02*
X037223Y023241D01*
X037223Y023083D02*
X037080Y023083D01*
X037080Y022924D02*
X037229Y022924D01*
X037243Y022766D02*
X037080Y022766D01*
X037080Y022607D02*
X037243Y022607D01*
X037243Y022449D02*
X037080Y022449D01*
X037080Y022290D02*
X037243Y022290D01*
X037045Y022132D02*
X038210Y022132D01*
X038210Y021973D02*
X037723Y021973D01*
X037770Y021815D02*
X038210Y021815D01*
X038167Y021656D02*
X037770Y021656D01*
X037742Y021498D02*
X037699Y021498D01*
X038100Y021250D02*
X037220Y021250D01*
X036529Y021430D02*
X036517Y021415D01*
X036508Y021397D01*
X036502Y021379D01*
X036500Y021359D01*
X036529Y021429D02*
X036550Y021450D01*
X036550Y022374D01*
X036579Y022445D02*
X036635Y022500D01*
X036635Y023250D01*
X036850Y023936D02*
X036850Y023937D01*
X037107Y024005D02*
X037107Y024005D01*
X037582Y023558D02*
X037618Y023558D01*
X037618Y023581D02*
X037618Y023203D01*
X037977Y023203D01*
X037977Y023425D01*
X037965Y023471D01*
X037941Y023512D01*
X037907Y023545D01*
X037866Y023569D01*
X037821Y023581D01*
X037618Y023581D01*
X037618Y023400D02*
X037582Y023400D01*
X037582Y023241D02*
X037618Y023241D01*
X037977Y023241D02*
X038073Y023241D01*
X038073Y023083D02*
X037977Y023083D01*
X037971Y022924D02*
X038079Y022924D01*
X038093Y022766D02*
X037957Y022766D01*
X037637Y022500D02*
X037624Y022502D01*
X037611Y022507D01*
X037600Y022515D01*
X038450Y022515D01*
X038450Y022500D01*
X038974Y022500D01*
X039574Y023100D01*
X039277Y023241D02*
X038827Y023241D01*
X038827Y023083D02*
X039218Y023083D01*
X039059Y022924D02*
X038821Y022924D01*
X038807Y022766D02*
X038901Y022766D01*
X038450Y022500D02*
X038450Y021641D01*
X038421Y021571D02*
X038100Y021250D01*
X038458Y021181D02*
X040700Y021181D01*
X040478Y021022D02*
X040441Y021022D01*
X040150Y020750D02*
X040850Y020750D01*
X040568Y020388D02*
X040362Y020388D01*
X039655Y020071D02*
X041500Y020071D01*
X041500Y019913D02*
X039655Y019913D01*
X039655Y019754D02*
X041500Y019754D01*
X041500Y019596D02*
X039655Y019596D01*
X039655Y019437D02*
X041500Y019437D01*
X041500Y019279D02*
X039655Y019279D01*
X039655Y019120D02*
X041500Y019120D01*
X041500Y018962D02*
X039655Y018962D01*
X039655Y018803D02*
X041500Y018803D01*
X041500Y018645D02*
X039655Y018645D01*
X039655Y018486D02*
X041500Y018486D01*
X041500Y018328D02*
X039655Y018328D01*
X039655Y018169D02*
X041500Y018169D01*
X041500Y018011D02*
X039655Y018011D01*
X039655Y017852D02*
X041500Y017852D01*
X041500Y017694D02*
X039655Y017694D01*
X039655Y017535D02*
X041500Y017535D01*
X041500Y017377D02*
X039655Y017377D01*
X039655Y017218D02*
X041500Y017218D01*
X041500Y017060D02*
X039655Y017060D01*
X039655Y016901D02*
X041500Y016901D01*
X041500Y016743D02*
X039655Y016743D01*
X039655Y016584D02*
X041500Y016584D01*
X041500Y016426D02*
X039640Y016426D01*
X039722Y016267D02*
X041500Y016267D01*
X041500Y016109D02*
X039881Y016109D01*
X040039Y015950D02*
X041500Y015950D01*
X041500Y015792D02*
X040198Y015792D01*
X040356Y015633D02*
X041500Y015633D01*
X041500Y015475D02*
X040440Y015475D01*
X040440Y015316D02*
X041500Y015316D01*
X041500Y015158D02*
X040440Y015158D01*
X040440Y014999D02*
X041500Y014999D01*
X041500Y014841D02*
X040440Y014841D01*
X040440Y014682D02*
X041500Y014682D01*
X041500Y014524D02*
X040440Y014524D01*
X040440Y014365D02*
X041500Y014365D01*
X041500Y014207D02*
X040440Y014207D01*
X040440Y014048D02*
X041500Y014048D01*
X041500Y013890D02*
X040440Y013890D01*
X040440Y013731D02*
X041500Y013731D01*
X041500Y013573D02*
X040440Y013573D01*
X040440Y013414D02*
X041500Y013414D01*
X041500Y013256D02*
X040490Y013256D01*
X040436Y013097D02*
X041500Y013097D01*
X041500Y012939D02*
X037928Y012939D01*
X037870Y013221D02*
X037885Y013233D01*
X037903Y013242D01*
X037921Y013248D01*
X037941Y013250D01*
X037725Y013414D02*
X035990Y013414D01*
X035990Y013573D02*
X039960Y013573D01*
X039960Y013731D02*
X035990Y013731D01*
X035990Y013890D02*
X039960Y013890D01*
X039960Y014048D02*
X035990Y014048D01*
X035990Y014207D02*
X036071Y014207D01*
X036071Y014206D02*
X036112Y014183D01*
X036158Y014170D01*
X036300Y014170D01*
X036300Y014508D01*
X036300Y014845D01*
X036158Y014845D01*
X036112Y014833D01*
X036071Y014809D01*
X036038Y014776D01*
X036014Y014735D01*
X036002Y014689D01*
X036002Y014508D01*
X036300Y014508D01*
X036300Y014508D01*
X036300Y014845D01*
X036442Y014845D01*
X036488Y014833D01*
X036529Y014809D01*
X036562Y014776D01*
X036586Y014735D01*
X036598Y014689D01*
X036598Y014508D01*
X036300Y014508D01*
X036300Y014508D01*
X036300Y014508D01*
X036002Y014508D01*
X036002Y014327D01*
X036014Y014281D01*
X036038Y014240D01*
X036071Y014206D01*
X036002Y014365D02*
X035990Y014365D01*
X035990Y014524D02*
X036002Y014524D01*
X035990Y014682D02*
X036002Y014682D01*
X035990Y014841D02*
X036140Y014841D01*
X036300Y014841D02*
X036300Y014841D01*
X036300Y014682D02*
X036300Y014682D01*
X036300Y014524D02*
X036300Y014524D01*
X036300Y014508D02*
X036598Y014508D01*
X036598Y014327D01*
X036586Y014281D01*
X036562Y014240D01*
X036529Y014206D01*
X036488Y014183D01*
X036442Y014170D01*
X036300Y014170D01*
X036300Y014508D01*
X036300Y014508D01*
X036300Y014365D02*
X036300Y014365D01*
X036300Y014207D02*
X036300Y014207D01*
X036529Y014207D02*
X037350Y014207D01*
X037251Y014365D02*
X036598Y014365D01*
X036598Y014524D02*
X037230Y014524D01*
X037271Y014682D02*
X036598Y014682D01*
X036460Y014841D02*
X037397Y014841D01*
X037445Y014999D02*
X035990Y014999D01*
X035990Y015158D02*
X037445Y015158D01*
X037445Y015316D02*
X036578Y015316D01*
X036578Y015475D02*
X037445Y015475D01*
X037445Y015633D02*
X036597Y015633D01*
X036638Y015792D02*
X036684Y015792D01*
X036376Y016100D02*
X037015Y016100D01*
X036701Y016426D02*
X036638Y016426D01*
X036638Y016584D02*
X037372Y016584D01*
X037371Y016426D02*
X037329Y016426D01*
X037213Y016743D02*
X036132Y016743D01*
X036290Y016901D02*
X037055Y016901D01*
X037018Y017060D02*
X036449Y017060D01*
X036607Y017218D02*
X037018Y017218D01*
X037018Y017377D02*
X036766Y017377D01*
X036924Y017535D02*
X037091Y017535D01*
X036938Y017549D02*
X036938Y017549D01*
X036990Y017694D02*
X037249Y017694D01*
X036750Y017741D02*
X036748Y017721D01*
X036742Y017703D01*
X036733Y017685D01*
X036721Y017670D01*
X036404Y017694D02*
X036166Y017694D01*
X036166Y017535D02*
X036246Y017535D01*
X035196Y018421D02*
X035181Y018433D01*
X035163Y018442D01*
X035145Y018448D01*
X035125Y018450D01*
X034800Y018450D01*
X034229Y019021D01*
X034159Y019050D02*
X031100Y019050D01*
X033332Y019754D02*
X033368Y019754D01*
X033368Y019913D02*
X033332Y019913D01*
X033700Y019754D02*
X033743Y019754D01*
X034448Y019142D02*
X034664Y019142D01*
X034758Y019236D01*
X034758Y019295D01*
X034893Y019295D01*
X034893Y019252D01*
X034931Y019214D01*
X034909Y019192D01*
X034885Y019151D01*
X034873Y019106D01*
X034873Y018884D01*
X035232Y018884D01*
X035232Y018847D01*
X034873Y018847D01*
X034873Y018716D01*
X034448Y019142D01*
X034469Y019120D02*
X034877Y019120D01*
X034873Y018962D02*
X034628Y018962D01*
X034786Y018803D02*
X034873Y018803D01*
X034893Y019279D02*
X034758Y019279D01*
X034230Y019021D02*
X034215Y019033D01*
X034197Y019042D01*
X034179Y019048D01*
X034159Y019050D01*
X034100Y020735D02*
X034111Y020743D01*
X034124Y020748D01*
X034137Y020750D01*
X033520Y021656D02*
X032680Y021656D01*
X032400Y022015D02*
X032276Y022015D01*
X032205Y022045D02*
X032050Y022200D01*
X031426Y022200D01*
X031727Y021815D02*
X032043Y021815D01*
X032120Y021656D02*
X031727Y021656D01*
X032205Y022044D02*
X032220Y022032D01*
X032238Y022023D01*
X032256Y022017D01*
X032276Y022015D01*
X032400Y022015D02*
X033339Y022015D01*
X033410Y022045D02*
X033465Y022100D01*
X033410Y022044D02*
X033395Y022032D01*
X033377Y022023D01*
X033359Y022017D01*
X033339Y022015D01*
X033109Y022290D02*
X032757Y022290D01*
X032777Y022449D02*
X033174Y022449D01*
X033570Y022607D02*
X032777Y022607D01*
X032777Y022703D02*
X032777Y022925D01*
X032765Y022971D01*
X032741Y023012D01*
X032707Y023045D01*
X032666Y023069D01*
X032621Y023081D01*
X032418Y023081D01*
X032418Y022703D01*
X032777Y022703D01*
X032777Y022766D02*
X033570Y022766D01*
X033570Y022924D02*
X032777Y022924D01*
X032418Y022924D02*
X032382Y022924D01*
X032382Y022766D02*
X032418Y022766D01*
X032023Y022766D02*
X029000Y022766D01*
X029000Y022924D02*
X030703Y022924D01*
X030628Y023250D02*
X031000Y023250D01*
X031358Y023241D02*
X033520Y023241D01*
X033500Y023379D02*
X033500Y023379D01*
X033425Y023400D02*
X031358Y023400D01*
X031314Y023558D02*
X033131Y023558D01*
X033240Y023449D02*
X033240Y023449D01*
X033029Y023717D02*
X030377Y023717D01*
X030377Y023875D02*
X032034Y023875D01*
X031985Y024034D02*
X031985Y024034D01*
X031800Y024034D02*
X030377Y024034D01*
X030377Y024192D02*
X031722Y024192D01*
X031713Y024351D02*
X030356Y024351D01*
X030609Y024635D02*
X030000Y024635D01*
X029982Y024642D02*
X029400Y024642D01*
X029122Y024668D02*
X029000Y024668D01*
X029000Y024826D02*
X029122Y024826D01*
X029000Y024985D02*
X029710Y024985D01*
X029982Y024643D02*
X029989Y024642D01*
X029995Y024640D01*
X030000Y024635D01*
X030290Y024985D02*
X030660Y024985D01*
X030709Y025143D02*
X029000Y025143D01*
X029000Y025302D02*
X030709Y025302D01*
X031065Y025050D02*
X030679Y024664D01*
X030680Y024664D02*
X030665Y024652D01*
X030647Y024643D01*
X030629Y024637D01*
X030609Y024635D01*
X030849Y024494D02*
X030849Y024494D01*
X030864Y024509D02*
X031763Y024509D01*
X031812Y024509D02*
X031812Y024509D01*
X031907Y024668D02*
X031022Y024668D01*
X030883Y024528D02*
X030883Y024528D01*
X030024Y023906D02*
X030024Y023300D01*
X029727Y023241D02*
X029000Y023241D01*
X029000Y023083D02*
X029779Y023083D01*
X029727Y023400D02*
X029668Y023400D01*
X029698Y023558D02*
X029784Y023558D01*
X030024Y023906D02*
X030022Y023922D01*
X030018Y023938D01*
X030010Y023952D01*
X030000Y023965D01*
X029623Y024034D02*
X029000Y024034D01*
X029000Y024192D02*
X029623Y024192D01*
X029610Y024351D02*
X029644Y024351D01*
X029190Y024351D02*
X029000Y024351D01*
X029000Y024509D02*
X029122Y024509D01*
X029112Y023875D02*
X029000Y023875D01*
X029000Y023717D02*
X029102Y023717D01*
X029102Y023558D02*
X029000Y023558D01*
X029000Y023400D02*
X029132Y023400D01*
X029400Y023400D02*
X029400Y023400D01*
X029400Y023558D02*
X029400Y023558D01*
X029400Y023658D02*
X029400Y023658D01*
X029400Y023717D02*
X029400Y023717D01*
X029400Y023875D02*
X029400Y023875D01*
X030264Y023522D02*
X030280Y023507D01*
X030332Y023558D01*
X030536Y023300D02*
X030557Y023279D01*
X030572Y023267D01*
X030590Y023258D01*
X030608Y023252D01*
X030628Y023250D01*
X030291Y023083D02*
X030269Y023083D01*
X029934Y022449D02*
X029897Y022449D01*
X029897Y022290D02*
X029934Y022290D01*
X029934Y022132D02*
X029897Y022132D01*
X029897Y021973D02*
X029934Y021973D01*
X029934Y021815D02*
X029897Y021815D01*
X030918Y021656D02*
X030973Y021656D01*
X031800Y020735D02*
X032550Y020735D01*
X032023Y022924D02*
X031297Y022924D01*
X031358Y023083D02*
X033554Y023083D01*
X033934Y023464D02*
X033505Y023894D01*
X033985Y024034D02*
X034570Y024034D01*
X034918Y024192D02*
X033919Y024192D01*
X033761Y024351D02*
X035070Y024351D01*
X035070Y024509D02*
X032537Y024509D01*
X032587Y024351D02*
X033239Y024351D01*
X033081Y024192D02*
X032578Y024192D01*
X032500Y024034D02*
X033015Y024034D01*
X033049Y024160D02*
X033049Y024160D01*
X032979Y023900D02*
X032979Y023900D01*
X032986Y023875D02*
X032266Y023875D01*
X032325Y024192D02*
X032325Y024192D01*
X032181Y024351D02*
X032181Y024351D01*
X032068Y024351D02*
X032068Y024351D01*
X032083Y024192D02*
X032083Y024192D01*
X032279Y024509D02*
X032279Y024509D01*
X032377Y024668D02*
X032377Y024668D01*
X032393Y024668D02*
X035570Y024668D01*
X035791Y024425D02*
X035250Y023885D01*
X035326Y023250D02*
X035306Y023248D01*
X035288Y023242D01*
X035270Y023233D01*
X035255Y023221D01*
X034657Y023215D02*
X034637Y023213D01*
X034619Y023207D01*
X034601Y023198D01*
X034586Y023186D01*
X034100Y023435D02*
X034005Y023435D01*
X033985Y023437D01*
X033967Y023443D01*
X033949Y023452D01*
X033934Y023464D01*
X034100Y022765D02*
X034111Y022757D01*
X034124Y022752D01*
X034137Y022750D01*
X034136Y022747D01*
X034135Y022744D01*
X035971Y022495D02*
X035983Y022480D01*
X035992Y022462D01*
X035998Y022444D01*
X036000Y022424D01*
X036550Y022374D02*
X036552Y022394D01*
X036558Y022412D01*
X036567Y022430D01*
X036579Y022445D01*
X037637Y022500D02*
X038450Y022500D01*
X038432Y023241D02*
X038468Y023241D01*
X038468Y023400D02*
X038432Y023400D01*
X038432Y023558D02*
X038468Y023558D01*
X038165Y023558D02*
X037885Y023558D01*
X037977Y023400D02*
X038073Y023400D01*
X040086Y023100D02*
X040086Y024002D01*
X040100Y024015D01*
X040900Y024509D02*
X040900Y024509D01*
X040900Y024668D02*
X040900Y024668D01*
X040900Y024742D02*
X040900Y025080D01*
X040900Y024742D01*
X040900Y024742D01*
X040900Y024826D02*
X040900Y024826D01*
X040900Y024985D02*
X040900Y024985D01*
X040623Y024985D02*
X040440Y024985D01*
X040563Y024826D02*
X040602Y024826D01*
X038450Y021641D02*
X038448Y021621D01*
X038442Y021603D01*
X038433Y021585D01*
X038421Y021570D01*
X036691Y020750D02*
X036671Y020752D01*
X036653Y020758D01*
X036635Y020767D01*
X036620Y020779D01*
X038435Y019437D02*
X039175Y019437D01*
X039175Y019279D02*
X038458Y019279D01*
X038458Y019120D02*
X039175Y019120D01*
X039175Y018962D02*
X038458Y018962D01*
X038209Y017535D02*
X039175Y017535D01*
X039175Y017377D02*
X038282Y017377D01*
X038282Y017218D02*
X039175Y017218D01*
X039175Y017060D02*
X038282Y017060D01*
X038245Y016901D02*
X039175Y016901D01*
X039175Y016743D02*
X038087Y016743D01*
X037928Y016584D02*
X039175Y016584D01*
X039160Y016426D02*
X037999Y016426D01*
X038041Y016267D02*
X039160Y016267D01*
X039208Y016109D02*
X038041Y016109D01*
X038041Y015950D02*
X039361Y015950D01*
X039519Y015792D02*
X038016Y015792D01*
X037925Y015633D02*
X039678Y015633D01*
X039836Y015475D02*
X037925Y015475D01*
X037925Y015316D02*
X039960Y015316D01*
X039960Y015158D02*
X037925Y015158D01*
X037925Y014999D02*
X039960Y014999D01*
X039960Y014841D02*
X039932Y014841D01*
X039650Y014841D02*
X039650Y014841D01*
X039650Y014940D02*
X039468Y014940D01*
X039210Y014682D01*
X038029Y014682D01*
X038070Y014524D02*
X039210Y014524D01*
X039210Y014500D02*
X039650Y014500D01*
X039650Y014500D01*
X039650Y014500D01*
X039650Y014940D01*
X039650Y014682D02*
X039650Y014682D01*
X039650Y014524D02*
X039650Y014524D01*
X039650Y014500D02*
X039210Y014500D01*
X039210Y014682D01*
X039210Y014500D02*
X039210Y014318D01*
X039468Y014060D01*
X039650Y014060D01*
X039650Y014500D01*
X039650Y014365D02*
X039650Y014365D01*
X039650Y014207D02*
X039650Y014207D01*
X039321Y014207D02*
X037950Y014207D01*
X038049Y014365D02*
X039210Y014365D01*
X039368Y014841D02*
X037925Y014841D01*
X037685Y014576D02*
X037685Y016100D01*
X037679Y016105D01*
X037650Y016176D02*
X037650Y017200D01*
X037650Y016176D02*
X037652Y016156D01*
X037658Y016138D01*
X037667Y016120D01*
X037679Y016105D01*
X037353Y015792D02*
X037347Y015792D01*
X036376Y016100D02*
X036356Y016102D01*
X036338Y016108D01*
X036320Y016117D01*
X036305Y016129D01*
X036306Y016129D02*
X036301Y016134D01*
X036300Y016131D02*
X036300Y015492D01*
X036022Y015475D02*
X035990Y015475D01*
X035990Y015633D02*
X036005Y015633D01*
X035990Y015316D02*
X036022Y015316D01*
X035510Y015316D02*
X035478Y015316D01*
X035478Y015475D02*
X035510Y015475D01*
X035495Y015633D02*
X035510Y015633D01*
X035200Y015492D02*
X035200Y016131D01*
X035200Y016133D01*
X035199Y016134D01*
X035160Y016150D02*
X034485Y016150D01*
X034841Y016426D02*
X034862Y016426D01*
X034862Y016584D02*
X034078Y016584D01*
X033800Y016187D02*
X033802Y016174D01*
X033807Y016161D01*
X033815Y016150D01*
X034097Y015792D02*
X034203Y015792D01*
X034055Y015633D02*
X034903Y015633D01*
X034922Y015475D02*
X034055Y015475D01*
X034055Y015316D02*
X034922Y015316D01*
X034862Y015792D02*
X034766Y015792D01*
X035160Y016150D02*
X035171Y016149D01*
X035181Y016146D01*
X035191Y016141D01*
X035199Y016134D01*
X035510Y015158D02*
X034055Y015158D01*
X034055Y014999D02*
X035510Y014999D01*
X035510Y014841D02*
X035360Y014841D01*
X035342Y014845D02*
X035200Y014845D01*
X035058Y014845D01*
X035012Y014833D01*
X034971Y014809D01*
X034938Y014776D01*
X034914Y014735D01*
X034902Y014689D01*
X034902Y014508D01*
X035200Y014508D01*
X035200Y014845D01*
X035200Y014508D01*
X035200Y014508D01*
X035498Y014508D01*
X035498Y014689D01*
X035486Y014735D01*
X035462Y014776D01*
X035429Y014809D01*
X035388Y014833D01*
X035342Y014845D01*
X035200Y014841D02*
X035200Y014841D01*
X035200Y014682D02*
X035200Y014682D01*
X035200Y014524D02*
X035200Y014524D01*
X035200Y014508D02*
X035200Y014508D01*
X035200Y014508D01*
X035498Y014508D01*
X035498Y014327D01*
X035486Y014281D01*
X035462Y014240D01*
X035429Y014206D01*
X035388Y014183D01*
X035342Y014170D01*
X035200Y014170D01*
X035200Y014508D01*
X034902Y014508D01*
X034902Y014327D01*
X034914Y014281D01*
X034938Y014240D01*
X034971Y014206D01*
X035012Y014183D01*
X035058Y014170D01*
X035200Y014170D01*
X035200Y014508D01*
X035200Y014508D01*
X035200Y014365D02*
X035200Y014365D01*
X035200Y014207D02*
X035200Y014207D01*
X035429Y014207D02*
X035510Y014207D01*
X035498Y014365D02*
X035510Y014365D01*
X035498Y014524D02*
X035510Y014524D01*
X035498Y014682D02*
X035510Y014682D01*
X035040Y014841D02*
X034055Y014841D01*
X034120Y014682D02*
X034902Y014682D01*
X034902Y014524D02*
X034120Y014524D01*
X034109Y014365D02*
X034902Y014365D01*
X034971Y014207D02*
X033950Y014207D01*
X033940Y014048D02*
X035510Y014048D01*
X035510Y013890D02*
X033879Y013890D01*
X033874Y013885D02*
X033874Y013885D01*
X033888Y013899D02*
X033888Y013899D01*
X033720Y013731D02*
X035510Y013731D01*
X035510Y013573D02*
X033562Y013573D01*
X033403Y013414D02*
X035412Y013414D01*
X035254Y013256D02*
X033245Y013256D01*
X033671Y014020D02*
X033683Y014035D01*
X033692Y014053D01*
X033698Y014071D01*
X033700Y014091D01*
X033786Y014636D02*
X033798Y014651D01*
X033807Y014669D01*
X033813Y014687D01*
X033815Y014707D01*
X035750Y013454D02*
X035748Y013434D01*
X035742Y013416D01*
X035733Y013398D01*
X035721Y013383D01*
X035857Y013179D02*
X035857Y013179D01*
X035933Y013256D02*
X037566Y013256D01*
X037408Y013097D02*
X035774Y013097D01*
X035616Y012939D02*
X036945Y012939D01*
X036832Y012780D02*
X035457Y012780D01*
X035299Y012622D02*
X036795Y012622D01*
X036814Y012463D02*
X035140Y012463D01*
X034982Y012305D02*
X036902Y012305D01*
X037598Y012305D02*
X041500Y012305D01*
X041500Y012463D02*
X037686Y012463D01*
X037705Y012622D02*
X041500Y012622D01*
X041500Y012780D02*
X037769Y012780D01*
X035938Y013261D02*
X035938Y013261D01*
X037656Y014505D02*
X037668Y014520D01*
X037677Y014538D01*
X037683Y014556D01*
X037685Y014576D01*
X037655Y014505D02*
X037650Y014500D01*
X036300Y016131D02*
X036300Y016133D01*
X036301Y016134D01*
X039400Y016500D02*
X039408Y016511D01*
X039413Y016524D01*
X039415Y016537D01*
X039400Y016291D02*
X039402Y016271D01*
X039408Y016253D01*
X039417Y016235D01*
X039429Y016220D01*
X040200Y013341D02*
X040202Y013321D01*
X040208Y013303D01*
X040217Y013285D01*
X040229Y013270D01*
X039975Y010720D02*
X039925Y010720D01*
X039580Y010561D02*
X041500Y010561D01*
X040655Y009927D02*
X040269Y009927D01*
X040100Y009650D02*
X041000Y009650D01*
X040080Y009671D02*
X040065Y009683D01*
X040047Y009692D01*
X040029Y009698D01*
X040009Y009700D01*
X040272Y008976D02*
X040435Y008976D01*
X040320Y008818D02*
X040593Y008818D01*
X040752Y008659D02*
X040320Y008659D01*
X040297Y008501D02*
X040910Y008501D01*
X040960Y008342D02*
X040732Y008342D01*
X041200Y008509D02*
X041198Y008529D01*
X041192Y008547D01*
X041183Y008565D01*
X041171Y008580D01*
X040068Y008342D02*
X039832Y008342D01*
X039168Y008342D02*
X038882Y008342D01*
X038907Y008184D02*
X039143Y008184D01*
X037830Y008256D02*
X037828Y008236D01*
X037822Y008218D01*
X037813Y008200D01*
X037801Y008185D01*
X037620Y008671D02*
X037635Y008683D01*
X037653Y008692D01*
X037671Y008698D01*
X037691Y008700D01*
X037830Y009200D02*
X035635Y009200D01*
X035635Y010000D01*
X035635Y010800D01*
X035635Y011600D01*
X036230Y010403D02*
X037306Y010403D01*
X037280Y010244D02*
X036230Y010244D01*
X036230Y010086D02*
X037280Y010086D01*
X037020Y009927D02*
X036230Y009927D01*
X036230Y009769D02*
X037020Y009769D01*
X037020Y009610D02*
X036230Y009610D01*
X034984Y009610D02*
X034947Y009610D01*
X034947Y009452D02*
X034984Y009452D01*
X034984Y009293D02*
X034947Y009293D01*
X034947Y009769D02*
X034984Y009769D01*
X034984Y009927D02*
X034947Y009927D01*
X034947Y010086D02*
X034984Y010086D01*
X034984Y010244D02*
X034947Y010244D01*
X033562Y011224D02*
X033562Y011362D01*
X033560Y011382D01*
X033554Y011400D01*
X033545Y011418D01*
X033533Y011433D01*
X030700Y011100D02*
X030700Y010350D01*
X030700Y009600D01*
X029208Y010086D02*
X029000Y010086D01*
X029000Y010244D02*
X029106Y010244D01*
X029092Y010403D02*
X029000Y010403D01*
X029000Y010561D02*
X029155Y010561D01*
X029137Y011671D02*
X029000Y011671D01*
X029000Y011829D02*
X029092Y011829D01*
X029119Y011988D02*
X029000Y011988D01*
X029000Y012146D02*
X029240Y012146D01*
X037830Y009700D02*
X038209Y009700D01*
X038279Y009729D02*
X038500Y009950D01*
X038500Y010924D01*
X039179Y010614D02*
X039167Y010599D01*
X039158Y010581D01*
X039152Y010563D01*
X039150Y010543D01*
X038280Y009729D02*
X038265Y009717D01*
X038247Y009708D01*
X038229Y009702D01*
X038209Y009700D01*
X033760Y024351D02*
X033760Y024351D01*
X033500Y024421D02*
X033500Y024421D01*
X032874Y025302D02*
X032726Y025302D01*
X032271Y025586D02*
X031735Y025050D01*
X031805Y025460D02*
X029000Y025460D01*
X029000Y025619D02*
X031964Y025619D01*
X032043Y025777D02*
X029000Y025777D01*
X029000Y025936D02*
X032081Y025936D01*
X032023Y026094D02*
X029000Y026094D01*
X029000Y026253D02*
X032023Y026253D01*
X032023Y026411D02*
X029000Y026411D01*
X029282Y026570D02*
X032035Y026570D01*
X032382Y026570D02*
X032418Y026570D01*
X032418Y026681D02*
X032418Y026303D01*
X032777Y026303D01*
X032777Y026525D01*
X032765Y026571D01*
X032741Y026612D01*
X032707Y026645D01*
X032666Y026669D01*
X032621Y026681D01*
X032418Y026681D01*
X032418Y026411D02*
X032382Y026411D01*
X032777Y026411D02*
X032823Y026411D01*
X032823Y026253D02*
X032777Y026253D01*
X032777Y026094D02*
X032823Y026094D01*
X032881Y025936D02*
X032719Y025936D01*
X033182Y026411D02*
X033218Y026411D01*
X033218Y026570D02*
X033182Y026570D01*
X032835Y026570D02*
X032765Y026570D01*
X033543Y025615D02*
X033563Y025613D01*
X033581Y025607D01*
X033599Y025598D01*
X033614Y025586D01*
D22*
X030050Y025900D03*
X040650Y025900D03*
X040650Y018400D03*
X030050Y018400D03*
D23*
X036450Y012600D03*
X040300Y012600D03*
X040850Y021600D03*
D24*
X038700Y016250D03*
X032850Y016150D03*
X029550Y008650D03*
X029550Y007350D03*
D25*
X029450Y009600D03*
X029450Y011100D03*
X029450Y012600D03*
X029450Y014100D03*
X029450Y015600D03*
X029450Y017100D03*
X033300Y019500D03*
X034400Y019500D03*
X036350Y018200D03*
X038100Y018150D03*
X038100Y019150D03*
X038100Y021250D03*
X034400Y017800D03*
X034700Y014450D03*
X032000Y012350D03*
X032050Y010900D03*
X034250Y011250D03*
X041000Y009650D03*
X034700Y006850D03*
X031000Y023250D03*
D26*
X040850Y020750D03*
X037250Y012600D03*
X040300Y011800D03*
D27*
X037650Y017200D03*
X033800Y017200D03*
X030700Y008650D03*
X030700Y007350D03*
D28*
X030700Y009600D03*
X030700Y010350D03*
X030700Y011100D03*
X030700Y011850D03*
X030700Y012600D03*
X030700Y013350D03*
X030700Y014100D03*
X030700Y014850D03*
X030700Y015600D03*
X030700Y016350D03*
X030700Y017100D03*
X029450Y016350D03*
X029450Y014850D03*
X029450Y013350D03*
X029450Y011850D03*
X029450Y010350D03*
M02*
