G75*
%MOIN*%
%OFA0B0*%
%FSLAX24Y24*%
%IPPOS*%
%LPD*%
%AMOC8*
5,1,8,0,0,1.08239X$1,22.5*
%
%ADD10C,0.0520*%
%ADD11OC8,0.0520*%
%ADD12C,0.0160*%
%ADD13C,0.1502*%
%ADD14R,0.0591X0.0591*%
%ADD15R,0.0945X0.0945*%
%ADD16R,0.0396X0.0396*%
%ADD17C,0.0591*%
%ADD18OC8,0.0945*%
%ADD19C,0.0396*%
D10*
X031700Y014550D03*
X037650Y014500D03*
X033505Y023894D03*
X033911Y025248D03*
X032150Y024300D03*
X036837Y024455D03*
X038650Y025300D03*
X037321Y025784D03*
D11*
X039650Y014500D03*
X033700Y014550D03*
D12*
X029000Y006606D02*
X029000Y026494D01*
X029101Y026494D01*
X029286Y026571D01*
X029429Y026714D01*
X029506Y026899D01*
X029506Y027000D01*
X040994Y027000D01*
X040994Y026899D01*
X041071Y026714D01*
X041214Y026571D01*
X041399Y026494D01*
X041500Y026494D01*
X041500Y006100D01*
X029506Y006100D01*
X029506Y006201D01*
X029429Y006386D01*
X029286Y006529D01*
X029101Y006606D01*
X029000Y006606D01*
X029118Y006599D02*
X034342Y006599D01*
X034342Y006586D02*
X034436Y006492D01*
X034964Y006492D01*
X035058Y006586D01*
X035058Y007114D01*
X034964Y007208D01*
X034940Y007208D01*
X034940Y011801D01*
X035070Y011931D01*
X035070Y008817D01*
X035117Y008770D01*
X036283Y008770D01*
X036330Y008817D01*
X036330Y008870D01*
X038383Y008870D01*
X038430Y008917D01*
X038430Y008970D01*
X038970Y008970D01*
X038970Y008917D01*
X039017Y008870D01*
X040383Y008870D01*
X040430Y008917D01*
X040430Y009533D01*
X040383Y009580D01*
X039580Y009580D01*
X039580Y010483D01*
X039538Y010525D01*
X039580Y010567D01*
X039580Y010670D01*
X040033Y010670D01*
X040080Y010717D01*
X040080Y011398D01*
X040209Y011345D01*
X040391Y011345D01*
X040558Y011414D01*
X040686Y011542D01*
X040755Y011709D01*
X040755Y011891D01*
X040686Y012058D01*
X040558Y012186D01*
X040391Y012255D01*
X040209Y012255D01*
X040042Y012186D01*
X039914Y012058D01*
X039845Y011891D01*
X039845Y011709D01*
X039898Y011580D01*
X039630Y011580D01*
X039630Y012283D01*
X039583Y012330D01*
X038617Y012330D01*
X038570Y012283D01*
X038570Y012230D01*
X038530Y012230D01*
X038530Y012233D01*
X038483Y012280D01*
X038330Y012280D01*
X038330Y012283D01*
X038283Y012330D01*
X037624Y012330D01*
X037636Y012342D01*
X037705Y012509D01*
X037705Y012691D01*
X037636Y012858D01*
X037508Y012986D01*
X037341Y013055D01*
X037159Y013055D01*
X036992Y012986D01*
X036864Y012858D01*
X036795Y012691D01*
X036795Y012509D01*
X036864Y012342D01*
X036992Y012214D01*
X037159Y012145D01*
X037220Y012145D01*
X037220Y011417D01*
X037267Y011370D01*
X037920Y011370D01*
X037920Y010667D01*
X037967Y010620D01*
X038170Y010620D01*
X038170Y010080D01*
X037317Y010080D01*
X037270Y010033D01*
X037270Y009980D01*
X036867Y009980D01*
X036820Y009933D01*
X036820Y009767D01*
X036867Y009720D01*
X036870Y009720D01*
X036870Y009480D01*
X036230Y009480D01*
X036230Y011983D01*
X036183Y012030D01*
X035169Y012030D01*
X036957Y013817D01*
X036963Y013823D01*
X037024Y013885D01*
X037038Y013899D01*
X037090Y014024D01*
X037090Y016866D01*
X037388Y016568D01*
X037912Y016568D01*
X038282Y016938D01*
X038282Y017462D01*
X038267Y017477D01*
X038324Y017535D01*
X038338Y017549D01*
X038390Y017674D01*
X038390Y017789D01*
X038382Y017809D01*
X038458Y017886D01*
X038458Y018414D01*
X038364Y018508D01*
X038340Y018508D01*
X038340Y018792D01*
X038364Y018792D01*
X038458Y018886D01*
X038458Y019414D01*
X038364Y019508D01*
X038340Y019508D01*
X038340Y020370D01*
X039170Y020370D01*
X039170Y020367D01*
X039217Y020320D01*
X039933Y020320D01*
X039980Y020367D01*
X039980Y021083D01*
X039933Y021130D01*
X038458Y021130D01*
X038458Y021514D01*
X038364Y021608D01*
X037836Y021608D01*
X037742Y021514D01*
X037742Y021130D01*
X036830Y021130D01*
X036830Y022120D01*
X037033Y022120D01*
X037080Y022167D01*
X037080Y023683D01*
X037033Y023730D01*
X036517Y023730D01*
X036470Y023683D01*
X036470Y023680D01*
X036267Y023680D01*
X036230Y023643D01*
X036230Y023683D01*
X036183Y023730D01*
X035780Y023730D01*
X035780Y023970D01*
X036725Y023970D01*
X036850Y023936D01*
X037107Y024005D01*
X037295Y024193D01*
X037295Y024193D01*
X037364Y024450D01*
X037295Y024707D01*
X037107Y024895D01*
X037107Y024895D01*
X036850Y024964D01*
X036593Y024895D01*
X036428Y024730D01*
X035517Y024730D01*
X035470Y024683D01*
X035470Y024580D01*
X035067Y024580D01*
X035020Y024533D01*
X035020Y024230D01*
X034867Y024230D01*
X034820Y024183D01*
X034820Y024130D01*
X034467Y024130D01*
X034420Y024083D01*
X034420Y024030D01*
X033979Y024030D01*
X033945Y024157D01*
X033757Y024345D01*
X033757Y024345D01*
X033500Y024414D01*
X033243Y024345D01*
X033055Y024157D01*
X033055Y024157D01*
X032986Y023900D01*
X033055Y023643D01*
X033243Y023455D01*
X033243Y023455D01*
X033500Y023386D01*
X033570Y023405D01*
X033570Y022580D01*
X033567Y022580D01*
X033520Y022533D01*
X033520Y021667D01*
X033567Y021620D01*
X033783Y021620D01*
X033830Y021667D01*
X033830Y021670D01*
X034420Y021670D01*
X034420Y021667D01*
X034467Y021620D01*
X034683Y021620D01*
X034730Y021667D01*
X034730Y021920D01*
X035570Y021920D01*
X035570Y021580D01*
X034567Y021580D01*
X034520Y021533D01*
X034520Y021530D01*
X034517Y021530D01*
X034470Y021483D01*
X034470Y021180D01*
X031467Y021180D01*
X031420Y021133D01*
X031420Y020167D01*
X031467Y020120D01*
X034583Y020120D01*
X034630Y020167D01*
X034630Y020420D01*
X036320Y020420D01*
X036320Y020417D01*
X036367Y020370D01*
X037860Y020370D01*
X037860Y019940D01*
X037602Y019940D01*
X037514Y019903D01*
X037447Y019836D01*
X037410Y019748D01*
X037410Y018299D01*
X036647Y017536D01*
X036610Y017448D01*
X036610Y014149D01*
X034497Y012036D01*
X034460Y011948D01*
X034460Y011608D01*
X033986Y011608D01*
X033892Y011514D01*
X033892Y010986D01*
X033986Y010892D01*
X034460Y010892D01*
X034460Y007208D01*
X034436Y007208D01*
X034342Y007114D01*
X034342Y006586D01*
X034342Y006757D02*
X031001Y006757D01*
X030962Y006718D02*
X031332Y007088D01*
X031332Y007110D01*
X032098Y007110D01*
X032186Y007147D01*
X032253Y007214D01*
X032290Y007302D01*
X032290Y010542D01*
X032314Y010542D01*
X032408Y010636D01*
X032408Y011164D01*
X032314Y011258D01*
X032240Y011258D01*
X032240Y011992D01*
X032264Y011992D01*
X032358Y012086D01*
X032358Y012614D01*
X032264Y012708D01*
X031736Y012708D01*
X031642Y012614D01*
X031642Y012086D01*
X031736Y011992D01*
X031760Y011992D01*
X031760Y011232D01*
X031692Y011164D01*
X031692Y010636D01*
X031786Y010542D01*
X031810Y010542D01*
X031810Y007590D01*
X031332Y007590D01*
X031332Y007612D01*
X030962Y007982D01*
X030438Y007982D01*
X030068Y007612D01*
X030068Y007088D01*
X030438Y006718D01*
X030962Y006718D01*
X031160Y006916D02*
X034342Y006916D01*
X034342Y007074D02*
X031318Y007074D01*
X030700Y007350D02*
X032050Y007350D01*
X032050Y010900D01*
X032029Y010921D01*
X032000Y010991D02*
X032000Y012350D01*
X032358Y012305D02*
X034765Y012305D01*
X034924Y012463D02*
X032358Y012463D01*
X032351Y012622D02*
X035082Y012622D01*
X035241Y012780D02*
X031013Y012780D01*
X031004Y012803D02*
X030903Y012904D01*
X030771Y012958D01*
X030629Y012958D01*
X030497Y012904D01*
X030396Y012803D01*
X030342Y012671D01*
X030342Y012529D01*
X030396Y012397D01*
X030497Y012296D01*
X030629Y012242D01*
X030771Y012242D01*
X030903Y012296D01*
X031004Y012397D01*
X031058Y012529D01*
X031058Y012671D01*
X031004Y012803D01*
X031058Y012622D02*
X031649Y012622D01*
X031642Y012463D02*
X031031Y012463D01*
X030911Y012305D02*
X031642Y012305D01*
X031642Y012146D02*
X030910Y012146D01*
X030903Y012154D02*
X030771Y012208D01*
X030629Y012208D01*
X030497Y012154D01*
X030396Y012053D01*
X030342Y011921D01*
X030342Y011779D01*
X030396Y011647D01*
X030497Y011546D01*
X030629Y011492D01*
X030771Y011492D01*
X030903Y011546D01*
X031004Y011647D01*
X031058Y011779D01*
X031058Y011921D01*
X031004Y012053D01*
X030903Y012154D01*
X031031Y011988D02*
X031760Y011988D01*
X031760Y011829D02*
X031058Y011829D01*
X031013Y011671D02*
X031760Y011671D01*
X031760Y011512D02*
X030820Y011512D01*
X030771Y011458D02*
X030629Y011458D01*
X030497Y011404D01*
X030396Y011303D01*
X030342Y011171D01*
X030342Y011029D01*
X030396Y010897D01*
X030497Y010796D01*
X030629Y010742D01*
X030771Y010742D01*
X030903Y010796D01*
X031004Y010897D01*
X031058Y011029D01*
X031058Y011171D01*
X031004Y011303D01*
X030903Y011404D01*
X030771Y011458D01*
X030580Y011512D02*
X029570Y011512D01*
X029521Y011492D02*
X029653Y011546D01*
X029754Y011647D01*
X029808Y011779D01*
X029808Y011921D01*
X029754Y012053D01*
X029653Y012154D01*
X029521Y012208D01*
X029379Y012208D01*
X029247Y012154D01*
X029146Y012053D01*
X029092Y011921D01*
X029092Y011779D01*
X029146Y011647D01*
X029247Y011546D01*
X029379Y011492D01*
X029521Y011492D01*
X029330Y011512D02*
X029000Y011512D01*
X029000Y011354D02*
X030447Y011354D01*
X030352Y011195D02*
X029000Y011195D01*
X029000Y011037D02*
X030342Y011037D01*
X030416Y010878D02*
X029000Y010878D01*
X029000Y010720D02*
X031692Y010720D01*
X031692Y010878D02*
X030984Y010878D01*
X031058Y011037D02*
X031692Y011037D01*
X031723Y011195D02*
X031048Y011195D01*
X030953Y011354D02*
X031760Y011354D01*
X032240Y011354D02*
X033892Y011354D01*
X033892Y011512D02*
X032240Y011512D01*
X032240Y011671D02*
X034460Y011671D01*
X034460Y011829D02*
X032240Y011829D01*
X032240Y011988D02*
X034476Y011988D01*
X034607Y012146D02*
X032358Y012146D01*
X032377Y011195D02*
X033892Y011195D01*
X033892Y011037D02*
X032408Y011037D01*
X032408Y010878D02*
X034460Y010878D01*
X034460Y010720D02*
X032408Y010720D01*
X032334Y010561D02*
X034460Y010561D01*
X034460Y010403D02*
X032290Y010403D01*
X032290Y010244D02*
X034460Y010244D01*
X034460Y010086D02*
X032290Y010086D01*
X032290Y009927D02*
X034460Y009927D01*
X034460Y009769D02*
X032290Y009769D01*
X032290Y009610D02*
X034460Y009610D01*
X034460Y009452D02*
X032290Y009452D01*
X032290Y009293D02*
X034460Y009293D01*
X034460Y009135D02*
X032290Y009135D01*
X032290Y008976D02*
X034460Y008976D01*
X034460Y008818D02*
X032290Y008818D01*
X032290Y008659D02*
X034460Y008659D01*
X034460Y008501D02*
X032290Y008501D01*
X032290Y008342D02*
X034460Y008342D01*
X034460Y008184D02*
X032290Y008184D01*
X032290Y008025D02*
X034460Y008025D01*
X034460Y007867D02*
X032290Y007867D01*
X032290Y007708D02*
X034460Y007708D01*
X034460Y007550D02*
X032290Y007550D01*
X032290Y007391D02*
X034460Y007391D01*
X034460Y007233D02*
X032261Y007233D01*
X031810Y007708D02*
X031236Y007708D01*
X031078Y007867D02*
X031810Y007867D01*
X031810Y008025D02*
X030969Y008025D01*
X030962Y008018D02*
X031332Y008388D01*
X031332Y008912D01*
X030962Y009282D01*
X030869Y009282D01*
X030903Y009296D01*
X031004Y009397D01*
X031058Y009529D01*
X031058Y009671D01*
X031004Y009803D01*
X030903Y009904D01*
X030771Y009958D01*
X030629Y009958D01*
X030497Y009904D01*
X030396Y009803D01*
X030342Y009671D01*
X030342Y009529D01*
X030396Y009397D01*
X030497Y009296D01*
X030531Y009282D01*
X030438Y009282D01*
X030068Y008912D01*
X030068Y008388D01*
X030438Y008018D01*
X030962Y008018D01*
X031128Y008184D02*
X031810Y008184D01*
X031810Y008342D02*
X031286Y008342D01*
X031332Y008501D02*
X031810Y008501D01*
X031810Y008659D02*
X031332Y008659D01*
X031332Y008818D02*
X031810Y008818D01*
X031810Y008976D02*
X031268Y008976D01*
X031110Y009135D02*
X031810Y009135D01*
X031810Y009293D02*
X030895Y009293D01*
X031026Y009452D02*
X031810Y009452D01*
X031810Y009610D02*
X031058Y009610D01*
X031018Y009769D02*
X031810Y009769D01*
X031810Y009927D02*
X030846Y009927D01*
X030771Y009992D02*
X030903Y010046D01*
X031004Y010147D01*
X031058Y010279D01*
X031058Y010421D01*
X031004Y010553D01*
X030903Y010654D01*
X030771Y010708D01*
X030629Y010708D01*
X030497Y010654D01*
X030396Y010553D01*
X030342Y010421D01*
X030342Y010279D01*
X030396Y010147D01*
X030497Y010046D01*
X030629Y009992D01*
X030771Y009992D01*
X030942Y010086D02*
X031810Y010086D01*
X031810Y010244D02*
X031044Y010244D01*
X031058Y010403D02*
X031810Y010403D01*
X031766Y010561D02*
X030995Y010561D01*
X030405Y010561D02*
X029745Y010561D01*
X029754Y010553D02*
X029653Y010654D01*
X029521Y010708D01*
X029379Y010708D01*
X029247Y010654D01*
X029146Y010553D01*
X029092Y010421D01*
X029092Y010279D01*
X029146Y010147D01*
X029247Y010046D01*
X029379Y009992D01*
X029521Y009992D01*
X029653Y010046D01*
X029754Y010147D01*
X029808Y010279D01*
X029808Y010421D01*
X029754Y010553D01*
X029808Y010403D02*
X030342Y010403D01*
X030356Y010244D02*
X029794Y010244D01*
X029692Y010086D02*
X030458Y010086D01*
X030554Y009927D02*
X029000Y009927D01*
X029000Y009769D02*
X030382Y009769D01*
X030342Y009610D02*
X029000Y009610D01*
X029000Y009452D02*
X030374Y009452D01*
X030505Y009293D02*
X029000Y009293D01*
X029000Y009135D02*
X030290Y009135D01*
X030132Y008976D02*
X029000Y008976D01*
X029000Y008818D02*
X030068Y008818D01*
X030068Y008659D02*
X029000Y008659D01*
X029000Y008501D02*
X030068Y008501D01*
X030114Y008342D02*
X029000Y008342D01*
X029000Y008184D02*
X030272Y008184D01*
X030431Y008025D02*
X029000Y008025D01*
X029000Y007867D02*
X030322Y007867D01*
X030164Y007708D02*
X029000Y007708D01*
X029000Y007550D02*
X030068Y007550D01*
X030068Y007391D02*
X029000Y007391D01*
X029000Y007233D02*
X030068Y007233D01*
X030082Y007074D02*
X029000Y007074D01*
X029000Y006916D02*
X030240Y006916D01*
X030399Y006757D02*
X029000Y006757D01*
X029375Y006440D02*
X041500Y006440D01*
X041500Y006282D02*
X029472Y006282D01*
X029506Y006123D02*
X041500Y006123D01*
X041500Y006599D02*
X035058Y006599D01*
X035058Y006757D02*
X041500Y006757D01*
X041500Y006916D02*
X035058Y006916D01*
X035058Y007074D02*
X041500Y007074D01*
X041500Y007233D02*
X034940Y007233D01*
X034940Y007391D02*
X041500Y007391D01*
X041500Y007550D02*
X034940Y007550D01*
X034940Y007708D02*
X041500Y007708D01*
X041500Y007867D02*
X034940Y007867D01*
X034940Y008025D02*
X041500Y008025D01*
X041500Y008184D02*
X034940Y008184D01*
X034940Y008342D02*
X041500Y008342D01*
X041500Y008501D02*
X034940Y008501D01*
X034940Y008659D02*
X041500Y008659D01*
X041500Y008818D02*
X036330Y008818D01*
X036230Y009610D02*
X036870Y009610D01*
X036820Y009769D02*
X036230Y009769D01*
X036230Y009927D02*
X036820Y009927D01*
X036230Y010086D02*
X038170Y010086D01*
X038170Y010244D02*
X036230Y010244D01*
X036230Y010403D02*
X038170Y010403D01*
X038170Y010561D02*
X036230Y010561D01*
X036230Y010720D02*
X037920Y010720D01*
X037920Y010878D02*
X036230Y010878D01*
X036230Y011037D02*
X037920Y011037D01*
X037920Y011195D02*
X036230Y011195D01*
X036230Y011354D02*
X037920Y011354D01*
X037220Y011512D02*
X036230Y011512D01*
X036230Y011671D02*
X037220Y011671D01*
X037220Y011829D02*
X036230Y011829D01*
X036226Y011988D02*
X037220Y011988D01*
X037156Y012146D02*
X035285Y012146D01*
X035444Y012305D02*
X036902Y012305D01*
X036814Y012463D02*
X035602Y012463D01*
X035761Y012622D02*
X036795Y012622D01*
X036832Y012780D02*
X035919Y012780D01*
X036078Y012939D02*
X036945Y012939D01*
X037555Y012939D02*
X040760Y012939D01*
X040760Y012960D02*
X040760Y010008D01*
X040736Y010008D01*
X040642Y009914D01*
X040642Y009386D01*
X040736Y009292D01*
X041264Y009292D01*
X041358Y009386D01*
X041358Y009914D01*
X041264Y010008D01*
X041240Y010008D01*
X041240Y013248D01*
X041203Y013336D01*
X041136Y013403D01*
X041048Y013440D01*
X039049Y013440D01*
X038070Y014419D01*
X038070Y014584D01*
X038006Y014738D01*
X037888Y014856D01*
X037734Y014920D01*
X037566Y014920D01*
X037412Y014856D01*
X037294Y014738D01*
X037230Y014584D01*
X037230Y014416D01*
X037294Y014262D01*
X037412Y014144D01*
X037566Y014080D01*
X037731Y014080D01*
X038717Y013093D01*
X038728Y013083D01*
X038785Y013026D01*
X038799Y013012D01*
X038924Y012960D01*
X040760Y012960D01*
X040760Y012780D02*
X037668Y012780D01*
X037705Y012622D02*
X040760Y012622D01*
X040760Y012463D02*
X037686Y012463D01*
X038309Y012305D02*
X038591Y012305D01*
X038799Y013012D02*
X038799Y013012D01*
X038714Y013097D02*
X036236Y013097D01*
X036395Y013256D02*
X038555Y013256D01*
X038397Y013414D02*
X036553Y013414D01*
X036712Y013573D02*
X038238Y013573D01*
X038080Y013731D02*
X036870Y013731D01*
X037024Y013885D02*
X037024Y013885D01*
X037029Y013890D02*
X037921Y013890D01*
X037763Y014048D02*
X037090Y014048D01*
X037038Y013899D02*
X037038Y013899D01*
X036821Y014021D02*
X034700Y011900D01*
X034700Y006850D01*
X034940Y008818D02*
X035070Y008818D01*
X035070Y008976D02*
X034940Y008976D01*
X034940Y009135D02*
X035070Y009135D01*
X035070Y009293D02*
X034940Y009293D01*
X034940Y009452D02*
X035070Y009452D01*
X035070Y009610D02*
X034940Y009610D01*
X034940Y009769D02*
X035070Y009769D01*
X035070Y009927D02*
X034940Y009927D01*
X034940Y010086D02*
X035070Y010086D01*
X035070Y010244D02*
X034940Y010244D01*
X034940Y010403D02*
X035070Y010403D01*
X035070Y010561D02*
X034940Y010561D01*
X034940Y010720D02*
X035070Y010720D01*
X035070Y010878D02*
X034940Y010878D01*
X034940Y011037D02*
X035070Y011037D01*
X035070Y011195D02*
X034940Y011195D01*
X034940Y011354D02*
X035070Y011354D01*
X035070Y011512D02*
X034940Y011512D01*
X034940Y011671D02*
X035070Y011671D01*
X035070Y011829D02*
X034968Y011829D01*
X034600Y011250D02*
X034250Y011250D01*
X035399Y012939D02*
X030819Y012939D01*
X030771Y012992D02*
X030903Y013046D01*
X031004Y013147D01*
X031058Y013279D01*
X031058Y013421D01*
X031004Y013553D01*
X030903Y013654D01*
X030771Y013708D01*
X030629Y013708D01*
X030497Y013654D01*
X030396Y013553D01*
X030342Y013421D01*
X030342Y013279D01*
X030396Y013147D01*
X030497Y013046D01*
X030629Y012992D01*
X030771Y012992D01*
X030581Y012939D02*
X029000Y012939D01*
X029000Y013097D02*
X029197Y013097D01*
X029146Y013147D02*
X029247Y013046D01*
X029379Y012992D01*
X029521Y012992D01*
X029653Y013046D01*
X029754Y013147D01*
X029808Y013279D01*
X029808Y013421D01*
X029754Y013553D01*
X029653Y013654D01*
X029521Y013708D01*
X029379Y013708D01*
X029247Y013654D01*
X029146Y013553D01*
X029092Y013421D01*
X029092Y013279D01*
X029146Y013147D01*
X029102Y013256D02*
X029000Y013256D01*
X029000Y013414D02*
X029092Y013414D01*
X029166Y013573D02*
X029000Y013573D01*
X029000Y013731D02*
X036192Y013731D01*
X036350Y013890D02*
X030996Y013890D01*
X031004Y013897D02*
X031058Y014029D01*
X031058Y014171D01*
X031004Y014303D01*
X030903Y014404D01*
X030771Y014458D01*
X030629Y014458D01*
X030497Y014404D01*
X030396Y014303D01*
X030342Y014171D01*
X030342Y014029D01*
X030396Y013897D01*
X030497Y013796D01*
X030629Y013742D01*
X030771Y013742D01*
X030903Y013796D01*
X031004Y013897D01*
X031058Y014048D02*
X036509Y014048D01*
X036610Y014207D02*
X033950Y014207D01*
X033874Y014130D02*
X034120Y014376D01*
X034120Y014724D01*
X033874Y014970D01*
X033526Y014970D01*
X033280Y014724D01*
X033280Y014376D01*
X033526Y014130D01*
X033874Y014130D01*
X034109Y014365D02*
X036610Y014365D01*
X036610Y014524D02*
X034120Y014524D01*
X034120Y014682D02*
X036610Y014682D01*
X036610Y014841D02*
X034003Y014841D01*
X033397Y014841D02*
X032032Y014841D01*
X032036Y014837D02*
X031987Y014886D01*
X031931Y014926D01*
X031869Y014958D01*
X031803Y014979D01*
X031735Y014990D01*
X031700Y014990D01*
X031700Y014550D01*
X032140Y014550D01*
X032140Y014585D01*
X032129Y014653D01*
X032108Y014719D01*
X032076Y014781D01*
X032036Y014837D01*
X032120Y014682D02*
X033280Y014682D01*
X033280Y014524D02*
X032140Y014524D01*
X032140Y014515D02*
X032140Y014550D01*
X031700Y014550D01*
X031700Y014550D01*
X031700Y014550D01*
X031700Y014110D01*
X031735Y014110D01*
X031803Y014121D01*
X031869Y014142D01*
X031931Y014174D01*
X031987Y014214D01*
X032036Y014263D01*
X032076Y014319D01*
X032108Y014381D01*
X032129Y014447D01*
X032140Y014515D01*
X032100Y014365D02*
X033291Y014365D01*
X033450Y014207D02*
X031976Y014207D01*
X031700Y014207D02*
X031700Y014207D01*
X031700Y014110D02*
X031700Y014550D01*
X031700Y014550D01*
X031700Y014550D01*
X031260Y014550D01*
X031260Y014585D01*
X031271Y014653D01*
X031292Y014719D01*
X031324Y014781D01*
X031364Y014837D01*
X031413Y014886D01*
X031469Y014926D01*
X031531Y014958D01*
X031597Y014979D01*
X031665Y014990D01*
X031700Y014990D01*
X031700Y014550D01*
X031260Y014550D01*
X031260Y014515D01*
X031271Y014447D01*
X031292Y014381D01*
X031324Y014319D01*
X031364Y014263D01*
X031413Y014214D01*
X031469Y014174D01*
X031531Y014142D01*
X031597Y014121D01*
X031665Y014110D01*
X031700Y014110D01*
X031700Y014365D02*
X031700Y014365D01*
X031700Y014524D02*
X031700Y014524D01*
X031700Y014682D02*
X031700Y014682D01*
X031700Y014841D02*
X031700Y014841D01*
X031368Y014841D02*
X031058Y014841D01*
X031058Y014779D02*
X031004Y014647D01*
X030903Y014546D01*
X030771Y014492D01*
X030629Y014492D01*
X030497Y014546D01*
X030396Y014647D01*
X030342Y014779D01*
X030342Y014921D01*
X030396Y015053D01*
X030497Y015154D01*
X030629Y015208D01*
X030771Y015208D01*
X030903Y015154D01*
X031004Y015053D01*
X031058Y014921D01*
X031058Y014779D01*
X031018Y014682D02*
X031280Y014682D01*
X031260Y014524D02*
X030848Y014524D01*
X030941Y014365D02*
X031300Y014365D01*
X031424Y014207D02*
X031043Y014207D01*
X030552Y014524D02*
X029598Y014524D01*
X029653Y014546D02*
X029754Y014647D01*
X029808Y014779D01*
X029808Y014921D01*
X029754Y015053D01*
X029653Y015154D01*
X029521Y015208D01*
X029379Y015208D01*
X029247Y015154D01*
X029146Y015053D01*
X029092Y014921D01*
X029092Y014779D01*
X029146Y014647D01*
X029247Y014546D01*
X029379Y014492D01*
X029521Y014492D01*
X029653Y014546D01*
X029768Y014682D02*
X030382Y014682D01*
X030342Y014841D02*
X029808Y014841D01*
X029776Y014999D02*
X030374Y014999D01*
X030507Y015158D02*
X029643Y015158D01*
X029257Y015158D02*
X029000Y015158D01*
X029000Y015316D02*
X030478Y015316D01*
X030497Y015296D02*
X030629Y015242D01*
X030771Y015242D01*
X030903Y015296D01*
X031004Y015397D01*
X031058Y015529D01*
X031058Y015671D01*
X031004Y015803D01*
X030903Y015904D01*
X030771Y015958D01*
X030629Y015958D01*
X030497Y015904D01*
X030396Y015803D01*
X030342Y015671D01*
X030342Y015529D01*
X030396Y015397D01*
X030497Y015296D01*
X030364Y015475D02*
X029000Y015475D01*
X029000Y015633D02*
X030342Y015633D01*
X030392Y015792D02*
X029000Y015792D01*
X029000Y015950D02*
X030609Y015950D01*
X030629Y015992D02*
X030771Y015992D01*
X030903Y016046D01*
X031004Y016147D01*
X031058Y016279D01*
X031058Y016421D01*
X031004Y016553D01*
X030903Y016654D01*
X030771Y016708D01*
X030629Y016708D01*
X030497Y016654D01*
X030396Y016553D01*
X030342Y016421D01*
X030342Y016279D01*
X030396Y016147D01*
X030497Y016046D01*
X030629Y015992D01*
X030791Y015950D02*
X036610Y015950D01*
X036610Y015792D02*
X031008Y015792D01*
X031058Y015633D02*
X036610Y015633D01*
X036610Y015475D02*
X031036Y015475D01*
X030922Y015316D02*
X036610Y015316D01*
X036610Y015158D02*
X030893Y015158D01*
X031026Y014999D02*
X036610Y014999D01*
X037090Y014999D02*
X041500Y014999D01*
X041500Y014841D02*
X039932Y014841D01*
X039832Y014940D02*
X039650Y014940D01*
X039650Y014500D01*
X040090Y014500D01*
X040090Y014682D01*
X041500Y014682D01*
X041500Y014524D02*
X040090Y014524D01*
X040090Y014500D02*
X039650Y014500D01*
X039650Y014500D01*
X039650Y014500D01*
X039650Y014060D01*
X039832Y014060D01*
X040090Y014318D01*
X040090Y014500D01*
X040090Y014365D02*
X041500Y014365D01*
X041500Y014207D02*
X039979Y014207D01*
X039650Y014207D02*
X039650Y014207D01*
X039650Y014060D02*
X039650Y014500D01*
X039650Y014500D01*
X039650Y014500D01*
X039210Y014500D01*
X039210Y014682D01*
X038029Y014682D01*
X038070Y014524D02*
X039210Y014524D01*
X039210Y014500D02*
X039210Y014318D01*
X039468Y014060D01*
X039650Y014060D01*
X039650Y014365D02*
X039650Y014365D01*
X039650Y014500D02*
X039210Y014500D01*
X039210Y014365D02*
X038124Y014365D01*
X038283Y014207D02*
X039321Y014207D01*
X039650Y014500D02*
X039650Y014940D01*
X039468Y014940D01*
X039210Y014682D01*
X039368Y014841D02*
X037903Y014841D01*
X037650Y014500D02*
X038921Y013229D01*
X038991Y013200D02*
X041000Y013200D01*
X041000Y009650D01*
X041358Y009610D02*
X041500Y009610D01*
X041500Y009452D02*
X041358Y009452D01*
X041266Y009293D02*
X041500Y009293D01*
X041500Y009135D02*
X040430Y009135D01*
X040430Y009293D02*
X040734Y009293D01*
X040642Y009452D02*
X040430Y009452D01*
X040642Y009610D02*
X039580Y009610D01*
X039580Y009769D02*
X040642Y009769D01*
X040655Y009927D02*
X039580Y009927D01*
X039580Y010086D02*
X040760Y010086D01*
X040760Y010244D02*
X039580Y010244D01*
X039580Y010403D02*
X040760Y010403D01*
X040760Y010561D02*
X039574Y010561D01*
X040080Y010720D02*
X040760Y010720D01*
X040760Y010878D02*
X040080Y010878D01*
X040080Y011037D02*
X040760Y011037D01*
X040760Y011195D02*
X040080Y011195D01*
X040080Y011354D02*
X040188Y011354D01*
X040412Y011354D02*
X040760Y011354D01*
X040760Y011512D02*
X040656Y011512D01*
X040739Y011671D02*
X040760Y011671D01*
X040755Y011829D02*
X040760Y011829D01*
X040760Y011988D02*
X040715Y011988D01*
X040760Y012146D02*
X040598Y012146D01*
X040760Y012305D02*
X039609Y012305D01*
X039630Y012146D02*
X040002Y012146D01*
X039885Y011988D02*
X039630Y011988D01*
X039630Y011829D02*
X039845Y011829D01*
X039861Y011671D02*
X039630Y011671D01*
X041240Y011671D02*
X041500Y011671D01*
X041500Y011829D02*
X041240Y011829D01*
X041240Y011988D02*
X041500Y011988D01*
X041500Y012146D02*
X041240Y012146D01*
X041240Y012305D02*
X041500Y012305D01*
X041500Y012463D02*
X041240Y012463D01*
X041240Y012622D02*
X041500Y012622D01*
X041500Y012780D02*
X041240Y012780D01*
X041240Y012939D02*
X041500Y012939D01*
X041500Y013097D02*
X041240Y013097D01*
X041237Y013256D02*
X041500Y013256D01*
X041500Y013414D02*
X041110Y013414D01*
X041500Y013573D02*
X038917Y013573D01*
X038758Y013731D02*
X041500Y013731D01*
X041500Y013890D02*
X038600Y013890D01*
X038441Y014048D02*
X041500Y014048D01*
X040090Y014682D02*
X039832Y014940D01*
X039650Y014841D02*
X039650Y014841D01*
X039650Y014682D02*
X039650Y014682D01*
X039650Y014524D02*
X039650Y014524D01*
X038991Y013200D02*
X038971Y013202D01*
X038953Y013208D01*
X038935Y013217D01*
X038920Y013229D01*
X037350Y014207D02*
X037090Y014207D01*
X037090Y014365D02*
X037251Y014365D01*
X037230Y014524D02*
X037090Y014524D01*
X037090Y014682D02*
X037271Y014682D01*
X037397Y014841D02*
X037090Y014841D01*
X037090Y015158D02*
X041500Y015158D01*
X041500Y015316D02*
X037090Y015316D01*
X037090Y015475D02*
X041500Y015475D01*
X041500Y015633D02*
X037090Y015633D01*
X037090Y015792D02*
X041500Y015792D01*
X041500Y015950D02*
X037090Y015950D01*
X037090Y016109D02*
X041500Y016109D01*
X041500Y016267D02*
X037090Y016267D01*
X037090Y016426D02*
X041500Y016426D01*
X041500Y016584D02*
X037928Y016584D01*
X038087Y016743D02*
X041500Y016743D01*
X041500Y016901D02*
X038245Y016901D01*
X038282Y017060D02*
X041500Y017060D01*
X041500Y017218D02*
X038282Y017218D01*
X038282Y017377D02*
X041500Y017377D01*
X041500Y017535D02*
X038324Y017535D01*
X038324Y017535D01*
X038338Y017549D02*
X038338Y017549D01*
X038390Y017694D02*
X041500Y017694D01*
X041500Y017852D02*
X038425Y017852D01*
X038458Y018011D02*
X041500Y018011D01*
X041500Y018169D02*
X038458Y018169D01*
X038458Y018328D02*
X041500Y018328D01*
X041500Y018486D02*
X038386Y018486D01*
X038340Y018645D02*
X041500Y018645D01*
X041500Y018803D02*
X038376Y018803D01*
X038458Y018962D02*
X041500Y018962D01*
X041500Y019120D02*
X038458Y019120D01*
X038458Y019279D02*
X041500Y019279D01*
X041500Y019437D02*
X038435Y019437D01*
X038340Y019596D02*
X041500Y019596D01*
X041500Y019754D02*
X038340Y019754D01*
X038340Y019913D02*
X041500Y019913D01*
X041500Y020071D02*
X038340Y020071D01*
X038340Y020230D02*
X041500Y020230D01*
X041500Y020388D02*
X041132Y020388D01*
X041108Y020364D02*
X041236Y020492D01*
X041305Y020659D01*
X041305Y020841D01*
X041236Y021008D01*
X041108Y021136D01*
X040941Y021205D01*
X040759Y021205D01*
X040592Y021136D01*
X040464Y021008D01*
X040395Y020841D01*
X040395Y020659D01*
X040464Y020492D01*
X040592Y020364D01*
X040759Y020295D01*
X040941Y020295D01*
X041108Y020364D01*
X041259Y020547D02*
X041500Y020547D01*
X041500Y020705D02*
X041305Y020705D01*
X041296Y020864D02*
X041500Y020864D01*
X041500Y021022D02*
X041222Y021022D01*
X041000Y021181D02*
X041500Y021181D01*
X041500Y021339D02*
X038458Y021339D01*
X038458Y021181D02*
X040700Y021181D01*
X040478Y021022D02*
X039980Y021022D01*
X039980Y020864D02*
X040404Y020864D01*
X040395Y020705D02*
X039980Y020705D01*
X039980Y020547D02*
X040441Y020547D01*
X040568Y020388D02*
X039980Y020388D01*
X041500Y021498D02*
X038458Y021498D01*
X038100Y021250D02*
X038100Y019700D01*
X037650Y019700D01*
X037650Y018241D01*
X037621Y018171D02*
X036850Y017400D01*
X036850Y014091D01*
X036848Y014071D01*
X036842Y014053D01*
X036833Y014035D01*
X036821Y014020D01*
X036033Y013573D02*
X030984Y013573D01*
X031058Y013414D02*
X035875Y013414D01*
X035716Y013256D02*
X031048Y013256D01*
X030953Y013097D02*
X035558Y013097D01*
X032000Y010991D02*
X032002Y010971D01*
X032008Y010953D01*
X032017Y010935D01*
X032029Y010920D01*
X030387Y011671D02*
X029763Y011671D01*
X029808Y011829D02*
X030342Y011829D01*
X030369Y011988D02*
X029781Y011988D01*
X029660Y012146D02*
X030490Y012146D01*
X030489Y012305D02*
X029000Y012305D01*
X029000Y012463D02*
X030369Y012463D01*
X030342Y012622D02*
X029000Y012622D01*
X029000Y012780D02*
X030387Y012780D01*
X030447Y013097D02*
X029703Y013097D01*
X029798Y013256D02*
X030352Y013256D01*
X030342Y013414D02*
X029808Y013414D01*
X029734Y013573D02*
X030416Y013573D01*
X030404Y013890D02*
X029000Y013890D01*
X029000Y014048D02*
X030342Y014048D01*
X030357Y014207D02*
X029000Y014207D01*
X029000Y014365D02*
X030459Y014365D01*
X029302Y014524D02*
X029000Y014524D01*
X029000Y014682D02*
X029132Y014682D01*
X029092Y014841D02*
X029000Y014841D01*
X029000Y014999D02*
X029124Y014999D01*
X029379Y015992D02*
X029521Y015992D01*
X029653Y016046D01*
X029754Y016147D01*
X029808Y016279D01*
X029808Y016421D01*
X029754Y016553D01*
X029653Y016654D01*
X029521Y016708D01*
X029379Y016708D01*
X029247Y016654D01*
X029146Y016553D01*
X029092Y016421D01*
X029092Y016279D01*
X029146Y016147D01*
X029247Y016046D01*
X029379Y015992D01*
X029185Y016109D02*
X029000Y016109D01*
X029000Y016267D02*
X029097Y016267D01*
X029094Y016426D02*
X029000Y016426D01*
X029000Y016584D02*
X029178Y016584D01*
X029000Y016743D02*
X030627Y016743D01*
X030629Y016742D02*
X030771Y016742D01*
X030903Y016796D01*
X031004Y016897D01*
X031058Y017029D01*
X031058Y017171D01*
X031004Y017303D01*
X030903Y017404D01*
X030771Y017458D01*
X030629Y017458D01*
X030497Y017404D01*
X030396Y017303D01*
X030342Y017171D01*
X030342Y017029D01*
X030396Y016897D01*
X030497Y016796D01*
X030629Y016742D01*
X030773Y016743D02*
X033363Y016743D01*
X033205Y016901D02*
X031005Y016901D01*
X031058Y017060D02*
X033168Y017060D01*
X033168Y016938D02*
X033538Y016568D01*
X034062Y016568D01*
X034432Y016938D01*
X034432Y017442D01*
X034664Y017442D01*
X034758Y017536D01*
X034758Y018064D01*
X034664Y018158D01*
X034640Y018158D01*
X034640Y019142D01*
X034664Y019142D01*
X034758Y019236D01*
X034758Y019764D01*
X034664Y019858D01*
X034136Y019858D01*
X034042Y019764D01*
X034042Y019236D01*
X034136Y019142D01*
X034160Y019142D01*
X034160Y018249D01*
X034138Y018301D01*
X034124Y018315D01*
X034095Y018345D01*
X034090Y018349D01*
X034057Y018383D01*
X034057Y018383D01*
X033486Y018953D01*
X033398Y018990D01*
X031240Y018990D01*
X031240Y022892D01*
X031264Y022892D01*
X031358Y022986D01*
X031358Y023514D01*
X031264Y023608D01*
X030736Y023608D01*
X030642Y023514D01*
X030642Y022986D01*
X030736Y022892D01*
X030760Y022892D01*
X030760Y018702D01*
X030797Y018614D01*
X030864Y018547D01*
X030952Y018510D01*
X033251Y018510D01*
X033710Y018051D01*
X033710Y017832D01*
X033538Y017832D01*
X033168Y017462D01*
X033168Y016938D01*
X033168Y017218D02*
X031039Y017218D01*
X030930Y017377D02*
X033168Y017377D01*
X033241Y017535D02*
X029000Y017535D01*
X029000Y017377D02*
X030470Y017377D01*
X030361Y017218D02*
X029000Y017218D01*
X029000Y017060D02*
X030342Y017060D01*
X030395Y016901D02*
X029000Y016901D01*
X029722Y016584D02*
X030428Y016584D01*
X030344Y016426D02*
X029806Y016426D01*
X029803Y016267D02*
X030347Y016267D01*
X030435Y016109D02*
X029715Y016109D01*
X030965Y016109D02*
X036610Y016109D01*
X036610Y016267D02*
X031053Y016267D01*
X031056Y016426D02*
X036610Y016426D01*
X036610Y016584D02*
X034078Y016584D01*
X034237Y016743D02*
X036610Y016743D01*
X036610Y016901D02*
X034395Y016901D01*
X034432Y017060D02*
X036610Y017060D01*
X036610Y017218D02*
X034432Y017218D01*
X034432Y017377D02*
X036610Y017377D01*
X036646Y017535D02*
X034758Y017535D01*
X034758Y017694D02*
X036804Y017694D01*
X036963Y017852D02*
X034758Y017852D01*
X034758Y018011D02*
X037121Y018011D01*
X037280Y018169D02*
X034640Y018169D01*
X034640Y018328D02*
X037410Y018328D01*
X037410Y018486D02*
X034640Y018486D01*
X034640Y018645D02*
X037410Y018645D01*
X037410Y018803D02*
X034640Y018803D01*
X034640Y018962D02*
X037410Y018962D01*
X037410Y019120D02*
X034640Y019120D01*
X034758Y019279D02*
X037410Y019279D01*
X037410Y019437D02*
X034758Y019437D01*
X034758Y019596D02*
X037410Y019596D01*
X037413Y019754D02*
X034758Y019754D01*
X034400Y019500D02*
X034400Y017841D01*
X034371Y017771D02*
X033950Y017350D01*
X033950Y018109D01*
X033921Y018179D02*
X033350Y018750D01*
X031000Y018750D01*
X031000Y023250D01*
X031358Y023241D02*
X033570Y023241D01*
X033570Y023083D02*
X031358Y023083D01*
X031297Y022924D02*
X033570Y022924D01*
X033570Y022766D02*
X031240Y022766D01*
X031240Y022607D02*
X033570Y022607D01*
X033520Y022449D02*
X031240Y022449D01*
X031240Y022290D02*
X033520Y022290D01*
X033520Y022132D02*
X031240Y022132D01*
X031240Y021973D02*
X033520Y021973D01*
X033520Y021815D02*
X031240Y021815D01*
X031240Y021656D02*
X033531Y021656D01*
X033819Y021656D02*
X034431Y021656D01*
X034484Y021498D02*
X031240Y021498D01*
X031240Y021339D02*
X034470Y021339D01*
X034470Y021181D02*
X031240Y021181D01*
X031240Y021022D02*
X031420Y021022D01*
X031420Y020864D02*
X031240Y020864D01*
X031240Y020705D02*
X031420Y020705D01*
X031420Y020547D02*
X031240Y020547D01*
X031240Y020388D02*
X031420Y020388D01*
X031420Y020230D02*
X031240Y020230D01*
X031240Y020071D02*
X037860Y020071D01*
X037860Y020230D02*
X034630Y020230D01*
X034630Y020388D02*
X036349Y020388D01*
X036830Y021181D02*
X037742Y021181D01*
X037742Y021339D02*
X036830Y021339D01*
X036830Y021498D02*
X037742Y021498D01*
X036830Y021656D02*
X041500Y021656D01*
X041500Y021815D02*
X036830Y021815D01*
X036830Y021973D02*
X041500Y021973D01*
X041500Y022132D02*
X037045Y022132D01*
X037080Y022290D02*
X041500Y022290D01*
X041500Y022449D02*
X037080Y022449D01*
X037080Y022607D02*
X041500Y022607D01*
X041500Y022766D02*
X037080Y022766D01*
X037080Y022924D02*
X041500Y022924D01*
X041500Y023083D02*
X037080Y023083D01*
X037080Y023241D02*
X041500Y023241D01*
X041500Y023400D02*
X037080Y023400D01*
X037080Y023558D02*
X041500Y023558D01*
X041500Y023717D02*
X037047Y023717D01*
X037107Y024005D02*
X037107Y024005D01*
X037135Y024034D02*
X041500Y024034D01*
X041500Y024192D02*
X037294Y024192D01*
X037337Y024351D02*
X041500Y024351D01*
X041500Y024509D02*
X037348Y024509D01*
X037305Y024668D02*
X041500Y024668D01*
X041500Y024826D02*
X037175Y024826D01*
X037295Y024707D02*
X037295Y024707D01*
X036850Y024964D02*
X036850Y024964D01*
X036593Y024895D02*
X036593Y024895D01*
X036525Y024826D02*
X029000Y024826D01*
X029000Y024668D02*
X031907Y024668D01*
X031919Y024676D02*
X031863Y024636D01*
X031814Y024587D01*
X031775Y024532D01*
X032150Y024300D01*
X032382Y024675D01*
X032150Y024300D01*
X032150Y024300D01*
X032525Y024068D01*
X032150Y024300D01*
X032150Y024300D01*
X032150Y024300D01*
X031918Y023925D01*
X032150Y024300D01*
X032150Y024300D01*
X031775Y024532D01*
X031774Y024531D01*
X031742Y024469D01*
X031721Y024403D01*
X031710Y024335D01*
X031710Y024265D01*
X031721Y024197D01*
X031742Y024131D01*
X031774Y024069D01*
X031814Y024013D01*
X031863Y023964D01*
X031918Y023925D01*
X031919Y023924D01*
X031981Y023892D01*
X032047Y023871D01*
X032115Y023860D01*
X032185Y023860D01*
X032253Y023871D01*
X032319Y023892D01*
X032381Y023924D01*
X032437Y023964D01*
X032486Y024013D01*
X032525Y024068D01*
X032526Y024069D01*
X032558Y024131D01*
X032579Y024197D01*
X032590Y024265D01*
X032590Y024335D01*
X032579Y024403D01*
X032558Y024469D01*
X032526Y024531D01*
X032486Y024587D01*
X032437Y024636D01*
X032382Y024675D01*
X032381Y024676D01*
X032319Y024708D01*
X032253Y024729D01*
X032185Y024740D01*
X032115Y024740D01*
X032047Y024729D01*
X031981Y024708D01*
X031919Y024676D01*
X031812Y024509D02*
X031812Y024509D01*
X031763Y024509D02*
X029000Y024509D01*
X029000Y024351D02*
X031713Y024351D01*
X031722Y024192D02*
X029000Y024192D01*
X029000Y024034D02*
X031800Y024034D01*
X031985Y024034D02*
X031985Y024034D01*
X032034Y023875D02*
X029000Y023875D01*
X029000Y023717D02*
X033036Y023717D01*
X033055Y023643D02*
X033055Y023643D01*
X033140Y023558D02*
X031314Y023558D01*
X031358Y023400D02*
X033451Y023400D01*
X033500Y023386D02*
X033500Y023386D01*
X033549Y023400D02*
X033570Y023400D01*
X032993Y023875D02*
X032266Y023875D01*
X032500Y024034D02*
X033022Y024034D01*
X032986Y023900D02*
X032986Y023900D01*
X033091Y024192D02*
X032578Y024192D01*
X032587Y024351D02*
X033265Y024351D01*
X033243Y024345D02*
X033243Y024345D01*
X033500Y024414D02*
X033500Y024414D01*
X033735Y024351D02*
X035020Y024351D01*
X035020Y024509D02*
X032537Y024509D01*
X032393Y024668D02*
X035470Y024668D01*
X034829Y024192D02*
X033909Y024192D01*
X033945Y024157D02*
X033945Y024157D01*
X033978Y024034D02*
X034420Y024034D01*
X034149Y024892D02*
X033994Y024828D01*
X033827Y024828D01*
X033673Y024892D01*
X033555Y025010D01*
X033491Y025165D01*
X033491Y025332D01*
X033555Y025486D01*
X033673Y025604D01*
X033827Y025668D01*
X033994Y025668D01*
X034149Y025604D01*
X034267Y025486D01*
X034331Y025332D01*
X034331Y025165D01*
X034267Y025010D01*
X034149Y024892D01*
X034241Y024985D02*
X038343Y024985D01*
X038363Y024964D02*
X038398Y024940D01*
X038419Y024924D01*
X038481Y024892D01*
X038547Y024871D01*
X038615Y024860D01*
X038685Y024860D01*
X038753Y024871D01*
X038819Y024892D01*
X038881Y024924D01*
X038937Y024964D01*
X038986Y025013D01*
X039010Y025048D01*
X039026Y025069D01*
X039058Y025131D01*
X039079Y025197D01*
X039090Y025265D01*
X039090Y025335D01*
X039079Y025403D01*
X039058Y025469D01*
X039026Y025531D01*
X038986Y025587D01*
X038937Y025636D01*
X038902Y025660D01*
X038881Y025676D01*
X038819Y025708D01*
X038753Y025729D01*
X038685Y025740D01*
X038615Y025740D01*
X038547Y025729D01*
X038481Y025708D01*
X038419Y025676D01*
X038363Y025636D01*
X038314Y025587D01*
X038290Y025552D01*
X038274Y025531D01*
X038242Y025469D01*
X038221Y025403D01*
X038210Y025335D01*
X038210Y025265D01*
X038221Y025197D01*
X038242Y025131D01*
X038274Y025069D01*
X038314Y025013D01*
X038363Y024964D01*
X038398Y024940D02*
X038650Y025300D01*
X038650Y025300D01*
X038902Y025660D01*
X038650Y025300D01*
X039010Y025048D01*
X038650Y025300D01*
X038650Y025300D01*
X038650Y025300D01*
X038290Y025552D01*
X038650Y025300D01*
X038398Y024940D01*
X038429Y024985D02*
X038429Y024985D01*
X038540Y025143D02*
X038540Y025143D01*
X038650Y025300D02*
X038650Y025300D01*
X038651Y025302D02*
X038651Y025302D01*
X038648Y025302D02*
X038648Y025302D01*
X038762Y025460D02*
X038762Y025460D01*
X038873Y025619D02*
X038873Y025619D01*
X038954Y025619D02*
X041500Y025619D01*
X041500Y025777D02*
X037741Y025777D01*
X037741Y025700D02*
X037741Y025867D01*
X037677Y026022D01*
X037559Y026140D01*
X037405Y026204D01*
X037238Y026204D01*
X037083Y026140D01*
X036965Y026022D01*
X036901Y025867D01*
X036901Y025700D01*
X036965Y025546D01*
X037083Y025428D01*
X037238Y025364D01*
X037405Y025364D01*
X037559Y025428D01*
X037677Y025546D01*
X037741Y025700D01*
X037707Y025619D02*
X038346Y025619D01*
X038421Y025460D02*
X038421Y025460D01*
X038239Y025460D02*
X037591Y025460D01*
X037713Y025936D02*
X041500Y025936D01*
X041500Y026094D02*
X037605Y026094D01*
X037037Y026094D02*
X029000Y026094D01*
X029000Y025936D02*
X036929Y025936D01*
X036901Y025777D02*
X029000Y025777D01*
X029000Y025619D02*
X033708Y025619D01*
X033544Y025460D02*
X029000Y025460D01*
X029000Y025302D02*
X033491Y025302D01*
X033500Y025143D02*
X029000Y025143D01*
X029000Y024985D02*
X033581Y024985D01*
X034322Y025143D02*
X038238Y025143D01*
X038210Y025302D02*
X034331Y025302D01*
X034278Y025460D02*
X037051Y025460D01*
X036935Y025619D02*
X034114Y025619D01*
X032377Y024668D02*
X032377Y024668D01*
X032279Y024509D02*
X032279Y024509D01*
X032181Y024351D02*
X032181Y024351D01*
X032068Y024351D02*
X032068Y024351D01*
X032083Y024192D02*
X032083Y024192D01*
X032325Y024192D02*
X032325Y024192D01*
X030686Y023558D02*
X029000Y023558D01*
X029000Y023400D02*
X030642Y023400D01*
X030642Y023241D02*
X029000Y023241D01*
X029000Y023083D02*
X030642Y023083D01*
X030703Y022924D02*
X029000Y022924D01*
X029000Y022766D02*
X030760Y022766D01*
X030760Y022607D02*
X029000Y022607D01*
X029000Y022449D02*
X030760Y022449D01*
X030760Y022290D02*
X029000Y022290D01*
X029000Y022132D02*
X030760Y022132D01*
X030760Y021973D02*
X029000Y021973D01*
X029000Y021815D02*
X030760Y021815D01*
X030760Y021656D02*
X029000Y021656D01*
X029000Y021498D02*
X030760Y021498D01*
X030760Y021339D02*
X029000Y021339D01*
X029000Y021181D02*
X030760Y021181D01*
X030760Y021022D02*
X029000Y021022D01*
X029000Y020864D02*
X030760Y020864D01*
X030760Y020705D02*
X029000Y020705D01*
X029000Y020547D02*
X030760Y020547D01*
X030760Y020388D02*
X029000Y020388D01*
X029000Y020230D02*
X030760Y020230D01*
X030760Y020071D02*
X029000Y020071D01*
X029000Y019913D02*
X030760Y019913D01*
X030760Y019754D02*
X029000Y019754D01*
X029000Y019596D02*
X030760Y019596D01*
X030760Y019437D02*
X029000Y019437D01*
X029000Y019279D02*
X030760Y019279D01*
X030760Y019120D02*
X029000Y019120D01*
X029000Y018962D02*
X030760Y018962D01*
X030760Y018803D02*
X029000Y018803D01*
X029000Y018645D02*
X030784Y018645D01*
X031240Y019120D02*
X034160Y019120D01*
X034160Y018962D02*
X033466Y018962D01*
X033636Y018803D02*
X034160Y018803D01*
X034160Y018645D02*
X033795Y018645D01*
X033953Y018486D02*
X034160Y018486D01*
X034090Y018349D02*
X034090Y018349D01*
X034112Y018328D02*
X034160Y018328D01*
X034138Y018301D02*
X034138Y018301D01*
X033921Y018180D02*
X033933Y018165D01*
X033942Y018147D01*
X033948Y018129D01*
X033950Y018109D01*
X033710Y018011D02*
X029000Y018011D01*
X029000Y018169D02*
X033592Y018169D01*
X033433Y018328D02*
X029000Y018328D01*
X029000Y018486D02*
X033275Y018486D01*
X033710Y017852D02*
X029000Y017852D01*
X029000Y017694D02*
X033399Y017694D01*
X033800Y017200D02*
X033950Y017350D01*
X034371Y017770D02*
X034383Y017785D01*
X034392Y017803D01*
X034398Y017821D01*
X034400Y017841D01*
X034042Y019279D02*
X031240Y019279D01*
X031240Y019437D02*
X034042Y019437D01*
X034042Y019596D02*
X031240Y019596D01*
X031240Y019754D02*
X034042Y019754D01*
X031240Y019913D02*
X037536Y019913D01*
X038100Y019700D02*
X038100Y019150D01*
X038100Y018150D01*
X038100Y017833D01*
X038129Y017762D02*
X038150Y017741D01*
X038121Y017671D02*
X037650Y017200D01*
X037213Y016743D02*
X037090Y016743D01*
X037090Y016584D02*
X037372Y016584D01*
X038121Y017670D02*
X038133Y017685D01*
X038142Y017703D01*
X038148Y017721D01*
X038150Y017741D01*
X038129Y017762D02*
X038117Y017777D01*
X038108Y017795D01*
X038102Y017813D01*
X038100Y017833D01*
X037621Y018170D02*
X037633Y018185D01*
X037642Y018203D01*
X037648Y018221D01*
X037650Y018241D01*
X033522Y016584D02*
X030972Y016584D01*
X029240Y012146D02*
X029000Y012146D01*
X029000Y011988D02*
X029119Y011988D01*
X029092Y011829D02*
X029000Y011829D01*
X029000Y011671D02*
X029137Y011671D01*
X029155Y010561D02*
X029000Y010561D01*
X029000Y010403D02*
X029092Y010403D01*
X029106Y010244D02*
X029000Y010244D01*
X029000Y010086D02*
X029208Y010086D01*
X040430Y008976D02*
X041500Y008976D01*
X041500Y009769D02*
X041358Y009769D01*
X041345Y009927D02*
X041500Y009927D01*
X041500Y010086D02*
X041240Y010086D01*
X041240Y010244D02*
X041500Y010244D01*
X041500Y010403D02*
X041240Y010403D01*
X041240Y010561D02*
X041500Y010561D01*
X041500Y010720D02*
X041240Y010720D01*
X041240Y010878D02*
X041500Y010878D01*
X041500Y011037D02*
X041240Y011037D01*
X041240Y011195D02*
X041500Y011195D01*
X041500Y011354D02*
X041240Y011354D01*
X041240Y011512D02*
X041500Y011512D01*
X035570Y021656D02*
X034719Y021656D01*
X034730Y021815D02*
X035570Y021815D01*
X036197Y023717D02*
X036503Y023717D01*
X036850Y023936D02*
X036850Y023936D01*
X035780Y023875D02*
X041500Y023875D01*
X041500Y024985D02*
X038957Y024985D01*
X038874Y025143D02*
X038874Y025143D01*
X039062Y025143D02*
X041500Y025143D01*
X041500Y025302D02*
X039090Y025302D01*
X039061Y025460D02*
X041500Y025460D01*
X041500Y026253D02*
X029000Y026253D01*
X029000Y026411D02*
X041500Y026411D01*
X041218Y026570D02*
X029282Y026570D01*
X029435Y026728D02*
X041065Y026728D01*
X041000Y026887D02*
X029500Y026887D01*
D13*
X030050Y025900D03*
X040650Y025900D03*
X040650Y018400D03*
X030050Y018400D03*
D14*
X036450Y012600D03*
X040300Y012600D03*
X040850Y021600D03*
D15*
X038700Y016250D03*
X032850Y016150D03*
X029550Y008650D03*
X029550Y007350D03*
D16*
X029450Y009600D03*
X029450Y011100D03*
X029450Y012600D03*
X029450Y014100D03*
X029450Y015600D03*
X029450Y017100D03*
X033300Y019500D03*
X034400Y019500D03*
X036350Y018200D03*
X038100Y018150D03*
X038100Y019150D03*
X038100Y021250D03*
X034400Y017800D03*
X034700Y014450D03*
X032000Y012350D03*
X032050Y010900D03*
X034250Y011250D03*
X041000Y009650D03*
X034700Y006850D03*
X031000Y023250D03*
D17*
X040850Y020750D03*
X037250Y012600D03*
X040300Y011800D03*
D18*
X037650Y017200D03*
X033800Y017200D03*
X030700Y008650D03*
X030700Y007350D03*
D19*
X030700Y009600D03*
X030700Y010350D03*
X030700Y011100D03*
X030700Y011850D03*
X030700Y012600D03*
X030700Y013350D03*
X030700Y014100D03*
X030700Y014850D03*
X030700Y015600D03*
X030700Y016350D03*
X030700Y017100D03*
X029450Y016350D03*
X029450Y014850D03*
X029450Y013350D03*
X029450Y011850D03*
X029450Y010350D03*
M02*
